<svg xmlns="http://www.w3.org/2000/svg" width="432" height="432"><path fill="#24234D" d="M325.126 89.468a94.544 94.544 0 00-.44-4.692c-.119-.996-.258-2-.443-2.992-.411-2.202-1.053-4.349-2.227-6.24-.492-.793-1.107-1.56-1.959-1.941-.852-.383-1.981-.271-2.554.466-.387.497-.455 1.163-.513 1.791a79.141 79.141 0 01-.725 5.773c-.322 1.929-.742 3.837-1.307 5.69-.723 2.376-1.682 4.662-2.987 6.785-.113.184-.231.366-.353.55-1.119 1.681-2.607 3.334-4.316 4.787-1.693 1.44-3.603 2.684-5.583 3.563-1.995.887-4.062 1.402-6.05 1.379-3.404-4.201-9.355-6.286-14.612-4.889a31.449 31.449 0 003.416-9.79 42.654 42.654 0 01-4.686 4.912 13.903 13.903 0 012.696-7.053 14.054 14.054 0 00-6.306 7.217c-.944-1.125.095-2.748.81-4.031 1.967-3.527 1.257-7.878.491-11.843a23.052 23.052 0 00-4.937 14.254c-1.543-2.23-4.281-3.577-6.989-3.439a12.156 12.156 0 015.119 6.729c-2.424-1.838-5.645-2.584-8.63-1.999 1.558.528 3.139 1.069 4.488 2.01 1.35.941 2.46 2.354 2.653 3.986-3.067.273-6.157.662-9.044 1.734-2.136.793-4.166 1.996-5.736 3.629a1.221 1.221 0 00-.242-.003c-2.047-.274-3.341-.807-4.83-1.894-.263-.192-.53-.399-.811-.627-1.491-1.215-2.742-2.655-3.818-4.232-1.278-1.875-2.305-3.946-3.169-6.086a58.669 58.669 0 01-1.318-3.63c-.697-2.12-1.323-4.275-2.005-6.406-.639-1.996-1.33-3.969-2.176-5.871a31.542 31.542 0 00-1.577-3.106c-.354-.606-.932-1.286-1.611-1.107-.58.152-.813.837-.944 1.423a66.116 66.116 0 00-.81 4.313 96.19 96.19 0 00-.803 7.159c-.252 3.234-.389 6.485-.537 9.729-.028.618-.057 1.237-.087 1.854-.148 3.037-.327 6.092-.124 9.12.051.754.124 1.506.229 2.256.448 3.215 1.502 6.422 3.421 9.016.326.44.675.865 1.052 1.267 1.751 1.864 4.133 3.205 6.631 3.624-2.833 4.351-2.963 10.34-.271 14.789-2.562.204-4.847 2.319-5.246 4.857a11.644 11.644 0 015.672-2.045 13.916 13.916 0 00-1.91 7.021l5.56-2.613a12.02 12.02 0 00-.606 1.219c-2.565 1.65-4.699 4.001-6.252 6.644-2.19 3.727-3.306 8.001-3.848 12.289-.61 4.824-.475 9.937 1.763 14.254s6.996 7.591 11.808 6.888l-4.262-6.393a21.42 21.42 0 014.195-1.116c-1.058-1.835-3.442-2.27-5.462-2.906-.444-.141-.902-.312-1.213-.66-.348-.391-.449-.938-.501-1.459-.372-3.766 1.44-7.61 4.421-9.906 1.438 4.207 3.881 8.066 6.832 11.41 2.086 2.364 4.462 4.507 7.076 6.268a.137.137 0 01.02.013c-1.286 1.199-1.93 3.179-1.767 4.989.227 2.505 1.597 4.74 2.931 6.872 1.476 2.359 2.951 4.72 4.428 7.079a26.108 26.108 0 00-11.765 2.58l4.773.891c.402.075.864.194 1.032.568.129.29.026.627-.076.928l-1.361 3.97a76.758 76.758 0 0115.803-5.303c-1.223-3.15-2.459-6.367-2.635-9.742-.149-2.859.594-5.892 2.435-8.027.616.029 1.234.035 1.851.017a22.342 22.342 0 005.553-.854c2.545 1.958 3.834 5.294 3.984 8.529.16 3.461-.798 6.868-1.813 10.181 3.36-.332 6.75-.664 10.107-.299 3.357.366 6.725 1.486 9.242 3.736a10.553 10.553 0 00-2.791-5.576l5.273-1.335c.164-.042.342-.093.444-.229.173-.229.036-.56-.131-.794-1.095-1.539-3.135-2.02-5.001-2.304a63.193 63.193 0 00-9.509-.717c.673-6.01.843-12.075.519-18.114a53.392 53.392 0 002.392-2.942c3.54-4.643 6.664-9.679 8.505-15.22.203-.611.387-1.229.556-1.853 1.344 2.17 2.034 4.748 1.908 7.3-.166 3.366-1.749 6.64-4.283 8.861a6.402 6.402 0 004.307-.272 13.236 13.236 0 01-2.562 7.015c5.026-.64 8.814-5.099 10.575-9.85 3.234-8.731.71-19.2-5.827-25.754.113.009.227.018.34.025l-1.824-3.853c2.105.446 4.259.662 6.41.643a18.894 18.894 0 00-5.914-3.492c.967-3.441 1.928-6.934 1.979-10.508.034-2.456-.408-4.983-1.48-7.173.611.009 1.221-.005 1.82-.031 1.525-.065 3.073-.185 4.582-.447 1.938-.338 3.811-.912 5.492-1.918 2.147-1.282 3.84-3.2 5.078-5.389.536-.948.988-1.946 1.354-2.967 1.188-3.316 1.551-6.869 1.696-10.391l.008-.187a95.146 95.146 0 00-.161-10.342z"/><path fill="#1D71B8" d="M307.212 99.444c-1.693 1.44-3.603 2.684-5.583 3.563-.16 3.177.471 6.396 1.861 9.258 1.725 3.551 4.604 6.523 8.077 8.395 1.937-.338 3.81-.912 5.491-1.917 2.148-1.283 3.84-3.201 5.078-5.39-3.588-.803-6.955-2.594-9.604-5.145-2.49-2.396-4.329-5.454-5.32-8.764zm-57.971 4.474c-.263-.192-.53-.399-.811-.627-1.491-1.215-2.743-2.655-3.819-4.232-3.853 4.268-9.425 6.98-15.16 7.392.051.754.123 1.506.229 2.256.447 3.215 1.501 6.422 3.421 9.016 3.421-1.354 6.742-2.995 9.622-5.271 2.84-2.248 5.235-5.169 6.518-8.534z"/><path fill="#95C11F" d="M325.126 89.468a7.494 7.494 0 01-1.976.239c-1.643-.018-3.244-.489-4.802-1.011-1.155-.386-2.314-.81-3.39-1.374-.723 2.376-1.682 4.662-2.987 6.785-.113.184-.231.366-.353.55 2.031 1.729 4.178 3.325 6.623 4.363 2.202.936 4.702 1.36 7.037.976l.008-.187a94.879 94.879 0 00-.16-10.341zm-83.592 3.505a59.339 59.339 0 01-1.319-3.63c-.696-2.12-1.322-4.275-2.004-6.406a14.17 14.17 0 01-7.921 2.811c-.252 3.234-.389 6.485-.537 9.729 4.049.602 8.319-.319 11.781-2.504z"/><path fill="#1D71B8" d="M324.29 81.783c-.411-2.202-1.053-4.349-2.227-6.24-.493-.793-1.108-1.559-1.96-1.941-.851-.383-1.981-.271-2.554.466-.386.497-.454 1.163-.513 1.791a79.69 79.69 0 01-.724 5.773c2.458 1.207 5.477 1.264 7.978.151zm-88.207-4.718a31.542 31.542 0 00-1.577-3.106c-.354-.606-.932-1.286-1.611-1.107-.581.152-.813.837-.945 1.423a65.448 65.448 0 00-.809 4.313c.944-.105 1.88-.262 2.788-.541a8.919 8.919 0 002.154-.982z"/><path fill="#95C11F" d="M290.038 169.309c-.792 3.252-2.166 6.405-4.327 8.961-2.162 2.555-5.155 4.479-8.46 5.008-3.538.567-7.166-.474-10.371-2.078-3.632-1.816-7.006-4.51-8.674-8.213s-1.247-8.521 1.742-11.27a9.46 9.46 0 011.858-1.311c.787-.435 1.627-.785 2.475-1.088 5.295-1.889 23.914-4.982 26.029 3.608.514 2.089.237 4.294-.272 6.383zm20.652-26.997a18.894 18.894 0 00-5.914-3.492c.968-3.441 1.928-6.934 1.978-10.508.035-2.456-.408-4.983-1.479-7.173-2.272-.031-4.552-.391-6.309-1.77-1.322-1.038-2.188-2.543-2.921-4.057-.936-1.936-1.978-3.364-2.073-5.512-.096-2.146-.588-3.993.998-5.444.237.02.478.027.718.03-3.404-4.201-9.355-6.286-14.611-4.889a31.421 31.421 0 003.415-9.79 42.56 42.56 0 01-4.685 4.912 13.903 13.903 0 012.696-7.053 14.054 14.054 0 00-6.306 7.217c-.945-1.125.095-2.748.81-4.031 1.966-3.527 1.257-7.878.491-11.843a23.053 23.053 0 00-4.938 14.254c-1.543-2.229-4.28-3.577-6.988-3.439a12.16 12.16 0 015.119 6.729c-2.424-1.838-5.645-2.584-8.63-1.999 1.558.528 3.139 1.069 4.487 2.01 1.35.941 2.461 2.354 2.654 3.986-3.067.273-6.157.662-9.043 1.734-2.137.793-4.168 1.996-5.737 3.629.7.068 1.298.688 1.5 1.382.226.771.071 1.601-.129 2.379a20.725 20.725 0 01-5.211 9.255c-1.669 1.71-3.701 3.155-6.029 3.694a9.346 9.346 0 01-3.661.088c-2.833 4.351-2.963 10.34-.271 14.789-2.563.204-4.847 2.319-5.247 4.857a11.644 11.644 0 015.673-2.045 13.916 13.916 0 00-1.91 7.021l5.56-2.613c-.228.394-.425.803-.606 1.219a12.192 12.192 0 00-1.01 5.314l.906-.913c.867-.872 1.732-1.745 2.6-2.616.306-.309.782-.635 1.128-.371.206.156.239.449.255.708l.332 5.491 5.248-4.589c.252 1.614.367 3.249.344 4.881a79.652 79.652 0 014.437-4.06 23.472 23.472 0 00-.07 4.843 15.24 15.24 0 014.743-5.278l-.765 4.064 3.295-2.963c.197-.177.406-.36.664-.421.79-.184 1.307.815 1.419 1.619.113.804.289 1.817 1.077 2.01 1.073-.655 1.384-2.567 2.638-2.473 1.65.126 1.641 3.659 3.241 3.238 1.069-.28.835-2.04 1.731-2.687.567-.41 1.395-.195 1.936.25.539.445.891 1.074 1.333 1.617.203.249.452.495.771.545.768.12 1.186-.888 1.177-1.664-.009-.777-.073-1.729.587-2.14.767-.476 1.705.263 2.257.977.552.715 1.301 1.563 2.169 1.32 1.208-.34.979-2.221 1.85-3.124.771-.8 2.116-.55 3.104-.041.987.509 1.944 1.236 3.056 1.234-.02-1.099-.037-2.197-.057-3.295-.004-.221.006-.471.171-.615.185-.16.465-.109.701-.045 1.371.375 2.702.896 3.964 1.552.396.206.97.385 1.211.01.121-.188.085-.432.044-.651l-.464-2.495 2.224.166 3.429.257c.113.009.227.018.341.025l-1.824-3.853c2.101.449 4.255.665 6.406.646z"/><path d="M271.682 128.074c8.455-25.914-22.751-20.74-17.142-1.468 1.969 6.764 13.909 11.376 17.142 1.468z"/><path d="M285.936 131.901c7.384-3.479 8.446-22.001-.171-24.31-14.46-4.218-15.2 31.553.171 24.31z"/><path fill="#FFF" d="M286.084 119.016c1.711 3.473.846 8.149-2.825 8.149-7.219 0-1.439-16.798 2.825-8.149zm-23.897.162c3.168-.044 3.058 5.882-.513 5.212-1.908-.36-2.72-5.212.513-5.212z"/><path d="M300.081 126.641c-.1-.791-1.357-.801-1.257 0 .038.296.069.592.098.888a26.192 26.192 0 01-.12 6.078c-.276 1.654-1.088 2.306-2.661 2.717-1.271.332-2.573.527-3.88.657l-.114.013-.265.023c-.606.053-1.214.095-1.821.13-.913.053-1.827.097-2.742.138-.9.033-1.8.06-2.699.089-3.813.126-7.627.189-11.442.19l-.233.001c-.381 0-.762-.006-1.143-.007a378.035 378.035 0 01-3.012-.021c-.494-.007-.987-.017-1.481-.025a325.81 325.81 0 01-2.615-.05c-.532-.013-1.065-.029-1.597-.044a418 418 0 01-2.51-.079l-1.638-.063c-.822-.033-1.644-.068-2.465-.107-.921-.044-1.842-.087-2.763-.138-2.503-.139-5.174-.15-6.621-2.563a6.497 6.497 0 01-.816-2.244 7.894 7.894 0 01-.044-.261c-.225-1.551-.063-3.211.077-4.699.076-.805-1.182-.8-1.256 0-.287 3.031-.418 6.826 1.894 9.088l.067.064a7.037 7.037 0 00.317.28l.095.075c.063.05.129.099.196.146.037.026.075.053.113.078.054.036.108.072.164.107l.071.047c.065.04.132.076.198.112l.009.006c.347.19.707.342 1.08.461 2.002.664 4.317.557 6.385.659.152.008.305.013.457.021.846.041 1.691.076 2.537.111.437.018.872.038 1.309.055l.385.016c.949.034 1.899.063 2.85.09l.46.015.054.001c5.714.156 11.436.174 17.152.045 4.454-.061 9.037-.032 13.428-.757.21-.033.419-.068.628-.106l.027-.005c2.024-.371 4.272-.817 4.903-3.052.725-2.57.57-5.568.241-8.18z"/></svg>