<svg version="1.1" id="Calque_1" xmlns="http://www.w3.org/2000/svg" x="0" y="0" viewBox="0 0 432 432" xml:space="preserve"><style>.st26{fill:#fff}.st33{fill:#78071d}</style><path d="M369.2 137.3c-.1-7.3-.7-14.5-1.5-21.7-.7-6.8-2.5-13.4-5.3-19.7-.4-.9-.8-1.7-1.2-2.5.1-.2.3-.3.4-.5 1.8-2.6 3.5-5.4 4.7-8.4.4-1 .6-2.1.9-3.1 0-1.8-.8-3.2-2.3-3.7-1.3-.4-2.6-.7-3.9-.4-2 .3-4 .6-5.9 1.1-1.2.2-2.4.6-3.6.9-.7-.7-1.4-1.5-2.2-2.1-6.6-6.1-14-10.5-23-11.8-4.9-.7-9.8-.6-14.6.6-6.5 1.6-12.1 4.8-17.3 8.9-2.8 2.2-5.2 4.6-7.4 7.3-.3 0-.6-.1-.9 0-2.9.2-5.9.5-8.8.8-1.6.2-3.1.6-4.6.9-.9.2-1.7.7-2.3 1.4-1.1 1.2-1.1 2.7 0 3.8.3.4.7.7 1.1 1 2.4 1.7 4.7 3.5 7.1 5.2-2.5 4.9-4.4 10-6 15.2-2.1 7.2-3.7 14.5-4.2 22-.3 4.8-.4 9.7-.4 14.5 0 3 .3 6.1.6 9.1.5 5.3 2.1 10.4 4.1 15.3 1.6 4 3.5 7.9 6 11.4 1.5 2.1 3.1 4.1 4.7 6.1.9 1.1 1.9 2.1 3 3 2.6 2.2 5.5 2.5 8.5 1.3 1.4-.5 2.7-1.4 3.7-2.4 1.2-1.2 2.3-2.5 3.5-3.9h.9c6 .5 12 .4 17.9-.1 6.3-.6 12.6-1.5 18.8-2.4.7-.1 1 0 1.4.5 1.3 1.6 2.8 3.2 4.2 4.8.9 1 2 1.6 3.3 2.1 1.6.6 3.2.6 4.8-.2 1.6-.7 3-1.7 4.1-3 1-1.3 2-2.6 2.9-4.1 2.1-3.5 3.5-7.4 4.7-11.3 2.2-6.9 3.8-14 4.2-21.3-.1-4.8-.1-9.7-.1-14.6z" fill="#cfcac7"/><path class="st33" d="M341.6 164.6c.3-.4.5-.7.7-1 1.1-1.6 2.4-2.9 3.9-4 .3-.2.7-.5 1.1-.6 1.9-.8 3.8.1 4.3 2.1.3 1.1.1 2.2-.2 3.2-.1.5-.3 1-.5 1.5-1.2 2.7-2.7 5.3-4.5 7.7-.4.5-.8.9-1.2 1.3-1 .9-2.2 1.2-3.6.8-1.3-.4-2.5-1-3.5-1.9-2-1.7-3.7-3.6-5-5.9-.5-1-.9-2.1-1.2-3.2-.1-.5-.1-1.1 0-1.6.5-2.7 2.8-3.8 5.3-2.6 1.4.7 2.6 1.8 3.6 3.1.2.4.5.7.8 1.1z"/><path class="st26" d="M318.7 87.4c-13.9 1.8-26.4 11.2-29.6 25.1 0 .2-.1.4-.1.5-3.1 17.2 8 34.1 24.2 39.9 14 5 29.9 1.6 36.5-12.5 5.3-11.2 5.3-26.2.1-37.4-5.7-11.8-18.4-17.2-31.1-15.6zm16.5 54.2c-3.7 7.1-12 8.5-19.1 5.7-8.2-3.3-12.9-11.8-11.7-20.4 0-.1 0-.3.1-.4.1-.3.1-.5.2-.7 1.9-7.1 8-11.9 15.3-12.8 6.9-.8 13.5 2.5 16.1 9.1 2.2 5.9 2.1 13.7-.9 19.5z"/><path d="M319.9 112.9c-7.3.9-13.4 5.7-15.3 12.8-.1.2-.1.4-.2.7 0 .1 0 .3-.1.4-1.2 8.6 3.5 17.1 11.7 20.4 7.1 2.9 15.4 1.4 19.1-5.7 3-5.8 3.1-13.6.8-19.6-2.5-6.5-9.1-9.9-16-9z"/><path d="M235.5 211.2c-.6-1.9-1.3-3.7-2.3-5.4-.9-1.5-2-2.8-3.4-3.9-.7-.6-1.5-1-2.3-1.2-.7-7.3-2.6-14.3-5.6-20.9-6.7-15-17.3-26.6-31.4-35-3.4-2-6.8-4-10.5-5.5-1-.4-2-.8-3-1.3-6.6-3.3-13.3-5.5-20.2-6.4.4-2.7 1.1-5.3 2.2-7.8 2.1-4.8 5.1-9 9.7-11.8.2-.1.4-.3.6-.4-.1.3-.1.6-.2.9-.1.6-.1 1.3-.1 1.9.2 1.5 1.3 2.2 2.6 1.7.4-.2.9-.4 1.2-.8.7-.7 1.4-1.4 2-2.1 1.3-1.6 2.4-3.3 3-5.3.5-1.6-.1-2.7-1.7-3.2-2.3-.7-4.6-1.2-6.9-1.4-.6-.1-1.4.1-1.9.3-1.3.6-1.6 2-.7 3.1.5.5 1.1.9 1.7 1.3.1 0 .1.1.2.1-3.2 1.7-6.1 3.7-8.3 6.6-1.5 1.9-2.8 3.8-3.8 6-1.6 3.4-2.7 6.9-2.8 10.7-1.4-.1-2.7-.2-4.1-.2-.1-2.3-.2-4.5-.3-6.8-.1-4.8.3-9.6 1-14.4.9-5.7 2.3-11.3 4.7-16.7 1.2-2.7 2.3-5.3 3.4-8 .2-.4.3-.7.4-1.1.1-.8-.3-1.5-1-1.8-.7-.2-1.4 0-1.9.6-.1.1-.2.3-.3.5l-2.4 4.8c-5.3 10.4-7.7 21.6-7.9 33.6 0 .9 0 2.1.2 3.4.2 2 .4 3.9.7 5.9-1.6.1-3.2.2-4.8.5v-1.3c0-3-.3-5.9-1-8.8-1.1-5.2-3.2-9.9-6.7-14-1.8-2-3.8-3.7-6.3-4.8-2.5-1.2-5.1-1.4-7.7-.7-2.5.7-4.6 2-6.1 4.1-.7.9-1.1 2-1.5 3.1-.3.6 0 1.2.5 1.5.5.3 1 .2 1.5-.3l.6-.6c.4-.5.8-1 1.1-1.5 2-2.8 5.5-3.9 8.7-3 1.9.6 3.4 1.6 4.9 2.9 2.2 2.1 3.9 4.5 5.1 7.2 2.4 5.3 3.5 10.9 3.4 16.7-12.1 2.3-22.8 7.6-32.3 15.5-3.2 2.7-6.1 5.7-8.9 8.7-8.8 9.2-14.7 19.9-17.6 32.3-.9 3.9-1.6 7.9-2.1 11.9-1.9-.4-4 0-5.8 1.4-1.4 1.1-2.5 2.4-3.4 3.9-1 1.7-1.7 3.5-2.3 5.4-1.6 5.5-2.1 11.2-2.3 16.9 0 1 .1 2 .2 3.1.1 3.8.6 7.5 1.5 11.1.6 2.3 1.3 4.6 2.5 6.6 1 1.8 2.4 3.3 4.3 4.3 2.1 1.1 4.2.8 5.8-1 .5-.6 1-1.2 1.3-1.9.4-1 .8-2.1 1.1-3.2.7-3.1.9-6.3 1.1-9.5v-1c3.1 6.1 7.6 11.3 13.5 15.5 5.5 3.9 11.8 6.1 18.4 7.4.7.1 1.3.2 2 .4-.1.1-.2.1-.3.1-1.1.7-2.1 1.5-2.8 2.7-1.1 1.8-1 4.1.3 5.8 1.4 1.7 3.1 2.9 5.2 3.5 3.1.8 6.2 1.1 9.3.8 2.6-.2 5.2-.9 7.5-2.1 1.6-.9 3-1.9 4-3.5.9-1.6 1.1-3.3.5-4.8 1 .1 2.1.1 3.1.2 6.7 0 13.3-.5 19.8-1.4-1.1 1.8-1 3.9.2 5.8 1 1.6 2.5 2.6 4.1 3.4 2.4 1.1 5 1.6 7.6 1.7a29 29 0 009.3-1.2c2.1-.7 3.7-2 5-3.7 1.2-1.7 1.2-4 0-5.8-.8-1.1-1.8-1.9-2.9-2.5-1.3-.7-2.6-1.2-4-1.6 2-.6 4-1.2 6-1.9 6.3-2.2 12.5-4.8 18.1-8.5 5.2-3.4 10-7.3 13.8-12.3.6-.8 1.2-1.6 1.7-2.4.1 1.9.1 3.7.2 5.6.1 3.2.4 6.4 1.1 9.5.3 1.1.6 2.2 1.1 3.2.3.7.8 1.4 1.3 1.9 1.6 1.8 3.7 2.1 5.8 1 1.8-1 3.2-2.5 4.3-4.3 1.2-2.1 1.9-4.3 2.5-6.6.9-3.6 1.4-7.4 1.5-11.1 0-1.1.1-2.1.2-3.1-.7-6.1-1.2-11.7-2.8-17.2z" fill="#d6d39c"/><path class="st33" d="M193.7 225.5c.2-.4.4-.7.6-1 .7-1.2 1.4-2.4 2.5-3.3.4-.4.9-.7 1.4-1 1.5-.8 3.1-.4 4.1.9.9 1.1 1.2 2.5 1 3.9-.5 4-1.8 7.8-3.8 11.3-1.2 2.1-2.8 2.7-5 1.8-.8-.3-1.7-.8-2.4-1.3-1.7-1.4-3.4-2.9-5-4.4-1.5-1.5-2.7-3.2-3.5-5.2-.4-1-.6-1.9-.6-3 .1-2.2 2.1-3.8 4.3-3.4 2.3.4 4.1 1.7 5.5 3.5.3.2.6.6.9 1.2z"/><path class="st26" d="M139.7 181.4c0 3-1.1 5.6-3.3 7.7-1.6 1.5-3.4 2.5-5.5 3.2-3.1.9-6.6-.1-8.6-2.7-1.3-1.7-2.5-3.6-3-5.7-.8-3.5.3-6.5 2.6-9.1 2.8-3.2 7.2-4.4 11-3.1 4.2 1.4 6.8 5.2 6.8 9.7zm24.8-6.3c3 0 6.2 3.1 4.1 7.2-.7 1.4-1.9 2.2-3.3 2.6-1.5.5-3.1-.1-4.1-1.5-1-1.3-1.4-2.8-1.2-4.5.3-2 2.3-3.8 4.5-3.8z"/><path d="M136.4 182.8c0 1-.4 1.9-1.1 2.6-.5.5-1.2.9-1.9 1.1-1.1.3-2.3 0-2.9-.9-.5-.6-.9-1.2-1-1.9-.3-1.2.1-2.2.9-3.1 1-1.1 2.5-1.5 3.8-1.1 1.3.4 2.2 1.7 2.2 3.3zm26.4-2.7c1 0 2.1 1.1 1.4 2.5-.2.5-.6.8-1.1.9-.5.2-1.1 0-1.4-.5-.3-.5-.5-1-.4-1.5 0-.7.7-1.4 1.5-1.4z"/><path d="M131 212.3l10.8 2.1c1.5.3 2.1 1.8 1.2 2.8l-7 7.2-7 7.2c-.9 1-2.8.6-3.3-.6l-3.8-9.3-3.8-9.3c-.5-1.3.7-2.5 2.1-2.2l10.8 2.1zm-28.8-9l9.6 5.4c1.3.7 1.4 2.4.2 3l-8.9 4.7-8.9 4.7c-1.2.6-2.8-.3-2.9-1.6l-.7-10-.7-10c-.1-1.4 1.4-2.1 2.7-1.4l9.6 5.2zm96-3.3l9.3-5.8c1.3-.8 2.8-.1 2.8 1.3l-.2 10.1-.2 10.1c0 1.4-1.6 2.3-2.8 1.8l-9.1-4.2-9.1-4.2c-1.2-.6-1.2-2.3.1-3.1l9.2-6z" fill="#f2f2f2"/><path d="M148.5 217.6c-13.6-.3-26.5-2.6-39-7.4-6.7-2.6-13.1-6.1-18.9-10.3-1.9-1.4-3.7-3-5.6-4.6-.5-.4-.9-.9-1.3-1.4-.6-.8-.5-1.7 0-2.3.5-.6 1.4-.8 2.2-.3 1.2.7 2.4 1.5 3.6 2.3 2.3 1.6 4.5 3.3 6.9 4.8 9.7 6.3 20.3 10.3 31.6 12.5 8.4 1.7 16.8 2.4 25.3 2.1 12.1-.5 23.8-2.9 34.8-7.9 7.6-3.5 14.5-8.1 20.5-14 1.9-1.9 4-3.7 6-5.6.6-.6 1.4-1.1 2.1-1.6.8-.5 1.7-.4 2.3.2.6.6.7 1.5.1 2.3-.9 1.2-1.9 2.3-2.9 3.4-4.2 4.3-8.5 8.4-13.3 11.9-8.4 6-17.7 10.2-27.8 12.7-6.8 1.7-13.8 2.8-20.8 3-2.1 0-4.1.1-5.8.2z"/><path d="M355.5 301.5c-1-7.6-2.9-15-5.6-22.1-2.5-6.5-5.6-12.7-10.1-18l-.3-.3c0-.1.1-.2.1-.3.7-1.8 1.1-3.6 1.2-5.5.2-1.5.2-3.1.4-5-.2-1.6-.3-3.4-.6-5.3-.1-.9-.4-1.7-.8-2.5-1.2-2.2-3.5-2.2-4.9-.1-.7 1.1-1.3 2.3-2 3.3-1.5 2.2-3.3 4.1-5.1 6-5.7-2.8-12.1-3.9-19.2-3.4-4.6.3-9 1.5-13.2 3.3-2.2.9-4.4 2-6.5 3.1-1.8-1.8-3.5-3.7-4.9-5.8-.7-1.1-1.4-2.2-2-3.3-1.3-2.1-3.7-2.1-4.9.1-.4.8-.7 1.6-.8 2.5-.3 1.8-.4 3.7-.6 5.3.1 1.9.2 3.4.4 5 .2 1.5.5 3.1.9 4.5-2.5 2.2-4.9 4.6-7.1 7.3-5.6 6.8-9.9 14.3-13.1 22.4-1.2 3.1-2.3 6.2-3.3 9.3-.9 2.7-1.9 5.3-2.7 8-.9 2.8-1.8 5.6-3.2 8.2-1.7 3.3-3.5 6.5-6.1 9.2l-.4.4c-.7-1.2-1.4-2.3-2.2-3.5-.8-1.1-1.6-2.2-2.5-3.3-.9-1-1.9-1.7-3.4-1.3-1.5.4-2 1.6-2.2 2.9-.5 3.2-.9 6.4-1.3 9.6-1-1.7-2.1-3.4-3.1-5-.8-1.1-1.6-2.2-2.5-3.3-.9-1-1.9-1.7-3.4-1.3-1.5.4-2 1.6-2.2 2.9l-1.2 9.3h-.2c-1-1.6-1.9-3.1-3-4.7-.8-1.1-1.6-2.2-2.5-3.3-.9-1-1.9-1.7-3.4-1.3-1.5.4-2 1.6-2.2 2.9-.5 3.6-1 7.3-1.4 10.9-.3.3-.6.6-.8 1-1.2 1.8-1.5 4.8 1.7 6.1 4.2 1.8 8.5 3.3 12.9 4.6 8.1 2.4 16.5 3.5 24.9 4.6 3.5.5 7.1.9 10.6 1.4 5.3.6 10.5 1.2 15.8 1.8.6.1 1 .3 1.3.8.6 1.2 1.2 2.4 1.9 3.5.5.8 1.1 1.7 1.8 2.4 2 2 4.5 1.9 6.2-.4.9-1.2 1.5-2.5 2.3-3.8.2-.4.3-.8.5-1.1.2 0 .3-.1.4 0 4.7.4 9.5.4 14.2.4 4.6-.1 9.3-.4 13.8-1.5 3.3-.8 6.6-1.7 9.9-2.6.4-.1.8-.3 1.2-.1 2 1.2 3.7 2.7 4.7 4.9.4.8.7 1.6 1.2 2.3 1.2 1.6 3.1 1.9 4.7.7.8-.6 1.5-1.5 1.8-2.4.4-1.2.8-2.4 1.1-3.7.7-2.8 1.3-5.6 2-8.5.4-1.5.9-2.8 2.3-3.7.2-.1.3-.3.5-.4 9.5-8.5 14.5-19.1 15.2-31.8 0-3.9-.4-8.1-1-12.3z" fill="#ed61a0"/><path class="st26" d="M283.1 276c-7.5 1.2-14.2 6.6-15.7 14.2 0 .1 0 .2-.1.3-1.4 9.4 5 18.5 13.9 21.3 7.7 2.5 16.3.3 19.7-7.5 2.7-6.2 2.4-14.4-.7-20.4-3.2-6.3-10.2-9-17.1-7.9zm10 29.2c-1.9 3.9-6.4 4.9-10.3 3.4-4.5-1.6-7.3-6.2-6.7-10.9v-.2c0-.2.1-.3.1-.4.9-3.9 4.1-6.6 8.1-7.2 3.7-.6 7.4 1.1 8.9 4.7 1.3 3.1 1.4 7.4-.1 10.6zm51.9-22.4c-3.3-6.4-10.3-9.1-17.2-8-7.5 1.2-14.2 6.6-15.7 14.2 0 .1 0 .2-.1.3-1.4 9.4 5 18.5 13.9 21.3 7.7 2.5 16.3.3 19.7-7.5 2.8-6.1 2.5-14.3-.6-20.3zm-7.2 21.3c-1.9 3.9-6.4 4.9-10.3 3.4-4.5-1.6-7.3-6.2-6.7-10.9v-.2c0-.2.1-.3.1-.4.9-3.9 4.1-6.6 8.1-7.2 3.7-.6 7.4 1.1 8.9 4.7 1.4 3.1 1.5 7.4-.1 10.6z"/><path d="M284.2 289.8c-4 .6-7.2 3.3-8.1 7.2 0 .1-.1.2-.1.4v.2c-.5 4.7 2.2 9.3 6.7 10.9 3.9 1.4 8.4.5 10.3-3.4 1.5-3.2 1.5-7.5.1-10.7-1.5-3.4-5.2-5.1-8.9-4.6zm53.7 3.6c-1.5-3.5-5.2-5.2-8.9-4.7-4 .6-7.2 3.3-8.1 7.2 0 .1-.1.2-.1.4v.2c-.5 4.7 2.2 9.3 6.7 10.9 3.9 1.4 8.4.5 10.3-3.4 1.6-3.1 1.5-7.4.1-10.6z"/><path class="st33" d="M322.5 336.9c.4-.5.6-.9.9-1.3.9-1.4 2-2.6 3.3-3.5.6-.5 1.4-.8 2.2-1 1.8-.4 3.5.8 3.6 2.7.1.8-.1 1.7-.3 2.5-1.1 3.1-2.6 5.9-4.4 8.6-.3.5-.7.9-1.2 1.4-1.4 1.3-3 1.7-4.8 1-1.4-.5-2.6-1.2-3.6-2.2-2.6-2.6-4.7-5.6-5.8-9.2-.2-.6-.3-1.2-.3-1.9-.1-2.6 2.2-4.2 4.7-3.4 1.3.5 2.4 1.2 3.2 2.3.7.9 1.3 1.9 2 2.9 0 .3.2.6.5 1.1z"/><path d="M299.9 319.2c4.4 5.6 12.9 4.7 16.2-1.5.9-1.7-1.7-3.2-2.5-1.5-2.5 4.7-8.3 5.1-11.6 1-1.2-1.5-3.3.6-2.1 2z"/></svg>