<svg xmlns="http://www.w3.org/2000/svg" width="432" height="432"><path fill="#2DABE3" d="M178.645 132.629a92608.4 92608.4 0 00-13.091-8.07c2.511-2.581 6.789-1.585 10.191-.405l12.435 4.309c-1.278-5.161-5.231-9.341-9.817-12.03-4.587-2.689-9.803-4.078-14.966-5.348 2.391-3.802 7.834-3.566 12.283-4.171.577-.078 1.178-.189 1.637-.549.776-.609.906-1.782.572-2.712-.92-2.552-4.196-3.18-6.907-3.26a77.548 77.548 0 00-12.402.632c3.68-5.352 11.233-6.445 15.91-10.953.52-.501 1.022-1.084 1.144-1.797.391-2.3-2.957-3.15-5.263-2.792a39.391 39.391 0 00-17.701 7.524c.399-7.423 9.856-10.858 12.842-17.667-5.372-.715-11.009.812-15.285 4.142-3.452 2.687-6.319 6.619-10.621 7.419-.144-6.059 4.626-10.999 6.727-16.684.267-.722.405-1.708-.255-2.103-.249-.147-.554-.163-.843-.157-3.663.071-6.803 2.748-8.824 5.804-2.021 3.055-3.25 6.57-5.164 9.693-.447.729-1 1.488-1.826 1.715-.825.228-1.895-.444-1.711-1.28.114-6.617-1.636-12.787-3.657-19.089-4.836 5.996-.683 15.438-4.084 22.35a70.956 70.956 0 00-11.348-14.58c-2.54-2.506-6.16-4.977-9.409-3.501 5.151 5.391 8.488 12.487 9.354 19.894-3.282-2.526-5.81-5.911-9.007-8.544-3.197-2.632-7.521-4.508-11.455-3.213a89.723 89.723 0 0111.275 12.025c.403.519.823 1.166.601 1.783-.278.771-1.312.888-2.128.816-3.925-.343-7.633-1.92-11.504-2.649-3.872-.73-8.324-.426-11.096 2.374a66.908 66.908 0 0118.561 7.476c-4.338 1.813-9.248 1.236-13.927 1.691-4.679.454-9.896 2.624-11.146 7.155a60.728 60.728 0 0120.789-.206c-4.336 2.277-9.392 2.623-14.105 3.952-4.713 1.328-9.588 4.229-10.723 8.993l21.88-2.419c-5.907 2.837-11.844 5.692-17.219 9.441-1.824 1.272-3.721 2.882-3.994 5.089-.058.47-.025.983.266 1.356.625.804 1.893.459 2.822.041l13.713-6.161a47.59 47.59 0 00-12.04 20.489c-.314 1.103-.338 2.681.771 2.97.553.145 1.121-.153 1.583-.49 2.406-1.752 3.61-4.658 5.025-7.277 1.414-2.619 3.463-5.285 6.402-5.755-1.349 4.923-4.109 9.321-6.155 13.997-2.045 4.676-3.375 10.033-1.697 14.854 6.105-4.334 6.67-14.212 13.302-17.688.506-.266 1.093-.489 1.64-.32 1.272.393 1.099 2.24.631 3.487-2.337 6.226-5.4 12.672-4.243 19.22.108.614.359 1.333.968 1.468.499.111.976-.241 1.34-.601 2.372-2.338 3.341-5.697 4.743-8.718 1.402-3.021 3.729-6.076 7.039-6.453a72.025 72.025 0 00-4.667 16.879c-.288 1.936.496 4.817 2.378 4.284.602-.17 1.031-.688 1.389-1.202 1.746-2.513 2.873-5.705 4.424-8.351l4.789 20.069c.164.687.329 1.386.291 2.091-.075 1.36-.893 2.57-1.142 3.91-.248 1.339.529 3.1 1.886 2.976a211.779 211.779 0 00-.441 25.839c-.276.221-.554.461-.877.715-.093-1.671-.676-3.365-1.879-4.528-1.202-1.163-3.082-1.687-4.622-1.034-1.767.748-2.674 2.816-2.636 4.734.038 1.917.831 3.729 1.619 5.478a8.647 8.647 0 00-2.152-.35 9.01 9.01 0 00-.915.012 9.574 9.574 0 00-4.116 1.228 8.8 8.8 0 00-.756.475 8.726 8.726 0 00-2.005 1.935l-.007-.007c-1.187-1.377-3.606-.934-4.779.459-1.176 1.395-1.394 3.349-1.39 5.172.002 1.157.081 2.349.586 3.39 1.078 2.224 3.735 3.14 6.163 3.604 7.348 1.409 14.973.669 22.247-1.08 1.586-.381 3.237-.853 4.395-2.001 1.158-1.148 1.596-3.186.513-4.404-.237-.268-.54-.496-.804-.744-.273-.258-.503-.536-.572-.9-.087-.452.111-.902.247-1.343.537-1.757.009-3.797-1.314-5.071 1.523-.857 1.899-2.288 1.643-4.886-.145-1.461-1.316-2.077-3.209-2.176l.002-.774c-.105-7.743-.301-14.333-.406-22.076-.007-.526-.01-1.073.207-1.553.264-.584.812-.979 1.22-1.474.722-.875.971-2.205.362-3.162-.279-.439-.71-.771-.959-1.228-.301-.552-.299-1.212-.29-1.84l.124-8.79c2.6-4.503 2.259-10.358 5.285-14.587.494-.69 1.139-1.361 1.977-1.497 1.294-.21 2.422.938 2.984 2.123 2.12 4.465-.305 9.766.37 14.662.069.501.201 1.048.614 1.342.936.666 2.073-.518 2.584-1.547a57.964 57.964 0 002.479-5.771l.197 14.064c.01.628.011 1.288-.29 1.84-.249.457-.68.788-.958 1.228-.609.957-.36 2.287.361 3.162.408.494.956.89 1.22 1.474.218.479.214 1.026.207 1.553-.105 7.743-.301 14.333-.406 22.076l.002.774c-1.892.099-3.064.715-3.209 2.176-.257 2.598.119 4.028 1.643 4.886-1.323 1.274-1.852 3.314-1.313 5.071.135.44.333.891.247 1.343-.069.364-.3.643-.573.9-.264.248-.566.477-.804.744-1.083 1.219-.646 3.256.513 4.404s2.81 1.62 4.395 2.001c7.273 1.749 14.899 2.489 22.247 1.08 2.428-.465 5.085-1.381 6.163-3.604.505-1.041.584-2.232.586-3.39.004-1.823-.214-3.777-1.389-5.172-1.174-1.393-3.593-1.836-4.78-.459l-.007.007a8.727 8.727 0 00-2.005-1.935 9.454 9.454 0 00-2.043-1.082 9.574 9.574 0 00-2.829-.621 9.294 9.294 0 00-.914-.012 8.61 8.61 0 00-2.154.35c.789-1.748 1.582-3.561 1.62-5.478.038-1.918-.869-3.986-2.636-4.734-1.54-.652-3.42-.129-4.622 1.034s-1.785 2.857-1.878 4.528c-.323-.254-.602-.494-.878-.715a211.98 211.98 0 00-.441-25.839c1.356.124 2.134-1.637 1.886-2.976-.249-1.34-1.066-2.55-1.141-3.91-.039-.705.126-1.404.29-2.091l1.888-7.911c.258.515.643.914 1.202.984.494.062.979-.174 1.38-.47 2.383-1.762 2.457-5.236 2.303-8.197l-.604-11.603c4.703 1.77 5.8 7.719 7.605 12.409.245.639.543 1.303 1.104 1.695 1.064.745 2.645.136 3.363-.945s.795-2.456.791-3.755a44.932 44.932 0 00-3.38-16.938c2.32-.004 4.402 1.509 5.838 3.331 1.436 1.823 2.385 3.974 3.618 5.938.338.539.731 1.092 1.32 1.333 1.188.486 2.537-.629 2.791-1.887.255-1.258-.238-2.534-.723-3.723l-5.563-13.654a49.18 49.18 0 0111.267 6.829c.678-3.205-1.132-6.422-3.317-8.862s-4.842-4.52-6.468-7.363c4.146-2.492 9.296 1.768 14.104 1.237 1.725-.189 3.663-1.774 2.922-3.344-.284-.584-.867-.957-1.421-1.299z"/><path fill="#2DABE3" d="M119.771 237.438c-.237-.268-.54-.496-.804-.744-2.597 1.478-5.746 2.006-8.774 2.143-4.808.217-9.61-.376-14.387-.968-.413-.051-.852-.112-1.174-.377-.232-.191-.377-.466-.515-.732-.946-1.827-1.368-2.948-2.081-4.461-1.187-1.377-3.606-.934-4.779.459-1.176 1.395-1.394 3.349-1.39 5.172.002 1.157.081 2.349.586 3.39 1.078 2.224 3.735 3.14 6.163 3.604 7.348 1.409 14.973.669 22.247-1.08 1.586-.381 3.237-.853 4.395-2.001 1.159-1.149 1.596-3.186.513-4.405z"/><path fill="#0D71B9" d="M114.815 182.599c-1.325.394-2.193-1.354-2.45-2.713a182.582 182.582 0 01-2.283-15.806c-2.325.785-3.839 2.556-5.082 4.677l4.789 20.069c.164.687.329 1.386.291 2.091-.075 1.36-.893 2.57-1.142 3.91-.248 1.339.529 3.1 1.886 2.976a211.779 211.779 0 00-.441 25.839c.901-.719 1.794-1.23 4.227-1.328.41-.017.793-.014 1.152.005l.002-.774c-.105-7.743-.301-14.333-.406-22.076-.007-.526-.01-1.073.207-1.553.264-.584.812-.979 1.22-1.474.722-.875.971-2.205.362-3.162-.279-.439-.71-.771-.959-1.228-.301-.552-.299-1.212-.29-1.84l.124-8.79-.004.007c-.288.496-.653 1.007-1.203 1.17zm24.405-10.401c-.585-2.394-1.99-4.779-4.29-5.662a58.115 58.115 0 01-2.615 9.611l.197 14.064c.01.628.011 1.288-.29 1.84-.249.457-.68.788-.958 1.228-.609.957-.36 2.287.361 3.162.408.494.956.89 1.22 1.474.218.479.214 1.026.207 1.553-.105 7.743-.301 14.333-.406 22.076l.002.774c.359-.019.743-.021 1.153-.005 2.432.098 3.324.609 4.226 1.328a211.98 211.98 0 00-.441-25.839c1.356.124 2.134-1.637 1.886-2.976-.249-1.34-1.066-2.55-1.141-3.91-.039-.705.126-1.404.29-2.091l1.888-7.911c-.213-.424-.34-.926-.406-1.386-.357-2.436-.298-4.937-.883-7.33z"/><path fill="#2DABE3" d="M128.638 237.438c.237-.268.54-.496.804-.744 2.597 1.478 5.746 2.006 8.775 2.143 4.807.217 9.609-.376 14.385-.968.414-.051.853-.112 1.176-.377.231-.191.376-.466.514-.732.946-1.827 1.368-2.948 2.081-4.461 1.188-1.377 3.606-.934 4.78.459 1.175 1.395 1.393 3.349 1.389 5.172-.002 1.157-.081 2.349-.586 3.39-1.078 2.224-3.735 3.14-6.163 3.604-7.348 1.409-14.974.669-22.247-1.08-1.585-.381-3.236-.853-4.395-2.001s-1.596-3.186-.513-4.405z"/><path fill="#DEDC00" d="M118.971 224.494c-.145-1.461-1.316-2.077-3.209-2.176a12.553 12.553 0 00-1.152-.005c-2.433.098-3.325.609-4.227 1.328-.276.221-.554.461-.877.715-.093-1.671-.676-3.365-1.879-4.528-1.202-1.163-3.082-1.687-4.622-1.034-1.767.748-2.674 2.816-2.636 4.734.038 1.917.831 3.729 1.619 5.478a8.655 8.655 0 00-2.152-.35 14.482 14.482 0 014.13 4.879l.252.427h-.924s-2.671-3.791-4.373-5.294a9.574 9.574 0 00-1.778.284c1.149 1.437 4.027 5.043 4.048 5.178.025.169-.917 0-.917 0a44.483 44.483 0 00-4.182-4.841c-.443.17-.875.373-1.287.607 1.116 1.422 3.018 3.847 3.061 3.937.061.129-.673.298-.673.298a52.984 52.984 0 00-3.144-3.76 8.726 8.726 0 00-2.005 1.935l-.007-.007c.713 1.513 1.135 2.634 2.081 4.461.138.267.282.541.515.732.322.265.761.325 1.174.377 4.776.592 9.579 1.185 14.387.968 3.029-.137 6.178-.665 8.774-2.143-.273-.258-.503-.536-.572-.9-.087-.452.111-.902.247-1.343.537-1.757.009-3.797-1.314-5.071 1.523-.858 1.899-2.288 1.642-4.886zm-4.76 10.622c-1.354 0-2.45-1.159-2.45-2.59s1.097-2.59 2.45-2.59 2.45 1.159 2.45 2.59-1.097 2.59-2.45 2.59zm42.154-2.81a8.727 8.727 0 00-2.005-1.935 53.526 53.526 0 00-3.144 3.76s-.733-.169-.673-.298c.044-.09 1.944-2.515 3.062-3.937a9.454 9.454 0 00-1.288-.607 44.593 44.593 0 00-4.182 4.841s-.942.169-.917 0c.021-.135 2.898-3.741 4.048-5.178a9.574 9.574 0 00-1.778-.284c-1.701 1.503-4.373 5.294-4.373 5.294h-.924l.252-.427a14.474 14.474 0 014.131-4.879 8.61 8.61 0 00-2.154.35c.789-1.748 1.582-3.561 1.62-5.478.038-1.918-.869-3.986-2.636-4.734-1.54-.652-3.42-.129-4.622 1.034s-1.785 2.857-1.878 4.528c-.323-.254-.602-.494-.878-.715-.901-.719-1.794-1.23-4.226-1.328-.41-.017-.794-.014-1.153.005-1.892.099-3.064.715-3.209 2.176-.257 2.598.119 4.028 1.643 4.886-1.323 1.274-1.852 3.314-1.313 5.071.135.44.333.891.247 1.343-.069.364-.3.643-.573.9 2.597 1.478 5.746 2.006 8.774 2.143 4.808.217 9.61-.376 14.386-.968.414-.052.853-.112 1.176-.377.232-.191.376-.466.514-.732.946-1.827 1.368-2.948 2.081-4.461a.027.027 0 00-.008.007zm-22.167 2.81c-1.354 0-2.45-1.159-2.45-2.59s1.097-2.59 2.45-2.59c1.353 0 2.45 1.159 2.45 2.59s-1.097 2.59-2.45 2.59z"/><path fill="#FFF" d="M149.644 125.601c-2.275 1.733-4.275 3.801-6.502 5.597-5.362 4.326-12.138 7.022-19.027 6.982s-13.826-2.955-18.265-8.226c-1.193-1.416-2.252-3.028-3.861-3.945-.671-.382-1.439-.645-1.954-1.222-.515-.576-.604-1.635.064-2.021 2.519-5.276 4.451-9.452 8.207-13.933 3.757-4.479 8.874-8.094 14.671-8.855 2.901-.381 5.883-.033 8.654.904a21.087 21.087 0 0110.455 7.851c3.011 4.316 4.337 9.678 7.629 13.783 0 0 .934.223.968 1.044.034.82-.205 1.437-.479 1.505-.274.069-.56.536-.56.536z"/><path fill="#ABDCF2" d="M125.881 104.13c-6.603.171-9.87 2.353-13.428 7.14-3.557 4.788-4.541 11.62-1.687 16.857.923 1.693 2.231 3.205 3.888 4.194 2.12 1.268 4.652 1.609 7.111 1.852 3.35.33 6.831.51 9.982-.673 4.541-1.703 7.758-6.211 8.391-11.019.632-4.809-1.143-9.772-4.296-13.456-2.193-2.562-5.856-4.895-9.961-4.895z"/><path fill="#FFF" d="M121.591 150.06c.152 1.69.305 3.748.457 5.117.066.594.186 1.274.702 1.575.322.188.719.175 1.092.154l4.4-.233c.336-.018.7-.046.952-.27.332-.296.337-.804.316-1.248l-.256-5.567a39.919 39.919 0 01-7.663.472zm11.153 2.761c.146.771.41 1.657 1.145 1.934.44.166.932.056 1.389-.055l4.487-1.091c.172-.041.358-.093.461-.237.109-.155.085-.365.055-.553a42.532 42.532 0 00-1.427-5.983 41.26 41.26 0 01-6.676 2.178c.138 1.276.325 2.547.566 3.807z"/><path d="M153.378 137.695a9.974 9.974 0 01-3.321-5.476c-.175-.772-1.362-.445-1.188.327a11.1 11.1 0 002.213 4.562 40.178 40.178 0 01-19.021 10.68c-.093.022-.186.046-.278.067a38.423 38.423 0 01-10.313.958 40.09 40.09 0 01-12.317-2.491 39.587 39.587 0 01-11.134-6.375 16.92 16.92 0 001.299-1.438c.49-.613-.376-1.49-.871-.871a16.08 16.08 0 01-4.503 3.893c-.686.398-.065 1.464.621 1.063a17.163 17.163 0 002.546-1.805 41.49 41.49 0 0021.389 9.037c1.028.119 2.061.196 3.092.233 2.566.092 5.134-.07 7.664-.472a41.291 41.291 0 0012.296-4.01 40.934 40.934 0 0010.36-7.558c.191.188.39.371.596.546.599.512 1.474-.354.87-.87z"/><circle cx="125.008" cy="119.473" r="3.335"/><path fill="#24234D" d="M325.126 89.468a94.544 94.544 0 00-.44-4.692c-.119-.996-.258-2-.443-2.992-.411-2.202-1.053-4.349-2.227-6.24-.492-.793-1.107-1.56-1.959-1.941-.852-.383-1.981-.271-2.554.466-.387.497-.455 1.163-.513 1.791a79.141 79.141 0 01-.725 5.773c-.322 1.929-.742 3.837-1.307 5.69-.723 2.376-1.682 4.662-2.987 6.785-.113.184-.231.366-.353.55-1.119 1.681-2.607 3.334-4.316 4.787-1.693 1.44-3.603 2.684-5.583 3.563-1.995.887-4.062 1.402-6.05 1.379-3.404-4.201-9.355-6.286-14.612-4.889a31.449 31.449 0 003.416-9.79 42.654 42.654 0 01-4.686 4.912 13.903 13.903 0 012.696-7.053 14.054 14.054 0 00-6.306 7.217c-.944-1.125.095-2.748.81-4.031 1.967-3.527 1.257-7.878.491-11.843a23.052 23.052 0 00-4.937 14.254c-1.543-2.23-4.281-3.577-6.989-3.439a12.156 12.156 0 015.119 6.729c-2.424-1.838-5.645-2.584-8.63-1.999 1.558.528 3.139 1.069 4.488 2.01 1.35.941 2.46 2.354 2.653 3.986-3.067.273-6.157.662-9.044 1.734-2.136.793-4.166 1.996-5.736 3.629a1.221 1.221 0 00-.242-.003c-2.047-.274-3.341-.807-4.83-1.894-.263-.192-.53-.399-.811-.627-1.491-1.215-2.742-2.655-3.818-4.232-1.278-1.875-2.305-3.946-3.169-6.086a58.669 58.669 0 01-1.318-3.63c-.697-2.12-1.323-4.275-2.005-6.406-.639-1.996-1.33-3.969-2.176-5.871a31.542 31.542 0 00-1.577-3.106c-.354-.606-.932-1.286-1.611-1.107-.58.152-.813.837-.944 1.423a66.116 66.116 0 00-.81 4.313 96.19 96.19 0 00-.803 7.159c-.252 3.234-.389 6.485-.537 9.729-.028.618-.057 1.237-.087 1.854-.148 3.037-.327 6.092-.124 9.12.051.754.124 1.506.229 2.256.448 3.215 1.502 6.422 3.421 9.016.326.44.675.865 1.052 1.267 1.751 1.864 4.133 3.205 6.631 3.624-2.833 4.351-2.963 10.34-.271 14.789-2.562.204-4.847 2.319-5.246 4.857a11.644 11.644 0 015.672-2.045 13.916 13.916 0 00-1.91 7.021l5.56-2.613a12.02 12.02 0 00-.606 1.219c-2.565 1.65-4.699 4.001-6.252 6.644-2.19 3.727-3.306 8.001-3.848 12.289-.61 4.824-.475 9.937 1.763 14.254s6.996 7.591 11.808 6.888l-4.262-6.393a21.42 21.42 0 014.195-1.116c-1.058-1.835-3.442-2.27-5.462-2.906-.444-.141-.902-.312-1.213-.66-.348-.391-.449-.938-.501-1.459-.372-3.766 1.44-7.61 4.421-9.906 1.438 4.207 3.881 8.066 6.832 11.41 2.086 2.364 4.462 4.507 7.076 6.268a.137.137 0 01.02.013c-1.286 1.199-1.93 3.179-1.767 4.989.227 2.505 1.597 4.74 2.931 6.872 1.476 2.359 2.951 4.72 4.428 7.079a26.108 26.108 0 00-11.765 2.58l4.773.891c.402.075.864.194 1.032.568.129.29.026.627-.076.928l-1.361 3.97a76.758 76.758 0 0115.803-5.303c-1.223-3.15-2.459-6.367-2.635-9.742-.149-2.859.594-5.892 2.435-8.027.616.029 1.234.035 1.851.017a22.342 22.342 0 005.553-.854c2.545 1.958 3.834 5.294 3.984 8.529.16 3.461-.798 6.868-1.813 10.181 3.36-.332 6.75-.664 10.107-.299 3.357.366 6.725 1.486 9.242 3.736a10.553 10.553 0 00-2.791-5.576l5.273-1.335c.164-.042.342-.093.444-.229.173-.229.036-.56-.131-.794-1.095-1.539-3.135-2.02-5.001-2.304a63.193 63.193 0 00-9.509-.717c.673-6.01.843-12.075.519-18.114a53.392 53.392 0 002.392-2.942c3.54-4.643 6.664-9.679 8.505-15.22.203-.611.387-1.229.556-1.853 1.344 2.17 2.034 4.748 1.908 7.3-.166 3.366-1.749 6.64-4.283 8.861a6.402 6.402 0 004.307-.272 13.236 13.236 0 01-2.562 7.015c5.026-.64 8.814-5.099 10.575-9.85 3.234-8.731.71-19.2-5.827-25.754.113.009.227.018.34.025l-1.824-3.853c2.105.446 4.259.662 6.41.643a18.894 18.894 0 00-5.914-3.492c.967-3.441 1.928-6.934 1.979-10.508.034-2.456-.408-4.983-1.48-7.173.611.009 1.221-.005 1.82-.031 1.525-.065 3.073-.185 4.582-.447 1.938-.338 3.811-.912 5.492-1.918 2.147-1.282 3.84-3.2 5.078-5.389.536-.948.988-1.946 1.354-2.967 1.188-3.316 1.551-6.869 1.696-10.391l.008-.187a95.146 95.146 0 00-.161-10.342z"/><path fill="#1D71B8" d="M307.212 99.444c-1.693 1.44-3.603 2.684-5.583 3.563-.16 3.177.471 6.396 1.861 9.258 1.725 3.551 4.604 6.523 8.077 8.395 1.937-.338 3.81-.912 5.491-1.917 2.148-1.283 3.84-3.201 5.078-5.39-3.588-.803-6.955-2.594-9.604-5.145-2.49-2.396-4.329-5.454-5.32-8.764zm-57.971 4.474c-.263-.192-.53-.399-.811-.627-1.491-1.215-2.743-2.655-3.819-4.232-3.853 4.268-9.425 6.98-15.16 7.392.051.754.123 1.506.229 2.256.447 3.215 1.501 6.422 3.421 9.016 3.421-1.354 6.742-2.995 9.622-5.271 2.84-2.248 5.235-5.169 6.518-8.534z"/><path fill="#95C11F" d="M325.126 89.468a7.494 7.494 0 01-1.976.239c-1.643-.018-3.244-.489-4.802-1.011-1.155-.386-2.314-.81-3.39-1.374-.723 2.376-1.682 4.662-2.987 6.785-.113.184-.231.366-.353.55 2.031 1.729 4.178 3.325 6.623 4.363 2.202.936 4.702 1.36 7.037.976l.008-.187a94.879 94.879 0 00-.16-10.341zm-83.592 3.505a59.339 59.339 0 01-1.319-3.63c-.696-2.12-1.322-4.275-2.004-6.406a14.17 14.17 0 01-7.921 2.811c-.252 3.234-.389 6.485-.537 9.729 4.049.602 8.319-.319 11.781-2.504z"/><path fill="#1D71B8" d="M324.29 81.783c-.411-2.202-1.053-4.349-2.227-6.24-.493-.793-1.108-1.559-1.96-1.941-.851-.383-1.981-.271-2.554.466-.386.497-.454 1.163-.513 1.791a79.69 79.69 0 01-.724 5.773c2.458 1.207 5.477 1.264 7.978.151zm-88.207-4.718a31.542 31.542 0 00-1.577-3.106c-.354-.606-.932-1.286-1.611-1.107-.581.152-.813.837-.945 1.423a65.448 65.448 0 00-.809 4.313c.944-.105 1.88-.262 2.788-.541a8.919 8.919 0 002.154-.982z"/><path fill="#95C11F" d="M290.038 169.309c-.792 3.252-2.166 6.405-4.327 8.961-2.162 2.555-5.155 4.479-8.46 5.008-3.538.567-7.166-.474-10.371-2.078-3.632-1.816-7.006-4.51-8.674-8.213s-1.247-8.521 1.742-11.27a9.46 9.46 0 011.858-1.311c.787-.435 1.627-.785 2.475-1.088 5.295-1.889 23.914-4.982 26.029 3.608.514 2.089.237 4.294-.272 6.383zm20.652-26.997a18.894 18.894 0 00-5.914-3.492c.968-3.441 1.928-6.934 1.978-10.508.035-2.456-.408-4.983-1.479-7.173-2.272-.031-4.552-.391-6.309-1.77-1.322-1.038-2.188-2.543-2.921-4.057-.936-1.936-1.978-3.364-2.073-5.512-.096-2.146-.588-3.993.998-5.444.237.02.478.027.718.03-3.404-4.201-9.355-6.286-14.611-4.889a31.421 31.421 0 003.415-9.79 42.56 42.56 0 01-4.685 4.912 13.903 13.903 0 012.696-7.053 14.054 14.054 0 00-6.306 7.217c-.945-1.125.095-2.748.81-4.031 1.966-3.527 1.257-7.878.491-11.843a23.053 23.053 0 00-4.938 14.254c-1.543-2.229-4.28-3.577-6.988-3.439a12.16 12.16 0 015.119 6.729c-2.424-1.838-5.645-2.584-8.63-1.999 1.558.528 3.139 1.069 4.487 2.01 1.35.941 2.461 2.354 2.654 3.986-3.067.273-6.157.662-9.043 1.734-2.137.793-4.168 1.996-5.737 3.629.7.068 1.298.688 1.5 1.382.226.771.071 1.601-.129 2.379a20.725 20.725 0 01-5.211 9.255c-1.669 1.71-3.701 3.155-6.029 3.694a9.346 9.346 0 01-3.661.088c-2.833 4.351-2.963 10.34-.271 14.789-2.563.204-4.847 2.319-5.247 4.857a11.644 11.644 0 015.673-2.045 13.916 13.916 0 00-1.91 7.021l5.56-2.613c-.228.394-.425.803-.606 1.219a12.192 12.192 0 00-1.01 5.314l.906-.913c.867-.872 1.732-1.745 2.6-2.616.306-.309.782-.635 1.128-.371.206.156.239.449.255.708l.332 5.491 5.248-4.589c.252 1.614.367 3.249.344 4.881a79.652 79.652 0 014.437-4.06 23.472 23.472 0 00-.07 4.843 15.24 15.24 0 014.743-5.278l-.765 4.064 3.295-2.963c.197-.177.406-.36.664-.421.79-.184 1.307.815 1.419 1.619.113.804.289 1.817 1.077 2.01 1.073-.655 1.384-2.567 2.638-2.473 1.65.126 1.641 3.659 3.241 3.238 1.069-.28.835-2.04 1.731-2.687.567-.41 1.395-.195 1.936.25.539.445.891 1.074 1.333 1.617.203.249.452.495.771.545.768.12 1.186-.888 1.177-1.664-.009-.777-.073-1.729.587-2.14.767-.476 1.705.263 2.257.977.552.715 1.301 1.563 2.169 1.32 1.208-.34.979-2.221 1.85-3.124.771-.8 2.116-.55 3.104-.041.987.509 1.944 1.236 3.056 1.234-.02-1.099-.037-2.197-.057-3.295-.004-.221.006-.471.171-.615.185-.16.465-.109.701-.045 1.371.375 2.702.896 3.964 1.552.396.206.97.385 1.211.01.121-.188.085-.432.044-.651l-.464-2.495 2.224.166 3.429.257c.113.009.227.018.341.025l-1.824-3.853c2.101.449 4.255.665 6.406.646z"/><path d="M271.682 128.074c8.455-25.914-22.751-20.74-17.142-1.468 1.969 6.764 13.909 11.376 17.142 1.468z"/><path d="M285.936 131.901c7.384-3.479 8.446-22.001-.171-24.31-14.46-4.218-15.2 31.553.171 24.31z"/><path fill="#FFF" d="M286.084 119.016c1.711 3.473.846 8.149-2.825 8.149-7.219 0-1.439-16.798 2.825-8.149zm-23.897.162c3.168-.044 3.058 5.882-.513 5.212-1.908-.36-2.72-5.212.513-5.212z"/><path d="M300.081 126.641c-.1-.791-1.357-.801-1.257 0 .038.296.069.592.098.888a26.192 26.192 0 01-.12 6.078c-.276 1.654-1.088 2.306-2.661 2.717-1.271.332-2.573.527-3.88.657l-.114.013-.265.023c-.606.053-1.214.095-1.821.13-.913.053-1.827.097-2.742.138-.9.033-1.8.06-2.699.089-3.813.126-7.627.189-11.442.19l-.233.001c-.381 0-.762-.006-1.143-.007a378.035 378.035 0 01-3.012-.021c-.494-.007-.987-.017-1.481-.025a325.81 325.81 0 01-2.615-.05c-.532-.013-1.065-.029-1.597-.044a418 418 0 01-2.51-.079l-1.638-.063c-.822-.033-1.644-.068-2.465-.107-.921-.044-1.842-.087-2.763-.138-2.503-.139-5.174-.15-6.621-2.563a6.497 6.497 0 01-.816-2.244 7.894 7.894 0 01-.044-.261c-.225-1.551-.063-3.211.077-4.699.076-.805-1.182-.8-1.256 0-.287 3.031-.418 6.826 1.894 9.088l.067.064a7.037 7.037 0 00.317.28l.095.075c.063.05.129.099.196.146.037.026.075.053.113.078.054.036.108.072.164.107l.071.047c.065.04.132.076.198.112l.009.006c.347.19.707.342 1.08.461 2.002.664 4.317.557 6.385.659.152.008.305.013.457.021.846.041 1.691.076 2.537.111.437.018.872.038 1.309.055l.385.016c.949.034 1.899.063 2.85.09l.46.015.054.001c5.714.156 11.436.174 17.152.045 4.454-.061 9.037-.032 13.428-.757.21-.033.419-.068.628-.106l.027-.005c2.024-.371 4.272-.817 4.903-3.052.725-2.57.57-5.568.241-8.18z"/><path fill="#95C11F" d="M372.856 293.842c-1.026-1.838-2.951-2.948-4.708-4.107s-3.544-2.629-3.98-4.688c-.32-1.509.15-3.064.146-4.606-.002-1.542-.787-3.34-2.316-3.537-1.212-.156-2.326.815-2.809 1.938s-.503 2.378-.644 3.592c-.624 5.374-3.906 10.374-8.589 13.084-.956.553-2.006 1.024-3.11 1.021-2.645-.009-4.573-2.81-4.657-5.452-.085-2.644 1.137-5.127 2.246-7.528a112.26 112.26 0 009.428-32.953c.99.648 2.455 1.429 3.07 1.374a21.303 21.303 0 008.195-2.471c.49-.266 1.047-.785.785-1.277a9.831 9.831 0 01-6.938-.44 23.827 23.827 0 008.261-2.814c-1.511.078-3.041.155-4.524-.144-1.483-.298-2.939-1.017-3.822-2.246a13.373 13.373 0 008.846-2.078c-4.202.691-9.913-1.681-13.072-5.212-.097-1.937-.316-3.874-.73-5.733 20.277-6.369 21.971-29.041-3.995-21.073-.677-1-1.484-1.895-2.468-2.607-1.784-1.293-3.983-1.872-6.156-2.239-8.529-1.443-17.529.058-25.128 4.192-6.444 3.507-12.177 9.539-12.657 16.86-.227 3.462.316 6.66 1.409 9.718.954 2.666 2.327 5.227 3.976 7.763l1.705-.276c.45 1.066.9 2.133 1.352 3.199-.081 3.809-2.008 8.33-4.657 10.448-.058.504.77.452 1.184.159a12.936 12.936 0 002.8-2.693c-.09 3.513-1.888 6.943-4.726 9.015a12.922 12.922 0 006.49-4.62c-.271 2.792-1.892 5.245-3.464 7.567 2.471-.262 5.713-5.342 7.365-8.063 3.016 7.136 6.209 14.442 6.252 22.136.066 11.581-7.02 22.469-6.155 34.018.577 7.721 4.637 14.675 8.29 21.502.601 1.123 1.209 2.419.785 3.62-.648 1.844-3.309 2.095-5.014 1.14s-2.847-2.657-4.354-3.901c-1.508-1.244-3.849-1.965-5.352-.715-1.711 1.423-.94 4.436.898 5.689 1.839 1.255 4.225 1.261 6.451 1.222-.362.384-.783.698-1.224.989-5.405 1.797-11.846 2.703-17.206 3.138-3.672.297-8.804-.417-10.788 2.686-.991 1.55-1.134 3.507-.888 5.33.246 1.825.877 3.639 2.072 5.041 3.006 3.525 8.41 3.442 12.996 2.784 1.627-.233 3.25-.505 4.866-.815a4.315 4.315 0 106.237-1.423c5.247-1.394 10.352-3.28 15.149-5.814 4.911-2.594 9.495-5.89 13.401-9.827a4.314 4.314 0 103.881-3.297c-.38.028-.742.109-1.086.227a44.34 44.34 0 003.921-5.496c1.876-3.114 3.39-6.685 2.935-10.293-.454-3.607-3.487-7.081-7.12-6.904-2.946.143-4.875 3.537-6.753 5.813-2.433 2.947-4.955 6.559-7.511 9.623-8.196-9.149-10.834-23.105-6.17-34.525.7-1.714 1.589-3.424 3.044-4.567s3.599-1.583 5.18-.622c.845.514 1.437 1.352 1.931 2.208 2.172 3.768 3.014 8.452 6.283 11.319.931.815 2.122 1.464 3.351 1.32 1.472-.172 2.564-1.396 3.51-2.537l11.18-13.488c1.435.713 1.557 2.739 1.097 4.273-.459 1.534-1.3 3.048-1.071 4.633.229 1.586 2.364 2.898 3.431 1.703.411-.46.5-1.116.56-1.729.051-.517.093-1.034.129-1.553.065.486.159.968.285 1.441.133.502.315 1.021.713 1.355 1.115.941 2.873-.373 3.122-1.812.222-1.288-.21-2.59-.28-3.896.178 1.584 2.013 2.865 3.553 2.313 1.98-.717 2.387-3.544 1.361-5.382zm-37.517-29.464c-19.341-5.538.396-36.642 9.416-21.834 5.858 9.617-.441 24.403-9.416 21.834z"/><path fill="#E94E1B" d="M307.344 255.545c-.057.504.771.451 1.184.159a12.918 12.918 0 002.801-2.693c-.09 3.513-1.888 6.942-4.727 9.015a12.927 12.927 0 006.491-4.62c-.271 2.792-1.892 5.245-3.465 7.567 2.472-.262 5.714-5.343 7.366-8.063l-4.992-11.813c-.081 3.808-2.008 8.329-4.658 10.448zm46.551-4.942c.99.648 2.455 1.429 3.07 1.373a21.301 21.301 0 008.195-2.47c.49-.266 1.047-.785.785-1.277a9.831 9.831 0 01-6.938-.44 23.848 23.848 0 008.261-2.814c-1.511.078-3.041.154-4.524-.144-1.484-.299-2.94-1.017-3.822-2.246a13.38 13.38 0 008.846-2.078c-4.203.691-9.914-1.681-13.072-5.212.069 1.387.075 2.772.042 4.128-.092 3.737-.376 7.47-.843 11.18z"/><path fill="#2DABE3" d="M336.375 339.331c-.139 1.455-1.715 2.303-3.137 2.642-1.423.338-3.016.493-4.034 1.541-1.714 1.764-1.224 5.461-3.585 6.148-1.225.356-2.557-.517-3.075-1.683-.519-1.165-.389-2.519-.069-3.753-1.353 1.252-2.273 2.962-3.805 3.988s-4.113.892-4.695-.857c-.422-1.268.465-2.615 1.527-3.426.644-.489 1.366-.877 2.04-1.321-5.405 1.797-11.846 2.703-17.206 3.138-3.672.297-8.804-.417-10.788 2.686-.991 1.55-1.134 3.507-.888 5.33.246 1.825.877 3.639 2.072 5.041 3.006 3.525 8.409 3.442 12.996 2.784 1.627-.233 3.25-.505 4.866-.815a4.308 4.308 0 016.237-1.422c5.248-1.394 10.352-3.28 15.149-5.814 4.911-2.594 9.494-5.89 13.401-9.827a4.315 4.315 0 012.795-3.07 44.34 44.34 0 003.921-5.496c1.876-3.114 3.39-6.685 2.935-10.293-.454-3.607-3.487-7.081-7.119-6.904-2.947.143-4.876 3.537-6.754 5.813-2.433 2.947-4.955 6.559-7.511 9.623.818.913 1.69 1.78 2.618 2.591 1.038.903 2.24 1.985 2.109 3.356z"/><path d="M336.004 269.79a4.566 4.566 0 01-.338.261c-1.024.718-2.225.903-3.4.705-1.549-.297-3.03-1.3-4.045-2.554-1.896-2.342-2.962-5.456-3.597-8.397l-.001-.007a48.114 48.114 0 01-.102-.493 5.04 5.04 0 001.048-2.192c.139-.674-.909-.881-1.047-.208-.308 1.502-1.423 2.642-2.897 3.033-.663.176-.303 1.181.358 1.006a4.882 4.882 0 001.636-.786c.035.161.072.324.111.487l.019.081a31.83 31.83 0 00.564 2.072c.218.7.465 1.396.747 2.075l.005.012c.09.217.184.432.282.645l.028.063c.095.205.192.408.294.609l.039.074c.078.152.159.303.242.452.04.072.079.144.12.215.075.132.152.262.231.391a12.815 12.815 0 001.877 2.414c.348.345.732.658 1.144.933.143.103.286.203.435.298a7.12 7.12 0 002.429.847l.106.018.115.015c1.317.169 2.658-.077 3.805-.882a5.326 5.326 0 00.396-.305c.517-.443-.081-1.329-.604-.882zm-.709-13.11c2.48.86 3.647-3.587 3.334-6.016-1.18-9.134-9.739 3.792-3.334 6.016z"/><path fill="none" d="M313.64 229.354c-8.46 1.393-3.022 10.687-3.022 10.687l11.492-2.209c-.001 0-.009-9.87-8.47-8.478z"/><path fill="#2DABE3" d="M349.852 208.495c2.646 3.387 7.94 8.291 1.375 21.926.863-.299 1.74-.576 2.619-.853 19.223-6.038 22.679-29.257-3.994-21.073z"/><path d="M349.852 208.495c-.678-.999-1.484-1.894-2.469-2.607-1.783-1.293-3.983-1.871-6.156-2.239-8.528-1.443-17.528.059-25.127 4.193-6.445 3.507-12.178 9.538-12.657 16.859-.228 3.463.315 6.66 1.409 9.719.953 2.666 2.326 5.226 3.975 7.763l1.705-.276a591.61 591.61 0 006.236-1.041c11.334-1.965 22.606-4.466 32.863-9.574.537-.268 1.08-.551 1.596-.87 6.565-13.636 1.271-18.54-1.375-21.927zm-27.743 29.337l-11.492 2.209s-5.438-9.294 3.022-10.687c8.462-1.392 8.47 8.478 8.47 8.478z"/><circle cx="312.521" cy="362.943" r="1.804"/><circle cx="347.642" cy="344.792" r="1.804"/><path fill="#E94E1B" d="M316.582 231.576s-4.498-4.569-4.092-7.946c-.594 5.269-.146 5.808-.146 5.808s-3.679-3.404-5.006-5.92c.422 5.766 2.116 8.825 3.189 8.992 1.074.166-3.287.812-3.331 2.448 3.248-.238 4.761-.757 6.647-.65 1.885.106 4.375.659 4.375.659l-1.636-3.391z"/><path fill="#D80362" d="M289.547 318.914c-.133-.588-.697-.959-1.219-1.26-7.412-4.281-15.712-6.989-24.21-7.997.132-.185.262-.369.388-.556 1.013-1.496 1.896-3.164 1.99-4.969.204-3.935-3.633-7.224-7.559-7.541-3.928-.316-7.706 1.649-10.759 4.139-3.054 2.489-5.619 5.536-8.704 7.986-3.084 2.45-7.019 5.136-10.374 3.88-4.004-2.95-5.215-8.65-4.03-13.48s4.332-8.933 7.711-12.582c3.38-3.648 7.097-7.039 9.838-11.188 2.416-3.656 3.936-7.721 4.728-11.97 2.073-.216 4.146-.515 6.072-1.291 2.304-.929 4.412-2.65 5.207-5.003.485-1.438.45-2.982.25-4.498l.841-.52c.527-.326 1.072-.67 1.408-1.19.525-.814.429-1.872.236-2.821-.312-1.541-.908-3.153-2.221-4.018-.734-.482-1.732-.581-2.553-.313-.043-.114-.084-.23-.129-.345-.67-1.739-1.521-3.518-3.049-4.585-.613-.429-1.398-.685-2.27-.823-1.197-5.999-2.793-11.969-5.893-17.26-3.9-6.659-10.168-11.184-17.595-13.163-2.842-.758-5.813-1.192-8.83-1.327a28.648 28.648 0 011.181-7.372c-1.755 2.136-3.021 4.657-3.74 7.326-11.691.135-23.76 4.712-31.672 12.9-6.52 6.748-9.465 15.786-11.269 24.8a4.344 4.344 0 00-1.257.369c-2.089 1.02-2.526 3.766-2.576 6.089-.005.184-.004.367-.006.551-1.328.046-2.998.651-3.512 1.449-.711 1.105-.823 2.48-.889 3.793-.061 1.217-.096 2.456.223 3.632.319 1.176 1.046 2.297 2.148 2.813.92.43 1.984.399 2.979.59.258 1.387.647 2.759 1.508 3.86 1.212 1.55 3.203 2.331 5.162 2.504 1.616.143 3.988-.006 5.855-.265 6.333 11.154 18.225 19.146 22.413 31.359.959 2.794 1.139 6.552-1.42 8.026-1.44.83-3.243.581-4.859.196a36.348 36.348 0 01-10.645-4.415c-2.138-1.319-4.152-2.867-6.462-3.854s-5.044-1.35-7.295-.236c-1.914.947-3.226 2.852-3.865 4.889-1.278 4.071-.077 8.621 2.317 12.153.311.457.639.899.982 1.329-1.02.186-2.034.442-3.019.711a145.393 145.393 0 00-21.917 7.925c-.459.209-.94.44-1.218.862-.54.822-.062 1.92.5 2.728 4.112 5.908 11.851 7.852 18.946 9.065 5.103.873 10.288 1.598 15.444 1.131 2.683-.242 5.37-.837 7.866-1.846-.268.415-.512.842-.682 1.306-.282.767-.211 1.723.148 2.439-.871 1.613-1.627 3.306-2.328 4.973a215.161 215.161 0 00-4.961 12.961c3.666-.141 7.114-1.681 10.456-3.194 5.924-2.684 11.924-5.413 16.951-9.539 4.069-3.341 7.482-7.75 8.972-12.742.771 4.547 3.477 8.796 6.921 11.966 4.464 4.109 10.066 6.727 15.571 9.279l8.461 3.924c.338.157.726.315 1.07.175.403-.164.55-.648.644-1.073 1.268-5.724 1.964-11.643 1.193-17.453-.487-3.678-1.603-7.317-3.403-10.548a1.945 1.945 0 00-.387-.666c-.077-.13-.156-.258-.236-.387 1.523.225 3.104-.022 4.507-.661 4.747 1.441 9.802 1.876 14.718 1.203 7.713-1.056 15.028-4.821 20.371-10.484.49-.512.991-1.159.837-1.846zm-46.729-98.826c3.531 5.309 5.272 11.512 6.538 17.746-1.509-.007-3.104.206-4.475.443a69.812 69.812 0 00-.446-1.239c-1.104-2.952-2.449-5.902-4.681-8.127-1.797-1.791-4.078-3.018-6.408-4.021a44.957 44.957 0 00-13.115-3.397c2.696-2.205 6-3.696 9.219-5.12a13.99 13.99 0 00-6.381-.985 28.038 28.038 0 002.444-3.321l-5.818 2.086a28.575 28.575 0 01-.868-6.131c9.419.359 18.516 3.835 23.991 12.066zm-38.129 2.478l-.066.02c-5.561 1.625-16.404 6.349-21.462 14.78a30.48 30.48 0 00-2.97 6.68 51.798 51.798 0 00-5.084-.278c1.543-7.568 3.875-15.212 8.789-21.297 4.76-5.894 11.495-9.91 18.66-12.182 4.18-1.325 8.737-2.146 13.301-2.279a19.36 19.36 0 00-.088 6.035 11.94 11.94 0 00-6.632-1.487 7.91 7.91 0 014.102 3.938 17.143 17.143 0 00-8.713-.164 37.392 37.392 0 017.667 5.04c-2.529.185-5.043.58-7.504 1.194z"/><path fill="#95C11F" d="M192.343 336.653c-1.796.98-3.726 1.99-5.764 1.818-2.038-.171-4.055-2.09-3.52-4.063.506-1.87 2.806-2.577 4.743-2.563 1.937.015 3.999.409 5.723-.475-3.404-1.662-7.783-3.384-10.951-5.461-3.106-2.037-6.135-4.317-8.447-7.203-1.02.186-2.034.442-3.019.711a145.393 145.393 0 00-21.917 7.925c-.459.209-.94.44-1.218.862-.54.822-.062 1.92.5 2.728 4.112 5.908 11.851 7.852 18.946 9.065 5.103.873 10.288 1.598 15.444 1.131 2.683-.242 5.37-.837 7.866-1.846.558-.864 1.228-1.675 1.614-2.629zm57.401-4.897c.477 1.372-.359 3.371-1.882 3.911-2.046.726-4.288-.36-6.005-1.69.274 1.323.55 2.69.285 4.016-.266 1.325-1.216 2.61-2.549 2.834-2.014.338-3.629-1.84-3.861-3.869-.231-2.029.367-4.083.149-6.113a122.964 122.964 0 01-16.239 3.268c-.175.023-.35.043-.524.065a123.052 123.052 0 01-15.959.994c.437 4.071-.95 8.305-3.711 11.328-.889.974-2.52 1.811-3.391.821-.463-.525-.422-1.31-.354-2.006l.51-5.242a9.827 9.827 0 01-3.039 3.413c-.431.3-.913.572-1.438.585-.704.018-1.229-.424-1.538-1.042-.871 1.613-1.627 3.306-2.328 4.973a215.161 215.161 0 00-4.961 12.961c3.666-.141 7.114-1.681 10.456-3.194 5.924-2.684 11.924-5.413 16.951-9.539 4.069-3.341 7.482-7.75 8.972-12.742.771 4.547 3.477 8.796 6.921 11.966 4.464 4.109 10.066 6.727 15.571 9.279l8.461 3.924c.338.157.726.315 1.07.175.403-.164.55-.648.644-1.073 1.268-5.724 1.964-11.643 1.193-17.453-.488-3.68-1.603-7.32-3.404-10.55zm39.803-12.842c-.133-.588-.697-.959-1.219-1.26-7.412-4.281-15.712-6.989-24.21-7.997-4.279 5.965-11.646 10.79-17.822 14.658a22.554 22.554 0 018.726-.711c.576.066 1.179.167 1.633.528 1.175.935.6 2.87-.397 3.992a7.888 7.888 0 01-2.629 1.917c4.747 1.441 9.802 1.876 14.718 1.203 7.713-1.056 15.028-4.821 20.371-10.484.482-.512.983-1.159.829-1.846zm-69.688 6.027c.289-.101.477-.373.645-.629 1.133-1.729 2.37-3.677 3.503-5.405l-.072-.144c-4.634-.353-9.809.063-14.414.685a41.507 41.507 0 009.376 5.354c.306.125.649.249.962.139z"/><path fill="#FFF" d="M218.553 262.284a39.353 39.353 0 00-3.279.117 48.38 48.38 0 00-1.943.192c-2.946.35-5.858.955-8.752 1.645 2.584 2.535 6.084 4.159 9.651 4.489a13.97 13.97 0 004.016-.199 12.63 12.63 0 002.727-.868c2.151-.971 3.979-2.509 5.423-4.371-2.541-.689-5.191-.99-7.843-1.005z"/><path d="M218.553 262.284a39.353 39.353 0 00-3.279.117 48.38 48.38 0 00-1.943.192c.093 1.716.479 4.465.899 6.134a13.97 13.97 0 004.016-.199c.531-1.407.615-4.444.307-6.244z"/><path fill="#DE487F" d="M230.845 263.905a26.52 26.52 0 00-3.884-1.393 17.808 17.808 0 002.714-6.321c1.043-4.869.189-9.999-1.629-14.635-.845-2.152-1.93-4.271-3.623-5.846s-5.267-2.955-7.758-2.811c-6.576.026-11.333 3.842-14.463 9.625-3.273 6.048-3.326 13.938.585 19.596.352.508.739.988 1.152 1.445-1.205.287-2.402.586-3.588.886-1.081.272-.623 1.945.46 1.671 9.444-2.388 19.826-4.923 29.158-.722 1.01.455 1.892-1.038.876-1.495z"/><ellipse cx="216.172" cy="283.817" rx="2.112" ry="1.336"/><path d="M184.592 219.074c-6.52 6.748-9.465 15.786-11.269 24.8a4.344 4.344 0 00-1.257.369c-2.089 1.02-2.526 3.766-2.576 6.089-.005.184-.004.367-.007.551a68.04 68.04 0 00.798 11.379c.046.299.098.598.153.897.258 1.387.647 2.759 1.508 3.86 1.212 1.55 3.203 2.331 5.162 2.504 1.616.143 3.988-.006 5.855-.265a34.758 34.758 0 01-1.761-3.543c-2.891-6.798-3.184-14.623-1.008-21.67a51.798 51.798 0 00-5.084-.278c1.543-7.568 3.875-15.212 8.789-21.297 4.76-5.894 11.495-9.91 18.66-12.182 4.18-1.325 8.737-2.146 13.301-2.279.105-.618.243-1.23.406-1.836-11.69.136-23.758 4.713-31.67 12.901zm74.284 33.51c-.046-.35-.102-.697-.161-1.042a43.018 43.018 0 00-2.127-7.819c-.043-.114-.084-.23-.129-.345-.67-1.739-1.521-3.518-3.049-4.585-.613-.429-1.398-.685-2.27-.823-1.197-5.999-2.793-11.969-5.893-17.26-3.9-6.659-10.168-11.184-17.595-13.163-2.842-.758-5.813-1.192-8.83-1.327-.018.601-.016 1.201.004 1.802 9.419.359 18.515 3.836 23.991 12.066 3.531 5.309 5.272 11.512 6.538 17.746-1.509-.007-3.104.206-4.475.443 2.797 8.014 3.992 16.902 2.465 25.099 2.073-.216 4.146-.515 6.072-1.291 2.304-.929 4.412-2.65 5.207-5.003.487-1.437.452-2.982.252-4.498z" fill="#95C11F"/><path d="M169.467 250.883c-1.328.046-2.997.651-3.511 1.449-.711 1.105-.823 2.48-.889 3.793-.061 1.217-.096 2.456.223 3.632.319 1.176 1.046 2.297 2.148 2.813.92.43 1.983.399 2.979.59a28.99 28.99 0 01-.153-.897 68.172 68.172 0 01-.797-11.38zm89.392 1.701c.28-.173.561-.346.84-.52.527-.326 1.073-.67 1.409-1.19.525-.814.429-1.872.236-2.821-.312-1.541-.908-3.153-2.221-4.018-.734-.482-1.732-.581-2.553-.313a43.102 43.102 0 012.128 7.819c.06.346.115.693.161 1.043z"/><path fill="#DE487F" d="M223.021 215.388a27.919 27.919 0 002.443-3.321l-5.817 2.086a28.513 28.513 0 01-.868-6.131 28.605 28.605 0 011.177-9.174c-1.755 2.136-3.021 4.657-3.741 7.326a20.17 20.17 0 00-.406 1.836 19.36 19.36 0 00-.087 6.035 11.94 11.94 0 00-6.632-1.487 7.914 7.914 0 014.102 3.938 17.143 17.143 0 00-8.713-.164 37.42 37.42 0 017.667 5.04 45.616 45.616 0 018.037.122c2.697-2.205 6.001-3.696 9.219-5.12a13.977 13.977 0 00-6.381-.986z"/><path d="M271.489 238.347c-.423 1.292-1.467 3.187-3.152 2.429-.161-.072-.422.053-.341.262a17.116 17.116 0 011.151 6.803l-.012.003c-.934.41-2.051 1.299-2.251 2.368-.2 1.076 1.026 1.268 1.802 1.047.914-.26 1.936-1.081 1.954-2.111.011-.625-.469-1.164-1.034-1.2a17.416 17.416 0 00-1.003-6.603c1.698.379 2.847-1.388 3.334-2.874.093-.285-.355-.408-.448-.124zm11.953-1.028a.224.224 0 00-.067-.043 43.563 43.563 0 01-.717-3.429l.041-.07c.076-.137.002-.266-.105-.32a39.15 39.15 0 01-.188-1.326c.026-.037.053-.074.077-.112.163-.251-.238-.484-.4-.234a4.909 4.909 0 01-2.568 2.016c-.52.173-1.03.143-1.551.255-.188.041-.355.092-.443.282-.104.222.036.474.111.678.195.533.387 1.068.549 1.613l.062.222a2.012 2.012 0 01-.431.013c-.298-.026-.296.438 0 .464.182.016.366.007.549-.021.177.724.291 1.454.314 2.196-.047.08-.052.183.001.253l.001.063a.239.239 0 00-.039.015c-.783.384-1.638 1.171-1.722 2.098-.063.698.545 1.158 1.21 1.072 1.443-.188 2.731-3.029 1.012-3.568a10.62 10.62 0 00-.321-2.235c.673-.212 1.317-.637 1.836-1.031a7.487 7.487 0 001.64-1.732c.176.979.384 1.953.625 2.919-1.273-.232-2.527 2.235-1.049 2.998 1.55.797 2.647-2.066 1.573-3.036zm-2.819-1.721c-.52.432-1.215.927-1.927 1.15a21.512 21.512 0 00-.33-1.056c-.083-.243-.26-.543-.288-.801-.163-.179-.146-.308.053-.387a3.23 3.23 0 00.34-.02c1.389-.12 2.644-.804 3.539-1.839.051.37.106.739.166 1.107a7.073 7.073 0 01-1.553 1.846zm-3.654-13.215c.156.253.559.021.4-.234-.791-1.277-2.727-1.166-3.381-2.509-.113-.232-.522-.067-.424.179.724 1.808 1.303 3.665 1.854 5.532.049.164.111.354.171.559-.76.495-1.782 1.477-1.653 2.427.138 1.015 1.353.407 1.804.012 1.062-.931.334-2.426.002-3.541a66.781 66.781 0 00-1.321-4.046c.851.537 1.988.717 2.548 1.621z"/><path fill="#E94E1B" d="M147.228 297.947a21.04 21.04 0 00-8.656-5.243l.032-.069c2.379-1.031 5.073-1.905 7.66-2.065-1.337-2.041-3.519-3.409-5.816-4.231-2.298-.821-4.736-1.151-7.147-1.522-.364-.056-.804-.181-.882-.54-.085-.391.33-.691.688-.868a26.456 26.456 0 017.787-2.417c-1.051-.921-2.488-1.245-3.871-1.451a33.772 33.772 0 00-10.787.14c-1.214.213-2.55.473-3.609-.156a123.506 123.506 0 016.063-3.968c-1.054-.905-2.64-.668-3.988-.338a67.553 67.553 0 00-10.075 3.324c1.042-2.723 3.581-4.534 5.987-6.182-3.771-.02-7.047 2.437-10.005 4.777 1.151-3.232 5.136-4.388 7.344-7.013-.305-.349-.84-.346-1.302-.302-5.665.549-11.097 3.243-14.961 7.423-2.685-2.896-6.37-5.504-10.275-6.082a14.723 14.723 0 016.127 6.986c-5.054-3.282-10.586-6.696-16.598-6.279 3.765 1.15 6.939 4.092 8.374 7.758-3.013.009-5.645-1.917-8.499-2.88a13.773 13.773 0 00-8.865.044c2.45 1.264 5.097 2.739 6.08 5.314a20.144 20.144 0 00-7.701.725 14.111 14.111 0 015.867 2.318c-5.792.284-11.943 1.547-16.006 5.685a41.53 41.53 0 019.855.657c-3.901 2.392-7.991 4.983-10.068 9.061a18.737 18.737 0 015.602-2.01c-3.54 3.725-7.079 8.15-6.98 13.288 3.137-2.831 6.378-5.726 10.34-7.195-1.8 3.639-3.647 7.519-3.274 11.562a56.275 56.275 0 015.797-6.675c.392 3.533-1.618 7.241-.323 10.552a14.39 14.39 0 013.057-6.208c.495 3.293 1.002 6.625 2.289 9.696a11.393 11.393 0 013.808-6.411c-.011 1.63.175 3.261.545 4.848a48.147 48.147 0 00-3.136 3.394c-.206.247-.418.513-.467.83-.055.36.111.714.274 1.04a84.894 84.894 0 005.553 9.5c-2.221-.178-4.535-.343-6.604.486-2.068.828-3.792 2.974-3.365 5.16 1.564-1.659 4.015-2.43 6.248-1.966-.506 2.028-.944 4.4.368 6.027a18.904 18.904 0 018.877-7.135c.264-.102.555-.22.671-.477.171-.377-.13-.788-.409-1.093a97.19 97.19 0 01-5.274-6.294c-.188-.245-.384-.513-.396-.821-.014-.324.176-.617.357-.885 1.617-2.385 3.234-4.769 4.852-7.152l3.558 4.347a15.25 15.25 0 01.873-6.647 15.425 15.425 0 014.281 6.621 19.68 19.68 0 004.029-7.128 10.21 10.21 0 012.392 6.865c1.545-1.14 2.57-2.747 3.337-4.522l2.489 3.866c.192.298.392.621.381.977-.012.342-.217.643-.406.927a20.384 20.384 0 00-3.296 9c-.035.312-.06.643.08.924.169.341.538.526.878.697a24.728 24.728 0 017.397 5.676 9.428 9.428 0 00-1.237-6.396c2.195-.245 4.335.673 6.354 1.571-.25-1.925-1.598-3.569-3.218-4.638-1.62-1.069-3.504-1.651-5.36-2.22l6.861-6.785c.382-.379.792-.82.782-1.358-.007-.361-.206-.688-.399-.994l-.975-1.547a23.9 23.9 0 00.988-6.582 16.985 16.985 0 012.678 9.174 17.73 17.73 0 003.635-10.66c2.735.759 3.896 3.921 4.652 6.657 1.952-2.772 1.273-6.54.513-9.845a34.768 34.768 0 016.703 5.267 17.45 17.45 0 00-3.026-10.933c3.601.447 6.582 2.873 9.697 4.732.193.115.413.233.633.184.33-.076.461-.473.497-.81.211-1.931-.752-3.79-1.847-5.394a28.438 28.438 0 00-4.672-5.288c3.055-.754 6.185 1.226 9.316.929.224-.021.471-.067.608-.245.253-.331-.046-.794-.339-1.089zm-72.3 3.634a20.486 20.486 0 01-.427-3.966c-.016-1.794.23-3.66 1.211-5.161.062-.094.13-.19.232-.234.334-.146.585.323.656.68a29.427 29.427 0 004.642 10.945 47.84 47.84 0 01-6.314-2.264zm21.254-4.83c-.196.22-.525.245-.82.258a51.633 51.633 0 00-13.277 2.347c-2.41-2.635-3.015-6.767-1.257-9.874 1.757-3.108 5.881-4.729 9.205-3.425 1.879.738 3.372 2.269 4.366 4.025.993 1.757 1.527 3.736 1.899 5.721.06.324.104.701-.116.948zm25.17-.063c-.084.284-.239.578-.516.684-.227.086-.479.027-.713-.031a52.362 52.362 0 00-10.255-1.486 51.685 51.685 0 00-3.776-.037c.101-3.115.229-6.928 2.479-9.086 1.296-1.243 3.149-1.859 4.94-1.72 1.791.141 3.5 1.015 4.723 2.331 1.657 1.784 2.379 4.225 2.956 6.591.22.903.427 1.861.162 2.754zm1.621 4.996a25.62 25.62 0 002.924-7.287c.34-1.474.548-2.976.912-4.443.048-.193.136-.421.332-.453.115-.019.229.042.324.109.84.595 1.002 1.757 1.075 2.783.132 1.836.215 3.685.185 5.526-1.756 1.509-3.695 2.749-5.752 3.765z"/><path fill="#F9B233" d="M86.495 320.604c-.408-.079-.772.253-1.046.565-1.229 1.4-2.436 3.248-3.184 4.954a20.815 20.815 0 01-1.427-4.124 47.912 47.912 0 00-3.136 3.393c-.206.247-.418.513-.467.83-.055.36.111.714.274 1.04a84.894 84.894 0 005.553 9.5c-2.221-.178-4.535-.343-6.604.486-2.068.828-3.792 2.974-3.365 5.16 1.564-1.659 4.015-2.43 6.248-1.966-.506 2.028-.944 4.4.368 6.027a18.904 18.904 0 018.877-7.135c.264-.102.555-.22.671-.477.171-.377-.13-.788-.409-1.093a97.19 97.19 0 01-5.274-6.294c-.188-.245-.384-.513-.396-.821-.014-.324.176-.617.357-.885 1.617-2.385 3.234-4.769 4.852-7.152l-1.226-1.498c-.181-.22-.385-.456-.666-.51zm27.486 5.482a15.46 15.46 0 00-4.073-9.139c-.186-.198-.405-.405-.677-.413-.474-.014-.726.542-.852.998-.426 1.541-.884 3.137-1.522 4.616l2.489 3.866c.192.298.392.621.381.977-.012.342-.217.643-.406.927a20.384 20.384 0 00-3.296 9c-.035.312-.06.643.08.924.169.341.538.526.878.697a24.728 24.728 0 017.397 5.676 9.428 9.428 0 00-1.237-6.396c2.195-.245 4.335.673 6.354 1.571-.25-1.925-1.598-3.569-3.218-4.638-1.62-1.069-3.504-1.651-5.36-2.22l6.861-6.785c.382-.379.792-.82.782-1.358-.007-.361-.206-.688-.399-.994l-.975-1.547a23.6 23.6 0 01-.471 1.42c-.479 1.308-1.344 2.767-2.736 2.818z"/><path d="M130.755 295.966a24.546 24.546 0 01-2.03 1.953c-1.756 1.509-3.694 2.749-5.752 3.765-4.57 2.256-9.729 3.406-14.791 3.934-8.229.859-16.737.7-24.813-1.219a50.305 50.305 0 01-2.127-.554 47.505 47.505 0 01-6.314-2.264 42.835 42.835 0 01-4.395-2.242c-.389-.229-.741.376-.353.604a43.441 43.441 0 004.94 2.482 49.47 49.47 0 006.758 2.308c3.951 1.047 8.03 1.646 12.111 1.901 4.288.269 8.604.18 12.883-.192 4.469-.389 8.944-1.143 13.16-2.715a34.294 34.294 0 002.234-.925c2.301-1.047 4.479-2.355 6.432-3.95a24.814 24.814 0 002.55-2.392c.305-.33-.187-.825-.493-.494z"/><path fill="#1B1B1B" d="M87.919 291.805c-1.359-.242-2.872.235-3.703 1.339-.628.836-.824 1.942-.692 2.979.115.91.476 1.785 1.022 2.521a51.772 51.772 0 018.027-1.436c-.242-1.12-.648-2.208-1.306-3.143-.795-1.127-1.988-2.017-3.348-2.26zm27.403-.608c-.434-.306-.927-.547-1.455-.604-1.121-.118-2.175.621-2.848 1.525-.793 1.066-1.191 2.408-1.152 3.734 2.496.112 4.983.404 7.438.871.518-2.005-.279-4.324-1.983-5.526z"/></svg>