<svg xmlns="http://www.w3.org/2000/svg" viewBox="0 0 509.9 557.4"><path fill="#E71C36" d="M265.7 377.2c-1.3-1.1-2.8-1.7-4.4-2.1 1.4-.1 2.7-.6 3.9-1.7 1.2-1.1 1.6-3.4.4-4.6-2.9-3-8.7-3.3-13.2-1.8.9-2.3.4-5.3-1.6-6.7-1.8-1.3-4.1-.5-5.5.8-.7.6-1.5 1.4-2.1 2.3-.2-.7-.4-1.3-.7-1.9-.6-1.4-2.4-2.8-4-2-1.4.7-1.7 2-1.8 3.5v2.2c-1.6-1.4-3.9-2.4-5.2-1.6-1.5.9-2.2 2.6-1.8 4.3.1.7.4 1.5.8 2.2-4.1-2-9.4-3.2-12.9-.3-1.3 1.1-1 3.5.1 4.6.2.2.5.4.7.6-1.1.1-2.2.3-3.2.7-2.5.9-5.4 3.5-4.3 6.3.9 2.5 5 2.5 7.1 2.4 1.3-.1 3-.5 4.5-1.1-1.3 2.3-1.5 5.1 1.6 6 4.7 1.3 8.6-2.7 11.2-6.7-.3 1-.8 2.1-.9 3.1-.2 1.7.3 4.5 2.5 4.8 2.1.4 3.7-.8 4.6-2.6.7-1.3 1.3-2.7 1.7-4.2v.1c.2 1 .6 2 1 3 .6 1.5 1.8 2.5 3.5 2.2 1.3-.3 2-1.7 2.2-3.3 1.7 3.3 5.3 5.8 8.8 5.7 4.3-.1 2.9-5.2.7-9.1 1.1 1 2.4 1.9 3.6 2.3 1.8.5 4.2.3 5-1.7.9-2.4-.7-4.4-2.3-5.7z"/><path fill="#E5CE25" d="M317.1 458.1c-.9-.1-1.8-.1-2.6-.1-1.6-.1-3.1 0-4.7 0s-3.2-.1-4.8-.1c1.2-1.2 2.2-2.4 3.3-3.6 1.3-1.4 2.5-2.8 3.7-4.3.5-.6 3.4-3.5 2.8-4.1-.4-.4-1.7.2-2.2.3-.9.3-1.7.6-2.6 1-1.7.7-3.3 1.6-5 2.4-2.4 1.1-4.9 2.2-7.3 3.3 0-.1 0-.3-.1-.4-.5-2.6-.8-5.2-1.2-7.8-.1-.4 0-1.3-.3-1.6-.2-.2-.5-.3-.6 0-1 2.6-1.5 5.4-2.4 8.1-.7 2.2-1.6 4.5-2.2 6.7-7.9 2.9-15.7 6.3-23.6 9.3-.2-4.5-.4-9-.7-13.5-.4-8-.7-16-2-23.9-1.1-6.9-2-13.9-2.7-20.9-.6-5.3-.9-10.6-2.2-15.8-.1-.6-.3-1.2-.5-1.8h-.5c-3.5.1-7.1-2.4-8.8-5.7-.2 1.7-.9 3-2.2 3.3-1.7.4-2.9-.7-3.5-2.2-.4-1-.8-1.9-1-3v-.1c-.5 1.4-1.1 2.8-1.7 4.2-.9 1.9-2.5 3-4.6 2.6-2.1-.4-2.7-3.1-2.5-4.8.1-1.1.6-2.1.9-3.1-2.6 4-6.5 8-11.2 6.7-1.6-.4-2.3-1.4-2.4-2.6-1.4 2.5-2.4 5.2-3.5 7.7-4.7 10.6-8.5 21.9-11 33.2-1.7 7.6-2.7 15.4-2.5 23.2.1 5.7.2 11.6.6 17.3-4.4-1.6-9-2.9-13.4-4.4-5.5-1.9-10.8-4.5-16.4-6.2 0 0-.1-3-.1-3.3-.3-3.2-1-6.5-2.1-9.6-.3-.8-1.5-4.2-2-1.9-.6 2.5-1 5.1-1.6 7.6-.2.7-.3 1.4-.5 2.1-.9-1.8-2.4-3.4-3.4-4.8-1.3-1.8-2.9-3.3-4.6-4.8-.8-.7-1.7-1.4-2.6-2-.6-.4-1.2-.9-1.3.2v1.1c.1.7.3 1.5.6 2.2.5 1.4 1.3 2.7 1.9 4 .7 1.5 1.2 3.5 2 5.3-1.7.1-3.4.4-5 1-.7.3-4 1.4-3.9 2.4.1.7 2 1.2 2.5 1.4 1.1.5 2.2.9 3.3 1.4 1.4.6 2.9 1.7 4.4 2.3-.5.9-1 1.9-1.5 2.7l-1.8 2.7c-.4.6-1.4 1.5-1.2 2.3.2 1.1 2.7.6 3.5.4 1.3-.3 2.4-.9 3.6-1.5 3.1-1.4 6.6-2.4 9.7-4 4.7 3.8 10.3 6.8 15.6 9.6 5.1 2.7 10.4 5.4 16 6.7.9 5 2.1 10 3.3 15 1 4 2.1 8 2.7 12.1.5 3.3.5 6.6.8 9.9.6 7.6 1.1 15.3 1.3 22.9-3.9-.7-8.5-.2-12.5.2-2.3.2-6 .4-7.1 2.9-1 2.4 5.6 2.5 6.7 2l-2.4 1.2c-1.3.6-2.6 1.3-3.5 2.3-.8.9-1.5 2.6-.9 3.7.5.9 1.5.7 2.4.6 2-.3 3.9-1.3 5.8-2 1.7-.6 3.8-1.3 5.8-2-.7.9-5.3 7.5-1.9 7.5 1.6 0 3.2-1.1 4.5-1.9 2-1.2 3.8-2.7 5.7-4.1 2.7-2.1 5.1-4.6 7.1-7.4.9-1.3 2-2.6 2.5-4.1.4-1.2.7-2.5 1-3.7 1.2-5 2.2-10.4 5.2-14.7 1.5-2.2 3.7-3.9 6.2-4.8 13-4.6 16.1 11.6 18.2 20.1-1.2.9-2.7 1.4-4 2.1-1.9.9-3.7 2-5.5 3.1-1.6 1-5.5 2.4-5.2 4.8.2 1.9 2.5 1.4 3.7 1 1.6-.5 3.1-1.2 4.6-2-1.3 2.2-4.9 5.3-3.2 8.1 1.1 1.9 3.9-1.1 4.9-1.9 2-1.7 3.9-3.5 5.8-5.2-.5 2.2-.4 4.5.2 6.7.4 1.4 1.8 2.5 3.1 1.4 2.2-1.9 2.1-5.9 3.1-8.5 2.3-6.3 2.9-10.4 2.6-17.2-.3-6.9-.6-13.8-.8-20.8-.2-4.7-.1-9.2.2-13.9.1-1.7-.8-13.1.2-13.8 7.6-5.1 15.5-9.4 24-12.8.2-.1 1 .3 1.2.4.5.1 1 .3 1.5.4.9.3 1.9.5 2.8.8 1.8.5 3.7 1 5.6 1.4 3.8.8 7.7 1.3 11.6.9.4 0 1.2-.1 1.2-.6s-.9-.9-1.3-1.1c-.7-.5-1.5-1-2.2-1.4-1.5-.9-3-1.8-4.4-2.8-.7-.4-1.4-1-2.1-1.5.7-.2 1.5-.4 2.2-.6 3.6-1 7.8-2.1 10.9-4.1.8-.8-1.2-1.3-1.5-1.4z"/><path fill="#8B5222" d="M250.4 404.3c-2.7-6.1-7.4-10.6-14.3-9.3-6 1.1-11.1 8.5-12.8 13.9-.1.2.3.4.4.2 2.8-4.5 5.9-7.9 10.5-10.6 6.6-3.8 11.7 2.4 16 6.2.1 0 .3-.2.2-.4zm.1.6c-.1 0-.1.1 0 .1s.1-.1 0-.1z"/><path fill="#DC87B8" d="M234.1 499.6c-1.7-.1-3.4.3-4.8 1.3-1.8 1.2-2.4 4.2-1.4 6.3 1.1 2.7 5.1 4.9 8 3.6 3.7-1.7 4.2-6 1.8-9.1-1-1.1-2.2-1.9-3.6-2.1zm-8.9 30.6c-3 .8-3.9 4.1-2.7 6.7.8 1.8 2.8 3.2 4.7 3.2 0-.1 0-.1.1-.2.4-1.2.7-2.5 1-3.7l1.2-5.1c-1.2-1-2.8-1.3-4.3-.9zm36.7-14.6c-.7.5-1.3 1.2-1.6 2-1.7 4 1.8 7.4 5.7 7.6.7 0 1.3-.1 1.9-.2-.1-3.3-.3-6.7-.4-10-2-.7-4.3-.7-5.6.6zm-39.4-29.4c-1.1-2.5-4.5-2.7-6.4-1.3-1.7 1.2-2.6 4.4-.9 6 3.1 3.2 9.1-.4 7.3-4.7zm-26.7-16.6c1.2-1.1 1.8-2.5 2-4-2-.6-4-1.2-5.9-1.9-2.2-.8-4.4-1.6-6.5-2.5-.9 2.2-.7 4.7.5 6.8 1.8 3.3 7 4.4 9.9 1.6zm64.7 33.5c2.1 1 4.5 1.3 6.5.7 0-3.1.1-6.3.2-9.5 0-.7-.1-3.2-.2-5.9-3.3-1.2-7.3-.5-9.4 2.6-2.4 3.7-1.1 10 2.9 12.1zm19.5-36.9c-3.2-.3-6.2.9-6.6 4.3-.2 1.6.2 4 1.3 5.4 3-1.8 6.1-3.4 9.3-5-.1-2.3-1.3-4.4-4-4.7zm-18.4-39.4c1-.2 1.7-.7 2.3-1.3-.6-4.2-1.1-8.4-1.6-12.6-1.7-.3-3.6.2-5.1 1.5-3 2.6-2.3 7.9 0 10.7.9 1.3 2.9 2.1 4.4 1.7zm-58.8 40.4c.1.3.2.6.4.9 1.5 2.7 5.1 3.7 7.7 2.1 2.7-1.7 2.6-5.4.8-7.6-1.9-2.5-4.8-2.5-6.8-1.3.1 2.2.2 4.5.3 6.7-.7-.2-1.6-.5-2.4-.8zm8.9-56.2c.9.2 1.9.2 2.9.1 4.7-.7 7.3-6.1 6.5-10.4-.4-2-1.2-4.6-3.4-5.4-2.2 5.1-4.2 10.4-6 15.7z"/><path fill="#8B5222" d="M250.8 433.4c2.9-1.9 9.2-2 10 2.3.1.7 1.2.5 1.2-.2.2-4.9-4.4-6.6-8.7-5.8-6.2 1.2-8.8 5.9-9.5 12-.5 4.8 1.7 12.5 6.7 14.5.3.1.5.2.8.3-5 11.7-26.2 13.5-31.5 1.3 6.6-.4 7.2-10.6 5.7-15.3-1.5-4.5-9.1-9.6-12.3-3.6-.2.4.2.8.6.6 4.6-2.8 8.4.1 9.8 4.8.7 2.2.5 4.5 0 6.8-.4 1.5-1.3 2.6-2.4 3.6-.9.8-3.2 1.4-3.2 2.8-.1 2.9 3.6 6.4 5.8 7.8.3.2 2.9 1.3 2.9 1.4v.2c-.1 7.5 1.4 15.9 8.7 19.7 2.6 1.4 7.1 1.4 10.3 0-2.4 2.5-5.4 4.4-9.4 5.3-.3.1-.2.5.1.5 7.1.7 11.7-4.8 15.2-10.3 4.6-7.3 5-14.1 5.5-22.2.5 1.3.9 2.7 1.2 4.2.4 2.2.5 4.5.5 6.8 0 1.7-1 4.4-.1 5.8 2.6-1.3 2.5-7.3 2.5-9.8 0-2-.3-4-.7-5.9-.1-.4-1.8-5.4-1.9-5.3 1.5-1 2.5-2.6 2.9-4.7.2-1-1.3-1.8-1.8-.8-4.8 9.5-13 .1-13.3-6.6-.3-3.3 1.6-8.4 4.4-10.2z"/><path fill="#FFF" d="M225.5 442.6l.3.9c2 3 4.7 4.9 7.8 5.4 3.6.5 7.2-1 10.2-4-.1-1.1-.1-2.2 0-3.2.6-5.4 2.7-9.7 7.5-11.4.1-.7.3-1.3.4-2 1.8-12.6-3.2-23.7-11.4-24.9-8.1-1.2-16.2 8-18 20.6-.9 5.8-.2 11.3 1.5 15.7.8.9 1.4 1.9 1.7 2.9z"/><path fill="#231F20" d="M225.5 442.6c.1.3.2.5.2.8 0 .1.1.2.1.2 2 2.9 4.7 4.8 7.8 5.3 3.6.5 7.2-1 10.2-4-.1-1.1-.1-2.2 0-3.2.6-5.3 2.7-9.6 7.3-11.4-1.1-7.3-5.8-12.9-12.1-13.4-2.4-.2-4.7.4-6.7 1.5l6.5 13.4-12.4-7.3c-1.4 2.4-2.3 5.3-2.6 8.4-.3 2.9.1 5.7.9 8.2.4.4.7 1 .8 1.5z"/><path fill="#FFF" d="M234.4 468c-1.6 0-3.1-.1-4.3-.4-.3.8 0 2.3.1 2.9.1 1.2.3 2.4.8 3.5.5 1.2 1.6 2.5 2.9 2.9 1.5.4 2.9-1.3 3.5-2.5 1-2 .8-4.5.8-6.7-1.4.2-2.7.3-3.8.3zm-12.8-4.5c-.1.6-.1 1.2-.1 1.5 0 1 .1 2.1.1 3.1.1 2.1.4 4.4 1.4 6.3.2.4.5.8 1 1.1.9.6 2.2 0 2.9-.6 1.1-.9 1.7-2.4 2.1-3.7.3-1 .4-2.1.4-3.1v-.5c-3.7-.9-6.1-2.5-7.8-4.1zm24.1 2.4v-.2c-2 1-4.4 1.8-7.4 2.1v.3c.1 2 .9 4.1 1.9 5.8.6 1 1.8 2.1 3 1.9 1.4-.2 2.2-1.8 2.7-2.9.6-1.5.5-3.1.3-4.7-.2-.8-.3-1.6-.5-2.3zm6.5-6.2c-1.1 1.8-3 4-6.1 5.7.2.5.3 1 .5 1.5.3.8.5 1.6.9 2.3.6 1 2.2 1.4 3.2.8 1.2-.7 1.6-2.1 1.9-3.3.4-1.4.5-2.9.3-4.3 0-.5-.2-1.9-.7-2.7z"/><path fill="#00ADEE" d="M509 428.2c-.1-.1-.2-.1-.2-.2-1.2-.8-2.4-1.9-3.7-2.5.4-.2.7-.4 1.1-.6 1.1-.5 5.3-3 2.2-3.8-1.6-.4-3.3-.7-4.8-1.2s-2.8-1.7-4.1-2.7c-1.6-1.3-2.9-3-4.5-4.3.6-.1 1.2-.1 1.8-.3 1-.3 4-2 3.7-3.4-.2-1.2-3.1-.9-4-1.1-1.6-.4-3.2-.9-4.7-1.6-3-1.3-5.8-2.9-8.9-4 .6.2 2.6-2.3 1.6-2.7-.2-.1-.5-.1-.8-.1-2.6-.1-5.3-1.8-7.6-2.9-1.3-.6-2.5-1.3-3.8-1.9-.6-.3-3.3-1.6-3.9-1.3.4-.3.8-.5 1.2-.7 1.1-.7 5.9-4.1 4.7-5.8-.5-.7-2.9-.6-3.7-.7-1.5-.2-3.2-.1-4.8-.2-1.7-.1-3.2 0-4.9-.3.5.1 2.3-2.8 2.2-3.2-.1-.3-.3-.5-.6-.6-.8-.3-1.9-.3-2.7-.4-1.1-.2-2.3-.1-3.5-.2-2.2-.1-4.5-.1-6.7-.4-4.1-.7-6.8-2.7-9.5-5.2 1-.1 2-.3 2.9-.7.3-.1 2-.8 2.1-1.2v-.4c-2.1-1.1-4.2-1.7-6.1-3.2-1.7-1.4-3-3-4.2-4.8.2.3 3.2-1 3.5-1.3.3-.2.4-.7.2-1-.1-.2-.4-.3-.6-.4-4.2-1.6-8.6-4.2-12-7.1-2.1-1.8-3.7-4-5.2-6.2.9.3 1.9.3 2.8.4.3.1.8.1.9-.2.1-.2 0-.5-.1-.8-1.7-3.4-3.3-6.5-4.3-10.2-.5-1.8-.8-3.6-1.1-5.5l-.3-2.7c0-.4.2-2.3-.1-2.5.8.9 1.8 1.5 2.8 2.1.5.3 1 .5 1.6.6h1.6c-2.3-3.9-4.1-8.1-5.2-12.5-.3-1.1-.6-2.3-.8-3.4-.1-.6-.7-2.2-.4-2.8.4-.9 4.1.3 5.2-.1.8-.3.6-.5.2-1.3-1.6-3.2-3.8-6.2-5.4-9.5-.7-1.6-1.4-3.1-2.1-4.8-.5-1.3-1.4-2.5-2.1-3.6-1.3-1.9-2.6-3.8-4.1-5.6-1.2-1.5-2.6-3-4.1-4.3-4.2-3.7-9.1-5.4-14.5-6.5-5.7-1.1-11.8-.9-17.4.8-5.2 1.5-8.5 5.5-13 8.3-.9.9-2.7 1.5-3.8 2.1-1.4.6-2.8 1.2-4.2 1.6-1.4.4-2.9.7-4.4.8-1.4.1-2.9-.3-4.4-.5.7 2.3 4.2 4 6.2 5.1-2.1 2.4-4.1 4.9-6.3 7.3-1.9 2.1-4.3 3.7-6.7 5.2-.7.5-3 1.4-3.3 2.2-.4 1 1.5 1.4 2.2 1.7 1.5.7 3.2 1.1 4.9 1.1-.9 1.8-1.9 3.6-2.8 5.4-2.8 5.2-5.8 10-9.5 14.6-1.4 1.8 1.7 1.4 2.7 1.2 1.4-.4 2.7-.9 4-1.5.3-.1.6-.3.9-.4-1.3 3.7-2.5 7.5-3.8 11.1-.9 2.5-2.1 4.8-3.3 7.2-.4.8-1.1 1.4-1.2 2.3-.1 1.3 1.5 1.1 2.4.9 1-.2 1.9-.6 2.9-1 .3-.1 1.6-.6 1.7-.9-.9 3.2-2.1 6.3-3.5 9.3-.7 1.5-1.5 3-2.4 4.4-.4.7-.9 1.5-1.4 2.2-.1.1-1.3 1.3-.7 1.4 2.9.8 6.5-.6 9-2.1-.3.2-.4 2.7-.5 3.2-.2 1.1-.5 2.2-.8 3.3-.6 2.1-1.2 4.1-2 6.1s-1.6 4.1-2.5 6c-.8 1.8-2 3.5-2.5 5.4 3.7-.3 6.8-2.3 9.4-4.9 0 1.8 0 3.5-.1 5.3-.2 2.4-.6 4.8-1.4 7-.4 1.1-.7 2.3-1.3 3.3-.1.1-1.2 2.5-.8 2.4 1.7-.4 3-1 4.4-1.9.4-.2.8-.5 1.2-.8-.2 2.6-.7 5.1-1.5 7.6-.4 1.3-.9 2.1-1.5 3.3-.4.6-1.1 1.9.1 2.1.3.1.7 0 1 0 1.6-.3 3.4-.6 4.9-1.3.9-.4 2-.9 2.9-1.6-.2 1.6.2 3.5.1 5.1-.2 3.4-1.9 5.9-3.4 8.9 1.4.6 3 .7 4.5.6 1-.1 1.6-.8 2.5-1 1.2 2.2 2.5 4 4.7 5.3.9.5 1.9.9 2.8 1.1 2.8.7 5.9.4 8.7.3 3.2 0 6.5-.1 9.7-.1 6.4-.1 12.8-.1 19.2.3 9.7.5 19.6 1.5 29.2-.2 6.2-1.1 12.5-1.5 18.8-1.4 3.2 0 6.4.2 9.5.4 3.1.2 5.8.6 8.9.1 7-1 13.9-2.2 21-2 5.4.2 10.8 1.1 16.2 1.6 2.7.2 5.4.4 8.1.3.8 0 2.9.2 3.6-.3 1.2-.2.5-1-.1-1.5z"/><path fill="#8BC53F" d="M424.3 343.4c-.7.1-1.5.3-2.2.4.8 1.8 1.7 3.5 2.6 5.3.1.2.2.5.1.8-.2.3-.6.3-.9.2-.9-.1-1.9-.2-2.8-.4 1.5 2.2 3.1 4.4 5.2 6.2 2.3 2 4.9 3.7 7.7 5.2.6-.7 1.1-1.6 1.6-2.5 1.9-3.1 8.4-11 4.5-14.9-2.1-2.1-5.9-1.3-8.5-1.2-2.5.2-4.9.5-7.3.9zm13.9 19.6c.2.1.5.2.6.4.2.3 0 .7-.2 1-.3.3-3.4 1.5-3.5 1.3 1.2 1.8 2.5 3.5 4.2 4.8 1.9 1.5 4 2.2 6.1 3.2v.4c0 .4-1.7 1-2.1 1.2-.9.4-1.9.6-2.9.7 1.8 1.6 3.6 3.1 5.7 4 .1-.3.2-.6.3-.8.7-1.6 1.5-3.2 2.1-4.9 1.2-3.4 2.1-7.2 1.4-10.8-.9-4.8-8.8-2.1-12.2-.6.2 0 .4.1.5.1zm-17.1-40.3c1 2.9 2.3 5.7 3.9 8.3h-1.6c-.6-.1-1.1-.3-1.6-.6-1-.6-2-1.2-2.8-2.1.3.3.1 2.1.1 2.5.1.9.1 1.8.3 2.7.2 1.8.6 3.7 1.1 5.5.2.8.5 1.5.7 2.3 2.4-.2 5.9-3.6 7.1-4.5 2-1.4 4.8-3 6-5.2 3.2-5.4-3.4-6.5-7.5-7.7-1.8-.5-3.9-1.3-5.7-1.2zm-6.8-29.7c.8 1.2 1.6 2.3 2.1 3.6.4 1.1.9 2.2 1.4 3.2 1-.7 1.8-2 2.5-2.8 1.5-1.8 2.7-3.8 3.3-6 1.1-4.1-6.2-2.9-7.9-2.5-1.1.3-2.5.6-3.5 1.4.7 1 1.5 2 2.1 3.1zm4.7 9.3c1.5 2.9 3.5 5.6 4.9 8.6.4.8.6 1-.2 1.3-1.1.4-4.8-.7-5.2.1-.3.6.3 2.2.4 2.8.2 1.2.5 2.3.8 3.4.1.2.1.4.2.6.7-.1 1.3-.5 2-.9 1.5-1 2.9-2.2 4.4-3.2 2.2-1.5 4.5-2.7 5.6-5.2 2.3-5-6.1-6.5-9-7-1-.2-2.5-.5-3.9-.5z"/><path fill="#EB008B" d="M351.5 289.7c.6-.1 1.2-.3 1.8-.4 1.5-.4 2.9-.9 4.2-1.6 1.2-.5 2.9-1.2 3.8-2.1 1.8-1.1 3.4-2.4 5-3.7-.1 0-.2-.1-.3-.1-4.5-.6-8.1-2.4-12.1-5.6-5.5-4.4-5-8.8-7.8-8.4-2.5.4-3.6 14.7 5.4 21.9z"/><path fill="#FFF" d="M399 299.9c-2-1.5-4.5-2.2-7.5-1.5-4.9 1.2-7.5 6-8.1 11-.5-3.6-2.2-7.1-5-8.9-1.9-1.3-4.2-1.7-6.9-.8-2.6.9-4.4 2.8-5.5 5.3-.3-2.1-1.1-4-2.3-5.4-1.4-1.5-3.3-2.4-5.8-2.3-6.3.4-9.6 8.3-8.7 14 1.1 6.2 8.2 7.9 12.9 4.7 1.2-.9 2.2-2.1 2.9-3.5.2 1.6.5 3.2 1.1 4.5 2.8 6.3 11 6.2 15 1.5 1.2-1.4 1.9-3.1 2.2-5 .1 1.3.4 2.5.8 3.6 2.6 7.1 11.6 7.6 16.4 2.8 5.2-5.1 4-15.8-1.5-20z"/><path fill="#EB008B" d="M407.4 334.4c-.1-.3-.3-.5-.5-.6-.6-.1-.4 1.2-.4 1.5 0 1.2 0 2.4-.4 3.6-.5 1.6-1.5 2.9-2.7 4.1-1.4 1.4-3.5-.3-4.3-1.5-.5-.7-.7-1.5-.9-2.4-.1-.5-.4-2-.9-2.2-.8-.4-.7 1.5-.7 1.9 0 .9.2 1.9.3 2.8.1 1.6.1 3.2-.3 4.8-.4 1.6-1.3 3-3 3.4-2 .6-3.2-.6-3.9-2.3-.4-.9-.6-1.7-.9-2.6l-.6-1.2c-.2-.4-.3-1.2-.8-1.4-.4-.2-.8.2-.8.7.4 1.9.5 3.8.6 5.7.1 1.9-1.4 8.9-5.2 7-1.6-.8-1.8-2.6-2.2-4.2-.4-1.5-.7-3-.9-4.5-.1-.7-.1-1.3-.3-1.9-.1-.5-.1-1.3-.4-1.7-.7-.7-.7 1.5-.7 1.8-.1.9-.1 1.8-.1 2.8 0 1.8 0 3.6-.3 5.4-.3 1.6-.8 3.2-1.3 4.8-.4 1.2-1.2 2.2-2.3 2.8-.9.5-2.2.3-3.1-.1-1.4-.5-1.8-1.6-2.2-2.9-1-3.2-1.3-6.5-1.5-9.8-.1-1.7-.3-3.3-.5-4.9-.1-.8-.2-1.7-.3-2.5-.1-.4-.3-1.2-.8-.5-.2.4-.3 1-.4 1.5-.2 1-.4 2.1-.5 3.1-.1 1.1-.1 2.1 0 3.2.1 1.4.4 4.6-2 4.1-1-.2-1.9-1.1-2.4-2-.6-1.1-.9-2.5-1.2-3.7-.4-1.7-.5-3.5-.7-5.2-.1-.8-.1-1.7-.4-2.5-.2-.6-.6-.6-.8.1-.8 2-1.2 4.4-3.9 3.8-2.3-.5-2.9-3.6-3.4-5.5-.7-2.9-.5-5.9-1.2-8.8-.1-.3-.5-.2-.5.1-.4 3-.7 6.2-.1 9.2.4 2.3.9 4.4 2.7 6.1 1 1 2.9 1.5 4.2.8.7-.3 1.2-.8 1.5-1.3-.1 3.4.8 7.2 2.6 9.6 1.6 2.1 4.3 1.7 5.9.1.1.8.2 1.6.4 2.4.7 4.3 1.8 9 6.5 10.2 4.7 1.2 6.6-4.8 7.1-10.8.9 2.2 2.5 3.7 5.1 3.5 1.7-.2 3-1.7 3.8-3.1.9-1.4 1.3-3.1 1.3-4.8 0 .1.8.6.9.7.3.3.7.6 1.1.8.8.4 1.8.6 2.7.5 4.4-.6 5.1-5 4.5-8.9 1.2 1.6 2.9 2.6 4.8 2.4 2-.2 3-2.6 3.7-4.2.7-1.5 1.1-3.2 1.1-4.8.1-.5.1-1.8-.1-2.5z"/><path fill="#1B75BB" d="M456.8 402.5c-.5-.9-2.3-2.3-2.8-2.7-1.2-1.3-2.4-2.5-3.4-3.9-1.2-1.6-1.9-3.6-2.8-5.4.5 0 .9 0 1.4.1.8.1 6.9.1 6.3-1.1-.2-.5-1.2-.9-1.6-1.3-.7-.6-1.3-1.1-2-1.6-2.6-2-3.9-3.8-4.7-5.9-2.7-1-4.8-2.6-6.8-4.5 1-.1 2-.3 2.9-.7.3-.1 2-.8 2.1-1.2v-.4c-2.1-1.1-4.2-1.7-6.1-3.2-1.7-1.4-3-3-4.2-4.8.2.3 3.2-1 3.5-1.3.3-.2.4-.7.2-1-.1-.2-.4-.3-.6-.4-4.2-1.6-8.6-4.2-12-7.1-2-1.7-3.5-3.8-5-5.9l-.1-.1c-.1-.1-.2-.1-.4-.2-.1 0-.3-.1-.3-.1-.1 0-.2-.1-.3-.2-.6-.1-1.3-.2-1.9-.4-.3-.1-.6-.1-.8.1-.2.2-.1.6 0 .9 1.9 4.1 4.6 7.6 7.3 11.3.9 1.3 2 2.6 3.3 3.5-1.8-.1-3.6-.2-5.3-.7-1.5-.4-2.6-1.5-3.7-2.5-.8-.8-1.8-1.4-2.8-1.8-1.5-.6-1.6 0-1.2 1.4.3 1.2.8 2.4 1.2 3.6.5 1.7.9 3.5 1.4 5.2.9 3.4 2 6.9 4 9.8-2.5-.4-5-.8-7.5-1.7-3.2-1.1-5.7-3.4-8.3-5.4-1.6-1.3-1.9.3-1.3 1.7.8 1.6 1.7 3.1 2.3 4.8.5 1.3.7 2.8 1 4.1-.9-.4-1.9-.8-2.9-1.2-3.1-1.4-4.8-4.4-7.5-6.2-1.6-1-.6 2.2-.5 2.6.4 1.1.7 2.2 1 3.4.3 1.1.6 2.2.8 3.4.1.5.1 3 .4 3.3-.9-.8-1.7-2-2.4-2.7-1.3-1.4-2.6-2.9-4-4.3-1.9-2.3-3.7-5.1-6.3-6.7-1.3-.8-1.3 1.5-1.5 2.2-.4 1.7-.5 3.6-.9 5.2-.6 2.6-1.4 5.1-2.4 7.6-.9 2.3-2.7 4.9-3.3 7.4-2.1-3.3-3.9-6.8-5.5-10.3-.8-1.8-1.5-3.6-2.2-5.4-.3-.9-.6-1.9-.9-2.7-.1-.3-.9-1.1-1.1-1.1-.4 0-.5.9-.7 1.3-.4 1.4-.4 2.7-.7 4.1-.4 2-.9 3.9-1.6 5.8-1 3.1-1.9 6.1-2.1 9.3-3.6-2.8-5-7.5-5.7-11.8-.3-2.3-.3-4.4-.3-6.6 0-1-.1-3-1.6-2-1 .7-1.7 1.9-2.4 2.8-.9 1.2-1.8 2.4-2.6 3.6-1.6 2.5-2.9 5.2-3.4 8.1-1.2-3.8-2.4-7.6-3-11.5-.5-3.3-.7-6.6-1-9.9 0-.4-.9 1-.9 1-.3.6-.4 1.2-.8 1.8-1.8 3.5-2.9 7-4.4 10.6-.8 2-.5 4.3-.6 6.5-.2 2.4-.6 4.8-1.4 7-.4 1.1-.7 2.3-1.3 3.3-.1.1-1.2 2.5-.8 2.4 1.7-.4 3-1 4.4-1.9.4-.2.8-.5 1.2-.8-.2 2.6-.7 5.1-1.5 7.6-.4 1.3-.9 2.1-1.5 3.3-.4.6-1.1 1.9.1 2.1.3.1.7 0 1 0 1.6-.3 3.4-.6 4.9-1.3.9-.4 2-.9 2.9-1.6-.2 1.6.2 3.5.1 5.1-.2 3.4-1.9 5.9-3.4 8.9 1.4.6 3 .7 4.5.6 1-.1 1.6-.8 2.5-1 1.2 2.2 2.5 4 4.7 5.3.9.5 1.9.9 2.8 1.1 2.8.7 5.9.4 8.7.3 3.2 0 6.5-.1 9.7-.1 6.4-.1 12.8-.1 19.2.3 9.7.5 19.6 1.5 29.2-.2.3-.1.6-.1.9-.1 0 0 0-.1-.1-.1-2.5-2.5-3.1-6.2-3.7-9.7.2.8 2.7 2.1 3.4 2.5 1.3.8 2.6 1.4 4 1.9s2.8.8 4.2.9c.8.1 1.6-.1 2.3 0 .5 0 1.4.3 1.9.1.2-.1.7-.7 0-.9-1.3-1.9-2.8-3.8-4-5.8-.7-1.2-1.1-2.6-1.6-3.9 3.5.9 7 1.7 10.7 1.8 1.7 0 3.4 0 5-.2.8-.1 1.7-.3 2.5-.5.5-.2 1.5-.2 1.9-.4.8-.5-.3-1.2-.7-1.7-.5-.6-1.1-1.2-1.6-1.8-1.1-1.2-2.1-2.4-2.8-3.8-.7-1.3-1.2-2.6-1.6-4-.2-.7-.4-1.4-.5-2.2-.1-.3-.1-1.9-.3-2 1.3.8 2.8 1.4 4.1 1.8 1.6.6 3.3.9 5 .9.9 0 4.4.2 4.6-1 .5-.4.5-.6.4-.8zm52.7 27.6c.8-.6.1-1.4-.5-1.9-.1-.1-.2-.1-.2-.2-1.2-.8-2.4-1.9-3.7-2.5.4-.2.7-.4 1.1-.6 1.1-.5 5.3-3 2.2-3.8-1.6-.4-3.3-.7-4.8-1.2s-2.8-1.7-4.1-2.7c-1.6-1.3-2.9-3-4.5-4.3.6-.1 1.2-.1 1.8-.3 1-.3 4-2 3.7-3.4-.2-1.2-3.1-.9-4-1.1-1.6-.4-3.2-.9-4.7-1.6-3-1.3-5.8-2.9-8.9-4 .6.2 2.6-2.3 1.6-2.7-.2-.1-.5-.1-.8-.1h-.2c-.8.5-1.6 1-2.5 1.4-1.9.7-4.1.7-6.1.9 1.2 2 2.5 3.4 4.4 4.8.8.6 1.6 1.1 2.4 1.6-1 0-2.1.1-3.1 0-2-.1-3.8-1.5-5.9-1.7.9 1.9 2.1 3.2 3.9 4.4.9.7 1.9 1.3 2.9 2 .4.2 2.4 1.7 2.8 1.5-1.9.7-3.9 1.1-5.9 1.6.8 1.2 1.9 2.2 3.1 2.9.5.3 3.1 1.9 3.6 1.6-1.1.5-2.2 1-3.3 1.4-1.5.5-3.2.6-4.8.9.1 0 1.9 2 2.1 2.2.8.7 1.6 1.4 2.5 2 .7.5 1.4.9 2 1.2 5.3.2 10.6 1.1 15.9 1.6 2.7.2 5.4.4 8.1.3 1.2 0 3.2.3 3.9-.2z"/><circle fill="#8BC53F" cx="394.5" cy="306.4" r="4.1"/><circle fill="#8BC53F" cx="374" cy="314.9" r="4.1"/><circle fill="#8BC53F" cx="356.1" cy="307.4" r="4.1"/><path fill="#8BC53F" d="M380.3 279.2c-.1-.7-.6-1.3-1.7-2.3-1.9-1.7-3.9-3.3-6-4.8-1.4-1-4.4-3.5-6.2-1.7-1.5 1.5 1.1 5.9 1.7 7.4 1 2.5 1.8 6 3.9 7.8 3 2.6 6.4-1.8 7.6-4.2.5-.9.8-1.6.7-2.2zm11.2-7c-.6-2.6-2.2-10.1-6.2-9-3.2.9-3.1 6.3-3.7 8.8-.4 1.8-1.1 3.6-.2 5.4.7 1.5 5.1 1 6.4 1.1 1.3.1 2.9.4 3.7-.9 1-1.6.4-3.8 0-5.4z"/><path fill="#EB008B" d="M395.9 284.5c-.1-1.2.1-2.5.7-3.5 1.4-2.2 4.6-2.9 6.5-4.6 6-5.1 5.4-10 8.4-9.6 4 .5 1.8 12.3 1.2 14.3-1 3.3-2.9 7.4-5.6 9.6-2.7 2.1-6.6 1.1-8.8-1.2-1.2-1.1-2.2-3-2.4-5z"/><path fill="#E782B4" d="M211 83.6c-1.7-4.8-4.8-9.1-9.6-12.2-7.5-4.8-20.1-4-27.6 0-2.7 1.4-4.6 4.3-7.4 5.5-3.4 1.4-3.6-3.5-6.3-3-1.3.2-1.3 3-2.4 2.6-.6-.2-.6-1.6-.7-2.1-.3-1.8-.6-4.3-3.1-3.3-2 .8-.4 2.9-3.3 3.2-2.5.2-4.8-2-6.9-3.2-3.6-1.9-7.4-3.4-11.5-3.2-3.8.2-7.5 1.1-11 2.7-6.2 2.8-10.9 7.9-13.4 14.2-2.9 7-3.2 14.8-2.5 22.3.3 3.8 1 7.6 1.8 11.4 1 4.6 1.4 9.6.9 14.4-.1.7-.2 1.3 0 2 .5 3 2.9.5 4.2 1.8 2.3 2.2-1.3 7.1-1.1 9.8.1.8.6 1.6 1.4 1.7.7.1 1.3-.4 1.8-.8.5-.5 1-1 1.7-1.2 1.8-.4 3.1 3.3 3.8 4.4 1.3 2.3 2.7 4.5 4.1 6.7 3.9 5.9 8.2 11.6 12.8 16.9 1.8 2.1 3.7 4.3 5.4 6.5 1.4 1.8 4.1 8.9 7.1 7.4 1.4-.7 1-1.9 2.6-.6 1 .8 1.6 2.3 2 3.5.2.7.3 1.4.5 2 .3.6.8 1.2 1.5 1.3.8.1 1.6-.5 2-1.3.4-.7.6-1.6.9-2.4 1-2.4 1.7.2 3.3-.8.8-.5 1.5-2.4 2.4-2.5.9-.1 1 1.3 1.9 1.6 1.9.6 2.8-1.9 3.5-3.1 1-1.6 2-3.1 3.5-4.3 5.6-4.5 9.8-10.1 13.9-15.9 1-1.4 1.7-3.8 3.2-4.7 1.2-.7 1.6-.1 2.2.9.2.4 0 1.2.5 1.4.8.4 1.2-.5 1.5-1 1-1.7 1.2-4.4 2-6.3 1.1-2.6 1.5-5.4 2.3-8.2.1-.5.5-1.6.9-1.8.7-.3 1.2.6 1.9.1.4-.3.7-.8.9-1.2 1.4-3.7.8-7.8 2-11.6 1.9-6.1 4.4-11.9 6-18.2 2.3-9.8 3.9-21.8.4-31.4z"/><path fill="#7F3F97" d="M145.4 68.9c1 1.9 1.2 3.1 1.1 3.9 1.3.9 2.7 1.6 4.2 1.4 2.9-.3 1.3-2.4 3.3-3.2 2.5-1 2.8 1.5 3.1 3.3.1.5.1 1.9.7 2.1 1.1.4 1.2-2.3 2.4-2.6 2.7-.5 2.9 4.4 6.3 3 1.9-.8 3.4-2.4 5-3.7 0-.6 0-1.2.1-1.7.6-2.9 2.8-5.1 3.7-7.8.5-1.5.2-3.1-.2-4.6-.1-.4-.5-2.4-1.1-3.2-.2-.3-.4-.4-.6-.3-.3.2-.2.4-.2.6-.1.7-.1 1.4-.3 2.1-.4 1.4-1.2 2.6-2.1 3.8-1.7 2.3-3.9 4.4-4.8 7.2-.1.3-.2.7-.3 1.2-.4-.6-.7-1.3-.8-2.2-1-5.5 2.4-11.2 5.7-15.2.1-.1.2-.2.3-.4 3.1-3.7 5.6-8.7 6.1-13.6.5-5.2-.5-10-3.8-14.2-.9-1.2-2-2.4-3-3.5-3.6-4-8.1-8.2-9.4-13.7-.3-1.3-.4-2.6-.3-4 .1-.8 1.2-3.4.2-3.8-1-.4-2.8 2-3.3 2.6-.9 1.2-1.5 2.5-1.9 3.9-.7 2.6-.5 5.4.1 8 1.1 4.8 3.4 9.3 5.4 13.8 1.7 3.9 3.5 8.4 2.8 12.8-.7 4.5-4.6 7.5-7 11-2.2 3.2-3.1 6.6-3.9 10.4-.4 1.7-.6 3.5-.7 5.4-3-5.6-9.1-10-8.3-16.9 0-.3.1-.7 0-1-.1-.3-.4-.6-.8-.5-.3.1-.5.4-.6.8-1.4 4.3-.7 9.2.5 13.5.4 1.9 1.5 3.6 2.4 5.3zm-58 133.3c-1.1 3.6-.6 9.8 3.4 11.8 1.2-2.4-.1-5.8 1.4-8.5 1.8-3.3 5.4-3.5 8.7-4.5.3-.1.6-.2.8-.3-1.3 2.8-1.9 5.8-1.3 8.5.6 2.5 1.8 5 3.6 6.9.9 1 2.1 1.9 3.4 2.5.7.3 1.6.4 2.3.3-.2-1.6-1.5-3.4-2-5.1-1.3-4.1.5-6.1 2.7-9.1.8-1.1 1.5-2.2 2-3.5.4.5.9 1 1.3 1.5 1.4 1.4 2.9 2.6 4.3 3.9.6.6 2.9 4.5 3.2 4.6 2.9.4 1.1-9.2.6-10.3-1.4-3.4-3-5.7-3-9.5 0-3.3 1.8-6.9 2.8-10.1 2.2-6.6-.1-13.2-1.8-19.6-.7-2.6-1.2-5.2-1.6-7.8-.2-1.8.1-3.7.3-5.5-.7-1.4-1.7-2.9-2.9-2.6-.7.2-1.2.7-1.7 1.2s-1.1.9-1.8.8c-.8-.1-1.3-.9-1.4-1.7-.3-2.6 3.4-7.5 1.1-9.8-1.3-1.2-3.7 1.2-4.2-1.8-.1-.6 0-1.3 0-2 .4-3.8.2-7.7-.4-11.5-.4.5-.7.9-1 1.4-2.7 4.4-4.2 10.8-4.2 15.9-.1 7.8 2.1 15.4 4.7 22.7 1.7 4.7 3.8 9.3 4.2 14.4.6 6.7-5.7 10.9-11.7 12.8-3 .9-6.1 1.1-9.1 2.1-1.4.5-2.7 1.1-3.7 2.1-.5.5-1.1 1.1-1.5 1.7-.3.5-1.1 2.1-.2 2.3.3.1 1.4-.8 1.8-.9 1.3-.6 2.3-.8 3.7-.5 1.4.2 2.7.6 4.1.7-2.4 2-5.8 3.2-6.9 6.5zm130.6-6.3c-1.2-2.9-3.8-4.8-6.4-6.4-3.7-2.2-7.9-4-10.5-7.5-5.5-7.2-1.6-14.9 1.4-22.1 2.5-6 4-12.1 4.7-18.5.2-1.8 1.4-11.1-.8-13.9-.6 1.8-1.3 3.6-1.8 5.4-1.2 3.8-.6 7.9-2 11.6-.2.5-.4 1-.9 1.2-.8.5-1.3-.4-1.9-.1-.5.2-.8 1.4-.9 1.8-.8 2.8-1.2 5.6-2.3 8.2-.8 1.9-1 4.5-2 6.3-.3.5-.7 1.4-1.5 1-.4-.2-.2-1-.5-1.4-.6-1-1-1.6-2.2-.9-.4.2-.7.5-1 .9-.4 2-.7 4-.9 6.1-.6 5.3 1.1 10.8 1.1 16.1 0 5.3-4.1 7.9-5.3 12.6-.5 2.1-.6 4.4-.4 6.5.1 1.1.3 2.2.6 3.3.2.7 1 4.5 1.9 2.2.4-1 .5-2 1-2.9.5-.9 1.2-1.8 2-2.5 1.4-1.2 2.9-2.1 4.3-3.4.6-.5 1.2-1.2 1.7-2 .3 2.4 0 4.8-.6 7.6-.4 1.8-.5 4-.2 5.9.4 2.6 1.1 5.3 2.4 7.6.6 1.2 1.5 2.3 2.4 3.4.5.6 2.7 3.2 2.9 1.3.1-1.3-.2-2.7-.1-4.1.1-1.3.3-2.6.5-3.9.5-2.6 1.1-5.2 1.5-7.8.2-1.5.3-2.9.2-4.4v-.5c0 .4 1.5 1.3 1.8 1.5.7.5 1.4 1 2 1.5 1.3 1 2.7 2 3.9 3.1 1.1 1.1 2.1 2.2 2.7 3.7.4.8.5 1.7.6 2.6.1.5-.1 2.3.5 2.2 1-.1 1.9-2.7 2.2-3.5.8-2.7.2-5.6-.7-8.2-1-2.5-3-4.1-5-5.7-2-1.6-3.6-2.9-4.9-4.6 1 .1 2 .1 3 .2 1.9.3 3.7 1.3 5 2.7.7.7 1.3 1.5 1.8 2.4.3.6.4 1.5.9 1.9.8.8.8-.7.8-1.3-.2-1.7-.3-3.5-1-5.2z"/><path fill="#7F3F97" d="M203.5 229.7c-10.2-3-20.3-2.5-26.5-11.5-5.5-8-4-17.4-1.5-26.1 1.3-4.5 2.9-8.9 3.9-13.5.2-.9.9-3.1 1.1-4.8-2.3 2.7-4.7 5.2-7.5 7.4-1.5 1.2-2.5 2.7-3.5 4.3-.7 1.3-1.6 3.7-3.5 3.1-.9-.3-1-1.6-1.9-1.6-.9.1-1.6 2-2.4 2.5-1.6 1-2.3-1.6-3.3.8-.3.8-.5 1.6-.9 2.4-.4.7-1.2 1.4-2 1.3-.7-.1-1.2-.7-1.5-1.3-.3-.6-.4-1.3-.5-2-.3-1.2-1-2.7-2-3.5-1.6-1.3-1.2-.2-2.6.6-2.9 1.5-5.7-5.6-7.1-7.4-1.7-2.2-3.5-4.4-5.4-6.5-.8-.9-1.5-1.8-2.3-2.7-.1 2.3 1.6 5.7 2.1 7.3 3.4 11.8 9 24.3 5 36.6-2 6-5.3 12.2-12.3 13.2-6.2.9-12.1-2.8-18.3-3.7-6.5-.9-13.2 1.7-17.7 6.3-1.6 1.6-4.9 5.2-4.2 7.8.9 3 6.4-.6 8.1-1.3 4.1-1.8 8.8-2 13.2-1.3 4.8.7 9.2 2.5 13.6 4.3 3.6 1.4 8.3.3 11.8-1.2 7.8-3.4 13.4-10.7 14.6-18.3.5 2.7.6 5.5 0 8.5-1.4 7.6-6.9 13.4-14.1 17.5-4.5 2.6-9.4 5-12.9 8.9-1.6 1.7-2.8 3.8-3 6.2-.1 1.5-.4 5.4.9 6.5 1.8 1.6 3.2-2.4 4.3-3.5 2.1-2.1 4.8-3.4 7.6-4.3 3.9-1.3 8.1-1.9 12-3.3 7-2.5 13-7.6 16.7-14 3.3-5.7 3.6-12.3 4.3-18.8-.1 1 3 3.7 3.7 4.4 1.6 1.5 3.3 2.8 5.2 3.8 3.8 2.1 7.9 2.9 12.1 3.2 3.8.3 7.9-.5 11.8-.3 2 .1 3.9.4 5.7 1.3 2.1 1 3.1 2.9 4.9 4.1.7.5 1.6.7 2.3.2.4-.2.6-.6.6-1.2.1-1.8-1.5-4.9-2.1-5.9-1.3-2.2-3.8-3.7-6.5-4.5z"/><circle fill="#FFDD15" cx="155.2" cy="118.4" r="15.5"/><circle fill="#FFDD15" cx="131.4" cy="94.3" r="10.1"/><circle fill="#FFDD15" cx="181.6" cy="92.5" r="9.5"/><circle fill="#FFDD15" cx="184.6" cy="120.5" r="6.5"/><path fill="#7F3F97" d="M183.8 136.9c-.3-.5-1-.1-.8.4 2.1 4.7.2 10-4.3 12.6-4.8 2.7-11.2-.5-14.4-4.2-1.9-2.1-4.4-4-7.3-2.1-1.1.8-2 1.9-2.9 2.9-2.2 2.3-5.2 3.7-8.3 4-7 .7-14.6-4.2-12.7-12 .1-.4-.5-.7-.7-.3-3.7 7.6 4.1 13.7 10.5 15.9 6.4 2.2 13.4-1.3 16.8-6.8 4.9 14.1 32.9 5.1 24.1-10.4z"/><path fill="#FFF" d="M159.7 147.3c-3.5 5.5-10.4 9-16.8 6.8-.8-.3-1.7-.6-2.5-1-.1 1.3.1 2.8.3 4.1.4 2.7 1.6 5.4 4.6 5.8 2.1.3 3.8-.6 5.1-2.3.4-.5.7-1.2.8-2 1.2 4.4 4.3 8 9.6 7.9 4.1-.1 6.1-3.6 6.9-7.3 0 .2.1.3.2.5.7 2 2.1 2.8 4.1 2.9 2.2.1 3.2-.7 3.9-2.8.4-1.3.6-2.6.6-3.9 0-.5 0-1.7-.1-2.6-6.6 2.1-14.3.7-16.7-6.1z"/><path fill="#7F3F97" d="M129.9 119.8c.1-.4-.4-.6-.6-.3-.8 1.7-.8 3.5-.6 5.4.2 1.5 1.5 3.9-.5 4.4-1.6.4-3-1.3-3.5-2.6-.5-1.5-.3-3.1-.4-4.7-.3-3.1-1.5-6.3-5.3-5.1-.4.1-.4.8.1.8 5-.7 3.1 7.1 3.6 10 .4 2.4 1.3 4.2 3.7 5.1 1.5.6 3.6-.5 4-2.1.9-3.8-1.6-7.1-.5-10.9zm30.2-35.4c.2-.5-.5-1-.8-.5-1.5 2.7 1.1 7.1-1 9.2-2.6 2.5-4.3-.9-4.1-3.2.2-1.8.3-3.3-.6-4.9-.8-1.4-2.7-1.9-4.1-1.5-.3.1-.2.5.1.6 5.5.4 2.2 6.4 2.7 9.7.3 1.8 2.3 3.7 4.2 3.5 7-.5 1.9-9.2 3.6-12.9zm41.8 23.3c-.3-1.1-1.2-2.7-1.1-3.8 0-.2-.4-.3-.4-.1l-.3 1.8c-.1 1.2.7 3.5-1.7 2.7-2-.7-1-2.8-.8-4.1.3-2-1.9-5.2-4-3.3-.1.1 0 .3.1.3.5.1 1.3.2 1.7.4 1.4.7.7 2.5.4 3.5-.3 1-.6 2-.7 3-.1 1.8 1.4 3 3 3.3 1.4.3 3.1 0 3.6-1.5.2-.7.4-1.5.2-2.2zm-7.4 28.6c-.2-1.3-.5-2.6-.7-3.9-.2-1.7.1-3.3.3-5 0-.3-.3-.6-.5-.3-1.2 1.4-1.4 3.3-1.5 5.1 0 1.2.7 3.1-.1 4.2-2.1 2.9-2.5-1.8-2.7-2.9 0-.2-.4-.2-.4-.1-1.3 2.9-.2 7.7 3.9 6.5 1.6-.3 1.9-2.3 1.7-3.6z"/><path fill="#231F20" d="M154.5 128.9c-1.2-6.9-.6-14.5.3-21.4.1-.7-.9-.9-1.2-.3-2.8 6.1-4.2 16.1-.9 22.2.6 1 2 .6 1.8-.5zm26.3-42.4c-.2-.2-.6 0-.5.3 1 2.6.9 5.6.3 8.3-.1.6-1.2 3.3.6 2.8 1.9-.5 2.5-3.9 2.6-5.5.1-2.4-1.1-4.4-3-5.9zm4.6 30c-.2-.3-.6-.3-.8-.1-2.5 2.2-.8 6.4-.1 9 .2.6 1.2.5 1.1-.2-.2-2.7 1.3-6.3-.2-8.7zm-53.5-22c0-2.2.8-4.2 1-6.3.1-1.1-1.4-1.3-1.9-.5-2.5 4-1.5 9.3.2 13.3.2.5.9.3.8-.2-.4-2-.2-4.3-.1-6.3z"/><path fill="#E782B4" d="M157.2 218.4c-.2-.6-1.3-.8-1.4 0-.7 4.5-.7 9-1.8 13.4-1.5 5.8-5.1 11.1-9.4 15.2-5.6 5.3-15.1 5.1-18.1 13-.2.4.5.7.7.3 3-5.3 9.6-5.9 14.6-8.3 3.8-1.8 6.9-5.1 9.4-8.3 5.1-6.4 8.7-17.2 6-25.3zm37 12.4c-5.5-2.9-11.8-3-17.2-6.3-6.5-3.9-7.7-10.5-10.1-17-.2-.5-.9-.5-1 0-1.6 6.3 2.6 12.9 7 17 5.1 4.9 14.3 7.4 21.2 6.8.2 0 .3-.4.1-.5zm-45.3-23.5c-.1-1.2-1.9-1.6-2.2-.3-1.4 7.4-2.8 13.5-8.1 19.2-5.8 6.3-12.3 3.8-19.5 4.8-.1 0-.1.2 0 .2 7.5 1.6 13.5 2.4 19.7-2.6 6.1-4.7 10.6-13.6 10.1-21.3zm22.3-178.1c-2.3-5.1-7.3-8.1-10.7-12.4-.2-.2-.6 0-.5.3 1 3.1 3.4 5.6 5.5 8.1 2 2.3 3.4 4.6 3.7 7.8.3 3.1-1.5 6-1.9 9-.1.8.8 1.6 1.5.9 3-3.4 4.3-9.4 2.4-13.7zm22.6 151.6c-.9-2.7-.9-5.4-.7-8.2 0-.4-.6-.5-.7-.1-.8 3-.7 5.7 0 8.7.9 4.2.3 7.1-.8 11.1-.1.2.2.5.4.3 2.2-1.6 2.9-4 3-6.6.1-1.8-.6-3.6-1.2-5.2zm-77.5 5.5c.8-2.4 2.4-4.6 1-7.1-.1-.3-.6-.2-.7.1-.7 3.5-2.6 6.6-3.1 10.2-.4 3.4 1.2 6.4 3 9.1.2.3.7 0 .5-.3-2.1-3.7-1.9-8.1-.7-12z"/><path fill="#8E3794" d="M372.4 141.7c-1.5-15.9 1.5-34.7-8.3-48.5-1.3-1.8-2.7-3.5-4.2-5 .1 0 .1-.1.2-.1 1.7-1.1 3.3-2 5.4-1.9 3 .1 5 .1 7.8-1.1 1.4-.6 2.2-2 3.5-2.6 2.3-1.2 4.5.9 6.7.3 3.6-.9 4.4-5.4 3.7-8.7-.5-2.3-2.3-5.9-4.8-6.3-2.5-.4-5.6 2-6.7 4-2.3 4.2-3.5 11.3-10.7 10-2.1-.4-3.8-.7-5.9-.3-1.2.2-2.6 1.4-3.6 2.8-6-4.4-13.3-6.6-21.1-6-.2 0 .2-2.5.3-2.7.3-.9.8-1.7 1.2-2.6 1-2.3 1.5-4.7.6-7.1-.8-2.3-1.3-4.4-.3-6.8.7-1.7 1.8-3 1.8-5 0-7.2-10.3-3.1-13.1-.4-1.2 1.2-2.7 2.7-2.6 4.6 0 1.4.9 2.5 2.1 3.1 1.2.5 2.5.2 3.7.7 2.1 1 2.8 3.3 3 5.4.1 1.3 0 2.5-.2 3.8-.5 2.5-3.3 5.5-3.1 8.3-8.3 2.3-16.8 7.3-21.9 14.1-.8-.7-1.5-1.5-2.3-2.2-3-2.7-3.6-6.1-1.7-10.3.7-1 1.3-1.8 1.6-3 1.1-4-5-4.3-6.8-5.9-2.1-1.9-4.6-4.4-6.5-.6-1.1 2.2-.3 4.4.8 6.4 1.6 2.8 2.8 5 3.3 8.3.2 1.8 1 3 2.1 4.4 2.6 3.3 5.7 2.7 6.8 7.2-2.6 4.8-4.3 10-5.7 15.2-4.1 14.8-4.9 31.4-7.3 46.7-1.7 11.1-1.6 22.3-10 30.8-2.4 2.4-8.8 7.6-5 11.2.8.8 2 1.2 3.1 1.4 1.1.2 2.3.3 3.4.6 2.7.8 3.1 2.7 2 5.1-1.1 2.3-2.7 4.3-4 6.4-1.1 1.7-2.5 3.9-2.3 6 0 .2 0 .3.1.5 1.1 3.9 5.3 2.7 8.2 1.4 3.1-1.3 16-15.5 18.4-8.3 2.8 8.4-.8 18.3.5 27 .6 3.9 5.1 7 8.7 4.4 3.2-2.3 5.1-5.9 6.6-9.4 1.3-3 5.2-17.3 10.7-13.5 2.9 2 3.6 5.4 5 8.3 1.6 3.5 3.4 7 5.5 10.3 1.7 2.7 5.9 4.7 8.5 1.8.6-.7 1-1.6 1.3-2.5 1.3-4 1.3-8 1.7-12.1.5-4.2.2-15.3 8-10.4 4.3 2.7 8.3 5.8 12.8 8.1 2.2 1.1 5.9 1.3 8.1-.1 2.5-1.5 1.9-5.2 1.3-7.6-.9-3.5-2.3-7-3.4-10.4-.5-1.4-1-2.5.1-3.7 1.1-1.1 2.4-.6 3.7-1.3 1.4-.7 2.9-1.9 3-3.6.2-2-.3-4.1-1.2-6.2-7-16.6-10.9-34.4-12.6-52.4z"/><path fill="#FFF" d="M360.5 138.3c1.6-3.6 2.2-7.7 2.2-11.5 0-4.1-.8-8.4-3-11.8-2.3-3.5-5.9-5.3-10.1-5.2-4.9.1-9.2 4.9-10.6 9.3-1.2 3.4-1.9 7.1-1.8 10.7 0 1.8.3 3.6.7 5.3.2.9.5 1.8.8 2.6.2.4.5 2 1 2h.1c.4-.1.9-.5 1.2-.7.5-.3 1-.5 1.5-.8 1-.5 2-.9 3.1-1.2 2.2-.6 4.4-.8 6.6-.4 2.7.4 5.3 1.7 7.4 3.3.2-.3.3-.7.5-1 .2-.2.3-.4.4-.6z"/><path fill="#1A0D37" d="M349.8 121.4c-1 0-2 .2-2.9.5l2.1 6.9-7.2-1.7c-.3.8-.4 1.7-.4 2.7 0 3.1 1.6 5.7 4.1 7.2h.1c2.2-.6 4.4-.8 6.6-.4.6.1 1.3.3 1.9.5 2.5-1.5 4.1-4.1 4.1-7.2 0-4.7-3.7-8.5-8.4-8.5z"/><path fill="#FFF" d="M325.8 138.3c1.6-3.6 2.2-7.7 2.2-11.5 0-4.1-.8-8.4-3-11.8-2.3-3.5-5.9-5.3-10.1-5.2-4.9.1-9.2 4.9-10.6 9.3-1.2 3.4-1.9 7.1-1.8 10.7 0 1.8.3 3.6.7 5.3.2.9.5 1.8.8 2.6.2.4.5 2 1 2h.1c.4-.1.9-.5 1.2-.7.5-.3 1-.5 1.5-.8 1-.5 2-.9 3.1-1.2 2.2-.6 4.4-.8 6.6-.4 2.7.4 5.3 1.7 7.4 3.3.2-.3.3-.7.5-1 .2-.2.3-.4.4-.6z"/><path fill="#1A0D37" d="M315.1 121.4c-1 0-2 .2-2.9.5l2.1 6.9-7.2-1.7c-.3.8-.4 1.7-.4 2.7 0 3.1 1.6 5.7 4.1 7.2h.1c2.2-.6 4.4-.8 6.6-.4.6.1 1.3.3 1.9.5 2.5-1.5 4.1-4.1 4.1-7.2.1-4.7-3.7-8.5-8.4-8.5zm41.1 35.8c-.3 0-.7.1-1 .2-2.4.4-5 1-7.3-.2l-.9-.6c-1.6-1.2-2.2-3.3-2.4-5.2-.1-1-.1-2.1 0-3.1 0-.5.1-.9.2-1.4.1-.3.3-1.1-.1-1.1-.7-.1-1.5 1.5-1.8 2-.9 1.7-1 3.8-.5 5.7-7.4 3-15.1 1.6-22.6 0 1.5-3.9.7-9.3-4.1-9.3-.5 0-.5.5-.2.8 1.1.8 2.1 2 2.5 3.3.9 2.9-.8 5.9-3.3 7.3-1.3.7-2.8 1.1-4.2.9-.8-.1-1.5-.4-2.2-.7-.4-.2-.7-.5-1.1-.7-.2-.2-.8-1-1-.5-.1.3.4 1.1.6 1.3.2.4.5.8.9 1.1.6.6 1.4 1.1 2.3 1.4.9.3 1.8.4 2.7.3.2 0 2.7-.4 2.6-.6 1 4.3 4 8.3 7.3 11.1 2.6 2.2 5.8 3.8 9.2 4 8.1.5 15.4-5.5 18.3-12.8h2.1c.7-.1 1.3-.2 2-.5s1.5-.7 2-1.3c.2-.2.5-.6.4-1-.2-.3-.3-.4-.4-.4z"/><path fill="#FFF" d="M340.6 156.9c-2.3.9-4.8 1-7.2 1 0 1.5.3 3.1 1.2 4.4 1 1.5 3.2 2.3 4.8 1.3 1.6-1 1.7-3.2 1.7-5 0-.6-.1-1.3-.5-1.7z"/><path fill="#1A0D37" d="M343.4 172.4c-3.4 2.3-6.7 4-10.9 4.3-2.9.2-5.5-1.1-7.9-2.6-.6-.4-2.8-2.2-3.5-1.7-.9.7 1 2.1 1.4 2.5 6.2 5.9 16.1 4.6 21.7-1.5.6-.5-.1-1.5-.8-1z"/><circle fill="#FFDD15" cx="317.8" cy="202.5" r="6.7"/><circle fill="#FFDD15" cx="340.4" cy="202.5" r="6.7"/><circle fill="#FFDD15" cx="342.8" cy="218.1" r="4"/><circle fill="#FFDD15" cx="314.8" cy="218.9" r="4"/><circle fill="#FFDD15" cx="311.7" cy="233" r="3"/><circle fill="#FFDD15" cx="344.4" cy="232.2" r="3"/><circle fill="#FFDD15" cx="374.3" cy="217.3" r="2.6"/><circle fill="#FFDD15" cx="286.5" cy="214.4" r="2.6"/><circle fill="#FFDD15" cx="306.1" cy="181.1" r="2.6"/><circle fill="#FFDD15" cx="292.6" cy="169.8" r="2.6"/><circle fill="#FFDD15" cx="319" cy="187.4" r="2.6"/><circle fill="#FFDD15" cx="338" cy="187.2" r="2.6"/><circle fill="#FFDD15" cx="353.9" cy="178.5" r="2.6"/><circle fill="#FFDD15" cx="370.7" cy="166.6" r="2.6"/><circle fill="#FFDD15" cx="292.8" cy="206" r="3.4"/><circle fill="#FFDD15" cx="366.2" cy="207" r="3.4"/><circle fill="#FFDD15" cx="359.6" cy="192.8" r="6.7"/><circle fill="#FFDD15" cx="300.4" cy="194.2" r="6.1"/><path fill="#FFDD15" d="M380.8 183.3c-.8-2.6-1.6-5.2-2.3-7.9-.9-.6-2-.9-3.2-.9-3.4 0-6.1 2.8-6.1 6.1 0 3.4 2.8 6.1 6.1 6.1 2.4.1 4.5-1.3 5.5-3.4zm1 12.6c1.3 0 2.3-.7 2.9-1.7-.6-1.6-1.3-3.2-1.8-4.8-.3-.1-.7-.2-1.1-.2-1.9 0-3.4 1.5-3.4 3.4 0 1.8 1.6 3.3 3.4 3.3zm-88-12.8c0-3.2-2.6-5.7-5.7-5.7-.4 0-.7 0-1 .1-.8 3.1-2 6.1-3.7 8.9 1 1.5 2.8 2.5 4.8 2.5 3.1-.1 5.6-2.7 5.6-5.8zM276.5 194c.4 1.4 1.7 2.5 3.2 2.5 1.9 0 3.4-1.5 3.4-3.4 0-1.6-1.1-2.9-2.6-3.3-.2.3-.4.5-.7.8-.7.9-2.1 2.1-3.3 3.4z"/><circle fill="#FFDD15" cx="332.9" cy="106.8" r="4.2"/><circle fill="#FFDD15" cx="345.9" cy="98.2" r="4.2"/><circle fill="#FFDD15" cx="335.4" cy="88.5" r="4.2"/><circle fill="#FFDD15" cx="321.4" cy="96.3" r="4.2"/><path fill="#1A0D37" d="M287.3 176.4c1.3-5.3 1.7-11 2.6-16.6l.9-6.3c-.3-.3-.6-.6-.8-.9-2.8-3.4-5.5-6.8-6.4-11.2-1.2-5.7.1-12.4-2.7-17.8-2.4-4.5-6.3-7.4-9.8-11-2.3-2.4-1.9-7.4-5.2-8.8-5.1-2.3-4.8 8.7-4.3 11.4 1 5.8 6.8 10 8.5 15.7 1.8 6.1.8 12.9 1.1 19.1.3 5.6 2.4 10.8 4.8 15.8 1.7 4.2 6.4 10.3 11.3 10.6zm117.1-66.9c-.5-2.5-2.5-3.5-4.7-2.5-1.9.8-3.2 4.5-4.2 6.1-2.2 3.9-4.7 7-8.1 9.8-4.9 4.2-7.9 8.9-10.3 14.8-1.2 3-2.8 6.3-4.1 9.6 1.1 9.5 2.9 18.9 5.4 28.1 1.7-.7 3.2-2 4.3-3.3 3.7-4.2 5.7-9.9 6.8-15.3.5-2.8.8-5.6.8-8.5 0-5.2.6-9.4 3.3-13.9 1.9-3.2 5.1-5.6 7.2-8.6 3.6-5 4.9-10.3 3.6-16.3zm-105-33.2c-.2-.2-.5-.4-.7-.5-1.1-.6-2.2-1.2-3.2-1.7-.5-.3-1-.5-1.4-.8-.3-.3-.6-.6-1.1-.5-.4.1-.7.5-.8.9-.1.7.5 1.7.9 2.3.5.7 1.1 1.2 1.8 1.6.9.5 2 .7 3 .7.9-.1 2.4-.8 1.5-2 .1.1.1 0 0 0zm35-23.3c-.1 0-.2-.1-.3-.1-1.4-.4-3.3.2-4.6.7-1.2.5-2.8 1.4-3.8 2.3-.5.5-.9 1.3-.4 2s1.6.5 2.4.5c1 0 2-.2 2.9-.5 1.1-.4 2.1-.9 2.9-1.7.6-.5 1.9-1.8 1.4-2.7-.1-.2-.3-.4-.5-.5zm51 22.5c-.1-1-.3-2.1-.6-2.9-.4-.9-.9-1.8-2-1.8-1.2 0-2.1 1.3-2.5 2.3-.5 1.2-.5 2.5-.3 3.8.2.9.5 1.8 1.1 2.4 1 1.2 2.7 1.6 3.5.1.5-.9.8-1.9.9-2.9-.1-.3-.1-.6-.1-1z"/><path fill="#AFD25E" d="M108.5 332.2c-2.4-5.3-5.3-10.5-9.1-14.9 2-4.3 3.8-8.6 6.1-12.8 1.6-2.8 3.5-5.4 5.4-8 1-1.3 1.9-2.5 2.8-3.9.1-.1.2-.2.2-.3-1.8-.1-3.4-1-4.5-2.2-.6 1.2-1 2.4-1.6 3.6-1.4 2.9-2.9 5.8-4.6 8.6-2.4 3.9-5.4 7.1-8.4 10.5-7.6-6.4-19.1-10.4-28.7-7.4-5.9 1.9-11.1 5.3-15.7 9.6-2.5-3.1-5.2-6.1-7.6-9.3-2.3-3.1-4.6-6.8-5.5-10.5-.3-1.1-.4-2.2-.9-3.2-1.2.8-2.5 1.3-4 1.4h-.5c.2.3.4.7.5 1 2.2 4.1 4.4 8.2 6.7 12.3 1.3 2.4 2.3 4.7 3.2 7.3.5 1.3.9 2.7 1.3 4.1.1.5 1.3 3.3 1 3.7-7.8 10.2-12.8 23.1-14.9 34.3-4.3 22.6-1.3 51.8 21.7 63.3 12.1 6.1 26.4 5.8 38.8.5 14.4-6.2 19.9-17.6 23.3-32.1 2.1-9.3 2.8-18.9 1.9-28.4-.9-9.6-3.1-18.7-6.9-27.2z"/><path fill="#0C8040" d="M51.4 419.1c-2.8-1.4-5.3-3.1-7.5-5-.2.4-.2.8-.1 1.4.3 2.7.7 5.5 1.1 8.2.5 3.5 1.3 7 1.4 10.5.1 3.6.3 7.2.6 10.8.1 1.8 1.1 22 1.3 22-2.3.5-4.6 1.2-6.9 1.7-2.7.6-5.3 1.2-8 1.8-3.5.8-7.4 1.4-10.4 3.4-.7.4-1.4 1-1.4 1.8-.1.8.7 1.6 1.5 1.8.8.3 1.7.1 2.5 0 8.6-1.2 17.1-2.5 25.6-3.6 1.4-.2 3.4-.6 4.2-1.9.9-1.5 0-3.5-.6-5-.6-1.6-.7-2.9-.7-4.7 0-6.1-.3-12.3.2-18.4.5-6.1 2.2-12.1 4.4-17.8.5-1.2.9-2.4 1.4-3.6 0-.1.1-.2.1-.3-3.1-.7-6-1.7-8.7-3.1zm61.8 56.4c-3.7-1.7-7.6-2.9-11.5-4.4-2.4-.9-5-1.5-7.4-2.5-1.3-.6-2.7-1.2-3.8-2.1-1.9-1.5-1.4-3.4-1.1-5.5.4-2.7.7-5.5 1.1-8.3.7-5.5 1.4-11 2.5-16.5 1-5.1 3.1-9.9 4.4-14.9.4-1.7 1.3-4.6 1-6.5-2.3 1.8-5 3.4-8.1 4.7-2.2.9-4.5 1.7-6.8 2.3v.1c.1 1.3.3 2.6.4 4 1.2 11.9 1 24.1-.4 36-.2 1.8-1.9 6.9.2 8.2 4.4 3 10.7 4.3 15.7 5.8 2.1.6 4.2 1.4 6.4 2 2.5.7 5.3 1.6 8 1.4.7 0 1.6-.2 2-.9.3-.7 0-1.4-.6-1.9l-2-1zm-89.9-87.7c-1.9-2-3.6-4.1-5.2-6.2l-2.4-3.3c-.5-.8-1.4-1.5-1.5-2.4-.2-.9.3-1.1 1-1.4 1.4-.7 2.9-1.2 4.4-1.8 2.5-.9 5.4-1.4 7.8-2.6.3-.1.5-.2.7-.4.2-4.8.7-9.5 1.6-14 .6-3.4 1.5-6.9 2.7-10.4-.2.1-.4.3-.6.4-2.2 1.3-4.4 2.7-6.6 4.2-4.3 2.9-8.4 6-12.3 9.3-3.1 2.6-6.6 5-9.4 8-1.3 1.5-2.5 3.1-3.2 5-.7 2.1-.2 4 1.1 5.8 1 1.5 2.5 2.7 3.8 3.9 2.7 2.4 5.6 4.7 8.6 6.7 2.6 1.7 17.7 9.1 11.6 14.4 0 0 0 .1-.1.1-.4-.6-.8-1.2-1.3-1.6-1.4-.9-3-.4-4.6-.1-4 .6-4.6.8-5.5 4.8-.4 2-.7 4-1.1 6-.2.9-.7 2.2-.5 3.2.5 2.1 3.4 2.7 5.2 3 2.7.4 5.4-.1 8.2.2 2 .2 2.6-2.1 3.4-3.7 1-1.8 1.9-3.7 2.6-5.6 1.4-3.4 2.5-7.7.5-11.1-2.3-3.8-5.7-7-8.9-10.4zm121.6-13.1c-.4-2-1.4-3.8-2.5-5.4-2.3-3.4-5.4-6.2-8.2-9.3-3.5-3.8-7.1-7.5-10.9-11-1.9-1.7-3.9-3.4-5.9-5.1-1.5-1.2-3.2-3.5-5.2-3.7h-.6c2 6.1 3.3 12.4 3.8 18.8.2 2.6.3 5.2.3 7.8.7.7 1.6 1.3 2.7 2.1 2.2 1.5 5 2.4 7.3 3.6 1.4.7 2.8 1.4 4.2 2.3.6.4 1.1.7.8 1.5-.3.9-1.2 1.5-1.8 2.2-.9 1-1.8 2-2.8 3-1.9 2-3.9 3.8-6 5.6-2.9 2.4-6 4.6-8.6 7.4-1 3-2.1 5.9-3.5 8.5.1 1.6.4 3.2.7 4.7.5 2 1.2 4 1.9 5.9.6 1.7.8 4 2.8 4.1 2.7.1 5.4.9 8.1.9 1.8 0 4.7-.3 5.6-2.3 1.2-2.9.6-9.3-1.3-11.8-1.5-2-4.1-3.2-6.6-2.8-.8.1-1.6.4-2.4.4-2 0-2.3-1.8-1.9-3.5.5-1.9 2.3-3.2 3.8-4.2 3.3-2.2 7-3.5 10.6-5.2 3.2-1.6 6.5-3.5 9.5-5.6 1.5-1 3.1-2.1 4.3-3.4 1.5-1.5 2.3-3.3 1.8-5.5zm-55.4-34.9c.4-1.1.6-2.2.9-3 .5-1.6.9-3.3 1.2-4.9.1-.5.6-4 .3-4.3-.1 0-.3.2-.4.3-.3.3-.6.6-.8.9-.5.7-1 1.4-1.4 2.1-.8 1.4-1.5 2.9-2.1 4.5-.4.9-1 1.9-1.5 3 1.3.3 2.6.8 3.8 1.4zm-13.3-3.3c0-1.7-.2-3.4-.3-5.1-.3-3.9-.2-8-2.2-11.5-.5.8-.5 1.8-.6 2.8-.3 3.3-.4 6.4-.5 9.7-.1 1.4-.1 2.8-.1 4.1h3.7zm-17.5 3.1l3-1.2c-.5-1.4-1.3-2.8-2-4.2-1.3-2.6-2.5-5.2-4.5-7.4-.1-.1-.3-.3-.5-.3-.9.2 2.8 10 3.1 11 .4.8.6 1.4.9 2.1zm47.2 39.8c-6.8 3.9-19.2 1.4-18.7-8.2.2-3.2 2.1-6.3 4.9-7.8 4-2.2 8.7-.8 12.3 1.6 1.1.7 2-.8 1.5-1.7-2.1-4.3-7.8-5.1-12-4.2-5.1 1.1-8.2 6.5-9.5 11.1-1.3 4.4 1.2 8.3 4.7 10.6-10.7 6.4-20.1 6.9-30.8-.7 2.5-3.4 3.6-7.8 2.4-12-3-10.2-18.1-11.9-22.6-2-.1.3.5.7.8.5 2.6-2.9 6.7-5.5 10.7-4.6 3.7.8 6.9 3.7 8 7.3 1.1 3.6.1 7.7-2.5 10.5-3.3 3.6-8.2 3.1-12.6 2.6-.9-.1-1.2.9-.5 1.4 5.2 3.5 10.8 2 14.6-1.8 8.4 8.8 22.8 8.6 32.3 1.9.8-.6 1.6-1.2 2.3-1.8 4.4 1.3 11.1 2.4 15.2-2.1.2-.3-.2-.8-.5-.6z"/><path fill="#E36CA8" d="M85.4 385.9c-9.3 4.6-21.5 4-28.9-3.9-.4.4-.8.7-1.2 1.1v.2c.1 3.5.1 7.1.6 10.6.1 1 .1 1.9.8 2.7.4.6 1.2 1 1.9.7.7-.3 1.2-1.2 1.9-1.3 1.6-.1 2 2.4 2.3 3.6.4 2.3 1.1 4.6 2 6.8.4.9.8 1.9 1.7 2.4.6.3 1.4.4 2 .1 2.7-1.1 2.9-4.7 3.4-7.1.1-.7.3-1.4.5-2.1.8-2.9 2.3 0 3.4.8.6.4 1.5.5 2.2.2 1.3-.5 1.7-2.4 2-3.6.4-1.4.3-3.1 1.1-4.4 1.3-2 2.9 1.1 4.3-.2.5-.5.6-1.2.7-1.9.1-1 0-2.1-.1-3.1-.3-.3-.4-1-.6-1.6z"/><path fill="#FFF" d="M46.3 359.6c5.8-1 12.4 2 14.3 8.4.4 1.3.5 2.7.5 4.1 3.9 1.2 8.2 1.8 12.8 1.6 3.6-.2 7-.8 10.1-1.8 0-.5.1-1.1.3-1.7 1.3-4.6 4.4-10 9.5-11.1 1.8-.4 3.8-.4 5.7-.1.6-1.7.9-3.4.9-5.2-.5-10.2-13.1-18-28.2-17.3-15.1.7-26.9 9.6-26.5 19.8.1 1.2.3 2.2.6 3.3z"/><path fill="#E36CA8" d="M39.7 285.1c.2 4.3-3.1 7.9-7.4 8.1-4.3.2-7.9-3.1-8.1-7.4-.2-4.3 3.1-7.9 7.4-8.1 4.3-.2 7.9 3.1 8.1 7.4zm74.4-6.5c-3.8.2-6.7 3.4-6.5 7.1.2 3.8 3.4 6.7 7.1 6.5s6.7-3.4 6.5-7.1c-.1-3.7-3.3-6.6-7.1-6.5zm-40.3 64.3c-3 .1-5.7 1.2-7.9 3l6.9 11.1-11.9-3c-.2 1.1-.3 2.2-.3 3.4.4 7.7 6.8 13.6 14.5 13.2 7.7-.4 13.6-6.8 13.2-14.5-.3-7.7-6.8-13.6-14.5-13.2z"/></svg>