<?xml version="1.0" encoding="utf-8"?>
<!-- Generator: Adobe Illustrator 16.0.0, SVG Export Plug-In . SVG Version: 6.00 Build 0)  -->
<!DOCTYPE svg PUBLIC "-//W3C//DTD SVG 1.1//EN" "http://www.w3.org/Graphics/SVG/1.1/DTD/svg11.dtd">
<svg version="1.1" id="Calque_1" xmlns="http://www.w3.org/2000/svg" xmlns:xlink="http://www.w3.org/1999/xlink" x="0px" y="0px"
	 width="432px" height="432px" viewBox="0 0 432 432" enable-background="new 0 0 432 432" xml:space="preserve">
<g>
	<g>
		<path fill="#24234D" d="M325.126,89.468c-0.109-1.567-0.253-3.132-0.44-4.692c-0.119-0.996-0.258-2-0.443-2.992
			c-0.411-2.202-1.053-4.349-2.227-6.24c-0.492-0.793-1.107-1.56-1.959-1.941c-0.852-0.383-1.981-0.271-2.554,0.466
			c-0.387,0.497-0.455,1.163-0.513,1.791c-0.178,1.922-0.404,3.857-0.725,5.773c-0.322,1.929-0.742,3.837-1.307,5.69
			c-0.723,2.376-1.682,4.662-2.987,6.785c-0.113,0.184-0.231,0.366-0.353,0.55c-1.119,1.681-2.607,3.334-4.316,4.787
			c-1.693,1.44-3.603,2.684-5.583,3.563c-1.995,0.887-4.062,1.402-6.05,1.379c-3.404-4.201-9.355-6.286-14.612-4.889
			c1.67-3.044,2.829-6.367,3.416-9.79c-1.428,1.759-2.997,3.402-4.686,4.912c0.225-2.54,1.17-5.011,2.696-7.053
			c-2.86,1.567-5.137,4.172-6.306,7.217c-0.944-1.125,0.095-2.748,0.81-4.031c1.967-3.527,1.257-7.878,0.491-11.843
			c-3.182,4.017-4.952,9.129-4.937,14.254c-1.543-2.23-4.281-3.577-6.989-3.439c2.438,1.534,4.292,3.971,5.119,6.729
			c-2.424-1.838-5.645-2.584-8.63-1.999c1.558,0.528,3.139,1.069,4.488,2.01c1.35,0.941,2.46,2.354,2.653,3.986
			c-3.067,0.273-6.157,0.662-9.044,1.734c-2.136,0.793-4.166,1.996-5.736,3.629c-0.08-0.008-0.16-0.011-0.242-0.003
			c-2.047-0.274-3.341-0.807-4.83-1.894c-0.263-0.192-0.53-0.399-0.811-0.627c-1.491-1.215-2.742-2.655-3.818-4.232
			c-1.278-1.875-2.305-3.946-3.169-6.086c-0.483-1.198-0.919-2.415-1.318-3.63c-0.697-2.12-1.323-4.275-2.005-6.406
			c-0.639-1.996-1.33-3.969-2.176-5.871c-0.472-1.061-0.989-2.1-1.577-3.106c-0.354-0.606-0.932-1.286-1.611-1.107
			c-0.58,0.152-0.813,0.837-0.944,1.423c-0.32,1.43-0.586,2.868-0.81,4.313c-0.365,2.371-0.616,4.761-0.803,7.159
			c-0.252,3.234-0.389,6.485-0.537,9.729c-0.028,0.618-0.057,1.237-0.087,1.854c-0.148,3.037-0.327,6.092-0.124,9.12
			c0.051,0.754,0.124,1.506,0.229,2.256c0.448,3.215,1.502,6.422,3.421,9.016c0.326,0.44,0.675,0.865,1.052,1.267
			c1.751,1.864,4.133,3.205,6.631,3.624c-2.833,4.351-2.963,10.34-0.271,14.789c-2.562,0.204-4.847,2.319-5.246,4.857
			c1.667-1.164,3.646-1.877,5.672-2.045c-1.244,2.115-1.911,4.566-1.91,7.021c1.854-0.871,3.706-1.742,5.56-2.613
			c-0.227,0.393-0.425,0.803-0.606,1.219c-2.565,1.65-4.699,4.001-6.252,6.644c-2.19,3.727-3.306,8.001-3.848,12.289
			c-0.61,4.824-0.475,9.937,1.763,14.254s6.996,7.591,11.808,6.888c-1.421-2.131-2.841-4.262-4.262-6.393
			c1.355-0.513,2.764-0.887,4.195-1.116c-1.058-1.835-3.442-2.27-5.462-2.906c-0.444-0.141-0.902-0.312-1.213-0.66
			c-0.348-0.391-0.449-0.938-0.501-1.459c-0.372-3.766,1.44-7.61,4.421-9.906c1.438,4.207,3.881,8.066,6.832,11.41
			c2.086,2.364,4.462,4.507,7.076,6.268c0.007,0.004,0.014,0.008,0.02,0.013c-1.286,1.199-1.93,3.179-1.767,4.989
			c0.227,2.505,1.597,4.74,2.931,6.872c1.476,2.359,2.951,4.72,4.428,7.079c-4.051-0.072-8.116,0.818-11.765,2.58
			c1.591,0.297,3.183,0.594,4.773,0.891c0.402,0.075,0.864,0.194,1.032,0.568c0.129,0.29,0.026,0.627-0.076,0.928
			c-0.454,1.323-0.908,2.646-1.361,3.97c5.054-2.334,10.363-4.116,15.803-5.303c-1.223-3.15-2.459-6.367-2.635-9.742
			c-0.149-2.859,0.594-5.892,2.435-8.027c0.616,0.029,1.234,0.035,1.851,0.017c1.884-0.055,3.756-0.334,5.553-0.854
			c2.545,1.958,3.834,5.294,3.984,8.529c0.16,3.461-0.798,6.868-1.813,10.181c3.36-0.332,6.75-0.664,10.107-0.299
			c3.357,0.366,6.725,1.486,9.242,3.736c-0.34-2.083-1.328-4.056-2.791-5.576c1.758-0.445,3.516-0.89,5.273-1.335
			c0.164-0.042,0.342-0.093,0.444-0.229c0.173-0.229,0.036-0.56-0.131-0.794c-1.095-1.539-3.135-2.02-5.001-2.304
			c-3.146-0.478-6.327-0.718-9.509-0.717c0.673-6.01,0.843-12.075,0.519-18.114c0.836-0.948,1.627-1.939,2.392-2.942
			c3.54-4.643,6.664-9.679,8.505-15.22c0.203-0.611,0.387-1.229,0.556-1.853c1.344,2.17,2.034,4.748,1.908,7.3
			c-0.166,3.366-1.749,6.64-4.283,8.861c1.409,0.412,2.961,0.313,4.307-0.272c-0.157,2.519-1.058,4.987-2.562,7.015
			c5.026-0.64,8.814-5.099,10.575-9.85c3.234-8.731,0.71-19.2-5.827-25.754c0.113,0.009,0.227,0.018,0.34,0.025
			c-0.607-1.284-1.216-2.568-1.824-3.853c2.105,0.446,4.259,0.662,6.41,0.643c-1.736-1.513-3.752-2.702-5.914-3.492
			c0.967-3.441,1.928-6.934,1.979-10.508c0.034-2.456-0.408-4.983-1.48-7.173c0.611,0.009,1.221-0.005,1.82-0.031
			c1.525-0.065,3.073-0.185,4.582-0.447c1.938-0.338,3.811-0.912,5.492-1.918c2.147-1.282,3.84-3.2,5.078-5.389
			c0.536-0.948,0.988-1.946,1.354-2.967c1.188-3.316,1.551-6.869,1.696-10.391c0.003-0.063,0.006-0.125,0.008-0.187
			C325.423,96.362,325.365,92.908,325.126,89.468z"/>
	</g>
	<g>
		<path fill="#1D71B8" d="M307.212,99.444c-1.693,1.44-3.603,2.684-5.583,3.563c-0.16,3.177,0.471,6.396,1.861,9.258
			c1.725,3.551,4.604,6.523,8.077,8.395c1.937-0.338,3.81-0.912,5.491-1.917c2.148-1.283,3.84-3.201,5.078-5.39
			c-3.588-0.803-6.955-2.594-9.604-5.145C310.042,105.812,308.203,102.754,307.212,99.444z"/>
	</g>
	<g>
		<path fill="#1D71B8" d="M249.241,103.918c-0.263-0.192-0.53-0.399-0.811-0.627c-1.491-1.215-2.743-2.655-3.819-4.232
			c-3.853,4.268-9.425,6.98-15.16,7.392c0.051,0.754,0.123,1.506,0.229,2.256c0.447,3.215,1.501,6.422,3.421,9.016
			c3.421-1.354,6.742-2.995,9.622-5.271C245.563,110.204,247.958,107.283,249.241,103.918z"/>
	</g>
	<g>
		<path fill="#95C11F" d="M325.126,89.468c-0.643,0.169-1.314,0.246-1.976,0.239c-1.643-0.018-3.244-0.489-4.802-1.011
			c-1.155-0.386-2.314-0.81-3.39-1.374c-0.723,2.376-1.682,4.662-2.987,6.785c-0.113,0.184-0.231,0.366-0.353,0.55
			c2.031,1.729,4.178,3.325,6.623,4.363c2.202,0.936,4.702,1.36,7.037,0.976c0.003-0.063,0.006-0.125,0.008-0.187
			C325.423,96.362,325.365,92.908,325.126,89.468z"/>
	</g>
	<g>
		<path fill="#95C11F" d="M241.534,92.973c-0.483-1.198-0.919-2.415-1.319-3.63c-0.696-2.12-1.322-4.275-2.004-6.406
			c-2.272,1.708-5.08,2.705-7.921,2.811c-0.252,3.234-0.389,6.485-0.537,9.729C233.802,96.079,238.072,95.158,241.534,92.973z"/>
	</g>
	<g>
		<path fill="#1D71B8" d="M324.29,81.783c-0.411-2.202-1.053-4.349-2.227-6.24c-0.493-0.793-1.108-1.559-1.96-1.941
			c-0.851-0.383-1.981-0.271-2.554,0.466c-0.386,0.497-0.454,1.163-0.513,1.791c-0.178,1.922-0.404,3.857-0.724,5.773
			C318.77,82.839,321.789,82.896,324.29,81.783z"/>
	</g>
	<g>
		<path fill="#1D71B8" d="M236.083,77.065c-0.472-1.061-0.989-2.1-1.577-3.106c-0.354-0.606-0.932-1.286-1.611-1.107
			c-0.581,0.152-0.813,0.837-0.945,1.423c-0.32,1.43-0.586,2.868-0.809,4.313c0.944-0.105,1.88-0.262,2.788-0.541
			C234.682,77.816,235.416,77.488,236.083,77.065z"/>
	</g>
	<g>
		<path fill="#95C11F" d="M290.038,169.309c-0.792,3.252-2.166,6.405-4.327,8.961c-2.162,2.555-5.155,4.479-8.46,5.008
			c-3.538,0.567-7.166-0.474-10.371-2.078c-3.632-1.816-7.006-4.51-8.674-8.213s-1.247-8.521,1.742-11.27
			c0.561-0.517,1.191-0.943,1.858-1.311c0.787-0.435,1.627-0.785,2.475-1.088c5.295-1.889,23.914-4.982,26.029,3.608
			C290.824,165.015,290.547,167.22,290.038,169.309z"/>
	</g>
	<g>
		<path fill="#95C11F" d="M310.69,142.312c-1.736-1.513-3.752-2.702-5.914-3.492c0.968-3.441,1.928-6.934,1.978-10.508
			c0.035-2.456-0.408-4.983-1.479-7.173c-2.272-0.031-4.552-0.391-6.309-1.77c-1.322-1.038-2.188-2.543-2.921-4.057
			c-0.936-1.936-1.978-3.364-2.073-5.512c-0.096-2.146-0.588-3.993,0.998-5.444c0.237,0.02,0.478,0.027,0.718,0.03
			c-3.404-4.201-9.355-6.286-14.611-4.889c1.67-3.044,2.829-6.367,3.415-9.79c-1.428,1.759-2.995,3.402-4.685,4.912
			c0.225-2.54,1.17-5.011,2.696-7.053c-2.86,1.567-5.137,4.172-6.306,7.217c-0.945-1.125,0.095-2.748,0.81-4.031
			c1.966-3.527,1.257-7.878,0.491-11.843c-3.182,4.017-4.953,9.129-4.938,14.254c-1.543-2.229-4.28-3.577-6.988-3.439
			c2.438,1.534,4.291,3.971,5.119,6.729c-2.424-1.838-5.645-2.584-8.63-1.999c1.558,0.528,3.139,1.069,4.487,2.01
			c1.35,0.941,2.461,2.354,2.654,3.986c-3.067,0.273-6.157,0.662-9.043,1.734c-2.137,0.793-4.168,1.996-5.737,3.629
			c0.7,0.068,1.298,0.688,1.5,1.382c0.226,0.771,0.071,1.601-0.129,2.379c-0.894,3.468-2.709,6.692-5.211,9.255
			c-1.669,1.71-3.701,3.155-6.029,3.694c-1.209,0.28-2.448,0.291-3.661,0.088c-2.833,4.351-2.963,10.34-0.271,14.789
			c-2.563,0.204-4.847,2.319-5.247,4.857c1.667-1.164,3.646-1.877,5.673-2.045c-1.244,2.115-1.911,4.566-1.91,7.021
			c1.854-0.871,3.707-1.742,5.56-2.613c-0.228,0.394-0.425,0.803-0.606,1.219c-0.725,1.668-1.081,3.496-1.01,5.314
			c0.303-0.305,0.604-0.609,0.906-0.913c0.867-0.872,1.732-1.745,2.6-2.616c0.306-0.309,0.782-0.635,1.128-0.371
			c0.206,0.156,0.239,0.449,0.255,0.708c0.11,1.83,0.222,3.661,0.332,5.491c1.75-1.529,3.499-3.059,5.248-4.589
			c0.252,1.614,0.367,3.249,0.344,4.881c1.427-1.408,2.907-2.763,4.437-4.06c-0.19,1.606-0.214,3.231-0.07,4.843
			c1.137-2.1,2.776-3.925,4.743-5.278c-0.255,1.355-0.51,2.71-0.765,4.064c1.098-0.987,2.196-1.975,3.295-2.963
			c0.197-0.177,0.406-0.36,0.664-0.421c0.79-0.184,1.307,0.815,1.419,1.619c0.113,0.804,0.289,1.817,1.077,2.01
			c1.073-0.655,1.384-2.567,2.638-2.473c1.65,0.126,1.641,3.659,3.241,3.238c1.069-0.28,0.835-2.04,1.731-2.687
			c0.567-0.41,1.395-0.195,1.936,0.25c0.539,0.445,0.891,1.074,1.333,1.617c0.203,0.249,0.452,0.495,0.771,0.545
			c0.768,0.12,1.186-0.888,1.177-1.664c-0.009-0.777-0.073-1.729,0.587-2.14c0.767-0.476,1.705,0.263,2.257,0.977
			c0.552,0.715,1.301,1.563,2.169,1.32c1.208-0.34,0.979-2.221,1.85-3.124c0.771-0.8,2.116-0.55,3.104-0.041
			c0.987,0.509,1.944,1.236,3.056,1.234c-0.02-1.099-0.037-2.197-0.057-3.295c-0.004-0.221,0.006-0.471,0.171-0.615
			c0.185-0.16,0.465-0.109,0.701-0.045c1.371,0.375,2.702,0.896,3.964,1.552c0.396,0.206,0.97,0.385,1.211,0.01
			c0.121-0.188,0.085-0.432,0.044-0.651c-0.155-0.832-0.31-1.663-0.464-2.495c0.74,0.056,1.482,0.11,2.224,0.166
			c1.144,0.086,2.286,0.172,3.429,0.257c0.113,0.009,0.227,0.018,0.341,0.025c-0.608-1.284-1.216-2.568-1.824-3.853
			C306.385,142.115,308.539,142.331,310.69,142.312z"/>
	</g>
	<g>
		<g>
			<path d="M271.682,128.074c8.455-25.914-22.751-20.74-17.142-1.468C256.509,133.37,268.449,137.982,271.682,128.074z"/>
		</g>
		<g>
			<path d="M285.936,131.901c7.384-3.479,8.446-22.001-0.171-24.31C271.305,103.373,270.565,139.144,285.936,131.901z"/>
		</g>
	</g>
	<g>
		<path fill="#FFFFFF" d="M286.084,119.016c1.711,3.473,0.846,8.149-2.825,8.149C276.04,127.165,281.82,110.367,286.084,119.016z"/>
	</g>
	<g>
		<path fill="#FFFFFF" d="M262.187,119.178c3.168-0.044,3.058,5.882-0.513,5.212C259.766,124.03,258.954,119.178,262.187,119.178z"
			/>
	</g>
	<path d="M300.081,126.641c-0.1-0.791-1.357-0.801-1.257,0c0.038,0.296,0.069,0.592,0.098,0.888c0.191,2.026,0.161,4.053-0.12,6.078
		c-0.276,1.654-1.088,2.306-2.661,2.717c-1.271,0.332-2.573,0.527-3.88,0.657c-0.038,0.004-0.076,0.009-0.114,0.013
		c-0.088,0.008-0.177,0.015-0.265,0.023c-0.606,0.053-1.214,0.095-1.821,0.13c-0.913,0.053-1.827,0.097-2.742,0.138
		c-0.9,0.033-1.8,0.06-2.699,0.089c-3.813,0.126-7.627,0.189-11.442,0.19c-0.077,0-0.155,0.001-0.233,0.001
		c-0.381,0-0.762-0.006-1.143-0.007c-1.004-0.004-2.008-0.009-3.012-0.021c-0.494-0.007-0.987-0.017-1.481-0.025
		c-0.872-0.014-1.743-0.029-2.615-0.05c-0.532-0.013-1.065-0.029-1.597-0.044c-0.837-0.024-1.674-0.05-2.51-0.079
		c-0.546-0.02-1.092-0.042-1.638-0.063c-0.822-0.033-1.644-0.068-2.465-0.107c-0.921-0.044-1.842-0.087-2.763-0.138
		c-2.503-0.139-5.174-0.15-6.621-2.563c-0.396-0.659-0.643-1.366-0.789-2.098c-0.01-0.049-0.02-0.098-0.027-0.146
		c-0.016-0.087-0.031-0.174-0.044-0.261c-0.225-1.551-0.063-3.211,0.077-4.699c0.076-0.805-1.182-0.8-1.256,0
		c-0.287,3.031-0.418,6.826,1.894,9.088c0.022,0.021,0.045,0.043,0.067,0.064c0.052,0.049,0.104,0.097,0.157,0.144
		c0.053,0.047,0.106,0.092,0.16,0.136c0.031,0.025,0.063,0.051,0.095,0.075c0.063,0.05,0.129,0.099,0.196,0.146
		c0.037,0.026,0.075,0.053,0.113,0.078c0.054,0.036,0.108,0.072,0.164,0.107c0.024,0.016,0.047,0.032,0.071,0.047
		c0.065,0.04,0.132,0.076,0.198,0.112c0.003,0.002,0.006,0.004,0.009,0.006c0.347,0.19,0.707,0.342,1.08,0.461
		c2.002,0.664,4.317,0.557,6.385,0.659c0.152,0.008,0.305,0.013,0.457,0.021c0.846,0.041,1.691,0.076,2.537,0.111
		c0.437,0.018,0.872,0.038,1.309,0.055c0.128,0.005,0.256,0.011,0.385,0.016c0.949,0.034,1.899,0.063,2.85,0.09
		c0.153,0.004,0.307,0.011,0.46,0.015c0.019,0.001,0.036,0.001,0.054,0.001c5.714,0.156,11.436,0.174,17.152,0.045
		c4.454-0.061,9.037-0.032,13.428-0.757c0.21-0.033,0.419-0.068,0.628-0.106c0.009-0.002,0.019-0.003,0.027-0.005
		c2.024-0.371,4.272-0.817,4.903-3.052C300.565,132.251,300.41,129.253,300.081,126.641z"/>
</g>
</svg>
