<?xml version="1.0" encoding="utf-8"?>
<!-- Generator: Adobe Illustrator 22.0.1, SVG Export Plug-In . SVG Version: 6.00 Build 0)  -->
<svg version="1.1" id="Calque_1" xmlns="http://www.w3.org/2000/svg" xmlns:xlink="http://www.w3.org/1999/xlink" x="0px" y="0px"
	 viewBox="0 0 432 432" style="enable-background:new 0 0 432 432;" xml:space="preserve">
<style type="text/css">
	.st0{fill:#E6E6E6;}
	.st1{fill:#F5D63D;}
	.st2{fill:#78C5D6;}
	.st3{fill:#E868A2;}
	.st4{fill:#459BA8;}
	.st5{fill:#BF62A6;}
	.st6{fill:#F28C33;}
	.st7{fill:#333333;}
	.st8{fill:#1A1A1A;}
	.st9{fill:#79C267;}
	.st10{fill:#71796A;}
	.st11{fill:#8B8285;}
	.st12{fill:#E3A8A4;}
	.st13{fill:#842258;}
	.st14{fill:#300D28;}
	.st15{fill:#36463C;}
	.st16{fill:#FF7470;}
	.st17{fill:#FFE7DD;}
	.st18{fill:#A67C52;}
	.st19{fill:#9FC8C2;}
	.st20{fill:#C1272D;}
	.st21{fill:#B98D4D;}
	.st22{fill:#9DA34B;}
	.st23{fill:#664931;}
	.st24{fill:#748D91;}
	.st25{fill:#F1D2CD;}
	.st26{fill:#FFFFFF;}
	.st27{fill:#C7B299;}
	.st28{fill:#ED1C24;}
	.st29{fill:#7F3762;}
	.st30{fill:#EC1C24;}
	.st31{fill:#B93545;}
	.st32{fill:#E791A0;}
	.st33{fill:#78071D;}
	.st34{fill:#80424C;}
	.st35{fill:#8C6239;}
	.st36{fill:#C69C6D;}
	.st37{fill:#D6B6BA;}
	.st38{fill:#DED2D3;}
	.st39{fill:#B58187;}
	.st40{fill:#7D6364;}
	.st41{fill:#700F3A;}
	.st42{fill:#A46779;}
	.st43{fill:#BC7A98;}
	.st44{fill:#934251;}
	.st45{fill:#313133;}
	.st46{fill:#8C9976;}
	.st47{fill:#596A58;}
	.st48{fill:#CFCAC7;}
	.st49{fill:#D6D39C;}
	.st50{fill:#F2F2F2;}
	.st51{fill:#ED61A0;}
	.st52{fill:#B3A9B7;}
	.st53{fill:#C38B88;}
	.st54{fill:#EDE3E3;}
	.st55{fill:#59476C;}
	.st56{fill:#A7343B;}
	.st57{fill:#F5CECE;}
	.st58{fill:#F78298;}
	.st59{fill:#DE5463;}
	.st60{fill:#7FA4AD;}
	.st61{fill:#9EBCC6;}
	.st62{fill:#E693BF;}
	.st63{fill:#6D5F76;}
	.st64{fill:#FE7F6C;}
	.st65{fill:#603813;}
	.st66{fill:#F0A1A5;}
	.st67{fill:#F60424;}
	.st68{fill:#754C24;}
	.st69{fill:#568445;}
	.st70{fill:#5A4740;}
	.st71{fill:#DDB458;}
	.st72{fill:#D6A14D;}
	.st73{fill:#E3A1BC;}
	.st74{fill:#E5EAA4;}
	.st75{fill:#CEE4EA;}
	.st76{fill:#D8CABF;}
	.st77{fill:#F2E2D4;}
	.st78{fill:#D9C0E0;}
	.st79{fill:#ECC0C2;}
	.st80{fill:#FFDCF4;}
	.st81{fill:#D3E4B0;}
	.st82{fill:#F7FFB4;}
	.st83{fill:#E6F7CE;}
	.st84{fill:#7A9EC7;}
	.st85{fill:#A5C0DF;}
	.st86{fill:#FBB03B;}
	.st87{fill:#F0829E;}
	.st88{fill:#998675;}
	.st89{fill:#A04D7A;}
	.st90{fill:#872B5A;}
	.st91{fill:#A70808;}
	.st92{fill:#42210B;}
	.st93{fill:#CCCCCC;}
	.st94{fill:#B3A18D;}
	.st95{fill:#C6AC8F;}
	.st96{fill:#301506;}
	.st97{fill:#B3A6AD;}
	.st98{fill:#E74C6E;}
	.st99{fill:#F8D9C4;}
	.st100{fill:#CA1542;}
	.st101{fill:#F2A297;}
	.st102{fill:#4D4D4D;}
	.st103{fill:#006837;}
	.st104{fill:#F2B4C0;}
	.st105{fill:#D39253;}
	.st106{fill:#C6824A;}
	.st107{fill:#6B4220;}
	.st108{fill:#936B47;}
	.st109{fill:#F9D7DD;}
	.st110{fill:#3B3735;}
	.st111{fill:#1C7C48;}
	.st112{fill:#A71916;}
	.st113{fill:#7E1710;}
	.st114{fill:#DC4060;}
</style>
<g>
	<path class="st48" d="M369.2,137.3c-0.1-7.3-0.7-14.5-1.5-21.7c-0.7-6.8-2.5-13.4-5.3-19.7c-0.4-0.9-0.8-1.7-1.2-2.5
		c0.1-0.2,0.3-0.3,0.4-0.5c1.8-2.6,3.5-5.4,4.7-8.4c0.4-1,0.6-2.1,0.9-3.1c0-1.8-0.8-3.2-2.3-3.7c-1.3-0.4-2.6-0.7-3.9-0.4
		c-2,0.3-4,0.6-5.9,1.1c-1.2,0.2-2.4,0.6-3.6,0.9c-0.7-0.7-1.4-1.5-2.2-2.1c-6.6-6.1-14-10.5-23-11.8c-4.9-0.7-9.8-0.6-14.6,0.6
		c-6.5,1.6-12.1,4.8-17.3,8.9c-2.8,2.2-5.2,4.6-7.4,7.3c-0.3,0-0.6-0.1-0.9,0c-2.9,0.2-5.9,0.5-8.8,0.8c-1.6,0.2-3.1,0.6-4.6,0.9
		c-0.9,0.2-1.7,0.7-2.3,1.4c-1.1,1.2-1.1,2.7,0,3.8c0.3,0.4,0.7,0.7,1.1,1c2.4,1.7,4.7,3.5,7.1,5.2c-2.5,4.9-4.4,10-6,15.2
		c-2.1,7.2-3.7,14.5-4.2,22c-0.3,4.8-0.4,9.7-0.4,14.5c0,3,0.3,6.1,0.6,9.1c0.5,5.3,2.1,10.4,4.1,15.3c1.6,4,3.5,7.9,6,11.4
		c1.5,2.1,3.1,4.1,4.7,6.1c0.9,1.1,1.9,2.1,3,3c2.6,2.2,5.5,2.5,8.5,1.3c1.4-0.5,2.7-1.4,3.7-2.4c1.2-1.2,2.3-2.5,3.5-3.9
		c0.3,0,0.6,0,0.9,0c6,0.5,12,0.4,17.9-0.1c6.3-0.6,12.6-1.5,18.8-2.4c0.7-0.1,1,0,1.4,0.5c1.3,1.6,2.8,3.2,4.2,4.8
		c0.9,1,2,1.6,3.3,2.1c1.6,0.6,3.2,0.6,4.8-0.2c1.6-0.7,3-1.7,4.1-3c1-1.3,2-2.6,2.9-4.1c2.1-3.5,3.5-7.4,4.7-11.3
		c2.2-6.9,3.8-14,4.2-21.3C369.2,147.1,369.2,142.2,369.2,137.3z"/>
	<g>
		<path class="st33" d="M341.6,164.6c0.3-0.4,0.5-0.7,0.7-1c1.1-1.6,2.4-2.9,3.9-4c0.3-0.2,0.7-0.5,1.1-0.6c1.9-0.8,3.8,0.1,4.3,2.1
			c0.3,1.1,0.1,2.2-0.2,3.2c-0.1,0.5-0.3,1-0.5,1.5c-1.2,2.7-2.7,5.3-4.5,7.7c-0.4,0.5-0.8,0.9-1.2,1.3c-1,0.9-2.2,1.2-3.6,0.8
			c-1.3-0.4-2.5-1-3.5-1.9c-2-1.7-3.7-3.6-5-5.9c-0.5-1-0.9-2.1-1.2-3.2c-0.1-0.5-0.1-1.1,0-1.6c0.5-2.7,2.8-3.8,5.3-2.6
			c1.4,0.7,2.6,1.8,3.6,3.1C341,163.9,341.3,164.2,341.6,164.6z"/>
		<g>
			<g>
				<path class="st26" d="M318.7,87.4c-13.9,1.8-26.4,11.2-29.6,25.1c0,0.2-0.1,0.4-0.1,0.5c-3.1,17.2,8,34.1,24.2,39.9
					c14,5,29.9,1.6,36.5-12.5c5.3-11.2,5.3-26.2,0.1-37.4C344.1,91.2,331.4,85.8,318.7,87.4z M335.2,141.6c-3.7,7.1-12,8.5-19.1,5.7
					c-8.2-3.3-12.9-11.8-11.7-20.4c0-0.1,0-0.3,0.1-0.4c0.1-0.3,0.1-0.5,0.2-0.7c1.9-7.1,8-11.9,15.3-12.8
					c6.9-0.8,13.5,2.5,16.1,9.1C338.3,128,338.2,135.8,335.2,141.6z"/>
			</g>
			<g>
				<path d="M319.9,112.9c-7.3,0.9-13.4,5.7-15.3,12.8c-0.1,0.2-0.1,0.4-0.2,0.7c0,0.1,0,0.3-0.1,0.4c-1.2,8.6,3.5,17.1,11.7,20.4
					c7.1,2.9,15.4,1.4,19.1-5.7c3-5.8,3.1-13.6,0.8-19.6C333.4,115.4,326.8,112,319.9,112.9z"/>
			</g>
		</g>
	</g>
</g>
<g>
	<path class="st49" d="M235.5,211.2c-0.6-1.9-1.3-3.7-2.3-5.4c-0.9-1.5-2-2.8-3.4-3.9c-0.7-0.6-1.5-1-2.3-1.2
		c-0.7-7.3-2.6-14.3-5.6-20.9c-6.7-15-17.3-26.6-31.4-35c-3.4-2-6.8-4-10.5-5.5c-1-0.4-2-0.8-3-1.3c-6.6-3.3-13.3-5.5-20.2-6.4
		c0.4-2.7,1.1-5.3,2.2-7.8c2.1-4.8,5.1-9,9.7-11.8c0.2-0.1,0.4-0.3,0.6-0.4c-0.1,0.3-0.1,0.6-0.2,0.9c-0.1,0.6-0.1,1.3-0.1,1.9
		c0.2,1.5,1.3,2.2,2.6,1.7c0.4-0.2,0.9-0.4,1.2-0.8c0.7-0.7,1.4-1.4,2-2.1c1.3-1.6,2.4-3.3,3-5.3c0.5-1.6-0.1-2.7-1.7-3.2
		c-2.3-0.7-4.6-1.2-6.9-1.4c-0.6-0.1-1.4,0.1-1.9,0.3c-1.3,0.6-1.6,2-0.7,3.1c0.5,0.5,1.1,0.9,1.7,1.3c0.1,0,0.1,0.1,0.2,0.1
		c-3.2,1.7-6.1,3.7-8.3,6.6c-1.5,1.9-2.8,3.8-3.8,6c-1.6,3.4-2.7,6.9-2.8,10.7c-1.4-0.1-2.7-0.2-4.1-0.2c-0.1-2.3-0.2-4.5-0.3-6.8
		c-0.1-4.8,0.3-9.6,1-14.4c0.9-5.7,2.3-11.3,4.7-16.7c1.2-2.7,2.3-5.3,3.4-8c0.2-0.4,0.3-0.7,0.4-1.1c0.1-0.8-0.3-1.5-1-1.8
		c-0.7-0.2-1.4,0-1.9,0.6c-0.1,0.1-0.2,0.3-0.3,0.5c-0.8,1.6-1.6,3.2-2.4,4.8c-5.3,10.4-7.7,21.6-7.9,33.6c0,0.9,0,2.1,0.2,3.4
		c0.2,2,0.4,3.9,0.7,5.9c-1.6,0.1-3.2,0.2-4.8,0.5c0-0.4,0-0.9,0-1.3c0-3-0.3-5.9-1-8.8c-1.1-5.2-3.2-9.9-6.7-14
		c-1.8-2-3.8-3.7-6.3-4.8c-2.5-1.2-5.1-1.4-7.7-0.7c-2.5,0.7-4.6,2-6.1,4.1c-0.7,0.9-1.1,2-1.5,3.1c-0.3,0.6,0,1.2,0.5,1.5
		c0.5,0.3,1,0.2,1.5-0.3c0.2-0.2,0.4-0.4,0.6-0.6c0.4-0.5,0.8-1,1.1-1.5c2-2.8,5.5-3.9,8.7-3c1.9,0.6,3.4,1.6,4.9,2.9
		c2.2,2.1,3.9,4.5,5.1,7.2c2.4,5.3,3.5,10.9,3.4,16.7c-12.1,2.3-22.8,7.6-32.3,15.5c-3.2,2.7-6.1,5.7-8.9,8.7
		c-8.8,9.2-14.7,19.9-17.6,32.3c-0.9,3.9-1.6,7.9-2.1,11.9c-1.9-0.4-4,0-5.8,1.4c-1.4,1.1-2.5,2.4-3.4,3.9c-1,1.7-1.7,3.5-2.3,5.4
		c-1.6,5.5-2.1,11.2-2.3,16.9c0,1,0.1,2,0.2,3.1c0.1,3.8,0.6,7.5,1.5,11.1c0.6,2.3,1.3,4.6,2.5,6.6c1,1.8,2.4,3.3,4.3,4.3
		c2.1,1.1,4.2,0.8,5.8-1c0.5-0.6,1-1.2,1.3-1.9c0.4-1,0.8-2.1,1.1-3.2c0.7-3.1,0.9-6.3,1.1-9.5c0-0.3,0-0.7,0-1
		c3.1,6.1,7.6,11.3,13.5,15.5c5.5,3.9,11.8,6.1,18.4,7.4c0.7,0.1,1.3,0.2,2,0.4c-0.1,0.1-0.2,0.1-0.3,0.1c-1.1,0.7-2.1,1.5-2.8,2.7
		c-1.1,1.8-1,4.1,0.3,5.8c1.4,1.7,3.1,2.9,5.2,3.5c3.1,0.8,6.2,1.1,9.3,0.8c2.6-0.2,5.2-0.9,7.5-2.1c1.6-0.9,3-1.9,4-3.5
		c0.9-1.6,1.1-3.3,0.5-4.8c1,0.1,2.1,0.1,3.1,0.2c6.7,0,13.3-0.5,19.8-1.4c-1.1,1.8-1,3.9,0.2,5.8c1,1.6,2.5,2.6,4.1,3.4
		c2.4,1.1,5,1.6,7.6,1.7c3.2,0.1,6.3-0.3,9.3-1.2c2.1-0.7,3.7-2,5-3.7c1.2-1.7,1.2-4,0-5.8c-0.8-1.1-1.8-1.9-2.9-2.5
		c-1.3-0.7-2.6-1.2-4-1.6c2-0.6,4-1.2,6-1.9c6.3-2.2,12.5-4.8,18.1-8.5c5.2-3.4,10-7.3,13.8-12.3c0.6-0.8,1.2-1.6,1.7-2.4
		c0.1,1.9,0.1,3.7,0.2,5.6c0.1,3.2,0.4,6.4,1.1,9.5c0.3,1.1,0.6,2.2,1.1,3.2c0.3,0.7,0.8,1.4,1.3,1.9c1.6,1.8,3.7,2.1,5.8,1
		c1.8-1,3.2-2.5,4.3-4.3c1.2-2.1,1.9-4.3,2.5-6.6c0.9-3.6,1.4-7.4,1.5-11.1c0-1.1,0.1-2.1,0.2-3.1
		C237.6,222.3,237.1,216.7,235.5,211.2z"/>
	<g>
		<path class="st33" d="M193.7,225.5c0.2-0.4,0.4-0.7,0.6-1c0.7-1.2,1.4-2.4,2.5-3.3c0.4-0.4,0.9-0.7,1.4-1c1.5-0.8,3.1-0.4,4.1,0.9
			c0.9,1.1,1.2,2.5,1,3.9c-0.5,4-1.8,7.8-3.8,11.3c-1.2,2.1-2.8,2.7-5,1.8c-0.8-0.3-1.7-0.8-2.4-1.3c-1.7-1.4-3.4-2.9-5-4.4
			c-1.5-1.5-2.7-3.2-3.5-5.2c-0.4-1-0.6-1.9-0.6-3c0.1-2.2,2.1-3.8,4.3-3.4c2.3,0.4,4.1,1.7,5.5,3.5
			C193.1,224.5,193.4,224.9,193.7,225.5z"/>
		<g>
			<g>
				<path class="st26" d="M139.7,181.4c0,3-1.1,5.6-3.3,7.7c-1.6,1.5-3.4,2.5-5.5,3.2c-3.1,0.9-6.6-0.1-8.6-2.7
					c-1.3-1.7-2.5-3.6-3-5.7c-0.8-3.5,0.3-6.5,2.6-9.1c2.8-3.2,7.2-4.4,11-3.1C137.1,173.1,139.7,176.9,139.7,181.4z"/>
				<path class="st26" d="M164.5,175.1c3,0,6.2,3.1,4.1,7.2c-0.7,1.4-1.9,2.2-3.3,2.6c-1.5,0.5-3.1-0.1-4.1-1.5
					c-1-1.3-1.4-2.8-1.2-4.5C160.3,176.9,162.3,175.1,164.5,175.1z"/>
			</g>
			<g>
				<path d="M136.4,182.8c0,1-0.4,1.9-1.1,2.6c-0.5,0.5-1.2,0.9-1.9,1.1c-1.1,0.3-2.3,0-2.9-0.9c-0.5-0.6-0.9-1.2-1-1.9
					c-0.3-1.2,0.1-2.2,0.9-3.1c1-1.1,2.5-1.5,3.8-1.1C135.5,179.9,136.4,181.2,136.4,182.8z"/>
				<path d="M162.8,180.1c1,0,2.1,1.1,1.4,2.5c-0.2,0.5-0.6,0.8-1.1,0.9c-0.5,0.2-1.1,0-1.4-0.5c-0.3-0.5-0.5-1-0.4-1.5
					C161.3,180.8,162,180.1,162.8,180.1z"/>
			</g>
		</g>
		<g>
			<g>
				<path class="st50" d="M131,212.3l10.8,2.1c1.5,0.3,2.1,1.8,1.2,2.8l-7,7.2l-7,7.2c-0.9,1-2.8,0.6-3.3-0.6l-3.8-9.3l-3.8-9.3
					c-0.5-1.3,0.7-2.5,2.1-2.2L131,212.3z"/>
				<path class="st50" d="M102.2,203.3l9.6,5.4c1.3,0.7,1.4,2.4,0.2,3l-8.9,4.7l-8.9,4.7c-1.2,0.6-2.8-0.3-2.9-1.6l-0.7-10l-0.7-10
					c-0.1-1.4,1.4-2.1,2.7-1.4L102.2,203.3z"/>
				<path class="st50" d="M198.2,200l9.3-5.8c1.3-0.8,2.8-0.1,2.8,1.3l-0.2,10.1l-0.2,10.1c0,1.4-1.6,2.3-2.8,1.8l-9.1-4.2l-9.1-4.2
					c-1.2-0.6-1.2-2.3,0.1-3.1L198.2,200z"/>
			</g>
			<path d="M148.5,217.6c-13.6-0.3-26.5-2.6-39-7.4c-6.7-2.6-13.1-6.1-18.9-10.3c-1.9-1.4-3.7-3-5.6-4.6c-0.5-0.4-0.9-0.9-1.3-1.4
				c-0.6-0.8-0.5-1.7,0-2.3c0.5-0.6,1.4-0.8,2.2-0.3c1.2,0.7,2.4,1.5,3.6,2.3c2.3,1.6,4.5,3.3,6.9,4.8c9.7,6.3,20.3,10.3,31.6,12.5
				c8.4,1.7,16.8,2.4,25.3,2.1c12.1-0.5,23.8-2.9,34.8-7.9c7.6-3.5,14.5-8.1,20.5-14c1.9-1.9,4-3.7,6-5.6c0.6-0.6,1.4-1.1,2.1-1.6
				c0.8-0.5,1.7-0.4,2.3,0.2c0.6,0.6,0.7,1.5,0.1,2.3c-0.9,1.2-1.9,2.3-2.9,3.4c-4.2,4.3-8.5,8.4-13.3,11.9
				c-8.4,6-17.7,10.2-27.8,12.7c-6.8,1.7-13.8,2.8-20.8,3C152.2,217.4,150.2,217.5,148.5,217.6z"/>
		</g>
	</g>
</g>
<g>
	<path class="st51" d="M355.5,301.5c-1-7.6-2.9-15-5.6-22.1c-2.5-6.5-5.6-12.7-10.1-18c-0.1-0.1-0.2-0.2-0.3-0.3
		c0-0.1,0.1-0.2,0.1-0.3c0.7-1.8,1.1-3.6,1.2-5.5c0.2-1.5,0.2-3.1,0.4-5c-0.2-1.6-0.3-3.4-0.6-5.3c-0.1-0.9-0.4-1.7-0.8-2.5
		c-1.2-2.2-3.5-2.2-4.9-0.1c-0.7,1.1-1.3,2.3-2,3.3c-1.5,2.2-3.3,4.1-5.1,6c-5.7-2.8-12.1-3.9-19.2-3.4c-4.6,0.3-9,1.5-13.2,3.3
		c-2.2,0.9-4.4,2-6.5,3.1c-1.8-1.8-3.5-3.7-4.9-5.8c-0.7-1.1-1.4-2.2-2-3.3c-1.3-2.1-3.7-2.1-4.9,0.1c-0.4,0.8-0.7,1.6-0.8,2.5
		c-0.3,1.8-0.4,3.7-0.6,5.3c0.1,1.9,0.2,3.4,0.4,5c0.2,1.5,0.5,3.1,0.9,4.5c-2.5,2.2-4.9,4.6-7.1,7.3c-5.6,6.8-9.9,14.3-13.1,22.4
		c-1.2,3.1-2.3,6.2-3.3,9.3c-0.9,2.7-1.9,5.3-2.7,8c-0.9,2.8-1.8,5.6-3.2,8.2c-1.7,3.3-3.5,6.5-6.1,9.2c-0.1,0.1-0.2,0.2-0.4,0.4
		c-0.7-1.2-1.4-2.3-2.2-3.5c-0.8-1.1-1.6-2.2-2.5-3.3c-0.9-1-1.9-1.7-3.4-1.3c-1.5,0.4-2,1.6-2.2,2.9c-0.5,3.2-0.9,6.4-1.3,9.6
		c-1-1.7-2.1-3.4-3.1-5c-0.8-1.1-1.6-2.2-2.5-3.3c-0.9-1-1.9-1.7-3.4-1.3c-1.5,0.4-2,1.6-2.2,2.9c-0.4,3.1-0.8,6.2-1.2,9.3
		c-0.1,0-0.2,0-0.2,0c-1-1.6-1.9-3.1-3-4.7c-0.8-1.1-1.6-2.2-2.5-3.3c-0.9-1-1.9-1.7-3.4-1.3c-1.5,0.4-2,1.6-2.2,2.9
		c-0.5,3.6-1,7.3-1.4,10.9c-0.3,0.3-0.6,0.6-0.8,1c-1.2,1.8-1.5,4.8,1.7,6.1c4.2,1.8,8.5,3.3,12.9,4.6c8.1,2.4,16.5,3.5,24.9,4.6
		c3.5,0.5,7.1,0.9,10.6,1.4c5.3,0.6,10.5,1.2,15.8,1.8c0.6,0.1,1,0.3,1.3,0.8c0.6,1.2,1.2,2.4,1.9,3.5c0.5,0.8,1.1,1.7,1.8,2.4
		c2,2,4.5,1.9,6.2-0.4c0.9-1.2,1.5-2.5,2.3-3.8c0.2-0.4,0.3-0.8,0.5-1.1c0.2,0,0.3-0.1,0.4,0c4.7,0.4,9.5,0.4,14.2,0.4
		c4.6-0.1,9.3-0.4,13.8-1.5c3.3-0.8,6.6-1.7,9.9-2.6c0.4-0.1,0.8-0.3,1.2-0.1c2,1.2,3.7,2.7,4.7,4.9c0.4,0.8,0.7,1.6,1.2,2.3
		c1.2,1.6,3.1,1.9,4.7,0.7c0.8-0.6,1.5-1.5,1.8-2.4c0.4-1.2,0.8-2.4,1.1-3.7c0.7-2.8,1.3-5.6,2-8.5c0.4-1.5,0.9-2.8,2.3-3.7
		c0.2-0.1,0.3-0.3,0.5-0.4c9.5-8.5,14.5-19.1,15.2-31.8C356.5,309.9,356.1,305.7,355.5,301.5z"/>
	<g>
		<g>
			<g>
				<path class="st26" d="M283.1,276c-7.5,1.2-14.2,6.6-15.7,14.2c0,0.1,0,0.2-0.1,0.3c-1.4,9.4,5,18.5,13.9,21.3
					c7.7,2.5,16.3,0.3,19.7-7.5c2.7-6.2,2.4-14.4-0.7-20.4C297,277.6,290,274.9,283.1,276z M293.1,305.2c-1.9,3.9-6.4,4.9-10.3,3.4
					c-4.5-1.6-7.3-6.2-6.7-10.9c0-0.1,0-0.2,0-0.2c0-0.2,0.1-0.3,0.1-0.4c0.9-3.9,4.1-6.6,8.1-7.2c3.7-0.6,7.4,1.1,8.9,4.7
					C294.5,297.7,294.6,302,293.1,305.2z"/>
				<path class="st26" d="M345,282.8c-3.3-6.4-10.3-9.1-17.2-8c-7.5,1.2-14.2,6.6-15.7,14.2c0,0.1,0,0.2-0.1,0.3
					c-1.4,9.4,5,18.5,13.9,21.3c7.7,2.5,16.3,0.3,19.7-7.5C348.4,297,348.1,288.8,345,282.8z M337.8,304.1
					c-1.9,3.9-6.4,4.9-10.3,3.4c-4.5-1.6-7.3-6.2-6.7-10.9c0-0.1,0-0.2,0-0.2c0-0.2,0.1-0.3,0.1-0.4c0.9-3.9,4.1-6.6,8.1-7.2
					c3.7-0.6,7.4,1.1,8.9,4.7C339.3,296.6,339.4,300.9,337.8,304.1z"/>
			</g>
			<g>
				<path d="M284.2,289.8c-4,0.6-7.2,3.3-8.1,7.2c0,0.1-0.1,0.2-0.1,0.4c0,0.1,0,0.2,0,0.2c-0.5,4.7,2.2,9.3,6.7,10.9
					c3.9,1.4,8.4,0.5,10.3-3.4c1.5-3.2,1.5-7.5,0.1-10.7C291.6,291,287.9,289.3,284.2,289.8z"/>
				<path d="M337.9,293.4c-1.5-3.5-5.2-5.2-8.9-4.7c-4,0.6-7.2,3.3-8.1,7.2c0,0.1-0.1,0.2-0.1,0.4c0,0.1,0,0.2,0,0.2
					c-0.5,4.7,2.2,9.3,6.7,10.9c3.9,1.4,8.4,0.5,10.3-3.4C339.4,300.9,339.3,296.6,337.9,293.4z"/>
			</g>
		</g>
		<path class="st33" d="M322.5,336.9c0.4-0.5,0.6-0.9,0.9-1.3c0.9-1.4,2-2.6,3.3-3.5c0.6-0.5,1.4-0.8,2.2-1c1.8-0.4,3.5,0.8,3.6,2.7
			c0.1,0.8-0.1,1.7-0.3,2.5c-1.1,3.1-2.6,5.9-4.4,8.6c-0.3,0.5-0.7,0.9-1.2,1.4c-1.4,1.3-3,1.7-4.8,1c-1.4-0.5-2.6-1.2-3.6-2.2
			c-2.6-2.6-4.7-5.6-5.8-9.2c-0.2-0.6-0.3-1.2-0.3-1.9c-0.1-2.6,2.2-4.2,4.7-3.4c1.3,0.5,2.4,1.2,3.2,2.3c0.7,0.9,1.3,1.9,2,2.9
			C322,336.1,322.2,336.4,322.5,336.9z"/>
		<g>
			<path d="M299.9,319.2c4.4,5.6,12.9,4.7,16.2-1.5c0.9-1.7-1.7-3.2-2.5-1.5c-2.5,4.7-8.3,5.1-11.6,1
				C300.8,315.7,298.7,317.8,299.9,319.2L299.9,319.2z"/>
		</g>
	</g>
</g>
</svg>
