<?xml version="1.0" encoding="utf-8"?>
<!-- Generator: Adobe Illustrator 17.1.0, SVG Export Plug-In . SVG Version: 6.00 Build 0)  -->
<!DOCTYPE svg PUBLIC "-//W3C//DTD SVG 1.1//EN" "http://www.w3.org/Graphics/SVG/1.1/DTD/svg11.dtd">
<svg version="1.1" id="_x31_" xmlns="http://www.w3.org/2000/svg" xmlns:xlink="http://www.w3.org/1999/xlink" x="0px" y="0px"
	 viewBox="0 0 509.9 557.4" enable-background="new 0 0 509.9 557.4" xml:space="preserve">
<path fill="#E71C36" d="M265.7,377.2c-1.3-1.1-2.8-1.7-4.4-2.1c1.4-0.1,2.7-0.6,3.9-1.7c1.2-1.1,1.6-3.4,0.4-4.6
	c-2.9-3-8.7-3.3-13.2-1.8c0.9-2.3,0.4-5.3-1.6-6.7c-1.8-1.3-4.1-0.5-5.5,0.8c-0.7,0.6-1.5,1.4-2.1,2.3c-0.2-0.7-0.4-1.3-0.7-1.9
	c-0.6-1.4-2.4-2.8-4-2c-1.4,0.7-1.7,2-1.8,3.5c0,0.6,0,1.4,0,2.2c-1.6-1.4-3.9-2.4-5.2-1.6c-1.5,0.9-2.2,2.6-1.8,4.3
	c0.1,0.7,0.4,1.5,0.8,2.2c-4.1-2-9.4-3.2-12.9-0.3c-1.3,1.1-1,3.5,0.1,4.6c0.2,0.2,0.5,0.4,0.7,0.6c-1.1,0.1-2.2,0.3-3.2,0.7
	c-2.5,0.9-5.4,3.5-4.3,6.3c0.9,2.5,5,2.5,7.1,2.4c1.3-0.1,3-0.5,4.5-1.1c-1.3,2.3-1.5,5.1,1.6,6c4.7,1.3,8.6-2.7,11.2-6.7
	c-0.3,1-0.8,2.1-0.9,3.1c-0.2,1.7,0.3,4.5,2.5,4.8c2.1,0.4,3.7-0.8,4.6-2.6c0.7-1.3,1.3-2.7,1.7-4.2c0,0,0,0,0,0.1c0.2,1,0.6,2,1,3
	c0.6,1.5,1.8,2.5,3.5,2.2c1.3-0.3,2-1.7,2.2-3.3c1.7,3.3,5.3,5.8,8.8,5.7c4.3-0.1,2.9-5.2,0.7-9.1c1.1,1,2.4,1.9,3.6,2.3
	c1.8,0.5,4.2,0.3,5-1.7C268.9,380.5,267.3,378.5,265.7,377.2z"/>
<path fill="#E5CE25" d="M317.1,458.1c-0.9-0.1-1.8-0.1-2.6-0.1c-1.6-0.1-3.1,0-4.7,0c-1.6,0-3.2-0.1-4.8-0.1
	c1.2-1.2,2.2-2.4,3.3-3.6c1.3-1.4,2.5-2.8,3.7-4.3c0.5-0.6,3.4-3.5,2.8-4.1c-0.4-0.4-1.7,0.2-2.2,0.3c-0.9,0.3-1.7,0.6-2.6,1
	c-1.7,0.7-3.3,1.6-5,2.4c-2.4,1.1-4.9,2.2-7.3,3.3c0-0.1,0-0.3-0.1-0.4c-0.5-2.6-0.8-5.2-1.2-7.8c-0.1-0.4,0-1.3-0.3-1.6
	c-0.2-0.2-0.5-0.3-0.6,0c-1,2.6-1.5,5.4-2.4,8.1c-0.7,2.2-1.6,4.5-2.2,6.7c-7.9,2.9-15.7,6.3-23.6,9.3c-0.2-4.5-0.4-9-0.7-13.5
	c-0.4-8-0.7-16-2-23.9c-1.1-6.9-2-13.9-2.7-20.9c-0.6-5.3-0.9-10.6-2.2-15.8c-0.1-0.6-0.3-1.2-0.5-1.8c-0.1,0-0.3,0-0.5,0
	c-3.5,0.1-7.1-2.4-8.8-5.7c-0.2,1.7-0.9,3-2.2,3.3c-1.7,0.4-2.9-0.7-3.5-2.2c-0.4-1-0.8-1.9-1-3c0,0,0,0,0-0.1
	c-0.5,1.4-1.1,2.8-1.7,4.2c-0.9,1.9-2.5,3-4.6,2.6c-2.1-0.4-2.7-3.1-2.5-4.8c0.1-1.1,0.6-2.1,0.9-3.1c-2.6,4-6.5,8-11.2,6.7
	c-1.6-0.4-2.3-1.4-2.4-2.6c-1.4,2.5-2.4,5.2-3.5,7.7c-4.7,10.6-8.5,21.9-11,33.2c-1.7,7.6-2.7,15.4-2.5,23.2
	c0.1,5.7,0.2,11.6,0.6,17.3c-4.4-1.6-9-2.9-13.4-4.4c-5.5-1.9-10.8-4.5-16.4-6.2c0,0-0.1-3-0.1-3.3c-0.3-3.2-1-6.5-2.1-9.6
	c-0.3-0.8-1.5-4.2-2-1.9c-0.6,2.5-1,5.1-1.6,7.6c-0.2,0.7-0.3,1.4-0.5,2.1c-0.9-1.8-2.4-3.4-3.4-4.8c-1.3-1.8-2.9-3.3-4.6-4.8
	c-0.8-0.7-1.7-1.4-2.6-2c-0.6-0.4-1.2-0.9-1.3,0.2c0,0.3,0,0.7,0,1.1c0.1,0.7,0.3,1.5,0.6,2.2c0.5,1.4,1.3,2.7,1.9,4
	c0.7,1.5,1.2,3.5,2,5.3c-1.7,0.1-3.4,0.4-5,1c-0.7,0.3-4,1.4-3.9,2.4c0.1,0.7,2,1.2,2.5,1.4c1.1,0.5,2.2,0.9,3.3,1.4
	c1.4,0.6,2.9,1.7,4.4,2.3c-0.5,0.9-1,1.9-1.5,2.7c-0.6,0.9-1.2,1.8-1.8,2.7c-0.4,0.6-1.4,1.5-1.2,2.3c0.2,1.1,2.7,0.6,3.5,0.4
	c1.3-0.3,2.4-0.9,3.6-1.5c3.1-1.4,6.6-2.4,9.7-4c4.7,3.8,10.3,6.8,15.6,9.6c5.1,2.7,10.4,5.4,16,6.7c0.9,5,2.1,10,3.3,15
	c1,4,2.1,8,2.7,12.1c0.5,3.3,0.5,6.6,0.8,9.9c0.6,7.6,1.1,15.3,1.3,22.9c-3.9-0.7-8.5-0.2-12.5,0.2c-2.3,0.2-6,0.4-7.1,2.9
	c-1,2.4,5.6,2.5,6.7,2c-0.8,0.4-1.6,0.8-2.4,1.2c-1.3,0.6-2.6,1.3-3.5,2.3c-0.8,0.9-1.5,2.6-0.9,3.7c0.5,0.9,1.5,0.7,2.4,0.6
	c2-0.3,3.9-1.3,5.8-2c1.7-0.6,3.8-1.3,5.8-2c-0.7,0.9-5.3,7.5-1.9,7.5c1.6,0,3.2-1.1,4.5-1.9c2-1.2,3.8-2.7,5.7-4.1
	c2.7-2.1,5.1-4.6,7.1-7.4c0.9-1.3,2-2.6,2.5-4.1c0.4-1.2,0.7-2.5,1-3.7c1.2-5,2.2-10.4,5.2-14.7c1.5-2.2,3.7-3.9,6.2-4.8
	c13-4.6,16.1,11.6,18.2,20.1c-1.2,0.9-2.7,1.4-4,2.1c-1.9,0.9-3.7,2-5.5,3.1c-1.6,1-5.5,2.4-5.2,4.8c0.2,1.9,2.5,1.4,3.7,1
	c1.6-0.5,3.1-1.2,4.6-2c-1.3,2.2-4.9,5.3-3.2,8.1c1.1,1.9,3.9-1.1,4.9-1.9c2-1.7,3.9-3.5,5.8-5.2c-0.5,2.2-0.4,4.5,0.2,6.7
	c0.4,1.4,1.8,2.5,3.1,1.4c2.2-1.9,2.1-5.9,3.1-8.5c2.3-6.3,2.9-10.4,2.6-17.2c-0.3-6.9-0.6-13.8-0.8-20.8c-0.2-4.7-0.1-9.2,0.2-13.9
	c0.1-1.7-0.8-13.1,0.2-13.8c7.6-5.1,15.5-9.4,24-12.8c0.2-0.1,1,0.3,1.2,0.4c0.5,0.1,1,0.3,1.5,0.4c0.9,0.3,1.9,0.5,2.8,0.8
	c1.8,0.5,3.7,1,5.6,1.4c3.8,0.8,7.7,1.3,11.6,0.9c0.4,0,1.2-0.1,1.2-0.6c0-0.5-0.9-0.9-1.3-1.1c-0.7-0.5-1.5-1-2.2-1.4
	c-1.5-0.9-3-1.8-4.4-2.8c-0.7-0.4-1.4-1-2.1-1.5c0.7-0.2,1.5-0.4,2.2-0.6c3.6-1,7.8-2.1,10.9-4.1
	C319.4,458.7,317.4,458.2,317.1,458.1z"/>
<path fill="#8B5222" d="M250.4,404.3c-2.7-6.1-7.4-10.6-14.3-9.3c-6,1.1-11.1,8.5-12.8,13.9c-0.1,0.2,0.3,0.4,0.4,0.2
	c2.8-4.5,5.9-7.9,10.5-10.6c6.6-3.8,11.7,2.4,16,6.2C250.3,404.7,250.5,404.5,250.4,404.3z"/>
<path fill="#8B5222" d="M250.5,404.9c-0.1,0-0.1,0.1,0,0.1C250.6,405,250.6,404.9,250.5,404.9z"/>
<path fill="#DC87B8" d="M234.1,499.6c-1.7-0.1-3.4,0.3-4.8,1.3c-1.8,1.2-2.4,4.2-1.4,6.3c1.1,2.7,5.1,4.9,8,3.6
	c3.7-1.7,4.2-6,1.8-9.1C236.7,500.6,235.5,499.8,234.1,499.6z"/>
<path fill="#DC87B8" d="M225.2,530.2c-3,0.8-3.9,4.1-2.7,6.7c0.8,1.8,2.8,3.2,4.7,3.2c0-0.1,0-0.1,0.1-0.2c0.4-1.2,0.7-2.5,1-3.7
	c0.4-1.7,0.8-3.4,1.2-5.1C228.3,530.1,226.7,529.8,225.2,530.2z"/>
<path fill="#DC87B8" d="M261.9,515.6c-0.7,0.5-1.3,1.2-1.6,2c-1.7,4,1.8,7.4,5.7,7.6c0.7,0,1.3-0.1,1.9-0.2c-0.1-3.3-0.3-6.7-0.4-10
	C265.5,514.3,263.2,514.3,261.9,515.6z"/>
<path fill="#DC87B8" d="M222.5,486.2c-1.1-2.5-4.5-2.7-6.4-1.3c-1.7,1.2-2.6,4.4-0.9,6C218.3,494.1,224.3,490.5,222.5,486.2z"/>
<path fill="#DC87B8" d="M195.8,469.6c1.2-1.1,1.8-2.5,2-4c-2-0.6-4-1.2-5.9-1.9c-2.2-0.8-4.4-1.6-6.5-2.5c-0.9,2.2-0.7,4.7,0.5,6.8
	C187.7,471.3,192.9,472.4,195.8,469.6z"/>
<path fill="#DC87B8" d="M260.5,503.1c2.1,1,4.5,1.3,6.5,0.7c0-3.1,0.1-6.3,0.2-9.5c0-0.7-0.1-3.2-0.2-5.9c-3.3-1.2-7.3-0.5-9.4,2.6
	C255.2,494.7,256.5,501,260.5,503.1z"/>
<path fill="#DC87B8" d="M280,466.2c-3.2-0.3-6.2,0.9-6.6,4.3c-0.2,1.6,0.2,4,1.3,5.4c3-1.8,6.1-3.4,9.3-5
	C283.9,468.6,282.7,466.5,280,466.2z"/>
<path fill="#DC87B8" d="M261.6,426.8c1-0.2,1.7-0.7,2.3-1.3c-0.6-4.2-1.1-8.4-1.6-12.6c-1.7-0.3-3.6,0.2-5.1,1.5
	c-3,2.6-2.3,7.9,0,10.7C258.1,426.4,260.1,427.2,261.6,426.8z"/>
<path fill="#DC87B8" d="M202.8,467.2c0.1,0.3,0.2,0.6,0.4,0.9c1.5,2.7,5.1,3.7,7.7,2.1c2.7-1.7,2.6-5.4,0.8-7.6
	c-1.9-2.5-4.8-2.5-6.8-1.3c0.1,2.2,0.2,4.5,0.3,6.7C204.5,467.8,203.6,467.5,202.8,467.2z"/>
<path fill="#DC87B8" d="M211.7,411c0.9,0.2,1.9,0.2,2.9,0.1c4.7-0.7,7.3-6.1,6.5-10.4c-0.4-2-1.2-4.6-3.4-5.4
	C215.5,400.4,213.5,405.7,211.7,411z"/>
<path fill="#8B5222" d="M250.8,433.4c2.9-1.9,9.2-2,10,2.3c0.1,0.7,1.2,0.5,1.2-0.2c0.2-4.9-4.4-6.6-8.7-5.8
	c-6.2,1.2-8.8,5.9-9.5,12c-0.5,4.8,1.7,12.5,6.7,14.5c0.3,0.1,0.5,0.2,0.8,0.3c-5,11.7-26.2,13.5-31.5,1.3
	c6.6-0.4,7.2-10.6,5.7-15.3c-1.5-4.5-9.1-9.6-12.3-3.6c-0.2,0.4,0.2,0.8,0.6,0.6c4.6-2.8,8.4,0.1,9.8,4.8c0.7,2.2,0.5,4.5,0,6.8
	c-0.4,1.5-1.3,2.6-2.4,3.6c-0.9,0.8-3.2,1.4-3.2,2.8c-0.1,2.9,3.6,6.4,5.8,7.8c0.3,0.2,2.9,1.3,2.9,1.4c0,0.1,0,0.1,0,0.2
	c-0.1,7.5,1.4,15.9,8.7,19.7c2.6,1.4,7.1,1.4,10.3,0c-2.4,2.5-5.4,4.4-9.4,5.3c-0.3,0.1-0.2,0.5,0.1,0.5c7.1,0.7,11.7-4.8,15.2-10.3
	c4.6-7.3,5-14.1,5.5-22.2c0.5,1.3,0.9,2.7,1.2,4.2c0.4,2.2,0.5,4.5,0.5,6.8c0,1.7-1,4.4-0.1,5.8c2.6-1.3,2.5-7.3,2.5-9.8
	c0-2-0.3-4-0.7-5.9c-0.1-0.4-1.8-5.4-1.9-5.3c1.5-1,2.5-2.6,2.9-4.7c0.2-1-1.3-1.8-1.8-0.8c-4.8,9.5-13,0.1-13.3-6.6
	C246.1,440.3,248,435.2,250.8,433.4z"/>
<path fill="#FFFFFF" d="M225.5,442.6c0.1,0.3,0.2,0.6,0.3,0.9c2,3,4.7,4.9,7.8,5.4c3.6,0.5,7.2-1,10.2-4c-0.1-1.1-0.1-2.2,0-3.2
	c0.6-5.4,2.7-9.7,7.5-11.4c0.1-0.7,0.3-1.3,0.4-2c1.8-12.6-3.2-23.7-11.4-24.9c-8.1-1.2-16.2,8-18,20.6c-0.9,5.8-0.2,11.3,1.5,15.7
	C224.6,440.6,225.2,441.6,225.5,442.6z"/>
<path fill="#231F20" d="M225.5,442.6c0.1,0.3,0.2,0.5,0.2,0.8c0,0.1,0.1,0.2,0.1,0.2c2,2.9,4.7,4.8,7.8,5.3c3.6,0.5,7.2-1,10.2-4
	c-0.1-1.1-0.1-2.2,0-3.2c0.6-5.3,2.7-9.6,7.3-11.4c-1.1-7.3-5.8-12.9-12.1-13.4c-2.4-0.2-4.7,0.4-6.7,1.5l6.5,13.4l-12.4-7.3
	c-1.4,2.4-2.3,5.3-2.6,8.4c-0.3,2.9,0.1,5.7,0.9,8.2C225.1,441.5,225.4,442.1,225.5,442.6z"/>
<path fill="#FFFFFF" d="M234.4,468c-1.6,0-3.1-0.1-4.3-0.4c-0.3,0.8,0,2.3,0.1,2.9c0.1,1.2,0.3,2.4,0.8,3.5c0.5,1.2,1.6,2.5,2.9,2.9
	c1.5,0.4,2.9-1.3,3.5-2.5c1-2,0.8-4.5,0.8-6.7C236.8,467.9,235.5,468,234.4,468z"/>
<path fill="#FFFFFF" d="M221.6,463.5c-0.1,0.6-0.1,1.2-0.1,1.5c0,1,0.1,2.1,0.1,3.1c0.1,2.1,0.4,4.4,1.4,6.3c0.2,0.4,0.5,0.8,1,1.1
	c0.9,0.6,2.2,0,2.9-0.6c1.1-0.9,1.7-2.4,2.1-3.7c0.3-1,0.4-2.1,0.4-3.1c0-0.1,0-0.3,0-0.5C225.7,466.7,223.3,465.1,221.6,463.5z"/>
<path fill="#FFFFFF" d="M245.7,465.9c0-0.1,0-0.1,0-0.2c-2,1-4.4,1.8-7.4,2.1c0,0,0,0,0,0c0,0.1,0,0.2,0,0.3c0.1,2,0.9,4.1,1.9,5.8
	c0.6,1,1.8,2.1,3,1.9c1.4-0.2,2.2-1.8,2.7-2.9c0.6-1.5,0.5-3.1,0.3-4.7C246,467.4,245.9,466.6,245.7,465.9z"/>
<path fill="#FFFFFF" d="M252.2,459.7c-1.1,1.8-3,4-6.1,5.7c0.2,0.5,0.3,1,0.5,1.5c0.3,0.8,0.5,1.6,0.9,2.3c0.6,1,2.2,1.4,3.2,0.8
	c1.2-0.7,1.6-2.1,1.9-3.3c0.4-1.4,0.5-2.9,0.3-4.3C252.9,461.9,252.7,460.5,252.2,459.7z"/>
<path fill="#00ADEE" d="M509,428.2c-0.1-0.1-0.2-0.1-0.2-0.2c-1.2-0.8-2.4-1.9-3.7-2.5c0.4-0.2,0.7-0.4,1.1-0.6
	c1.1-0.5,5.3-3,2.2-3.8c-1.6-0.4-3.3-0.7-4.8-1.2c-1.5-0.5-2.8-1.7-4.1-2.7c-1.6-1.3-2.9-3-4.5-4.3c0.6-0.1,1.2-0.1,1.8-0.3
	c1-0.3,4-2,3.7-3.4c-0.2-1.2-3.1-0.9-4-1.1c-1.6-0.4-3.2-0.9-4.7-1.6c-3-1.3-5.8-2.9-8.9-4c0.6,0.2,2.6-2.3,1.6-2.7
	c-0.2-0.1-0.5-0.1-0.8-0.1c-2.6-0.1-5.3-1.8-7.6-2.9c-1.3-0.6-2.5-1.3-3.8-1.9c-0.6-0.3-3.3-1.6-3.9-1.3c0.4-0.3,0.8-0.5,1.2-0.7
	c1.1-0.7,5.9-4.1,4.7-5.8c-0.5-0.7-2.9-0.6-3.7-0.7c-1.5-0.2-3.2-0.1-4.8-0.2c-1.7-0.1-3.2,0-4.9-0.3c0.5,0.1,2.3-2.8,2.2-3.2
	c-0.1-0.3-0.3-0.5-0.6-0.6c-0.8-0.3-1.9-0.3-2.7-0.4c-1.1-0.2-2.3-0.1-3.5-0.2c-2.2-0.1-4.5-0.1-6.7-0.4c-4.1-0.7-6.8-2.7-9.5-5.2
	c1-0.1,2-0.3,2.9-0.7c0.3-0.1,2-0.8,2.1-1.2c0-0.1,0-0.3,0-0.4c-2.1-1.1-4.2-1.7-6.1-3.2c-1.7-1.4-3-3-4.2-4.8
	c0.2,0.3,3.2-1,3.5-1.3c0.3-0.2,0.4-0.7,0.2-1c-0.1-0.2-0.4-0.3-0.6-0.4c-4.2-1.6-8.6-4.2-12-7.1c-2.1-1.8-3.7-4-5.2-6.2
	c0.9,0.3,1.9,0.3,2.8,0.4c0.3,0.1,0.8,0.1,0.9-0.2c0.1-0.2,0-0.5-0.1-0.8c-1.7-3.4-3.3-6.5-4.3-10.2c-0.5-1.8-0.8-3.6-1.1-5.5
	c-0.1-0.9-0.2-1.8-0.3-2.7c0-0.4,0.2-2.3-0.1-2.5c0.8,0.9,1.8,1.5,2.8,2.1c0.5,0.3,1,0.5,1.6,0.6c0.2,0,1.6,0,1.6,0
	c-2.3-3.9-4.1-8.1-5.2-12.5c-0.3-1.1-0.6-2.3-0.8-3.4c-0.1-0.6-0.7-2.2-0.4-2.8c0.4-0.9,4.1,0.3,5.2-0.1c0.8-0.3,0.6-0.5,0.2-1.3
	c-1.6-3.2-3.8-6.2-5.4-9.5c-0.7-1.6-1.4-3.1-2.1-4.8c-0.5-1.3-1.4-2.5-2.1-3.6c-1.3-1.9-2.6-3.8-4.1-5.6c-1.2-1.5-2.6-3-4.1-4.3
	c-4.2-3.7-9.1-5.4-14.5-6.5c-5.7-1.1-11.8-0.9-17.4,0.8c-5.2,1.5-8.5,5.5-13,8.3c-0.9,0.9-2.7,1.5-3.8,2.1c-1.4,0.6-2.8,1.2-4.2,1.6
	c-1.4,0.4-2.9,0.7-4.4,0.8c-1.4,0.1-2.9-0.3-4.4-0.5c0.7,2.3,4.2,4,6.2,5.1c-2.1,2.4-4.1,4.9-6.3,7.3c-1.9,2.1-4.3,3.7-6.7,5.2
	c-0.7,0.5-3,1.4-3.3,2.2c-0.4,1,1.5,1.4,2.2,1.7c1.5,0.7,3.2,1.1,4.9,1.1c-0.9,1.8-1.9,3.6-2.8,5.4c-2.8,5.2-5.8,10-9.5,14.6
	c-1.4,1.8,1.7,1.4,2.7,1.2c1.4-0.4,2.7-0.9,4-1.5c0.3-0.1,0.6-0.3,0.9-0.4c-1.3,3.7-2.5,7.5-3.8,11.1c-0.9,2.5-2.1,4.8-3.3,7.2
	c-0.4,0.8-1.1,1.4-1.2,2.3c-0.1,1.3,1.5,1.1,2.4,0.9c1-0.2,1.9-0.6,2.9-1c0.3-0.1,1.6-0.6,1.7-0.9c-0.9,3.2-2.1,6.3-3.5,9.3
	c-0.7,1.5-1.5,3-2.4,4.4c-0.4,0.7-0.9,1.5-1.4,2.2c-0.1,0.1-1.3,1.3-0.7,1.4c2.9,0.8,6.5-0.6,9-2.1c-0.3,0.2-0.4,2.7-0.5,3.2
	c-0.2,1.1-0.5,2.2-0.8,3.3c-0.6,2.1-1.2,4.1-2,6.1c-0.8,2-1.6,4.1-2.5,6c-0.8,1.8-2,3.5-2.5,5.4c3.7-0.3,6.8-2.3,9.4-4.9
	c0,1.8,0,3.5-0.1,5.3c-0.2,2.4-0.6,4.8-1.4,7c-0.4,1.1-0.7,2.3-1.3,3.3c-0.1,0.1-1.2,2.5-0.8,2.4c1.7-0.4,3-1,4.4-1.9
	c0.4-0.2,0.8-0.5,1.2-0.8c-0.2,2.6-0.7,5.1-1.5,7.6c-0.4,1.3-0.9,2.1-1.5,3.3c-0.4,0.6-1.1,1.9,0.1,2.1c0.3,0.1,0.7,0,1,0
	c1.6-0.3,3.4-0.6,4.9-1.3c0.9-0.4,2-0.9,2.9-1.6c-0.2,1.6,0.2,3.5,0.1,5.1c-0.2,3.4-1.9,5.9-3.4,8.9c1.4,0.6,3,0.7,4.5,0.6
	c1-0.1,1.6-0.8,2.5-1c1.2,2.2,2.5,4,4.7,5.3c0.9,0.5,1.9,0.9,2.8,1.1c2.8,0.7,5.9,0.4,8.7,0.3c3.2,0,6.5-0.1,9.7-0.1
	c6.4-0.1,12.8-0.1,19.2,0.3c9.7,0.5,19.6,1.5,29.2-0.2c6.2-1.1,12.5-1.5,18.8-1.4c3.2,0,6.4,0.2,9.5,0.4c3.1,0.2,5.8,0.6,8.9,0.1
	c7-1,13.9-2.2,21-2c5.4,0.2,10.8,1.1,16.2,1.6c2.7,0.2,5.4,0.4,8.1,0.3c0.8,0,2.9,0.2,3.6-0.3C510.3,429.5,509.6,428.7,509,428.2z"
	/>
<path fill="#8BC53F" d="M424.3,343.4c-0.7,0.1-1.5,0.3-2.2,0.4c0.8,1.8,1.7,3.5,2.6,5.3c0.1,0.2,0.2,0.5,0.1,0.8
	c-0.2,0.3-0.6,0.3-0.9,0.2c-0.9-0.1-1.9-0.2-2.8-0.4c1.5,2.2,3.1,4.4,5.2,6.2c2.3,2,4.9,3.7,7.7,5.2c0.6-0.7,1.1-1.6,1.6-2.5
	c1.9-3.1,8.4-11,4.5-14.9c-2.1-2.1-5.9-1.3-8.5-1.2C429.1,342.7,426.7,343,424.3,343.4z"/>
<path fill="#8BC53F" d="M438.2,363c0.2,0.1,0.5,0.2,0.6,0.4c0.2,0.3,0,0.7-0.2,1c-0.3,0.3-3.4,1.5-3.5,1.3c1.2,1.8,2.5,3.5,4.2,4.8
	c1.9,1.5,4,2.2,6.1,3.2c0,0.1,0,0.3,0,0.4c0,0.4-1.7,1-2.1,1.2c-0.9,0.4-1.9,0.6-2.9,0.7c1.8,1.6,3.6,3.1,5.7,4
	c0.1-0.3,0.2-0.6,0.3-0.8c0.7-1.6,1.5-3.2,2.1-4.9c1.2-3.4,2.1-7.2,1.4-10.8c-0.9-4.8-8.8-2.1-12.2-0.6
	C437.9,362.9,438.1,363,438.2,363z"/>
<path fill="#8BC53F" d="M421.1,322.7c1,2.9,2.3,5.7,3.9,8.3c0,0-1.4,0-1.6,0c-0.6-0.1-1.1-0.3-1.6-0.6c-1-0.6-2-1.2-2.8-2.1
	c0.3,0.3,0.1,2.1,0.1,2.5c0.1,0.9,0.1,1.8,0.3,2.7c0.2,1.8,0.6,3.7,1.1,5.5c0.2,0.8,0.5,1.5,0.7,2.3c2.4-0.2,5.9-3.6,7.1-4.5
	c2-1.4,4.8-3,6-5.2c3.2-5.4-3.4-6.5-7.5-7.7C425,323.4,422.9,322.6,421.1,322.7z"/>
<path fill="#8BC53F" d="M414.3,293c0.8,1.2,1.6,2.3,2.1,3.6c0.4,1.1,0.9,2.2,1.4,3.2c1-0.7,1.8-2,2.5-2.8c1.5-1.8,2.7-3.8,3.3-6
	c1.1-4.1-6.2-2.9-7.9-2.5c-1.1,0.3-2.5,0.6-3.5,1.4C412.9,290.9,413.7,291.9,414.3,293z"/>
<path fill="#8BC53F" d="M419,302.3c1.5,2.9,3.5,5.6,4.9,8.6c0.4,0.8,0.6,1-0.2,1.3c-1.1,0.4-4.8-0.7-5.2,0.1
	c-0.3,0.6,0.3,2.2,0.4,2.8c0.2,1.2,0.5,2.3,0.8,3.4c0.1,0.2,0.1,0.4,0.2,0.6c0.7-0.1,1.3-0.5,2-0.9c1.5-1,2.9-2.2,4.4-3.2
	c2.2-1.5,4.5-2.7,5.6-5.2c2.3-5-6.1-6.5-9-7C421.9,302.6,420.4,302.3,419,302.3z"/>
<path fill="#EB008B" d="M351.5,289.7c0.6-0.1,1.2-0.3,1.8-0.4c1.5-0.4,2.9-0.9,4.2-1.6c1.2-0.5,2.9-1.2,3.8-2.1
	c1.8-1.1,3.4-2.4,5-3.7c-0.1,0-0.2-0.1-0.3-0.1c-4.5-0.6-8.1-2.4-12.1-5.6c-5.5-4.4-5-8.8-7.8-8.4
	C343.6,268.2,342.5,282.5,351.5,289.7z"/>
<path fill="#FFFFFF" d="M399,299.9c-2-1.5-4.5-2.2-7.5-1.5c-4.9,1.2-7.5,6-8.1,11c-0.5-3.6-2.2-7.1-5-8.9c-1.9-1.3-4.2-1.7-6.9-0.8
	c-2.6,0.9-4.4,2.8-5.5,5.3c-0.3-2.1-1.1-4-2.3-5.4c-1.4-1.5-3.3-2.4-5.8-2.3c-6.3,0.4-9.6,8.3-8.7,14c1.1,6.2,8.2,7.9,12.9,4.7
	c1.2-0.9,2.2-2.1,2.9-3.5c0.2,1.6,0.5,3.2,1.1,4.5c2.8,6.3,11,6.2,15,1.5c1.2-1.4,1.9-3.1,2.2-5c0.1,1.3,0.4,2.5,0.8,3.6
	c2.6,7.1,11.6,7.6,16.4,2.8C405.7,314.8,404.5,304.1,399,299.9z"/>
<path fill="#EB008B" d="M407.4,334.4c-0.1-0.3-0.3-0.5-0.5-0.6c-0.6-0.1-0.4,1.2-0.4,1.5c0,1.2,0,2.4-0.4,3.6
	c-0.5,1.6-1.5,2.9-2.7,4.1c-1.4,1.4-3.5-0.3-4.3-1.5c-0.5-0.7-0.7-1.5-0.9-2.4c-0.1-0.5-0.4-2-0.9-2.2c-0.8-0.4-0.7,1.5-0.7,1.9
	c0,0.9,0.2,1.9,0.3,2.8c0.1,1.6,0.1,3.2-0.3,4.8c-0.4,1.6-1.3,3-3,3.4c-2,0.6-3.2-0.6-3.9-2.3c-0.4-0.9-0.6-1.7-0.9-2.6
	c-0.2-0.4-0.4-0.8-0.6-1.2c-0.2-0.4-0.3-1.2-0.8-1.4c-0.4-0.2-0.8,0.2-0.8,0.7c0.4,1.9,0.5,3.8,0.6,5.7c0.1,1.9-1.4,8.9-5.2,7
	c-1.6-0.8-1.8-2.6-2.2-4.2c-0.4-1.5-0.7-3-0.9-4.5c-0.1-0.7-0.1-1.3-0.3-1.9c-0.1-0.5-0.1-1.3-0.4-1.7c-0.7-0.7-0.7,1.5-0.7,1.8
	c-0.1,0.9-0.1,1.8-0.1,2.8c0,1.8,0,3.6-0.3,5.4c-0.3,1.6-0.8,3.2-1.3,4.8c-0.4,1.2-1.2,2.2-2.3,2.8c-0.9,0.5-2.2,0.3-3.1-0.1
	c-1.4-0.5-1.8-1.6-2.2-2.9c-1-3.2-1.3-6.5-1.5-9.8c-0.1-1.7-0.3-3.3-0.5-4.9c-0.1-0.8-0.2-1.7-0.3-2.5c-0.1-0.4-0.3-1.2-0.8-0.5
	c-0.2,0.4-0.3,1-0.4,1.5c-0.2,1-0.4,2.1-0.5,3.1c-0.1,1.1-0.1,2.1,0,3.2c0.1,1.4,0.4,4.6-2,4.1c-1-0.2-1.9-1.1-2.4-2
	c-0.6-1.1-0.9-2.5-1.2-3.7c-0.4-1.7-0.5-3.5-0.7-5.2c-0.1-0.8-0.1-1.7-0.4-2.5c-0.2-0.6-0.6-0.6-0.8,0.1c-0.8,2-1.2,4.4-3.9,3.8
	c-2.3-0.5-2.9-3.6-3.4-5.5c-0.7-2.9-0.5-5.9-1.2-8.8c-0.1-0.3-0.5-0.2-0.5,0.1c-0.4,3-0.7,6.2-0.1,9.2c0.4,2.3,0.9,4.4,2.7,6.1
	c1,1,2.9,1.5,4.2,0.8c0.7-0.3,1.2-0.8,1.5-1.3c-0.1,3.4,0.8,7.2,2.6,9.6c1.6,2.1,4.3,1.7,5.9,0.1c0.1,0.8,0.2,1.6,0.4,2.4
	c0.7,4.3,1.8,9,6.5,10.2c4.7,1.2,6.6-4.8,7.1-10.8c0.9,2.2,2.5,3.7,5.1,3.5c1.7-0.2,3-1.7,3.8-3.1c0.9-1.4,1.3-3.1,1.3-4.8
	c0,0.1,0.8,0.6,0.9,0.7c0.3,0.3,0.7,0.6,1.1,0.8c0.8,0.4,1.8,0.6,2.7,0.5c4.4-0.6,5.1-5,4.5-8.9c1.2,1.6,2.9,2.6,4.8,2.4
	c2-0.2,3-2.6,3.7-4.2c0.7-1.5,1.1-3.2,1.1-4.8C407.6,336.4,407.6,335.1,407.4,334.4z"/>
<path fill="#1B75BB" d="M456.8,402.5c-0.5-0.9-2.3-2.3-2.8-2.7c-1.2-1.3-2.4-2.5-3.4-3.9c-1.2-1.6-1.9-3.6-2.8-5.4
	c0.5,0,0.9,0,1.4,0.1c0.8,0.1,6.9,0.1,6.3-1.1c-0.2-0.5-1.2-0.9-1.6-1.3c-0.7-0.6-1.3-1.1-2-1.6c-2.6-2-3.9-3.8-4.7-5.9
	c-2.7-1-4.8-2.6-6.8-4.5c1-0.1,2-0.3,2.9-0.7c0.3-0.1,2-0.8,2.1-1.2c0-0.1,0-0.3,0-0.4c-2.1-1.1-4.2-1.7-6.1-3.2
	c-1.7-1.4-3-3-4.2-4.8c0.2,0.3,3.2-1,3.5-1.3c0.3-0.2,0.4-0.7,0.2-1c-0.1-0.2-0.4-0.3-0.6-0.4c-4.2-1.6-8.6-4.2-12-7.1
	c-2-1.7-3.5-3.8-5-5.9c0,0,0,0-0.1-0.1c-0.1-0.1-0.2-0.1-0.4-0.2c-0.1,0-0.3-0.1-0.3-0.1c-0.1,0-0.2-0.1-0.3-0.2
	c-0.6-0.1-1.3-0.2-1.9-0.4c-0.3-0.1-0.6-0.1-0.8,0.1c-0.2,0.2-0.1,0.6,0,0.9c1.9,4.1,4.6,7.6,7.3,11.3c0.9,1.3,2,2.6,3.3,3.5
	c-1.8-0.1-3.6-0.2-5.3-0.7c-1.5-0.4-2.6-1.5-3.7-2.5c-0.8-0.8-1.8-1.4-2.8-1.8c-1.5-0.6-1.6,0-1.2,1.4c0.3,1.2,0.8,2.4,1.2,3.6
	c0.5,1.7,0.9,3.5,1.4,5.2c0.9,3.4,2,6.9,4,9.8c-2.5-0.4-5-0.8-7.5-1.7c-3.2-1.1-5.7-3.4-8.3-5.4c-1.6-1.3-1.9,0.3-1.3,1.7
	c0.8,1.6,1.7,3.1,2.3,4.8c0.5,1.3,0.7,2.8,1,4.1c-0.9-0.4-1.9-0.8-2.9-1.2c-3.1-1.4-4.8-4.4-7.5-6.2c-1.6-1-0.6,2.2-0.5,2.6
	c0.4,1.1,0.7,2.2,1,3.4c0.3,1.1,0.6,2.2,0.8,3.4c0.1,0.5,0.1,3,0.4,3.3c-0.9-0.8-1.7-2-2.4-2.7c-1.3-1.4-2.6-2.9-4-4.3
	c-1.9-2.3-3.7-5.1-6.3-6.7c-1.3-0.8-1.3,1.5-1.5,2.2c-0.4,1.7-0.5,3.6-0.9,5.2c-0.6,2.6-1.4,5.1-2.4,7.6c-0.9,2.3-2.7,4.9-3.3,7.4
	c-2.1-3.3-3.9-6.8-5.5-10.3c-0.8-1.8-1.5-3.6-2.2-5.4c-0.3-0.9-0.6-1.9-0.9-2.7c-0.1-0.3-0.9-1.1-1.1-1.1c-0.4,0-0.5,0.9-0.7,1.3
	c-0.4,1.4-0.4,2.7-0.7,4.1c-0.4,2-0.9,3.9-1.6,5.8c-1,3.1-1.9,6.1-2.1,9.3c-3.6-2.8-5-7.5-5.7-11.8c-0.3-2.3-0.3-4.4-0.3-6.6
	c0-1-0.1-3-1.6-2c-1,0.7-1.7,1.9-2.4,2.8c-0.9,1.2-1.8,2.4-2.6,3.6c-1.6,2.5-2.9,5.2-3.4,8.1c-1.2-3.8-2.4-7.6-3-11.5
	c-0.5-3.3-0.7-6.6-1-9.9c0-0.4-0.9,1-0.9,1c-0.3,0.6-0.4,1.2-0.8,1.8c-1.8,3.5-2.9,7-4.4,10.6c-0.8,2-0.5,4.3-0.6,6.5
	c-0.2,2.4-0.6,4.8-1.4,7c-0.4,1.1-0.7,2.3-1.3,3.3c-0.1,0.1-1.2,2.5-0.8,2.4c1.7-0.4,3-1,4.4-1.9c0.4-0.2,0.8-0.5,1.2-0.8
	c-0.2,2.6-0.7,5.1-1.5,7.6c-0.4,1.3-0.9,2.1-1.5,3.3c-0.4,0.6-1.1,1.9,0.1,2.1c0.3,0.1,0.7,0,1,0c1.6-0.3,3.4-0.6,4.9-1.3
	c0.9-0.4,2-0.9,2.9-1.6c-0.2,1.6,0.2,3.5,0.1,5.1c-0.2,3.4-1.9,5.9-3.4,8.9c1.4,0.6,3,0.7,4.5,0.6c1-0.1,1.6-0.8,2.5-1
	c1.2,2.2,2.5,4,4.7,5.3c0.9,0.5,1.9,0.9,2.8,1.1c2.8,0.7,5.9,0.4,8.7,0.3c3.2,0,6.5-0.1,9.7-0.1c6.4-0.1,12.8-0.1,19.2,0.3
	c9.7,0.5,19.6,1.5,29.2-0.2c0.3-0.1,0.6-0.1,0.9-0.1c0,0,0-0.1-0.1-0.1c-2.5-2.5-3.1-6.2-3.7-9.7c0.2,0.8,2.7,2.1,3.4,2.5
	c1.3,0.8,2.6,1.4,4,1.9c1.4,0.5,2.8,0.8,4.2,0.9c0.8,0.1,1.6-0.1,2.3,0c0.5,0,1.4,0.3,1.9,0.1c0.2-0.1,0.7-0.7,0-0.9
	c-1.3-1.9-2.8-3.8-4-5.8c-0.7-1.2-1.1-2.6-1.6-3.9c3.5,0.9,7,1.7,10.7,1.8c1.7,0,3.4,0,5-0.2c0.8-0.1,1.7-0.3,2.5-0.5
	c0.5-0.2,1.5-0.2,1.9-0.4c0.8-0.5-0.3-1.2-0.7-1.7c-0.5-0.6-1.1-1.2-1.6-1.8c-1.1-1.2-2.1-2.4-2.8-3.8c-0.7-1.3-1.2-2.6-1.6-4
	c-0.2-0.7-0.4-1.4-0.5-2.2c-0.1-0.3-0.1-1.9-0.3-2c1.3,0.8,2.8,1.4,4.1,1.8c1.6,0.6,3.3,0.9,5,0.9c0.9,0,4.4,0.2,4.6-1
	C456.9,402.9,456.9,402.7,456.8,402.5z"/>
<path fill="#1B75BB" d="M509.5,430.1c0.8-0.6,0.1-1.4-0.5-1.9c-0.1-0.1-0.2-0.1-0.2-0.2c-1.2-0.8-2.4-1.9-3.7-2.5
	c0.4-0.2,0.7-0.4,1.1-0.6c1.1-0.5,5.3-3,2.2-3.8c-1.6-0.4-3.3-0.7-4.8-1.2c-1.5-0.5-2.8-1.7-4.1-2.7c-1.6-1.3-2.9-3-4.5-4.3
	c0.6-0.1,1.2-0.1,1.8-0.3c1-0.3,4-2,3.7-3.4c-0.2-1.2-3.1-0.9-4-1.1c-1.6-0.4-3.2-0.9-4.7-1.6c-3-1.3-5.8-2.9-8.9-4
	c0.6,0.2,2.6-2.3,1.6-2.7c-0.2-0.1-0.5-0.1-0.8-0.1c-0.1,0-0.1,0-0.2,0c-0.8,0.5-1.6,1-2.5,1.4c-1.9,0.7-4.1,0.7-6.1,0.9
	c1.2,2,2.5,3.4,4.4,4.8c0.8,0.6,1.6,1.1,2.4,1.6c-1,0-2.1,0.1-3.1,0c-2-0.1-3.8-1.5-5.9-1.7c0.9,1.9,2.1,3.2,3.9,4.4
	c0.9,0.7,1.9,1.3,2.9,2c0.4,0.2,2.4,1.7,2.8,1.5c-1.9,0.7-3.9,1.1-5.9,1.6c0.8,1.2,1.9,2.2,3.1,2.9c0.5,0.3,3.1,1.9,3.6,1.6
	c-1.1,0.5-2.2,1-3.3,1.4c-1.5,0.5-3.2,0.6-4.8,0.9c0.1,0,1.9,2,2.1,2.2c0.8,0.7,1.6,1.4,2.5,2c0.7,0.5,1.4,0.9,2,1.2
	c5.3,0.2,10.6,1.1,15.9,1.6c2.7,0.2,5.4,0.4,8.1,0.3C506.8,430.3,508.8,430.6,509.5,430.1z"/>
<circle fill="#8BC53F" cx="394.5" cy="306.4" r="4.1"/>
<circle fill="#8BC53F" cx="374" cy="314.9" r="4.1"/>
<circle fill="#8BC53F" cx="356.1" cy="307.4" r="4.1"/>
<path fill="#8BC53F" d="M380.3,279.2c-0.1-0.7-0.6-1.3-1.7-2.3c-1.9-1.7-3.9-3.3-6-4.8c-1.4-1-4.4-3.5-6.2-1.7
	c-1.5,1.5,1.1,5.9,1.7,7.4c1,2.5,1.8,6,3.9,7.8c3,2.6,6.4-1.8,7.6-4.2C380.1,280.5,380.4,279.8,380.3,279.2z"/>
<path fill="#8BC53F" d="M391.5,272.2c-0.6-2.6-2.2-10.1-6.2-9c-3.2,0.9-3.1,6.3-3.7,8.8c-0.4,1.8-1.1,3.6-0.2,5.4
	c0.7,1.5,5.1,1,6.4,1.1c1.3,0.1,2.9,0.4,3.7-0.9C392.5,276,391.9,273.8,391.5,272.2z"/>
<path fill="#EB008B" d="M395.9,284.5c-0.1-1.2,0.1-2.5,0.7-3.5c1.4-2.2,4.6-2.9,6.5-4.6c6-5.1,5.4-10,8.4-9.6
	c4,0.5,1.8,12.3,1.2,14.3c-1,3.3-2.9,7.4-5.6,9.6c-2.7,2.1-6.6,1.1-8.8-1.2C397.1,288.4,396.1,286.5,395.9,284.5z"/>
<path fill="#E782B4" d="M211,83.6c-1.7-4.8-4.8-9.1-9.6-12.2c-7.5-4.8-20.1-4-27.6,0c-2.7,1.4-4.6,4.3-7.4,5.5
	c-3.4,1.4-3.6-3.5-6.3-3c-1.3,0.2-1.3,3-2.4,2.6c-0.6-0.2-0.6-1.6-0.7-2.1c-0.3-1.8-0.6-4.3-3.1-3.3c-2,0.8-0.4,2.9-3.3,3.2
	c-2.5,0.2-4.8-2-6.9-3.2c-3.6-1.9-7.4-3.4-11.5-3.2c-3.8,0.2-7.5,1.1-11,2.7c-6.2,2.8-10.9,7.9-13.4,14.2c-2.9,7-3.2,14.8-2.5,22.3
	c0.3,3.8,1,7.6,1.8,11.4c1,4.6,1.4,9.6,0.9,14.4c-0.1,0.7-0.2,1.3,0,2c0.5,3,2.9,0.5,4.2,1.8c2.3,2.2-1.3,7.1-1.1,9.8
	c0.1,0.8,0.6,1.6,1.4,1.7c0.7,0.1,1.3-0.4,1.8-0.8c0.5-0.5,1-1,1.7-1.2c1.8-0.4,3.1,3.3,3.8,4.4c1.3,2.3,2.7,4.5,4.1,6.7
	c3.9,5.9,8.2,11.6,12.8,16.9c1.8,2.1,3.7,4.3,5.4,6.5c1.4,1.8,4.1,8.9,7.1,7.4c1.4-0.7,1-1.9,2.6-0.6c1,0.8,1.6,2.3,2,3.5
	c0.2,0.7,0.3,1.4,0.5,2c0.3,0.6,0.8,1.2,1.5,1.3c0.8,0.1,1.6-0.5,2-1.3c0.4-0.7,0.6-1.6,0.9-2.4c1-2.4,1.7,0.2,3.3-0.8
	c0.8-0.5,1.5-2.4,2.4-2.5c0.9-0.1,1,1.3,1.9,1.6c1.9,0.6,2.8-1.9,3.5-3.1c1-1.6,2-3.1,3.5-4.3c5.6-4.5,9.8-10.1,13.9-15.9
	c1-1.4,1.7-3.8,3.2-4.7c1.2-0.7,1.6-0.1,2.2,0.9c0.2,0.4,0,1.2,0.5,1.4c0.8,0.4,1.2-0.5,1.5-1c1-1.7,1.2-4.4,2-6.3
	c1.1-2.6,1.5-5.4,2.3-8.2c0.1-0.5,0.5-1.6,0.9-1.8c0.7-0.3,1.2,0.6,1.9,0.1c0.4-0.3,0.7-0.8,0.9-1.2c1.4-3.7,0.8-7.8,2-11.6
	c1.9-6.1,4.4-11.9,6-18.2C212.9,105.2,214.5,93.2,211,83.6z"/>
<path fill="#7F3F97" d="M145.4,68.9c1,1.9,1.2,3.1,1.1,3.9c1.3,0.9,2.7,1.6,4.2,1.4c2.9-0.3,1.3-2.4,3.3-3.2c2.5-1,2.8,1.5,3.1,3.3
	c0.1,0.5,0.1,1.9,0.7,2.1c1.1,0.4,1.2-2.3,2.4-2.6c2.7-0.5,2.9,4.4,6.3,3c1.9-0.8,3.4-2.4,5-3.7c0-0.6,0-1.2,0.1-1.7
	c0.6-2.9,2.8-5.1,3.7-7.8c0.5-1.5,0.2-3.1-0.2-4.6c-0.1-0.4-0.5-2.4-1.1-3.2c-0.2-0.3-0.4-0.4-0.6-0.3c-0.3,0.2-0.2,0.4-0.2,0.6
	c-0.1,0.7-0.1,1.4-0.3,2.1c-0.4,1.4-1.2,2.6-2.1,3.8c-1.7,2.3-3.9,4.4-4.8,7.2c-0.1,0.3-0.2,0.7-0.3,1.2c-0.4-0.6-0.7-1.3-0.8-2.2
	c-1-5.5,2.4-11.2,5.7-15.2c0.1-0.1,0.2-0.2,0.3-0.4c3.1-3.7,5.6-8.7,6.1-13.6c0.5-5.2-0.5-10-3.8-14.2c-0.9-1.2-2-2.4-3-3.5
	c-3.6-4-8.1-8.2-9.4-13.7c-0.3-1.3-0.4-2.6-0.3-4c0.1-0.8,1.2-3.4,0.2-3.8c-1-0.4-2.8,2-3.3,2.6c-0.9,1.2-1.5,2.5-1.9,3.9
	c-0.7,2.6-0.5,5.4,0.1,8c1.1,4.8,3.4,9.3,5.4,13.8c1.7,3.9,3.5,8.4,2.8,12.8c-0.7,4.5-4.6,7.5-7,11c-2.2,3.2-3.1,6.6-3.9,10.4
	c-0.4,1.7-0.6,3.5-0.7,5.4c-3-5.6-9.1-10-8.3-16.9c0-0.3,0.1-0.7,0-1c-0.1-0.3-0.4-0.6-0.8-0.5c-0.3,0.1-0.5,0.4-0.6,0.8
	c-1.4,4.3-0.7,9.2,0.5,13.5C143.4,65.5,144.5,67.2,145.4,68.9z"/>
<path fill="#7F3F97" d="M87.4,202.2c-1.1,3.6-0.6,9.8,3.4,11.8c1.2-2.4-0.1-5.8,1.4-8.5c1.8-3.3,5.4-3.5,8.7-4.5
	c0.3-0.1,0.6-0.2,0.8-0.3c-1.3,2.8-1.9,5.8-1.3,8.5c0.6,2.5,1.8,5,3.6,6.9c0.9,1,2.1,1.9,3.4,2.5c0.7,0.3,1.6,0.4,2.3,0.3
	c-0.2-1.6-1.5-3.4-2-5.1c-1.3-4.1,0.5-6.1,2.7-9.1c0.8-1.1,1.5-2.2,2-3.5c0.4,0.5,0.9,1,1.3,1.5c1.4,1.4,2.9,2.6,4.3,3.9
	c0.6,0.6,2.9,4.5,3.2,4.6c2.9,0.4,1.1-9.2,0.6-10.3c-1.4-3.4-3-5.7-3-9.5c0-3.3,1.8-6.9,2.8-10.1c2.2-6.6-0.1-13.2-1.8-19.6
	c-0.7-2.6-1.2-5.2-1.6-7.8c-0.2-1.8,0.1-3.7,0.3-5.5c-0.7-1.4-1.7-2.9-2.9-2.6c-0.7,0.2-1.2,0.7-1.7,1.2c-0.5,0.5-1.1,0.9-1.8,0.8
	c-0.8-0.1-1.3-0.9-1.4-1.7c-0.3-2.6,3.4-7.5,1.1-9.8c-1.3-1.2-3.7,1.2-4.2-1.8c-0.1-0.6,0-1.3,0-2c0.4-3.8,0.2-7.7-0.4-11.5
	c-0.4,0.5-0.7,0.9-1,1.4c-2.7,4.4-4.2,10.8-4.2,15.9c-0.1,7.8,2.1,15.4,4.7,22.7c1.7,4.7,3.8,9.3,4.2,14.4
	c0.6,6.7-5.7,10.9-11.7,12.8c-3,0.9-6.1,1.1-9.1,2.1c-1.4,0.5-2.7,1.1-3.7,2.1c-0.5,0.5-1.1,1.1-1.5,1.7c-0.3,0.5-1.1,2.1-0.2,2.3
	c0.3,0.1,1.4-0.8,1.8-0.9c1.3-0.6,2.3-0.8,3.7-0.5c1.4,0.2,2.7,0.6,4.1,0.7C91.9,197.7,88.5,198.9,87.4,202.2z"/>
<path fill="#7F3F97" d="M218,195.9c-1.2-2.9-3.8-4.8-6.4-6.4c-3.7-2.2-7.9-4-10.5-7.5c-5.5-7.2-1.6-14.9,1.4-22.1
	c2.5-6,4-12.1,4.7-18.5c0.2-1.8,1.4-11.1-0.8-13.9c-0.6,1.8-1.3,3.6-1.8,5.4c-1.2,3.8-0.6,7.9-2,11.6c-0.2,0.5-0.4,1-0.9,1.2
	c-0.8,0.5-1.3-0.4-1.9-0.1c-0.5,0.2-0.8,1.4-0.9,1.8c-0.8,2.8-1.2,5.6-2.3,8.2c-0.8,1.9-1,4.5-2,6.3c-0.3,0.5-0.7,1.4-1.5,1
	c-0.4-0.2-0.2-1-0.5-1.4c-0.6-1-1-1.6-2.2-0.9c-0.4,0.2-0.7,0.5-1,0.9c-0.4,2-0.7,4-0.9,6.1c-0.6,5.3,1.1,10.8,1.1,16.1
	c0,5.3-4.1,7.9-5.3,12.6c-0.5,2.1-0.6,4.4-0.4,6.5c0.1,1.1,0.3,2.2,0.6,3.3c0.2,0.7,1,4.5,1.9,2.2c0.4-1,0.5-2,1-2.9
	c0.5-0.9,1.2-1.8,2-2.5c1.4-1.2,2.9-2.1,4.3-3.4c0.6-0.5,1.2-1.2,1.7-2c0.3,2.4,0,4.8-0.6,7.6c-0.4,1.8-0.5,4-0.2,5.9
	c0.4,2.6,1.1,5.3,2.4,7.6c0.6,1.2,1.5,2.3,2.4,3.4c0.5,0.6,2.7,3.2,2.9,1.3c0.1-1.3-0.2-2.7-0.1-4.1c0.1-1.3,0.3-2.6,0.5-3.9
	c0.5-2.6,1.1-5.2,1.5-7.8c0.2-1.5,0.3-2.9,0.2-4.4c0-0.1,0-0.3,0-0.5c0,0.4,1.5,1.3,1.8,1.5c0.7,0.5,1.4,1,2,1.5
	c1.3,1,2.7,2,3.9,3.1c1.1,1.1,2.1,2.2,2.7,3.7c0.4,0.8,0.5,1.7,0.6,2.6c0.1,0.5-0.1,2.3,0.5,2.2c1-0.1,1.9-2.7,2.2-3.5
	c0.8-2.7,0.2-5.6-0.7-8.2c-1-2.5-3-4.1-5-5.7c-2-1.6-3.6-2.9-4.9-4.6c1,0.1,2,0.1,3,0.2c1.9,0.3,3.7,1.3,5,2.7
	c0.7,0.7,1.3,1.5,1.8,2.4c0.3,0.6,0.4,1.5,0.9,1.9c0.8,0.8,0.8-0.7,0.8-1.3C218.8,199.4,218.7,197.6,218,195.9z"/>
<path fill="#7F3F97" d="M203.5,229.7c-10.2-3-20.3-2.5-26.5-11.5c-5.5-8-4-17.4-1.5-26.1c1.3-4.5,2.9-8.9,3.9-13.5
	c0.2-0.9,0.9-3.1,1.1-4.8c-2.3,2.7-4.7,5.2-7.5,7.4c-1.5,1.2-2.5,2.7-3.5,4.3c-0.7,1.3-1.6,3.7-3.5,3.1c-0.9-0.3-1-1.6-1.9-1.6
	c-0.9,0.1-1.6,2-2.4,2.5c-1.6,1-2.3-1.6-3.3,0.8c-0.3,0.8-0.5,1.6-0.9,2.4c-0.4,0.7-1.2,1.4-2,1.3c-0.7-0.1-1.2-0.7-1.5-1.3
	c-0.3-0.6-0.4-1.3-0.5-2c-0.3-1.2-1-2.7-2-3.5c-1.6-1.3-1.2-0.2-2.6,0.6c-2.9,1.5-5.7-5.6-7.1-7.4c-1.7-2.2-3.5-4.4-5.4-6.5
	c-0.8-0.9-1.5-1.8-2.3-2.7c-0.1,2.3,1.6,5.7,2.1,7.3c3.4,11.8,9,24.3,5,36.6c-2,6-5.3,12.2-12.3,13.2c-6.2,0.9-12.1-2.8-18.3-3.7
	c-6.5-0.9-13.2,1.7-17.7,6.3c-1.6,1.6-4.9,5.2-4.2,7.8c0.9,3,6.4-0.6,8.1-1.3c4.1-1.8,8.8-2,13.2-1.3c4.8,0.7,9.2,2.5,13.6,4.3
	c3.6,1.4,8.3,0.3,11.8-1.2c7.8-3.4,13.4-10.7,14.6-18.3c0.5,2.7,0.6,5.5,0,8.5c-1.4,7.6-6.9,13.4-14.1,17.5c-4.5,2.6-9.4,5-12.9,8.9
	c-1.6,1.7-2.8,3.8-3,6.2c-0.1,1.5-0.4,5.4,0.9,6.5c1.8,1.6,3.2-2.4,4.3-3.5c2.1-2.1,4.8-3.4,7.6-4.3c3.9-1.3,8.1-1.9,12-3.3
	c7-2.5,13-7.6,16.7-14c3.3-5.7,3.6-12.3,4.3-18.8c-0.1,1,3,3.7,3.7,4.4c1.6,1.5,3.3,2.8,5.2,3.8c3.8,2.1,7.9,2.9,12.1,3.2
	c3.8,0.3,7.9-0.5,11.8-0.3c2,0.1,3.9,0.4,5.7,1.3c2.1,1,3.1,2.9,4.9,4.1c0.7,0.5,1.6,0.7,2.3,0.2c0.4-0.2,0.6-0.6,0.6-1.2
	c0.1-1.8-1.5-4.9-2.1-5.9C208.7,232,206.2,230.5,203.5,229.7z"/>
<circle fill="#FFDD15" cx="155.2" cy="118.4" r="15.5"/>
<circle fill="#FFDD15" cx="131.4" cy="94.3" r="10.1"/>
<circle fill="#FFDD15" cx="181.6" cy="92.5" r="9.5"/>
<circle fill="#FFDD15" cx="184.6" cy="120.5" r="6.5"/>
<path fill="#7F3F97" d="M183.8,136.9c-0.3-0.5-1-0.1-0.8,0.4c2.1,4.7,0.2,10-4.3,12.6c-4.8,2.7-11.2-0.5-14.4-4.2
	c-1.9-2.1-4.4-4-7.3-2.1c-1.1,0.8-2,1.9-2.9,2.9c-2.2,2.3-5.2,3.7-8.3,4c-7,0.7-14.6-4.2-12.7-12c0.1-0.4-0.5-0.7-0.7-0.3
	c-3.7,7.6,4.1,13.7,10.5,15.9c6.4,2.2,13.4-1.3,16.8-6.8C164.6,161.4,192.6,152.4,183.8,136.9z"/>
<path fill="#FFFFFF" d="M159.7,147.3c-3.5,5.5-10.4,9-16.8,6.8c-0.8-0.3-1.7-0.6-2.5-1c-0.1,1.3,0.1,2.8,0.3,4.1
	c0.4,2.7,1.6,5.4,4.6,5.8c2.1,0.3,3.8-0.6,5.1-2.3c0.4-0.5,0.7-1.2,0.8-2c1.2,4.4,4.3,8,9.6,7.9c4.1-0.1,6.1-3.6,6.9-7.3
	c0,0.2,0.1,0.3,0.2,0.5c0.7,2,2.1,2.8,4.1,2.9c2.2,0.1,3.2-0.7,3.9-2.8c0.4-1.3,0.6-2.6,0.6-3.9c0-0.5,0-1.7-0.1-2.6
	C169.8,155.5,162.1,154.1,159.7,147.3z"/>
<path fill="#7F3F97" d="M129.9,119.8c0.1-0.4-0.4-0.6-0.6-0.3c-0.8,1.7-0.8,3.5-0.6,5.4c0.2,1.5,1.5,3.9-0.5,4.4
	c-1.6,0.4-3-1.3-3.5-2.6c-0.5-1.5-0.3-3.1-0.4-4.7c-0.3-3.1-1.5-6.3-5.3-5.1c-0.4,0.1-0.4,0.8,0.1,0.8c5-0.7,3.1,7.1,3.6,10
	c0.4,2.4,1.3,4.2,3.7,5.1c1.5,0.6,3.6-0.5,4-2.1C131.3,126.9,128.8,123.6,129.9,119.8z"/>
<path fill="#7F3F97" d="M160.1,84.4c0.2-0.5-0.5-1-0.8-0.5c-1.5,2.7,1.1,7.1-1,9.2c-2.6,2.5-4.3-0.9-4.1-3.2
	c0.2-1.8,0.3-3.3-0.6-4.9c-0.8-1.4-2.7-1.9-4.1-1.5c-0.3,0.1-0.2,0.5,0.1,0.6c5.5,0.4,2.2,6.4,2.7,9.7c0.3,1.8,2.3,3.7,4.2,3.5
	C163.5,96.8,158.4,88.1,160.1,84.4z"/>
<path fill="#7F3F97" d="M201.9,107.7c-0.3-1.1-1.2-2.7-1.1-3.8c0-0.2-0.4-0.3-0.4-0.1c-0.1,0.6-0.2,1.2-0.3,1.8
	c-0.1,1.2,0.7,3.5-1.7,2.7c-2-0.7-1-2.8-0.8-4.1c0.3-2-1.9-5.2-4-3.3c-0.1,0.1,0,0.3,0.1,0.3c0.5,0.1,1.3,0.2,1.7,0.4
	c1.4,0.7,0.7,2.5,0.4,3.5c-0.3,1-0.6,2-0.7,3c-0.1,1.8,1.4,3,3,3.3c1.4,0.3,3.1,0,3.6-1.5C201.9,109.2,202.1,108.4,201.9,107.7z"/>
<path fill="#7F3F97" d="M194.5,136.3c-0.2-1.3-0.5-2.6-0.7-3.9c-0.2-1.7,0.1-3.3,0.3-5c0-0.3-0.3-0.6-0.5-0.3
	c-1.2,1.4-1.4,3.3-1.5,5.1c0,1.2,0.7,3.1-0.1,4.2c-2.1,2.9-2.5-1.8-2.7-2.9c0-0.2-0.4-0.2-0.4-0.1c-1.3,2.9-0.2,7.7,3.9,6.5
	C194.4,139.6,194.7,137.6,194.5,136.3z"/>
<path fill="#231F20" d="M154.5,128.9c-1.2-6.9-0.6-14.5,0.3-21.4c0.1-0.7-0.9-0.9-1.2-0.3c-2.8,6.1-4.2,16.1-0.9,22.2
	C153.3,130.4,154.7,130,154.5,128.9z"/>
<path fill="#231F20" d="M180.8,86.5c-0.2-0.2-0.6,0-0.5,0.3c1,2.6,0.9,5.6,0.3,8.3c-0.1,0.6-1.2,3.3,0.6,2.8
	c1.9-0.5,2.5-3.9,2.6-5.5C183.9,90,182.7,88,180.8,86.5z"/>
<path fill="#231F20" d="M185.4,116.5c-0.2-0.3-0.6-0.3-0.8-0.1c-2.5,2.2-0.8,6.4-0.1,9c0.2,0.6,1.2,0.5,1.1-0.2
	C185.4,122.5,186.9,118.9,185.4,116.5z"/>
<path fill="#231F20" d="M131.9,94.5c0-2.2,0.8-4.2,1-6.3c0.1-1.1-1.4-1.3-1.9-0.5c-2.5,4-1.5,9.3,0.2,13.3c0.2,0.5,0.9,0.3,0.8-0.2
	C131.6,98.8,131.8,96.5,131.9,94.5z"/>
<path fill="#E782B4" d="M157.2,218.4c-0.2-0.6-1.3-0.8-1.4,0c-0.7,4.5-0.7,9-1.8,13.4c-1.5,5.8-5.1,11.1-9.4,15.2
	c-5.6,5.3-15.1,5.1-18.1,13c-0.2,0.4,0.5,0.7,0.7,0.3c3-5.3,9.6-5.9,14.6-8.3c3.8-1.8,6.9-5.1,9.4-8.3
	C156.3,237.3,159.9,226.5,157.2,218.4z"/>
<path fill="#E782B4" d="M194.2,230.8c-5.5-2.9-11.8-3-17.2-6.3c-6.5-3.9-7.7-10.5-10.1-17c-0.2-0.5-0.9-0.5-1,0
	c-1.6,6.3,2.6,12.9,7,17c5.1,4.9,14.3,7.4,21.2,6.8C194.3,231.3,194.4,230.9,194.2,230.8z"/>
<path fill="#E782B4" d="M148.9,207.3c-0.1-1.2-1.9-1.6-2.2-0.3c-1.4,7.4-2.8,13.5-8.1,19.2c-5.8,6.3-12.3,3.8-19.5,4.8
	c-0.1,0-0.1,0.2,0,0.2c7.5,1.6,13.5,2.4,19.7-2.6C144.9,223.9,149.4,215,148.9,207.3z"/>
<path fill="#E782B4" d="M171.2,29.2c-2.3-5.1-7.3-8.1-10.7-12.4c-0.2-0.2-0.6,0-0.5,0.3c1,3.1,3.4,5.6,5.5,8.1
	c2,2.3,3.4,4.6,3.7,7.8c0.3,3.1-1.5,6-1.9,9c-0.1,0.8,0.8,1.6,1.5,0.9C171.8,39.5,173.1,33.5,171.2,29.2z"/>
<path fill="#E782B4" d="M193.8,180.8c-0.9-2.7-0.9-5.4-0.7-8.2c0-0.4-0.6-0.5-0.7-0.1c-0.8,3-0.7,5.7,0,8.7
	c0.9,4.2,0.3,7.1-0.8,11.1c-0.1,0.2,0.2,0.5,0.4,0.3c2.2-1.6,2.9-4,3-6.6C195.1,184.2,194.4,182.4,193.8,180.8z"/>
<path fill="#E782B4" d="M116.3,186.3c0.8-2.4,2.4-4.6,1-7.1c-0.1-0.3-0.6-0.2-0.7,0.1c-0.7,3.5-2.6,6.6-3.1,10.2
	c-0.4,3.4,1.2,6.4,3,9.1c0.2,0.3,0.7,0,0.5-0.3C114.9,194.6,115.1,190.2,116.3,186.3z"/>
<path fill="#8E3794" d="M372.4,141.7c-1.5-15.9,1.5-34.7-8.3-48.5c-1.3-1.8-2.7-3.5-4.2-5c0.1,0,0.1-0.1,0.2-0.1
	c1.7-1.1,3.3-2,5.4-1.9c3,0.1,5,0.1,7.8-1.1c1.4-0.6,2.2-2,3.5-2.6c2.3-1.2,4.5,0.9,6.7,0.3c3.6-0.9,4.4-5.4,3.7-8.7
	c-0.5-2.3-2.3-5.9-4.8-6.3c-2.5-0.4-5.6,2-6.7,4c-2.3,4.2-3.5,11.3-10.7,10c-2.1-0.4-3.8-0.7-5.9-0.3c-1.2,0.2-2.6,1.4-3.6,2.8
	c-6-4.4-13.3-6.6-21.1-6c-0.2,0,0.2-2.5,0.3-2.7c0.3-0.9,0.8-1.7,1.2-2.6c1-2.3,1.5-4.7,0.6-7.1c-0.8-2.3-1.3-4.4-0.3-6.8
	c0.7-1.7,1.8-3,1.8-5c0-7.2-10.3-3.1-13.1-0.4c-1.2,1.2-2.7,2.7-2.6,4.6c0,1.4,0.9,2.5,2.1,3.1c1.2,0.5,2.5,0.2,3.7,0.7
	c2.1,1,2.8,3.3,3,5.4c0.1,1.3,0,2.5-0.2,3.8c-0.5,2.5-3.3,5.5-3.1,8.3c-8.3,2.3-16.8,7.3-21.9,14.1c-0.8-0.7-1.5-1.5-2.3-2.2
	c-3-2.7-3.6-6.1-1.7-10.3c0.7-1,1.3-1.8,1.6-3c1.1-4-5-4.3-6.8-5.9c-2.1-1.9-4.6-4.4-6.5-0.6c-1.1,2.2-0.3,4.4,0.8,6.4
	c1.6,2.8,2.8,5,3.3,8.3c0.2,1.8,1,3,2.1,4.4c2.6,3.3,5.7,2.7,6.8,7.2c-2.6,4.8-4.3,10-5.7,15.2c-4.1,14.8-4.9,31.4-7.3,46.7
	c-1.7,11.1-1.6,22.3-10,30.8c-2.4,2.4-8.8,7.6-5,11.2c0.8,0.8,2,1.2,3.1,1.4c1.1,0.2,2.3,0.3,3.4,0.6c2.7,0.8,3.1,2.7,2,5.1
	c-1.1,2.3-2.7,4.3-4,6.4c-1.1,1.7-2.5,3.9-2.3,6c0,0.2,0,0.3,0.1,0.5c1.1,3.9,5.3,2.7,8.2,1.4c3.1-1.3,16-15.5,18.4-8.3
	c2.8,8.4-0.8,18.3,0.5,27c0.6,3.9,5.1,7,8.7,4.4c3.2-2.3,5.1-5.9,6.6-9.4c1.3-3,5.2-17.3,10.7-13.5c2.9,2,3.6,5.4,5,8.3
	c1.6,3.5,3.4,7,5.5,10.3c1.7,2.7,5.9,4.7,8.5,1.8c0.6-0.7,1-1.6,1.3-2.5c1.3-4,1.3-8,1.7-12.1c0.5-4.2,0.2-15.3,8-10.4
	c4.3,2.7,8.3,5.8,12.8,8.1c2.2,1.1,5.9,1.3,8.1-0.1c2.5-1.5,1.9-5.2,1.3-7.6c-0.9-3.5-2.3-7-3.4-10.4c-0.5-1.4-1-2.5,0.1-3.7
	c1.1-1.1,2.4-0.6,3.7-1.3c1.4-0.7,2.9-1.9,3-3.6c0.2-2-0.3-4.1-1.2-6.2C378,177.5,374.1,159.7,372.4,141.7z"/>
<path fill="#FFFFFF" d="M360.5,138.3c1.6-3.6,2.2-7.7,2.2-11.5c0-4.1-0.8-8.4-3-11.8c-2.3-3.5-5.9-5.3-10.1-5.2
	c-4.9,0.1-9.2,4.9-10.6,9.3c-1.2,3.4-1.9,7.1-1.8,10.7c0,1.8,0.3,3.6,0.7,5.3c0.2,0.9,0.5,1.8,0.8,2.6c0.2,0.4,0.5,2,1,2
	c0,0,0.1,0,0.1,0c0.4-0.1,0.9-0.5,1.2-0.7c0.5-0.3,1-0.5,1.5-0.8c1-0.5,2-0.9,3.1-1.2c2.2-0.6,4.4-0.8,6.6-0.4
	c2.7,0.4,5.3,1.7,7.4,3.3c0.2-0.3,0.3-0.7,0.5-1C360.3,138.7,360.4,138.5,360.5,138.3z"/>
<path fill="#1A0D37" d="M349.8,121.4c-1,0-2,0.2-2.9,0.5l2.1,6.9l-7.2-1.7c-0.3,0.8-0.4,1.7-0.4,2.7c0,3.1,1.6,5.7,4.1,7.2
	c0,0,0.1,0,0.1,0c2.2-0.6,4.4-0.8,6.6-0.4c0.6,0.1,1.3,0.3,1.9,0.5c2.5-1.5,4.1-4.1,4.1-7.2C358.2,125.2,354.5,121.4,349.8,121.4z"
	/>
<path fill="#FFFFFF" d="M325.8,138.3c1.6-3.6,2.2-7.7,2.2-11.5c0-4.1-0.8-8.4-3-11.8c-2.3-3.5-5.9-5.3-10.1-5.2
	c-4.9,0.1-9.2,4.9-10.6,9.3c-1.2,3.4-1.9,7.1-1.8,10.7c0,1.8,0.3,3.6,0.7,5.3c0.2,0.9,0.5,1.8,0.8,2.6c0.2,0.4,0.5,2,1,2
	c0,0,0.1,0,0.1,0c0.4-0.1,0.9-0.5,1.2-0.7c0.5-0.3,1-0.5,1.5-0.8c1-0.5,2-0.9,3.1-1.2c2.2-0.6,4.4-0.8,6.6-0.4
	c2.7,0.4,5.3,1.7,7.4,3.3c0.2-0.3,0.3-0.7,0.5-1C325.6,138.7,325.7,138.5,325.8,138.3z"/>
<path fill="#1A0D37" d="M315.1,121.4c-1,0-2,0.2-2.9,0.5l2.1,6.9l-7.2-1.7c-0.3,0.8-0.4,1.7-0.4,2.7c0,3.1,1.6,5.7,4.1,7.2
	c0,0,0.1,0,0.1,0c2.2-0.6,4.4-0.8,6.6-0.4c0.6,0.1,1.3,0.3,1.9,0.5c2.5-1.5,4.1-4.1,4.1-7.2C323.6,125.2,319.8,121.4,315.1,121.4z"
	/>
<path fill="#1A0D37" d="M356.2,157.2c-0.3,0-0.7,0.1-1,0.2c-2.4,0.4-5,1-7.3-0.2c-0.3-0.2-0.6-0.4-0.9-0.6c-1.6-1.2-2.2-3.3-2.4-5.2
	c-0.1-1-0.1-2.1,0-3.1c0-0.5,0.1-0.9,0.2-1.4c0.1-0.3,0.3-1.1-0.1-1.1c-0.7-0.1-1.5,1.5-1.8,2c-0.9,1.7-1,3.8-0.5,5.7
	c-7.4,3-15.1,1.6-22.6,0c1.5-3.9,0.7-9.3-4.1-9.3c-0.5,0-0.5,0.5-0.2,0.8c1.1,0.8,2.1,2,2.5,3.3c0.9,2.9-0.8,5.9-3.3,7.3
	c-1.3,0.7-2.8,1.1-4.2,0.9c-0.8-0.1-1.5-0.4-2.2-0.7c-0.4-0.2-0.7-0.5-1.1-0.7c-0.2-0.2-0.8-1-1-0.5c-0.1,0.3,0.4,1.1,0.6,1.3
	c0.2,0.4,0.5,0.8,0.9,1.1c0.6,0.6,1.4,1.1,2.3,1.4c0.9,0.3,1.8,0.4,2.7,0.3c0.2,0,2.7-0.4,2.6-0.6c1,4.3,4,8.3,7.3,11.1
	c2.6,2.2,5.8,3.8,9.2,4c8.1,0.5,15.4-5.5,18.3-12.8c0,0,1.9,0,2.1,0c0.7-0.1,1.3-0.2,2-0.5c0.7-0.3,1.5-0.7,2-1.3
	c0.2-0.2,0.5-0.6,0.4-1C356.4,157.3,356.3,157.2,356.2,157.2z"/>
<path fill="#FFFFFF" d="M340.6,156.9c-2.3,0.9-4.8,1-7.2,1c0,1.5,0.3,3.1,1.2,4.4c1,1.5,3.2,2.3,4.8,1.3c1.6-1,1.7-3.2,1.7-5
	C341.1,158,341,157.3,340.6,156.9z"/>
<path fill="#1A0D37" d="M343.4,172.4c-3.4,2.3-6.7,4-10.9,4.3c-2.9,0.2-5.5-1.1-7.9-2.6c-0.6-0.4-2.8-2.2-3.5-1.7
	c-0.9,0.7,1,2.1,1.4,2.5c6.2,5.9,16.1,4.6,21.7-1.5C344.8,172.9,344.1,171.9,343.4,172.4z"/>
<circle fill="#FFDD15" cx="317.8" cy="202.5" r="6.7"/>
<circle fill="#FFDD15" cx="340.4" cy="202.5" r="6.7"/>
<circle fill="#FFDD15" cx="342.8" cy="218.1" r="4"/>
<circle fill="#FFDD15" cx="314.8" cy="218.9" r="4"/>
<circle fill="#FFDD15" cx="311.7" cy="233" r="3"/>
<circle fill="#FFDD15" cx="344.4" cy="232.2" r="3"/>
<circle fill="#FFDD15" cx="374.3" cy="217.3" r="2.6"/>
<circle fill="#FFDD15" cx="286.5" cy="214.4" r="2.6"/>
<circle fill="#FFDD15" cx="306.1" cy="181.1" r="2.6"/>
<circle fill="#FFDD15" cx="292.6" cy="169.8" r="2.6"/>
<circle fill="#FFDD15" cx="319" cy="187.4" r="2.6"/>
<circle fill="#FFDD15" cx="338" cy="187.2" r="2.6"/>
<circle fill="#FFDD15" cx="353.9" cy="178.5" r="2.6"/>
<circle fill="#FFDD15" cx="370.7" cy="166.6" r="2.6"/>
<circle fill="#FFDD15" cx="292.8" cy="206" r="3.4"/>
<circle fill="#FFDD15" cx="366.2" cy="207" r="3.4"/>
<circle fill="#FFDD15" cx="359.6" cy="192.8" r="6.7"/>
<circle fill="#FFDD15" cx="300.4" cy="194.2" r="6.1"/>
<path fill="#FFDD15" d="M380.8,183.3c-0.8-2.6-1.6-5.2-2.3-7.9c-0.9-0.6-2-0.9-3.2-0.9c-3.4,0-6.1,2.8-6.1,6.1
	c0,3.4,2.8,6.1,6.1,6.1C377.7,186.8,379.8,185.4,380.8,183.3z"/>
<path fill="#FFDD15" d="M381.8,195.9c1.3,0,2.3-0.7,2.9-1.7c-0.6-1.6-1.3-3.2-1.8-4.8c-0.3-0.1-0.7-0.2-1.1-0.2
	c-1.9,0-3.4,1.5-3.4,3.4C378.4,194.4,380,195.9,381.8,195.9z"/>
<path fill="#FFDD15" d="M293.8,183.1c0-3.2-2.6-5.7-5.7-5.7c-0.4,0-0.7,0-1,0.1c-0.8,3.1-2,6.1-3.7,8.9c1,1.5,2.8,2.5,4.8,2.5
	C291.3,188.8,293.8,186.2,293.8,183.1z"/>
<path fill="#FFDD15" d="M276.5,194c0.4,1.4,1.7,2.5,3.2,2.5c1.9,0,3.4-1.5,3.4-3.4c0-1.6-1.1-2.9-2.6-3.3c-0.2,0.3-0.4,0.5-0.7,0.8
	C279.1,191.5,277.7,192.7,276.5,194z"/>
<circle fill="#FFDD15" cx="332.9" cy="106.8" r="4.2"/>
<circle fill="#FFDD15" cx="345.9" cy="98.2" r="4.2"/>
<circle fill="#FFDD15" cx="335.4" cy="88.5" r="4.2"/>
<circle fill="#FFDD15" cx="321.4" cy="96.3" r="4.2"/>
<path fill="#1A0D37" d="M287.3,176.4C287.3,176.4,287.3,176.4,287.3,176.4c1.3-5.3,1.7-11,2.6-16.6c0.3-2.1,0.6-4.2,0.9-6.3
	c-0.3-0.3-0.6-0.6-0.8-0.9c-2.8-3.4-5.5-6.8-6.4-11.2c-1.2-5.7,0.1-12.4-2.7-17.8c-2.4-4.5-6.3-7.4-9.8-11c-2.3-2.4-1.9-7.4-5.2-8.8
	c-5.1-2.3-4.8,8.7-4.3,11.4c1,5.8,6.8,10,8.5,15.7c1.8,6.1,0.8,12.9,1.1,19.1c0.3,5.6,2.4,10.8,4.8,15.8
	C277.7,170,282.4,176.1,287.3,176.4z"/>
<path fill="#1A0D37" d="M404.4,109.5c-0.5-2.5-2.5-3.5-4.7-2.5c-1.9,0.8-3.2,4.5-4.2,6.1c-2.2,3.9-4.7,7-8.1,9.8
	c-4.9,4.2-7.9,8.9-10.3,14.8c-1.2,3-2.8,6.3-4.1,9.6c1.1,9.5,2.9,18.9,5.4,28.1c1.7-0.7,3.2-2,4.3-3.3c3.7-4.2,5.7-9.9,6.8-15.3
	c0.5-2.8,0.8-5.6,0.8-8.5c0-5.2,0.6-9.4,3.3-13.9c1.9-3.2,5.1-5.6,7.2-8.6C404.4,120.8,405.7,115.5,404.4,109.5z"/>
<path fill="#1A0D37" d="M299.4,76.3c-0.2-0.2-0.5-0.4-0.7-0.5c-1.1-0.6-2.2-1.2-3.2-1.7c-0.5-0.3-1-0.5-1.4-0.8
	c-0.3-0.3-0.6-0.6-1.1-0.5c-0.4,0.1-0.7,0.5-0.8,0.9c-0.1,0.7,0.5,1.7,0.9,2.3c0.5,0.7,1.1,1.2,1.8,1.6c0.9,0.5,2,0.7,3,0.7
	C298.8,78.2,300.3,77.5,299.4,76.3C299.5,76.4,299.5,76.3,299.4,76.3z"/>
<path fill="#1A0D37" d="M334.4,53c-0.1,0-0.2-0.1-0.3-0.1c-1.4-0.4-3.3,0.2-4.6,0.7c-1.2,0.5-2.8,1.4-3.8,2.3
	c-0.5,0.5-0.9,1.3-0.4,2c0.5,0.7,1.6,0.5,2.4,0.5c1,0,2-0.2,2.9-0.5c1.1-0.4,2.1-0.9,2.9-1.7c0.6-0.5,1.9-1.8,1.4-2.7
	C334.8,53.3,334.6,53.1,334.4,53z"/>
<path fill="#1A0D37" d="M385.4,75.5c-0.1-1-0.3-2.1-0.6-2.9c-0.4-0.9-0.9-1.8-2-1.8c-1.2,0-2.1,1.3-2.5,2.3
	c-0.5,1.2-0.5,2.5-0.3,3.8c0.2,0.9,0.5,1.8,1.1,2.4c1,1.2,2.7,1.6,3.5,0.1c0.5-0.9,0.8-1.9,0.9-2.9
	C385.4,76.2,385.4,75.9,385.4,75.5z"/>
<path fill="#AFD25E" d="M108.5,332.2c-2.4-5.3-5.3-10.5-9.1-14.9c2-4.3,3.8-8.6,6.1-12.8c1.6-2.8,3.5-5.4,5.4-8
	c1-1.3,1.9-2.5,2.8-3.9c0.1-0.1,0.2-0.2,0.2-0.3c-1.8-0.1-3.4-1-4.5-2.2c-0.6,1.2-1,2.4-1.6,3.6c-1.4,2.9-2.9,5.8-4.6,8.6
	c-2.4,3.9-5.4,7.1-8.4,10.5c-7.6-6.4-19.1-10.4-28.7-7.4c-5.9,1.9-11.1,5.3-15.7,9.6c-2.5-3.1-5.2-6.1-7.6-9.3
	c-2.3-3.1-4.6-6.8-5.5-10.5c-0.3-1.1-0.4-2.2-0.9-3.2c0,0,0,0,0,0c-1.2,0.8-2.5,1.3-4,1.4c-0.2,0-0.4,0-0.5,0c0.2,0.3,0.4,0.7,0.5,1
	c2.2,4.1,4.4,8.2,6.7,12.3c1.3,2.4,2.3,4.7,3.2,7.3c0.5,1.3,0.9,2.7,1.3,4.1c0.1,0.5,1.3,3.3,1,3.7c-7.8,10.2-12.8,23.1-14.9,34.3
	c-4.3,22.6-1.3,51.8,21.7,63.3c12.1,6.1,26.4,5.8,38.8,0.5c14.4-6.2,19.9-17.6,23.3-32.1c2.1-9.3,2.8-18.9,1.9-28.4
	C114.5,349.8,112.3,340.7,108.5,332.2z"/>
<path fill="#0C8040" d="M51.4,419.1c-2.8-1.4-5.3-3.1-7.5-5c-0.2,0.4-0.2,0.8-0.1,1.4c0.3,2.7,0.7,5.5,1.1,8.2
	c0.5,3.5,1.3,7,1.4,10.5c0.1,3.6,0.3,7.2,0.6,10.8c0.1,1.8,1.1,22,1.3,22c-2.3,0.5-4.6,1.2-6.9,1.7c-2.7,0.6-5.3,1.2-8,1.8
	c-3.5,0.8-7.4,1.4-10.4,3.4c-0.7,0.4-1.4,1-1.4,1.8c-0.1,0.8,0.7,1.6,1.5,1.8c0.8,0.3,1.7,0.1,2.5,0c8.6-1.2,17.1-2.5,25.6-3.6
	c1.4-0.2,3.4-0.6,4.2-1.9c0.9-1.5,0-3.5-0.6-5c-0.6-1.6-0.7-2.9-0.7-4.7c0-6.1-0.3-12.3,0.2-18.4c0.5-6.1,2.2-12.1,4.4-17.8
	c0.5-1.2,0.9-2.4,1.4-3.6c0-0.1,0.1-0.2,0.1-0.3C57,421.5,54.1,420.5,51.4,419.1z"/>
<path fill="#0C8040" d="M113.2,475.5c-3.7-1.7-7.6-2.9-11.5-4.4c-2.4-0.9-5-1.5-7.4-2.5c-1.3-0.6-2.7-1.2-3.8-2.1
	c-1.9-1.5-1.4-3.4-1.1-5.5c0.4-2.7,0.7-5.5,1.1-8.3c0.7-5.5,1.4-11,2.5-16.5c1-5.1,3.1-9.9,4.4-14.9c0.4-1.7,1.3-4.6,1-6.5
	c-2.3,1.8-5,3.4-8.1,4.7c-2.2,0.9-4.5,1.7-6.8,2.3c0,0,0,0.1,0,0.1c0.1,1.3,0.3,2.6,0.4,4c1.2,11.9,1,24.1-0.4,36
	c-0.2,1.8-1.9,6.9,0.2,8.2c4.4,3,10.7,4.3,15.7,5.8c2.1,0.6,4.2,1.4,6.4,2c2.5,0.7,5.3,1.6,8,1.4c0.7,0,1.6-0.2,2-0.9
	c0.3-0.7,0-1.4-0.6-1.9C114.4,476.1,113.6,475.7,113.2,475.5z"/>
<path fill="#0C8040" d="M23.3,387.8c-1.9-2-3.6-4.1-5.2-6.2c-0.8-1.1-1.6-2.2-2.4-3.3c-0.5-0.8-1.4-1.5-1.5-2.4
	c-0.2-0.9,0.3-1.1,1-1.4c1.4-0.7,2.9-1.2,4.4-1.8c2.5-0.9,5.4-1.4,7.8-2.6c0.3-0.1,0.5-0.2,0.7-0.4c0.2-4.8,0.7-9.5,1.6-14
	c0.6-3.4,1.5-6.9,2.7-10.4c-0.2,0.1-0.4,0.3-0.6,0.4c-2.2,1.3-4.4,2.7-6.6,4.2c-4.3,2.9-8.4,6-12.3,9.3c-3.1,2.6-6.6,5-9.4,8
	c-1.3,1.5-2.5,3.1-3.2,5c-0.7,2.1-0.2,4,1.1,5.8c1,1.5,2.5,2.7,3.8,3.9c2.7,2.4,5.6,4.7,8.6,6.7c2.6,1.7,17.7,9.1,11.6,14.4
	c0,0,0,0.1-0.1,0.1c-0.4-0.6-0.8-1.2-1.3-1.6c-1.4-0.9-3-0.4-4.6-0.1c-4,0.6-4.6,0.8-5.5,4.8c-0.4,2-0.7,4-1.1,6
	c-0.2,0.9-0.7,2.2-0.5,3.2c0.5,2.1,3.4,2.7,5.2,3c2.7,0.4,5.4-0.1,8.2,0.2c2,0.2,2.6-2.1,3.4-3.7c1-1.8,1.9-3.7,2.6-5.6
	c1.4-3.4,2.5-7.7,0.5-11.1C29.9,394.4,26.5,391.2,23.3,387.8z"/>
<path fill="#0C8040" d="M144.9,374.7c-0.4-2-1.4-3.8-2.5-5.4c-2.3-3.4-5.4-6.2-8.2-9.3c-3.5-3.8-7.1-7.5-10.9-11
	c-1.9-1.7-3.9-3.4-5.9-5.1c-1.5-1.2-3.2-3.5-5.2-3.7c-0.2,0-0.4,0-0.5,0c0,0-0.1,0-0.1,0c2,6.1,3.3,12.4,3.8,18.8
	c0.2,2.6,0.3,5.2,0.3,7.8c0.7,0.7,1.6,1.3,2.7,2.1c2.2,1.5,5,2.4,7.3,3.6c1.4,0.7,2.8,1.4,4.2,2.3c0.6,0.4,1.1,0.7,0.8,1.5
	c-0.3,0.9-1.2,1.5-1.8,2.2c-0.9,1-1.8,2-2.8,3c-1.9,2-3.9,3.8-6,5.6c-2.9,2.4-6,4.6-8.6,7.4c-1,3-2.1,5.9-3.5,8.5
	c0.1,1.6,0.4,3.2,0.7,4.7c0.5,2,1.2,4,1.9,5.9c0.6,1.7,0.8,4,2.8,4.1c2.7,0.1,5.4,0.9,8.1,0.9c1.8,0,4.7-0.3,5.6-2.3
	c1.2-2.9,0.6-9.3-1.3-11.8c-1.5-2-4.1-3.2-6.6-2.8c-0.8,0.1-1.6,0.4-2.4,0.4c-2,0-2.3-1.8-1.9-3.5c0.5-1.9,2.3-3.2,3.8-4.2
	c3.3-2.2,7-3.5,10.6-5.2c3.2-1.6,6.5-3.5,9.5-5.6c1.5-1,3.1-2.1,4.3-3.4C144.6,378.7,145.4,376.9,144.9,374.7z"/>
<path fill="#0C8040" d="M89.5,339.8c0.4-1.1,0.6-2.2,0.9-3c0.5-1.6,0.9-3.3,1.2-4.9c0.1-0.5,0.6-4,0.3-4.3c0,0,0,0,0,0
	c-0.1,0-0.3,0.2-0.4,0.3c-0.3,0.3-0.6,0.6-0.8,0.9c-0.5,0.7-1,1.4-1.4,2.1c-0.8,1.4-1.5,2.9-2.1,4.5c-0.4,0.9-1,1.9-1.5,3
	C87,338.7,88.3,339.2,89.5,339.8z"/>
<path fill="#0C8040" d="M76.2,336.5c0-1.7-0.2-3.4-0.3-5.1c-0.3-3.9-0.2-8-2.2-11.5c-0.5,0.8-0.5,1.8-0.6,2.8
	c-0.3,3.3-0.4,6.4-0.5,9.7c-0.1,1.4-0.1,2.8-0.1,4.1C73.6,336.5,74.9,336.5,76.2,336.5z"/>
<path fill="#0C8040" d="M58.7,339.6c1-0.4,2-0.8,3-1.2c-0.5-1.4-1.3-2.8-2-4.2c-1.3-2.6-2.5-5.2-4.5-7.4c-0.1-0.1-0.3-0.3-0.5-0.3
	c-0.9,0.2,2.8,10,3.1,11C58.2,338.3,58.4,338.9,58.7,339.6z"/>
<path fill="#0C8040" d="M105.9,379.4c-6.8,3.9-19.2,1.4-18.7-8.2c0.2-3.2,2.1-6.3,4.9-7.8c4-2.2,8.7-0.8,12.3,1.6
	c1.1,0.7,2-0.8,1.5-1.7c-2.1-4.3-7.8-5.1-12-4.2c-5.1,1.1-8.2,6.5-9.5,11.1c-1.3,4.4,1.2,8.3,4.7,10.6c-10.7,6.4-20.1,6.9-30.8-0.7
	c2.5-3.4,3.6-7.8,2.4-12c-3-10.2-18.1-11.9-22.6-2c-0.1,0.3,0.5,0.7,0.8,0.5c2.6-2.9,6.7-5.5,10.7-4.6c3.7,0.8,6.9,3.7,8,7.3
	c1.1,3.6,0.1,7.7-2.5,10.5c-3.3,3.6-8.2,3.1-12.6,2.6c-0.9-0.1-1.2,0.9-0.5,1.4c5.2,3.5,10.8,2,14.6-1.8c8.4,8.8,22.8,8.6,32.3,1.9
	c0.8-0.6,1.6-1.2,2.3-1.8c4.4,1.3,11.1,2.4,15.2-2.1C106.6,379.7,106.2,379.2,105.9,379.4z"/>
<path fill="#E36CA8" d="M85.4,385.9c-9.3,4.6-21.5,4-28.9-3.9c-0.4,0.4-0.8,0.7-1.2,1.1c0,0.1,0,0.2,0,0.2c0.1,3.5,0.1,7.1,0.6,10.6
	c0.1,1,0.1,1.9,0.8,2.7c0.4,0.6,1.2,1,1.9,0.7c0.7-0.3,1.2-1.2,1.9-1.3c1.6-0.1,2,2.4,2.3,3.6c0.4,2.3,1.1,4.6,2,6.8
	c0.4,0.9,0.8,1.9,1.7,2.4c0.6,0.3,1.4,0.4,2,0.1c2.7-1.1,2.9-4.7,3.4-7.1c0.1-0.7,0.3-1.4,0.5-2.1c0.8-2.9,2.3,0,3.4,0.8
	c0.6,0.4,1.5,0.5,2.2,0.2c1.3-0.5,1.7-2.4,2-3.6c0.4-1.4,0.3-3.1,1.1-4.4c1.3-2,2.9,1.1,4.3-0.2c0.5-0.5,0.6-1.2,0.7-1.9
	c0.1-1,0-2.1-0.1-3.1C85.7,387.2,85.6,386.5,85.4,385.9z"/>
<path fill="#FFFFFF" d="M46.3,359.6c5.8-1,12.4,2,14.3,8.4c0.4,1.3,0.5,2.7,0.5,4.1c3.9,1.2,8.2,1.8,12.8,1.6
	c3.6-0.2,7-0.8,10.1-1.8c0-0.5,0.1-1.1,0.3-1.7c1.3-4.6,4.4-10,9.5-11.1c1.8-0.4,3.8-0.4,5.7-0.1c0.6-1.7,0.9-3.4,0.9-5.2
	c-0.5-10.2-13.1-18-28.2-17.3c-15.1,0.7-26.9,9.6-26.5,19.8C45.8,357.5,46,358.5,46.3,359.6z"/>
<path fill="#E36CA8" d="M39.7,285.1c0.2,4.3-3.1,7.9-7.4,8.1c-4.3,0.2-7.9-3.1-8.1-7.4c-0.2-4.3,3.1-7.9,7.4-8.1
	C35.9,277.5,39.5,280.8,39.7,285.1z M114.1,278.6c-3.8,0.2-6.7,3.4-6.5,7.1c0.2,3.8,3.4,6.7,7.1,6.5s6.7-3.4,6.5-7.1
	C121.1,281.4,117.9,278.5,114.1,278.6z"/>
<path fill="#E36CA8" d="M73.8,342.9c-3,0.1-5.7,1.2-7.9,3l6.9,11.1L60.9,354c-0.2,1.1-0.3,2.2-0.3,3.4c0.4,7.7,6.8,13.6,14.5,13.2
	c7.7-0.4,13.6-6.8,13.2-14.5C88,348.4,81.5,342.5,73.8,342.9z"/>
</svg>
