<?xml version="1.0" encoding="utf-8"?>
<!-- Generator: Adobe Illustrator 16.0.0, SVG Export Plug-In . SVG Version: 6.00 Build 0)  -->
<!DOCTYPE svg PUBLIC "-//W3C//DTD SVG 1.1//EN" "http://www.w3.org/Graphics/SVG/1.1/DTD/svg11.dtd">
<svg version="1.1" id="Calque_1" xmlns="http://www.w3.org/2000/svg" xmlns:xlink="http://www.w3.org/1999/xlink" x="0px" y="0px"
	 width="432px" height="432px" viewBox="0 0 432 432" enable-background="new 0 0 432 432" xml:space="preserve">
<g>
	<path fill="#2DABE3" d="M178.645,132.629c-4.363-2.69-8.728-5.381-13.091-8.07c2.511-2.581,6.789-1.585,10.191-0.405
		c4.145,1.436,8.289,2.872,12.435,4.309c-1.278-5.161-5.231-9.341-9.817-12.03c-4.587-2.689-9.803-4.078-14.966-5.348
		c2.391-3.802,7.834-3.566,12.283-4.171c0.577-0.078,1.178-0.189,1.637-0.549c0.776-0.609,0.906-1.782,0.572-2.712
		c-0.92-2.552-4.196-3.18-6.907-3.26c-4.143-0.121-8.294,0.09-12.402,0.632c3.68-5.352,11.233-6.445,15.91-10.953
		c0.52-0.501,1.022-1.084,1.144-1.797c0.391-2.3-2.957-3.15-5.263-2.792c-6.401,0.994-12.544,3.605-17.701,7.524
		c0.399-7.423,9.856-10.858,12.842-17.667c-5.372-0.715-11.009,0.812-15.285,4.142c-3.452,2.687-6.319,6.619-10.621,7.419
		c-0.144-6.059,4.626-10.999,6.727-16.684c0.267-0.722,0.405-1.708-0.255-2.103c-0.249-0.147-0.554-0.163-0.843-0.157
		c-3.663,0.071-6.803,2.748-8.824,5.804c-2.021,3.055-3.25,6.57-5.164,9.693c-0.447,0.729-1,1.488-1.826,1.715
		c-0.825,0.228-1.895-0.444-1.711-1.28c0.114-6.617-1.636-12.787-3.657-19.089c-4.836,5.996-0.683,15.438-4.084,22.35
		c-3.126-5.327-6.951-10.242-11.348-14.58c-2.54-2.506-6.16-4.977-9.409-3.501c5.151,5.391,8.488,12.487,9.354,19.894
		c-3.282-2.526-5.81-5.911-9.007-8.544c-3.197-2.632-7.521-4.508-11.455-3.213C92.22,80.856,96,84.888,99.379,89.231
		c0.403,0.519,0.823,1.166,0.601,1.783c-0.278,0.771-1.312,0.888-2.128,0.816c-3.925-0.343-7.633-1.92-11.504-2.649
		c-3.872-0.73-8.324-0.426-11.096,2.374c6.515,1.543,12.795,4.072,18.561,7.476c-4.338,1.813-9.248,1.236-13.927,1.691
		c-4.679,0.454-9.896,2.624-11.146,7.155c6.849-1.263,13.916-1.333,20.789-0.206c-4.336,2.277-9.392,2.623-14.105,3.952
		c-4.713,1.328-9.588,4.229-10.723,8.993c7.293-0.807,14.587-1.613,21.88-2.419c-5.907,2.837-11.844,5.692-17.219,9.441
		c-1.824,1.272-3.721,2.882-3.994,5.089c-0.058,0.47-0.025,0.983,0.266,1.356c0.625,0.804,1.893,0.459,2.822,0.041
		c4.57-2.054,9.142-4.107,13.713-6.161c-5.659,5.664-9.846,12.788-12.04,20.489c-0.314,1.103-0.338,2.681,0.771,2.97
		c0.553,0.145,1.121-0.153,1.583-0.49c2.406-1.752,3.61-4.658,5.025-7.277c1.414-2.619,3.463-5.285,6.402-5.755
		c-1.349,4.923-4.109,9.321-6.155,13.997c-2.045,4.676-3.375,10.033-1.697,14.854c6.105-4.334,6.67-14.212,13.302-17.688
		c0.506-0.266,1.093-0.489,1.64-0.32c1.272,0.393,1.099,2.24,0.631,3.487c-2.337,6.226-5.4,12.672-4.243,19.22
		c0.108,0.614,0.359,1.333,0.968,1.468c0.499,0.111,0.976-0.241,1.34-0.601c2.372-2.338,3.341-5.697,4.743-8.718
		c1.402-3.021,3.729-6.076,7.039-6.453c-2.234,5.408-3.806,11.091-4.667,16.879c-0.288,1.936,0.496,4.817,2.378,4.284
		c0.602-0.17,1.031-0.688,1.389-1.202c1.746-2.513,2.873-5.705,4.424-8.351c1.597,6.689,3.192,13.38,4.789,20.069
		c0.164,0.687,0.329,1.386,0.291,2.091c-0.075,1.36-0.893,2.57-1.142,3.91c-0.248,1.339,0.529,3.1,1.886,2.976
		c-0.673,8.593-0.82,17.228-0.441,25.839c-0.276,0.221-0.554,0.461-0.877,0.715c-0.093-1.671-0.676-3.365-1.879-4.528
		c-1.202-1.163-3.082-1.687-4.622-1.034c-1.767,0.748-2.674,2.816-2.636,4.734c0.038,1.917,0.831,3.729,1.619,5.478
		c-0.7-0.209-1.425-0.323-2.152-0.35c-0.305-0.011-0.61-0.008-0.915,0.012c-0.599,0.038-1.195,0.134-1.778,0.284
		c-0.356,0.092-0.707,0.205-1.051,0.337c-0.443,0.17-0.874,0.373-1.287,0.607c-0.26,0.146-0.513,0.304-0.756,0.475
		c-0.764,0.534-1.446,1.184-2.005,1.935c-0.002-0.003-0.005-0.005-0.007-0.007c-1.187-1.377-3.606-0.934-4.779,0.459
		c-1.176,1.395-1.394,3.349-1.39,5.172c0.002,1.157,0.081,2.349,0.586,3.39c1.078,2.224,3.735,3.14,6.163,3.604
		c7.348,1.409,14.973,0.669,22.247-1.08c1.586-0.381,3.237-0.853,4.395-2.001c1.158-1.148,1.596-3.186,0.513-4.404
		c-0.237-0.268-0.54-0.496-0.804-0.744c-0.273-0.258-0.503-0.536-0.572-0.9c-0.087-0.452,0.111-0.902,0.247-1.343
		c0.537-1.757,0.009-3.797-1.314-5.071c1.523-0.857,1.899-2.288,1.643-4.886c-0.145-1.461-1.316-2.077-3.209-2.176
		c0.001-0.467,0.002-0.774,0.002-0.774c-0.105-7.743-0.301-14.333-0.406-22.076c-0.007-0.526-0.01-1.073,0.207-1.553
		c0.264-0.584,0.812-0.979,1.22-1.474c0.722-0.875,0.971-2.205,0.362-3.162c-0.279-0.439-0.71-0.771-0.959-1.228
		c-0.301-0.552-0.299-1.212-0.29-1.84c0.041-2.93,0.082-5.86,0.124-8.79c2.6-4.503,2.259-10.358,5.285-14.587
		c0.494-0.69,1.139-1.361,1.977-1.497c1.294-0.21,2.422,0.938,2.984,2.123c2.12,4.465-0.305,9.766,0.37,14.662
		c0.069,0.501,0.201,1.048,0.614,1.342c0.936,0.666,2.073-0.518,2.584-1.547c0.93-1.876,1.757-3.804,2.479-5.771
		c0.065,4.688,0.132,9.376,0.197,14.064c0.01,0.628,0.011,1.288-0.29,1.84c-0.249,0.457-0.68,0.788-0.958,1.228
		c-0.609,0.957-0.36,2.287,0.361,3.162c0.408,0.494,0.956,0.89,1.22,1.474c0.218,0.479,0.214,1.026,0.207,1.553
		c-0.105,7.743-0.301,14.333-0.406,22.076c0,0,0.001,0.308,0.002,0.774c-1.892,0.099-3.064,0.715-3.209,2.176
		c-0.257,2.598,0.119,4.028,1.643,4.886c-1.323,1.274-1.852,3.314-1.313,5.071c0.135,0.44,0.333,0.891,0.247,1.343
		c-0.069,0.364-0.3,0.643-0.573,0.9c-0.264,0.248-0.566,0.477-0.804,0.744c-1.083,1.219-0.646,3.256,0.513,4.404
		s2.81,1.62,4.395,2.001c7.273,1.749,14.899,2.489,22.247,1.08c2.428-0.465,5.085-1.381,6.163-3.604
		c0.505-1.041,0.584-2.232,0.586-3.39c0.004-1.823-0.214-3.777-1.389-5.172c-1.174-1.393-3.593-1.836-4.78-0.459
		c-0.002,0.002-0.005,0.004-0.007,0.007c-0.559-0.751-1.24-1.4-2.005-1.935c-0.243-0.171-0.496-0.328-0.755-0.475
		c-0.413-0.234-0.845-0.438-1.288-0.607c-0.344-0.132-0.694-0.245-1.051-0.337c-0.583-0.15-1.179-0.246-1.778-0.284
		c-0.305-0.02-0.61-0.022-0.914-0.012c-0.729,0.026-1.453,0.141-2.154,0.35c0.789-1.748,1.582-3.561,1.62-5.478
		c0.038-1.918-0.869-3.986-2.636-4.734c-1.54-0.652-3.42-0.129-4.622,1.034s-1.785,2.857-1.878,4.528
		c-0.323-0.254-0.602-0.494-0.878-0.715c0.379-8.611,0.231-17.246-0.441-25.839c1.356,0.124,2.134-1.637,1.886-2.976
		c-0.249-1.34-1.066-2.55-1.141-3.91c-0.039-0.705,0.126-1.404,0.29-2.091c0.629-2.637,1.259-5.274,1.888-7.911
		c0.258,0.515,0.643,0.914,1.202,0.984c0.494,0.062,0.979-0.174,1.38-0.47c2.383-1.762,2.457-5.236,2.303-8.197
		c-0.201-3.867-0.402-7.734-0.604-11.603c4.703,1.77,5.8,7.719,7.605,12.409c0.245,0.639,0.543,1.303,1.104,1.695
		c1.064,0.745,2.645,0.136,3.363-0.945s0.795-2.456,0.791-3.755c-0.017-5.793-1.172-11.581-3.38-16.938
		c2.32-0.004,4.402,1.509,5.838,3.331c1.436,1.823,2.385,3.974,3.618,5.938c0.338,0.539,0.731,1.092,1.32,1.333
		c1.188,0.486,2.537-0.629,2.791-1.887c0.255-1.258-0.238-2.534-0.723-3.723c-1.854-4.552-3.709-9.103-5.563-13.654
		c4.039,1.757,7.84,4.061,11.267,6.829c0.678-3.205-1.132-6.422-3.317-8.862s-4.842-4.52-6.468-7.363
		c4.146-2.492,9.296,1.768,14.104,1.237c1.725-0.189,3.663-1.774,2.922-3.344C179.782,133.344,179.199,132.971,178.645,132.629z"/>
	<g>
		<path fill="#2DABE3" d="M119.771,237.438c-0.237-0.268-0.54-0.496-0.804-0.744c-2.597,1.478-5.746,2.006-8.774,2.143
			c-4.808,0.217-9.61-0.376-14.387-0.968c-0.413-0.051-0.852-0.112-1.174-0.377c-0.232-0.191-0.377-0.466-0.515-0.732
			c-0.946-1.827-1.368-2.948-2.081-4.461c-1.187-1.377-3.606-0.934-4.779,0.459c-1.176,1.395-1.394,3.349-1.39,5.172
			c0.002,1.157,0.081,2.349,0.586,3.39c1.078,2.224,3.735,3.14,6.163,3.604c7.348,1.409,14.973,0.669,22.247-1.08
			c1.586-0.381,3.237-0.853,4.395-2.001C120.417,240.694,120.854,238.657,119.771,237.438z"/>
	</g>
	<path fill="#0D71B9" d="M114.815,182.599c-1.325,0.394-2.193-1.354-2.45-2.713c-0.991-5.232-1.753-10.507-2.283-15.806
		c-2.325,0.785-3.839,2.556-5.082,4.677c1.597,6.69,3.192,13.38,4.789,20.069c0.164,0.687,0.329,1.386,0.291,2.091
		c-0.075,1.36-0.893,2.57-1.142,3.91c-0.248,1.339,0.529,3.1,1.886,2.976c-0.673,8.593-0.82,17.228-0.441,25.839
		c0.901-0.719,1.794-1.23,4.227-1.328c0.41-0.017,0.793-0.014,1.152,0.005c0.001-0.467,0.002-0.774,0.002-0.774
		c-0.105-7.743-0.301-14.333-0.406-22.076c-0.007-0.526-0.01-1.073,0.207-1.553c0.264-0.584,0.812-0.979,1.22-1.474
		c0.722-0.875,0.971-2.205,0.362-3.162c-0.279-0.439-0.71-0.771-0.959-1.228c-0.301-0.552-0.299-1.212-0.29-1.84
		c0.041-2.93,0.082-5.86,0.124-8.79c-0.002,0.002-0.003,0.005-0.004,0.007C115.73,181.925,115.365,182.436,114.815,182.599z"/>
	<path fill="#0D71B9" d="M139.22,172.198c-0.585-2.394-1.99-4.779-4.29-5.662c-0.594,3.271-1.471,6.49-2.615,9.611
		c0.065,4.688,0.132,9.376,0.197,14.064c0.01,0.628,0.011,1.288-0.29,1.84c-0.249,0.457-0.68,0.788-0.958,1.228
		c-0.609,0.957-0.36,2.287,0.361,3.162c0.408,0.494,0.956,0.89,1.22,1.474c0.218,0.479,0.214,1.026,0.207,1.553
		c-0.105,7.743-0.301,14.333-0.406,22.076c0,0,0.001,0.308,0.002,0.774c0.359-0.019,0.743-0.021,1.153-0.005
		c2.432,0.098,3.324,0.609,4.226,1.328c0.379-8.611,0.231-17.246-0.441-25.839c1.356,0.124,2.134-1.637,1.886-2.976
		c-0.249-1.34-1.066-2.55-1.141-3.91c-0.039-0.705,0.126-1.404,0.29-2.091c0.629-2.637,1.259-5.274,1.888-7.911
		c-0.213-0.424-0.34-0.926-0.406-1.386C139.746,177.092,139.805,174.591,139.22,172.198z"/>
	<g>
		<path fill="#2DABE3" d="M128.638,237.438c0.237-0.268,0.54-0.496,0.804-0.744c2.597,1.478,5.746,2.006,8.775,2.143
			c4.807,0.217,9.609-0.376,14.385-0.968c0.414-0.051,0.853-0.112,1.176-0.377c0.231-0.191,0.376-0.466,0.514-0.732
			c0.946-1.827,1.368-2.948,2.081-4.461c1.188-1.377,3.606-0.934,4.78,0.459c1.175,1.395,1.393,3.349,1.389,5.172
			c-0.002,1.157-0.081,2.349-0.586,3.39c-1.078,2.224-3.735,3.14-6.163,3.604c-7.348,1.409-14.974,0.669-22.247-1.08
			c-1.585-0.381-3.236-0.853-4.395-2.001S127.555,238.657,128.638,237.438z"/>
	</g>
	<g>
		<g>
			<path fill="#DEDC00" d="M118.971,224.494c-0.145-1.461-1.316-2.077-3.209-2.176c-0.359-0.019-0.742-0.021-1.152-0.005
				c-2.433,0.098-3.325,0.609-4.227,1.328c-0.276,0.221-0.554,0.461-0.877,0.715c-0.093-1.671-0.676-3.365-1.879-4.528
				c-1.202-1.163-3.082-1.687-4.622-1.034c-1.767,0.748-2.674,2.816-2.636,4.734c0.038,1.917,0.831,3.729,1.619,5.478
				c-0.701-0.209-1.425-0.323-2.152-0.35c1.715,1.294,3.142,2.97,4.13,4.879l0.252,0.427h-0.924c0,0-2.671-3.791-4.373-5.294
				c-0.599,0.038-1.195,0.134-1.778,0.284c1.149,1.437,4.027,5.043,4.048,5.178c0.025,0.169-0.917,0-0.917,0
				c-1.275-1.711-2.674-3.33-4.182-4.841c-0.443,0.17-0.875,0.373-1.287,0.607c1.116,1.422,3.018,3.847,3.061,3.937
				c0.061,0.129-0.673,0.298-0.673,0.298c-0.989-1.301-2.039-2.556-3.144-3.76c-0.764,0.534-1.446,1.184-2.005,1.935
				c-0.002-0.003-0.005-0.005-0.007-0.007c0.713,1.513,1.135,2.634,2.081,4.461c0.138,0.267,0.282,0.541,0.515,0.732
				c0.322,0.265,0.761,0.325,1.174,0.377c4.776,0.592,9.579,1.185,14.387,0.968c3.029-0.137,6.178-0.665,8.774-2.143
				c-0.273-0.258-0.503-0.536-0.572-0.9c-0.087-0.452,0.111-0.902,0.247-1.343c0.537-1.757,0.009-3.797-1.314-5.071
				C118.852,228.522,119.228,227.092,118.971,224.494z M114.211,235.116c-1.354,0-2.45-1.159-2.45-2.59s1.097-2.59,2.45-2.59
				s2.45,1.159,2.45,2.59S115.564,235.116,114.211,235.116z"/>
		</g>
		<g>
			<path fill="#DEDC00" d="M156.365,232.306c-0.559-0.751-1.24-1.4-2.005-1.935c-1.104,1.204-2.154,2.459-3.144,3.76
				c0,0-0.733-0.169-0.673-0.298c0.044-0.09,1.944-2.515,3.062-3.937c-0.413-0.234-0.845-0.438-1.288-0.607
				c-1.508,1.511-2.906,3.13-4.182,4.841c0,0-0.942,0.169-0.917,0c0.021-0.135,2.898-3.741,4.048-5.178
				c-0.583-0.15-1.179-0.246-1.778-0.284c-1.701,1.503-4.373,5.294-4.373,5.294h-0.924l0.252-0.427
				c0.988-1.909,2.415-3.585,4.131-4.879c-0.729,0.026-1.453,0.141-2.154,0.35c0.789-1.748,1.582-3.561,1.62-5.478
				c0.038-1.918-0.869-3.986-2.636-4.734c-1.54-0.652-3.42-0.129-4.622,1.034s-1.785,2.857-1.878,4.528
				c-0.323-0.254-0.602-0.494-0.878-0.715c-0.901-0.719-1.794-1.23-4.226-1.328c-0.41-0.017-0.794-0.014-1.153,0.005
				c-1.892,0.099-3.064,0.715-3.209,2.176c-0.257,2.598,0.119,4.028,1.643,4.886c-1.323,1.274-1.852,3.314-1.313,5.071
				c0.135,0.44,0.333,0.891,0.247,1.343c-0.069,0.364-0.3,0.643-0.573,0.9c2.597,1.478,5.746,2.006,8.774,2.143
				c4.808,0.217,9.61-0.376,14.386-0.968c0.414-0.052,0.853-0.112,1.176-0.377c0.232-0.191,0.376-0.466,0.514-0.732
				c0.946-1.827,1.368-2.948,2.081-4.461C156.37,232.301,156.367,232.303,156.365,232.306z M134.198,235.116
				c-1.354,0-2.45-1.159-2.45-2.59s1.097-2.59,2.45-2.59c1.353,0,2.45,1.159,2.45,2.59S135.551,235.116,134.198,235.116z"/>
		</g>
	</g>
	<g>
		<path fill="#FFFFFF" d="M149.644,125.601c-2.275,1.733-4.275,3.801-6.502,5.597c-5.362,4.326-12.138,7.022-19.027,6.982
			s-13.826-2.955-18.265-8.226c-1.193-1.416-2.252-3.028-3.861-3.945c-0.671-0.382-1.439-0.645-1.954-1.222
			c-0.515-0.576-0.604-1.635,0.064-2.021c2.519-5.276,4.451-9.452,8.207-13.933c3.757-4.479,8.874-8.094,14.671-8.855
			c2.901-0.381,5.883-0.033,8.654,0.904c4.199,1.421,7.92,4.215,10.455,7.851c3.011,4.316,4.337,9.678,7.629,13.783
			c0,0,0.934,0.223,0.968,1.044c0.034,0.82-0.205,1.437-0.479,1.505C149.93,125.134,149.644,125.601,149.644,125.601z"/>
	</g>
	<g>
		<path fill="#ABDCF2" d="M125.881,104.13c-6.603,0.171-9.87,2.353-13.428,7.14c-3.557,4.788-4.541,11.62-1.687,16.857
			c0.923,1.693,2.231,3.205,3.888,4.194c2.12,1.268,4.652,1.609,7.111,1.852c3.35,0.33,6.831,0.51,9.982-0.673
			c4.541-1.703,7.758-6.211,8.391-11.019c0.632-4.809-1.143-9.772-4.296-13.456C133.649,106.463,129.986,104.13,125.881,104.13z"/>
	</g>
	<path fill="#FFFFFF" d="M121.591,150.06c0.152,1.69,0.305,3.748,0.457,5.117c0.066,0.594,0.186,1.274,0.702,1.575
		c0.322,0.188,0.719,0.175,1.092,0.154c1.467-0.077,2.934-0.155,4.4-0.233c0.336-0.018,0.7-0.046,0.952-0.27
		c0.332-0.296,0.337-0.804,0.316-1.248c-0.085-1.856-0.171-3.712-0.256-5.567C126.725,149.989,124.157,150.151,121.591,150.06z"/>
	<path fill="#FFFFFF" d="M132.744,152.821c0.146,0.771,0.41,1.657,1.145,1.934c0.44,0.166,0.932,0.056,1.389-0.055
		c1.496-0.363,2.991-0.727,4.487-1.091c0.172-0.041,0.358-0.093,0.461-0.237c0.109-0.155,0.085-0.365,0.055-0.553
		c-0.33-2.025-0.808-4.026-1.427-5.983c-2.161,0.915-4.396,1.644-6.676,2.178C132.316,150.29,132.503,151.561,132.744,152.821z"/>
	<path d="M153.378,137.695c-1.696-1.443-2.829-3.303-3.321-5.476c-0.175-0.772-1.362-0.445-1.188,0.327
		c0.383,1.69,1.139,3.24,2.213,4.562c-5.211,5.237-11.836,8.949-19.021,10.68c-0.093,0.022-0.186,0.046-0.278,0.067
		c-3.389,0.79-6.86,1.101-10.313,0.958c-4.194-0.174-8.36-1.017-12.317-2.491c-4.027-1.5-7.8-3.664-11.134-6.375
		c0.457-0.453,0.893-0.931,1.299-1.438c0.49-0.613-0.376-1.49-0.871-0.871c-1.26,1.575-2.759,2.879-4.503,3.893
		c-0.686,0.398-0.065,1.464,0.621,1.063c0.907-0.527,1.758-1.13,2.546-1.805c6.106,4.98,13.557,8.126,21.389,9.037
		c1.028,0.119,2.061,0.196,3.092,0.233c2.566,0.092,5.134-0.07,7.664-0.472c0.98-0.156,1.955-0.348,2.923-0.574
		c2.279-0.534,4.515-1.263,6.676-2.178c0.913-0.387,1.813-0.806,2.697-1.258c3.827-1.954,7.328-4.516,10.36-7.558
		c0.191,0.188,0.39,0.371,0.596,0.546C153.107,139.077,153.982,138.211,153.378,137.695z"/>
	<circle cx="125.008" cy="119.473" r="3.335"/>
</g>
<g>
	<g>
		<path fill="#24234D" d="M325.126,89.468c-0.109-1.567-0.253-3.132-0.44-4.692c-0.119-0.996-0.258-2-0.443-2.992
			c-0.411-2.202-1.053-4.349-2.227-6.24c-0.492-0.793-1.107-1.56-1.959-1.941c-0.852-0.383-1.981-0.271-2.554,0.466
			c-0.387,0.497-0.455,1.163-0.513,1.791c-0.178,1.922-0.404,3.857-0.725,5.773c-0.322,1.929-0.742,3.837-1.307,5.69
			c-0.723,2.376-1.682,4.662-2.987,6.785c-0.113,0.184-0.231,0.366-0.353,0.55c-1.119,1.681-2.607,3.334-4.316,4.787
			c-1.693,1.44-3.603,2.684-5.583,3.563c-1.995,0.887-4.062,1.402-6.05,1.379c-3.404-4.201-9.355-6.286-14.612-4.889
			c1.67-3.044,2.829-6.367,3.416-9.79c-1.428,1.759-2.997,3.402-4.686,4.912c0.225-2.54,1.17-5.011,2.696-7.053
			c-2.86,1.567-5.137,4.172-6.306,7.217c-0.944-1.125,0.095-2.748,0.81-4.031c1.967-3.527,1.257-7.878,0.491-11.843
			c-3.182,4.017-4.952,9.129-4.937,14.254c-1.543-2.23-4.281-3.577-6.989-3.439c2.438,1.534,4.292,3.971,5.119,6.729
			c-2.424-1.838-5.645-2.584-8.63-1.999c1.558,0.528,3.139,1.069,4.488,2.01c1.35,0.941,2.46,2.354,2.653,3.986
			c-3.067,0.273-6.157,0.662-9.044,1.734c-2.136,0.793-4.166,1.996-5.736,3.629c-0.08-0.008-0.16-0.011-0.242-0.003
			c-2.047-0.274-3.341-0.807-4.83-1.894c-0.263-0.192-0.53-0.399-0.811-0.627c-1.491-1.215-2.742-2.655-3.818-4.232
			c-1.278-1.875-2.305-3.946-3.169-6.086c-0.483-1.198-0.919-2.415-1.318-3.63c-0.697-2.12-1.323-4.275-2.005-6.406
			c-0.639-1.996-1.33-3.969-2.176-5.871c-0.472-1.061-0.989-2.1-1.577-3.106c-0.354-0.606-0.932-1.286-1.611-1.107
			c-0.58,0.152-0.813,0.837-0.944,1.423c-0.32,1.43-0.586,2.868-0.81,4.313c-0.365,2.371-0.616,4.761-0.803,7.159
			c-0.252,3.234-0.389,6.485-0.537,9.729c-0.028,0.618-0.057,1.237-0.087,1.854c-0.148,3.037-0.327,6.092-0.124,9.12
			c0.051,0.754,0.124,1.506,0.229,2.256c0.448,3.215,1.502,6.422,3.421,9.016c0.326,0.44,0.675,0.865,1.052,1.267
			c1.751,1.864,4.133,3.205,6.631,3.624c-2.833,4.351-2.963,10.34-0.271,14.789c-2.562,0.204-4.847,2.319-5.246,4.857
			c1.667-1.164,3.646-1.877,5.672-2.045c-1.244,2.115-1.911,4.566-1.91,7.021c1.854-0.871,3.706-1.742,5.56-2.613
			c-0.227,0.393-0.425,0.803-0.606,1.219c-2.565,1.65-4.699,4.001-6.252,6.644c-2.19,3.727-3.306,8.001-3.848,12.289
			c-0.61,4.824-0.475,9.937,1.763,14.254s6.996,7.591,11.808,6.888c-1.421-2.131-2.841-4.262-4.262-6.393
			c1.355-0.513,2.764-0.887,4.195-1.116c-1.058-1.835-3.442-2.27-5.462-2.906c-0.444-0.141-0.902-0.312-1.213-0.66
			c-0.348-0.391-0.449-0.938-0.501-1.459c-0.372-3.766,1.44-7.61,4.421-9.906c1.438,4.207,3.881,8.066,6.832,11.41
			c2.086,2.364,4.462,4.507,7.076,6.268c0.007,0.004,0.014,0.008,0.02,0.013c-1.286,1.199-1.93,3.179-1.767,4.989
			c0.227,2.505,1.597,4.74,2.931,6.872c1.476,2.359,2.951,4.72,4.428,7.079c-4.051-0.072-8.116,0.818-11.765,2.58
			c1.591,0.297,3.183,0.594,4.773,0.891c0.402,0.075,0.864,0.194,1.032,0.568c0.129,0.29,0.026,0.627-0.076,0.928
			c-0.454,1.323-0.908,2.646-1.361,3.97c5.054-2.334,10.363-4.116,15.803-5.303c-1.223-3.15-2.459-6.367-2.635-9.742
			c-0.149-2.859,0.594-5.892,2.435-8.027c0.616,0.029,1.234,0.035,1.851,0.017c1.884-0.055,3.756-0.334,5.553-0.854
			c2.545,1.958,3.834,5.294,3.984,8.529c0.16,3.461-0.798,6.868-1.813,10.181c3.36-0.332,6.75-0.664,10.107-0.299
			c3.357,0.366,6.725,1.486,9.242,3.736c-0.34-2.083-1.328-4.056-2.791-5.576c1.758-0.445,3.516-0.89,5.273-1.335
			c0.164-0.042,0.342-0.093,0.444-0.229c0.173-0.229,0.036-0.56-0.131-0.794c-1.095-1.539-3.135-2.02-5.001-2.304
			c-3.146-0.478-6.327-0.718-9.509-0.717c0.673-6.01,0.843-12.075,0.519-18.114c0.836-0.948,1.627-1.939,2.392-2.942
			c3.54-4.643,6.664-9.679,8.505-15.22c0.203-0.611,0.387-1.229,0.556-1.853c1.344,2.17,2.034,4.748,1.908,7.3
			c-0.166,3.366-1.749,6.64-4.283,8.861c1.409,0.412,2.961,0.313,4.307-0.272c-0.157,2.519-1.058,4.987-2.562,7.015
			c5.026-0.64,8.814-5.099,10.575-9.85c3.234-8.731,0.71-19.2-5.827-25.754c0.113,0.009,0.227,0.018,0.34,0.025
			c-0.607-1.284-1.216-2.568-1.824-3.853c2.105,0.446,4.259,0.662,6.41,0.643c-1.736-1.513-3.752-2.702-5.914-3.492
			c0.967-3.441,1.928-6.934,1.979-10.508c0.034-2.456-0.408-4.983-1.48-7.173c0.611,0.009,1.221-0.005,1.82-0.031
			c1.525-0.065,3.073-0.185,4.582-0.447c1.938-0.338,3.811-0.912,5.492-1.918c2.147-1.282,3.84-3.2,5.078-5.389
			c0.536-0.948,0.988-1.946,1.354-2.967c1.188-3.316,1.551-6.869,1.696-10.391c0.003-0.063,0.006-0.125,0.008-0.187
			C325.423,96.362,325.365,92.908,325.126,89.468z"/>
	</g>
	<g>
		<path fill="#1D71B8" d="M307.212,99.444c-1.693,1.44-3.603,2.684-5.583,3.563c-0.16,3.177,0.471,6.396,1.861,9.258
			c1.725,3.551,4.604,6.523,8.077,8.395c1.937-0.338,3.81-0.912,5.491-1.917c2.148-1.283,3.84-3.201,5.078-5.39
			c-3.588-0.803-6.955-2.594-9.604-5.145C310.042,105.812,308.203,102.754,307.212,99.444z"/>
	</g>
	<g>
		<path fill="#1D71B8" d="M249.241,103.918c-0.263-0.192-0.53-0.399-0.811-0.627c-1.491-1.215-2.743-2.655-3.819-4.232
			c-3.853,4.268-9.425,6.98-15.16,7.392c0.051,0.754,0.123,1.506,0.229,2.256c0.447,3.215,1.501,6.422,3.421,9.016
			c3.421-1.354,6.742-2.995,9.622-5.271C245.563,110.204,247.958,107.283,249.241,103.918z"/>
	</g>
	<g>
		<path fill="#95C11F" d="M325.126,89.468c-0.643,0.169-1.314,0.246-1.976,0.239c-1.643-0.018-3.244-0.489-4.802-1.011
			c-1.155-0.386-2.314-0.81-3.39-1.374c-0.723,2.376-1.682,4.662-2.987,6.785c-0.113,0.184-0.231,0.366-0.353,0.55
			c2.031,1.729,4.178,3.325,6.623,4.363c2.202,0.936,4.702,1.36,7.037,0.976c0.003-0.063,0.006-0.125,0.008-0.187
			C325.423,96.362,325.365,92.908,325.126,89.468z"/>
	</g>
	<g>
		<path fill="#95C11F" d="M241.534,92.973c-0.483-1.198-0.919-2.415-1.319-3.63c-0.696-2.12-1.322-4.275-2.004-6.406
			c-2.272,1.708-5.08,2.705-7.921,2.811c-0.252,3.234-0.389,6.485-0.537,9.729C233.802,96.079,238.072,95.158,241.534,92.973z"/>
	</g>
	<g>
		<path fill="#1D71B8" d="M324.29,81.783c-0.411-2.202-1.053-4.349-2.227-6.24c-0.493-0.793-1.108-1.559-1.96-1.941
			c-0.851-0.383-1.981-0.271-2.554,0.466c-0.386,0.497-0.454,1.163-0.513,1.791c-0.178,1.922-0.404,3.857-0.724,5.773
			C318.77,82.839,321.789,82.896,324.29,81.783z"/>
	</g>
	<g>
		<path fill="#1D71B8" d="M236.083,77.065c-0.472-1.061-0.989-2.1-1.577-3.106c-0.354-0.606-0.932-1.286-1.611-1.107
			c-0.581,0.152-0.813,0.837-0.945,1.423c-0.32,1.43-0.586,2.868-0.809,4.313c0.944-0.105,1.88-0.262,2.788-0.541
			C234.682,77.816,235.416,77.488,236.083,77.065z"/>
	</g>
	<g>
		<path fill="#95C11F" d="M290.038,169.309c-0.792,3.252-2.166,6.405-4.327,8.961c-2.162,2.555-5.155,4.479-8.46,5.008
			c-3.538,0.567-7.166-0.474-10.371-2.078c-3.632-1.816-7.006-4.51-8.674-8.213s-1.247-8.521,1.742-11.27
			c0.561-0.517,1.191-0.943,1.858-1.311c0.787-0.435,1.627-0.785,2.475-1.088c5.295-1.889,23.914-4.982,26.029,3.608
			C290.824,165.015,290.547,167.22,290.038,169.309z"/>
	</g>
	<g>
		<path fill="#95C11F" d="M310.69,142.312c-1.736-1.513-3.752-2.702-5.914-3.492c0.968-3.441,1.928-6.934,1.978-10.508
			c0.035-2.456-0.408-4.983-1.479-7.173c-2.272-0.031-4.552-0.391-6.309-1.77c-1.322-1.038-2.188-2.543-2.921-4.057
			c-0.936-1.936-1.978-3.364-2.073-5.512c-0.096-2.146-0.588-3.993,0.998-5.444c0.237,0.02,0.478,0.027,0.718,0.03
			c-3.404-4.201-9.355-6.286-14.611-4.889c1.67-3.044,2.829-6.367,3.415-9.79c-1.428,1.759-2.995,3.402-4.685,4.912
			c0.225-2.54,1.17-5.011,2.696-7.053c-2.86,1.567-5.137,4.172-6.306,7.217c-0.945-1.125,0.095-2.748,0.81-4.031
			c1.966-3.527,1.257-7.878,0.491-11.843c-3.182,4.017-4.953,9.129-4.938,14.254c-1.543-2.229-4.28-3.577-6.988-3.439
			c2.438,1.534,4.291,3.971,5.119,6.729c-2.424-1.838-5.645-2.584-8.63-1.999c1.558,0.528,3.139,1.069,4.487,2.01
			c1.35,0.941,2.461,2.354,2.654,3.986c-3.067,0.273-6.157,0.662-9.043,1.734c-2.137,0.793-4.168,1.996-5.737,3.629
			c0.7,0.068,1.298,0.688,1.5,1.382c0.226,0.771,0.071,1.601-0.129,2.379c-0.894,3.468-2.709,6.692-5.211,9.255
			c-1.669,1.71-3.701,3.155-6.029,3.694c-1.209,0.28-2.448,0.291-3.661,0.088c-2.833,4.351-2.963,10.34-0.271,14.789
			c-2.563,0.204-4.847,2.319-5.247,4.857c1.667-1.164,3.646-1.877,5.673-2.045c-1.244,2.115-1.911,4.566-1.91,7.021
			c1.854-0.871,3.707-1.742,5.56-2.613c-0.228,0.394-0.425,0.803-0.606,1.219c-0.725,1.668-1.081,3.496-1.01,5.314
			c0.303-0.305,0.604-0.609,0.906-0.913c0.867-0.872,1.732-1.745,2.6-2.616c0.306-0.309,0.782-0.635,1.128-0.371
			c0.206,0.156,0.239,0.449,0.255,0.708c0.11,1.83,0.222,3.661,0.332,5.491c1.75-1.529,3.499-3.059,5.248-4.589
			c0.252,1.614,0.367,3.249,0.344,4.881c1.427-1.408,2.907-2.763,4.437-4.06c-0.19,1.606-0.214,3.231-0.07,4.843
			c1.137-2.1,2.776-3.925,4.743-5.278c-0.255,1.355-0.51,2.71-0.765,4.064c1.098-0.987,2.196-1.975,3.295-2.963
			c0.197-0.177,0.406-0.36,0.664-0.421c0.79-0.184,1.307,0.815,1.419,1.619c0.113,0.804,0.289,1.817,1.077,2.01
			c1.073-0.655,1.384-2.567,2.638-2.473c1.65,0.126,1.641,3.659,3.241,3.238c1.069-0.28,0.835-2.04,1.731-2.687
			c0.567-0.41,1.395-0.195,1.936,0.25c0.539,0.445,0.891,1.074,1.333,1.617c0.203,0.249,0.452,0.495,0.771,0.545
			c0.768,0.12,1.186-0.888,1.177-1.664c-0.009-0.777-0.073-1.729,0.587-2.14c0.767-0.476,1.705,0.263,2.257,0.977
			c0.552,0.715,1.301,1.563,2.169,1.32c1.208-0.34,0.979-2.221,1.85-3.124c0.771-0.8,2.116-0.55,3.104-0.041
			c0.987,0.509,1.944,1.236,3.056,1.234c-0.02-1.099-0.037-2.197-0.057-3.295c-0.004-0.221,0.006-0.471,0.171-0.615
			c0.185-0.16,0.465-0.109,0.701-0.045c1.371,0.375,2.702,0.896,3.964,1.552c0.396,0.206,0.97,0.385,1.211,0.01
			c0.121-0.188,0.085-0.432,0.044-0.651c-0.155-0.832-0.31-1.663-0.464-2.495c0.74,0.056,1.482,0.11,2.224,0.166
			c1.144,0.086,2.286,0.172,3.429,0.257c0.113,0.009,0.227,0.018,0.341,0.025c-0.608-1.284-1.216-2.568-1.824-3.853
			C306.385,142.115,308.539,142.331,310.69,142.312z"/>
	</g>
	<g>
		<g>
			<path d="M271.682,128.074c8.455-25.914-22.751-20.74-17.142-1.468C256.509,133.37,268.449,137.982,271.682,128.074z"/>
		</g>
		<g>
			<path d="M285.936,131.901c7.384-3.479,8.446-22.001-0.171-24.31C271.305,103.373,270.565,139.144,285.936,131.901z"/>
		</g>
	</g>
	<g>
		<path fill="#FFFFFF" d="M286.084,119.016c1.711,3.473,0.846,8.149-2.825,8.149C276.04,127.165,281.82,110.367,286.084,119.016z"/>
	</g>
	<g>
		<path fill="#FFFFFF" d="M262.187,119.178c3.168-0.044,3.058,5.882-0.513,5.212C259.766,124.03,258.954,119.178,262.187,119.178z"
			/>
	</g>
	<path d="M300.081,126.641c-0.1-0.791-1.357-0.801-1.257,0c0.038,0.296,0.069,0.592,0.098,0.888c0.191,2.026,0.161,4.053-0.12,6.078
		c-0.276,1.654-1.088,2.306-2.661,2.717c-1.271,0.332-2.573,0.527-3.88,0.657c-0.038,0.004-0.076,0.009-0.114,0.013
		c-0.088,0.008-0.177,0.015-0.265,0.023c-0.606,0.053-1.214,0.095-1.821,0.13c-0.913,0.053-1.827,0.097-2.742,0.138
		c-0.9,0.033-1.8,0.06-2.699,0.089c-3.813,0.126-7.627,0.189-11.442,0.19c-0.077,0-0.155,0.001-0.233,0.001
		c-0.381,0-0.762-0.006-1.143-0.007c-1.004-0.004-2.008-0.009-3.012-0.021c-0.494-0.007-0.987-0.017-1.481-0.025
		c-0.872-0.014-1.743-0.029-2.615-0.05c-0.532-0.013-1.065-0.029-1.597-0.044c-0.837-0.024-1.674-0.05-2.51-0.079
		c-0.546-0.02-1.092-0.042-1.638-0.063c-0.822-0.033-1.644-0.068-2.465-0.107c-0.921-0.044-1.842-0.087-2.763-0.138
		c-2.503-0.139-5.174-0.15-6.621-2.563c-0.396-0.659-0.643-1.366-0.789-2.098c-0.01-0.049-0.02-0.098-0.027-0.146
		c-0.016-0.087-0.031-0.174-0.044-0.261c-0.225-1.551-0.063-3.211,0.077-4.699c0.076-0.805-1.182-0.8-1.256,0
		c-0.287,3.031-0.418,6.826,1.894,9.088c0.022,0.021,0.045,0.043,0.067,0.064c0.052,0.049,0.104,0.097,0.157,0.144
		c0.053,0.047,0.106,0.092,0.16,0.136c0.031,0.025,0.063,0.051,0.095,0.075c0.063,0.05,0.129,0.099,0.196,0.146
		c0.037,0.026,0.075,0.053,0.113,0.078c0.054,0.036,0.108,0.072,0.164,0.107c0.024,0.016,0.047,0.032,0.071,0.047
		c0.065,0.04,0.132,0.076,0.198,0.112c0.003,0.002,0.006,0.004,0.009,0.006c0.347,0.19,0.707,0.342,1.08,0.461
		c2.002,0.664,4.317,0.557,6.385,0.659c0.152,0.008,0.305,0.013,0.457,0.021c0.846,0.041,1.691,0.076,2.537,0.111
		c0.437,0.018,0.872,0.038,1.309,0.055c0.128,0.005,0.256,0.011,0.385,0.016c0.949,0.034,1.899,0.063,2.85,0.09
		c0.153,0.004,0.307,0.011,0.46,0.015c0.019,0.001,0.036,0.001,0.054,0.001c5.714,0.156,11.436,0.174,17.152,0.045
		c4.454-0.061,9.037-0.032,13.428-0.757c0.21-0.033,0.419-0.068,0.628-0.106c0.009-0.002,0.019-0.003,0.027-0.005
		c2.024-0.371,4.272-0.817,4.903-3.052C300.565,132.251,300.41,129.253,300.081,126.641z"/>
</g>
<g>
	<g>
		<g>
			<path fill="#95C11F" d="M372.856,293.842c-1.026-1.838-2.951-2.948-4.708-4.107s-3.544-2.629-3.98-4.688
				c-0.32-1.509,0.15-3.064,0.146-4.606c-0.002-1.542-0.787-3.34-2.316-3.537c-1.212-0.156-2.326,0.815-2.809,1.938
				s-0.503,2.378-0.644,3.592c-0.624,5.374-3.906,10.374-8.589,13.084c-0.956,0.553-2.006,1.024-3.11,1.021
				c-2.645-0.009-4.573-2.81-4.657-5.452c-0.085-2.644,1.137-5.127,2.246-7.528c4.809-10.413,7.992-21.573,9.428-32.953
				c0.99,0.648,2.455,1.429,3.07,1.374c2.861-0.258,5.668-1.104,8.195-2.471c0.49-0.266,1.047-0.785,0.785-1.277
				c-2.262,0.705-4.782,0.545-6.938-0.44c2.896-0.419,5.712-1.378,8.261-2.814c-1.511,0.078-3.041,0.155-4.524-0.144
				c-1.483-0.298-2.939-1.017-3.822-2.246c3.069,0.368,6.262-0.381,8.846-2.078c-4.202,0.691-9.913-1.681-13.072-5.212
				c-0.097-1.937-0.316-3.874-0.73-5.733c20.277-6.369,21.971-29.041-3.995-21.073c-0.677-1-1.484-1.895-2.468-2.607
				c-1.784-1.293-3.983-1.872-6.156-2.239c-8.529-1.443-17.529,0.058-25.128,4.192c-6.444,3.507-12.177,9.539-12.657,16.86
				c-0.227,3.462,0.316,6.66,1.409,9.718c0.954,2.666,2.327,5.227,3.976,7.763c0.567-0.092,1.137-0.184,1.705-0.276
				c0.45,1.066,0.9,2.133,1.352,3.199c-0.081,3.809-2.008,8.33-4.657,10.448c-0.058,0.504,0.77,0.452,1.184,0.159
				c1.062-0.75,2.009-1.661,2.8-2.693c-0.09,3.513-1.888,6.943-4.726,9.015c2.577-0.805,4.886-2.448,6.49-4.62
				c-0.271,2.792-1.892,5.245-3.464,7.567c2.471-0.262,5.713-5.342,7.365-8.063c3.016,7.136,6.209,14.442,6.252,22.136
				c0.066,11.581-7.02,22.469-6.155,34.018c0.577,7.721,4.637,14.675,8.29,21.502c0.601,1.123,1.209,2.419,0.785,3.62
				c-0.648,1.844-3.309,2.095-5.014,1.14s-2.847-2.657-4.354-3.901c-1.508-1.244-3.849-1.965-5.352-0.715
				c-1.711,1.423-0.94,4.436,0.898,5.689c1.839,1.255,4.225,1.261,6.451,1.222c-0.362,0.384-0.783,0.698-1.224,0.989
				c-5.405,1.797-11.846,2.703-17.206,3.138c-3.672,0.297-8.804-0.417-10.788,2.686c-0.991,1.55-1.134,3.507-0.888,5.33
				c0.246,1.825,0.877,3.639,2.072,5.041c3.006,3.525,8.41,3.442,12.996,2.784c1.627-0.233,3.25-0.505,4.866-0.815
				c-0.401,0.714-0.606,1.549-0.542,2.427c0.174,2.376,2.242,4.162,4.619,3.988s4.162-2.242,3.988-4.619
				c-0.099-1.345-0.804-2.5-1.828-3.219c5.247-1.394,10.352-3.28,15.149-5.814c4.911-2.594,9.495-5.89,13.401-9.827
				c-0.102,0.422-0.142,0.866-0.108,1.322c0.174,2.377,2.242,4.162,4.618,3.988c2.377-0.174,4.163-2.242,3.989-4.619
				c-0.175-2.376-2.242-4.162-4.618-3.988c-0.38,0.028-0.742,0.109-1.086,0.227c1.441-1.729,2.756-3.563,3.921-5.496
				c1.876-3.114,3.39-6.685,2.935-10.293c-0.454-3.607-3.487-7.081-7.12-6.904c-2.946,0.143-4.875,3.537-6.753,5.813
				c-2.433,2.947-4.955,6.559-7.511,9.623c-8.196-9.149-10.834-23.105-6.17-34.525c0.7-1.714,1.589-3.424,3.044-4.567
				s3.599-1.583,5.18-0.622c0.845,0.514,1.437,1.352,1.931,2.208c2.172,3.768,3.014,8.452,6.283,11.319
				c0.931,0.815,2.122,1.464,3.351,1.32c1.472-0.172,2.564-1.396,3.51-2.537c3.727-4.496,7.453-8.992,11.18-13.488
				c1.435,0.713,1.557,2.739,1.097,4.273c-0.459,1.534-1.3,3.048-1.071,4.633c0.229,1.586,2.364,2.898,3.431,1.703
				c0.411-0.46,0.5-1.116,0.56-1.729c0.051-0.517,0.093-1.034,0.129-1.553c0.065,0.486,0.159,0.968,0.285,1.441
				c0.133,0.502,0.315,1.021,0.713,1.355c1.115,0.941,2.873-0.373,3.122-1.812c0.222-1.288-0.21-2.59-0.28-3.896
				c0.178,1.584,2.013,2.865,3.553,2.313C373.475,298.507,373.882,295.68,372.856,293.842z M335.339,264.378
				c-19.341-5.538,0.396-36.642,9.416-21.834C350.613,252.161,344.314,266.947,335.339,264.378z"/>
		</g>
		<path fill="#E94E1B" d="M307.344,255.545c-0.057,0.504,0.771,0.451,1.184,0.159c1.063-0.75,2.01-1.661,2.801-2.693
			c-0.09,3.513-1.888,6.942-4.727,9.015c2.578-0.806,4.887-2.448,6.491-4.62c-0.271,2.792-1.892,5.245-3.465,7.567
			c2.472-0.262,5.714-5.343,7.366-8.063c-1.664-3.938-3.328-7.876-4.992-11.813C311.921,248.905,309.994,253.426,307.344,255.545z"
			/>
		<path fill="#E94E1B" d="M353.895,250.603c0.99,0.648,2.455,1.429,3.07,1.373c2.861-0.257,5.668-1.104,8.195-2.47
			c0.49-0.266,1.047-0.785,0.785-1.277c-2.262,0.705-4.782,0.545-6.938-0.44c2.896-0.419,5.712-1.379,8.261-2.814
			c-1.511,0.078-3.041,0.154-4.524-0.144c-1.484-0.299-2.94-1.017-3.822-2.246c3.069,0.368,6.261-0.382,8.846-2.078
			c-4.203,0.691-9.914-1.681-13.072-5.212c0.069,1.387,0.075,2.772,0.042,4.128C354.646,243.16,354.362,246.893,353.895,250.603z"/>
		<g>
			<path fill="#2DABE3" d="M336.375,339.331c-0.139,1.455-1.715,2.303-3.137,2.642c-1.423,0.338-3.016,0.493-4.034,1.541
				c-1.714,1.764-1.224,5.461-3.585,6.148c-1.225,0.356-2.557-0.517-3.075-1.683c-0.519-1.165-0.389-2.519-0.069-3.753
				c-1.353,1.252-2.273,2.962-3.805,3.988s-4.113,0.892-4.695-0.857c-0.422-1.268,0.465-2.615,1.527-3.426
				c0.644-0.489,1.366-0.877,2.04-1.321c-5.405,1.797-11.846,2.703-17.206,3.138c-3.672,0.297-8.804-0.417-10.788,2.686
				c-0.991,1.55-1.134,3.507-0.888,5.33c0.246,1.825,0.877,3.639,2.072,5.041c3.006,3.525,8.409,3.442,12.996,2.784
				c1.627-0.233,3.25-0.505,4.866-0.815c0.686-1.219,1.948-2.083,3.446-2.192c1.032-0.075,2.005,0.219,2.791,0.77
				c5.248-1.394,10.352-3.28,15.149-5.814c4.911-2.594,9.494-5.89,13.401-9.827c0.342-1.427,1.398-2.592,2.795-3.07
				c1.441-1.729,2.756-3.563,3.921-5.496c1.876-3.114,3.39-6.685,2.935-10.293c-0.454-3.607-3.487-7.081-7.119-6.904
				c-2.947,0.143-4.876,3.537-6.754,5.813c-2.433,2.947-4.955,6.559-7.511,9.623c0.818,0.913,1.69,1.78,2.618,2.591
				C335.304,336.878,336.506,337.96,336.375,339.331z"/>
		</g>
		<path d="M336.004,269.79c-0.101,0.086-0.203,0.165-0.308,0.24c-0.011,0.007-0.021,0.014-0.03,0.021
			c-1.024,0.718-2.225,0.903-3.4,0.705c-1.549-0.297-3.03-1.3-4.045-2.554c-1.896-2.342-2.962-5.456-3.597-8.397
			c0-0.002-0.001-0.004-0.001-0.007c-0.035-0.165-0.069-0.329-0.102-0.493c0.514-0.624,0.881-1.375,1.048-2.192
			c0.139-0.674-0.909-0.881-1.047-0.208c-0.308,1.502-1.423,2.642-2.897,3.033c-0.663,0.176-0.303,1.181,0.358,1.006
			c0.601-0.159,1.151-0.431,1.636-0.786c0.035,0.161,0.072,0.324,0.111,0.487c0.006,0.026,0.012,0.054,0.019,0.081
			c0.163,0.686,0.349,1.379,0.563,2.069c0,0.001,0,0.002,0.001,0.003c0.218,0.7,0.465,1.396,0.747,2.075
			c0.002,0.004,0.003,0.008,0.005,0.012c0.09,0.217,0.184,0.432,0.282,0.645c0.009,0.021,0.019,0.042,0.028,0.063
			c0.095,0.205,0.192,0.408,0.294,0.609c0.013,0.024,0.026,0.049,0.039,0.074c0.078,0.152,0.159,0.303,0.242,0.452
			c0.04,0.072,0.079,0.144,0.12,0.215c0.075,0.132,0.152,0.262,0.231,0.391c0.537,0.879,1.156,1.696,1.877,2.414
			c0.348,0.345,0.732,0.658,1.144,0.933c0.143,0.103,0.286,0.203,0.435,0.298c0.752,0.427,1.583,0.718,2.429,0.847
			c0.036,0.006,0.071,0.013,0.106,0.018c0.039,0.005,0.076,0.01,0.115,0.015c1.317,0.169,2.658-0.077,3.805-0.882
			c0.016-0.012,0.031-0.023,0.049-0.035c0.117-0.084,0.233-0.173,0.347-0.27C337.125,270.229,336.527,269.343,336.004,269.79z"/>
		<g>
			<path d="M335.295,256.68c2.48,0.86,3.647-3.587,3.334-6.016C337.449,241.53,328.89,254.456,335.295,256.68z"/>
		</g>
		<path fill="none" d="M313.64,229.354c-8.46,1.393-3.022,10.687-3.022,10.687l11.492-2.209
			C322.109,237.832,322.101,227.962,313.64,229.354z"/>
		<g>
			<path fill="#2DABE3" d="M349.852,208.495c2.646,3.387,7.94,8.291,1.375,21.926c0.863-0.299,1.74-0.576,2.619-0.853
				C373.069,223.53,376.525,200.311,349.852,208.495z"/>
		</g>
		<path d="M349.852,208.495c-0.678-0.999-1.484-1.894-2.469-2.607c-1.783-1.293-3.983-1.871-6.156-2.239
			c-8.528-1.443-17.528,0.059-25.127,4.193c-6.445,3.507-12.178,9.538-12.657,16.859c-0.228,3.463,0.315,6.66,1.409,9.719
			c0.953,2.666,2.326,5.226,3.975,7.763c0.568-0.092,1.137-0.185,1.705-0.276c2.077-0.338,4.158-0.68,6.236-1.041
			c11.334-1.965,22.606-4.466,32.863-9.574c0.537-0.268,1.08-0.551,1.596-0.87C357.792,216.786,352.498,211.882,349.852,208.495z
			 M322.109,237.832l-11.492,2.209c0,0-5.438-9.294,3.022-10.687C322.101,227.962,322.109,237.832,322.109,237.832z"/>
		<circle cx="312.521" cy="362.943" r="1.804"/>
		<circle cx="347.642" cy="344.792" r="1.804"/>
	</g>
	<path fill="#E94E1B" d="M316.582,231.576c0,0-4.498-4.569-4.092-7.946c-0.594,5.269-0.146,5.808-0.146,5.808
		s-3.679-3.404-5.006-5.92c0.422,5.766,2.116,8.825,3.189,8.992c1.074,0.166-3.287,0.812-3.331,2.448
		c3.248-0.238,4.761-0.757,6.647-0.65c1.885,0.106,4.375,0.659,4.375,0.659L316.582,231.576z"/>
</g>
<g>
	<g>
		<path fill="#D80362" d="M289.547,318.914c-0.133-0.588-0.697-0.959-1.219-1.26c-7.412-4.281-15.712-6.989-24.21-7.997
			c0.132-0.185,0.262-0.369,0.388-0.556c1.013-1.496,1.896-3.164,1.99-4.969c0.204-3.935-3.633-7.224-7.559-7.541
			c-3.928-0.316-7.706,1.649-10.759,4.139c-3.054,2.489-5.619,5.536-8.704,7.986c-3.084,2.45-7.019,5.136-10.374,3.88
			c-4.004-2.95-5.215-8.65-4.03-13.48s4.332-8.933,7.711-12.582c3.38-3.648,7.097-7.039,9.838-11.188
			c2.416-3.656,3.936-7.721,4.728-11.97c2.073-0.216,4.146-0.515,6.072-1.291c2.304-0.929,4.412-2.65,5.207-5.003
			c0.485-1.438,0.45-2.982,0.25-4.498c0.28-0.173,0.561-0.346,0.841-0.52c0.527-0.326,1.072-0.67,1.408-1.19
			c0.525-0.814,0.429-1.872,0.236-2.821c-0.312-1.541-0.908-3.153-2.221-4.018c-0.734-0.482-1.732-0.581-2.553-0.313
			c-0.043-0.114-0.084-0.23-0.129-0.345c-0.67-1.739-1.521-3.518-3.049-4.585c-0.613-0.429-1.398-0.685-2.27-0.823
			c-1.197-5.999-2.793-11.969-5.893-17.26c-3.9-6.659-10.168-11.184-17.595-13.163c-2.842-0.758-5.813-1.192-8.83-1.327
			c0.073-2.495,0.465-4.981,1.181-7.372c-1.755,2.136-3.021,4.657-3.74,7.326c-11.691,0.135-23.76,4.712-31.672,12.9
			c-6.52,6.748-9.465,15.786-11.269,24.8c-0.437,0.066-0.861,0.177-1.257,0.369c-2.089,1.02-2.526,3.766-2.576,6.089
			c-0.005,0.184-0.004,0.367-0.006,0.551c-1.328,0.046-2.998,0.651-3.512,1.449c-0.711,1.105-0.823,2.48-0.889,3.793
			c-0.061,1.217-0.096,2.456,0.223,3.632c0.319,1.176,1.046,2.297,2.148,2.813c0.92,0.43,1.984,0.399,2.979,0.59
			c0.258,1.387,0.647,2.759,1.508,3.86c1.212,1.55,3.203,2.331,5.162,2.504c1.616,0.143,3.988-0.006,5.855-0.265
			c6.333,11.154,18.225,19.146,22.413,31.359c0.959,2.794,1.139,6.552-1.42,8.026c-1.44,0.83-3.243,0.581-4.859,0.196
			c-3.754-0.893-7.361-2.39-10.645-4.415c-2.138-1.319-4.152-2.867-6.462-3.854s-5.044-1.35-7.295-0.236
			c-1.914,0.947-3.226,2.852-3.865,4.889c-1.278,4.071-0.077,8.621,2.317,12.153c0.311,0.457,0.639,0.899,0.982,1.329
			c-1.02,0.186-2.034,0.442-3.019,0.711c-7.502,2.05-14.839,4.702-21.917,7.925c-0.459,0.209-0.94,0.44-1.218,0.862
			c-0.54,0.822-0.062,1.92,0.5,2.728c4.112,5.908,11.851,7.852,18.946,9.065c5.103,0.873,10.288,1.598,15.444,1.131
			c2.683-0.242,5.37-0.837,7.866-1.846c-0.268,0.415-0.512,0.842-0.682,1.306c-0.282,0.767-0.211,1.723,0.148,2.439
			c-0.871,1.613-1.627,3.306-2.328,4.973c-1.793,4.266-3.447,8.589-4.961,12.961c3.666-0.141,7.114-1.681,10.456-3.194
			c5.924-2.684,11.924-5.413,16.951-9.539c4.069-3.341,7.482-7.75,8.972-12.742c0.771,4.547,3.477,8.796,6.921,11.966
			c4.464,4.109,10.066,6.727,15.571,9.279c2.82,1.308,5.641,2.616,8.461,3.924c0.338,0.157,0.726,0.315,1.07,0.175
			c0.403-0.164,0.55-0.648,0.644-1.073c1.268-5.724,1.964-11.643,1.193-17.453c-0.487-3.678-1.603-7.317-3.403-10.548
			c-0.086-0.246-0.213-0.473-0.387-0.666c-0.077-0.13-0.156-0.258-0.236-0.387c1.523,0.225,3.104-0.022,4.507-0.661
			c4.747,1.441,9.802,1.876,14.718,1.203c7.713-1.056,15.028-4.821,20.371-10.484C289.2,320.248,289.701,319.601,289.547,318.914z
			 M242.818,220.088c3.531,5.309,5.272,11.512,6.538,17.746c-1.509-0.007-3.104,0.206-4.475,0.443
			c-0.145-0.415-0.294-0.829-0.446-1.239c-1.104-2.952-2.449-5.902-4.681-8.127c-1.797-1.791-4.078-3.018-6.408-4.021
			c-4.166-1.792-8.606-2.93-13.115-3.397c2.696-2.205,6-3.696,9.219-5.12c-2.011-0.82-4.216-1.16-6.381-0.985
			c0.895-1.045,1.712-2.156,2.444-3.321c-1.939,0.695-3.879,1.391-5.818,2.086c-0.513-2.004-0.799-4.063-0.868-6.131
			C228.246,208.381,237.343,211.857,242.818,220.088z M204.689,222.566l-0.066,0.02c-5.561,1.625-16.404,6.349-21.462,14.78
			c-1.258,2.098-2.249,4.346-2.97,6.68c-1.605-0.173-3.661-0.282-5.084-0.278c1.543-7.568,3.875-15.212,8.789-21.297
			c4.76-5.894,11.495-9.91,18.66-12.182c4.18-1.325,8.737-2.146,13.301-2.279c-0.34,1.992-0.379,4.034-0.088,6.035
			c-2.004-1.124-4.34-1.648-6.632-1.487c1.792,0.743,3.286,2.178,4.102,3.938c-2.825-0.804-5.859-0.861-8.713-0.164
			c2.751,1.354,5.329,3.056,7.667,5.04C209.664,221.557,207.15,221.952,204.689,222.566z"/>
	</g>
	<g>
		<g>
			<path fill="#95C11F" d="M192.343,336.653c-1.796,0.98-3.726,1.99-5.764,1.818c-2.038-0.171-4.055-2.09-3.52-4.063
				c0.506-1.87,2.806-2.577,4.743-2.563c1.937,0.015,3.999,0.409,5.723-0.475c-3.404-1.662-7.783-3.384-10.951-5.461
				c-3.106-2.037-6.135-4.317-8.447-7.203c-1.02,0.186-2.034,0.442-3.019,0.711c-7.502,2.05-14.839,4.702-21.917,7.925
				c-0.459,0.209-0.94,0.44-1.218,0.862c-0.54,0.822-0.062,1.92,0.5,2.728c4.112,5.908,11.851,7.852,18.946,9.065
				c5.103,0.873,10.288,1.598,15.444,1.131c2.683-0.242,5.37-0.837,7.866-1.846C191.287,338.418,191.957,337.607,192.343,336.653z"
				/>
		</g>
		<g>
			<path fill="#95C11F" d="M249.744,331.756c0.477,1.372-0.359,3.371-1.882,3.911c-2.046,0.726-4.288-0.36-6.005-1.69
				c0.274,1.323,0.55,2.69,0.285,4.016c-0.266,1.325-1.216,2.61-2.549,2.834c-2.014,0.338-3.629-1.84-3.861-3.869
				c-0.231-2.029,0.367-4.083,0.149-6.113c-5.331,1.453-10.761,2.545-16.239,3.268c-0.175,0.023-0.35,0.043-0.524,0.065
				c-5.291,0.675-10.625,1.011-15.959,0.994c0.437,4.071-0.95,8.305-3.711,11.328c-0.889,0.974-2.52,1.811-3.391,0.821
				c-0.463-0.525-0.422-1.31-0.354-2.006c0.17-1.748,0.34-3.495,0.51-5.242c-0.726,1.355-1.776,2.535-3.039,3.413
				c-0.431,0.3-0.913,0.572-1.438,0.585c-0.704,0.018-1.229-0.424-1.538-1.042c-0.871,1.613-1.627,3.306-2.328,4.973
				c-1.793,4.266-3.447,8.589-4.961,12.961c3.666-0.141,7.114-1.681,10.456-3.194c5.924-2.684,11.924-5.413,16.951-9.539
				c4.069-3.341,7.482-7.75,8.972-12.742c0.771,4.547,3.477,8.796,6.921,11.966c4.464,4.109,10.066,6.727,15.571,9.279
				c2.82,1.308,5.641,2.616,8.461,3.924c0.338,0.157,0.726,0.315,1.07,0.175c0.403-0.164,0.55-0.648,0.644-1.073
				c1.268-5.724,1.964-11.643,1.193-17.453C252.66,338.626,251.545,334.986,249.744,331.756z"/>
		</g>
		<g>
			<path fill="#95C11F" d="M289.547,318.914c-0.133-0.588-0.697-0.959-1.219-1.26c-7.412-4.281-15.712-6.989-24.21-7.997
				c-4.279,5.965-11.646,10.79-17.822,14.658c2.825-0.804,5.809-1.047,8.726-0.711c0.576,0.066,1.179,0.167,1.633,0.528
				c1.175,0.935,0.6,2.87-0.397,3.992c-0.728,0.817-1.634,1.465-2.629,1.917c4.747,1.441,9.802,1.876,14.718,1.203
				c7.713-1.056,15.028-4.821,20.371-10.484C289.2,320.248,289.701,319.601,289.547,318.914z"/>
		</g>
		<g>
			<path fill="#95C11F" d="M219.859,324.941c0.289-0.101,0.477-0.373,0.645-0.629c1.133-1.729,2.37-3.677,3.503-5.405l-0.072-0.144
				c-4.634-0.353-9.809,0.063-14.414,0.685c2.874,2.183,6.035,3.987,9.376,5.354C219.203,324.927,219.546,325.051,219.859,324.941z"
				/>
		</g>
	</g>
	<g>
		<path fill="#FFFFFF" d="M218.553,262.284c-1.096-0.007-2.191,0.033-3.279,0.117c-0.649,0.051-1.298,0.115-1.943,0.192
			c-2.946,0.35-5.858,0.955-8.752,1.645c2.584,2.535,6.084,4.159,9.651,4.489c1.345,0.125,2.697,0.063,4.016-0.199
			c0.932-0.186,1.847-0.471,2.727-0.868c2.151-0.971,3.979-2.509,5.423-4.371C223.855,262.6,221.205,262.299,218.553,262.284z"/>
	</g>
	<g>
		<path d="M218.553,262.284c-1.096-0.007-2.191,0.033-3.279,0.117c-0.649,0.051-1.298,0.115-1.943,0.192
			c0.093,1.716,0.479,4.465,0.899,6.134c1.345,0.125,2.697,0.063,4.016-0.199C218.777,267.121,218.861,264.084,218.553,262.284z"/>
	</g>
	<path fill="#DE487F" d="M230.845,263.905c-1.28-0.577-2.577-1.034-3.884-1.393c1.304-1.896,2.232-4.073,2.714-6.321
		c1.043-4.869,0.189-9.999-1.629-14.635c-0.845-2.152-1.93-4.271-3.623-5.846s-5.267-2.955-7.758-2.811
		c-6.576,0.026-11.333,3.842-14.463,9.625c-3.273,6.048-3.326,13.938,0.585,19.596c0.352,0.508,0.739,0.988,1.152,1.445
		c-1.205,0.287-2.402,0.586-3.588,0.886c-1.081,0.272-0.623,1.945,0.46,1.671c9.444-2.388,19.826-4.923,29.158-0.722
		C230.979,265.855,231.861,264.362,230.845,263.905z"/>
	<g>
		<ellipse cx="216.172" cy="283.817" rx="2.112" ry="1.336"/>
	</g>
	<g>
		<path fill="#95C11F" d="M184.592,219.074c-6.52,6.748-9.465,15.786-11.269,24.8c-0.437,0.066-0.861,0.177-1.257,0.369
			c-2.089,1.02-2.526,3.766-2.576,6.089c-0.005,0.184-0.004,0.367-0.007,0.551c-0.052,3.807,0.213,7.617,0.798,11.379
			c0.046,0.299,0.098,0.598,0.153,0.897c0.258,1.387,0.647,2.759,1.508,3.86c1.212,1.55,3.203,2.331,5.162,2.504
			c1.616,0.143,3.988-0.006,5.855-0.265c-0.65-1.146-1.242-2.323-1.761-3.543c-2.891-6.798-3.184-14.623-1.008-21.67
			c-1.605-0.173-3.661-0.282-5.084-0.278c1.543-7.568,3.875-15.212,8.789-21.297c4.76-5.894,11.495-9.91,18.66-12.182
			c4.18-1.325,8.737-2.146,13.301-2.279c0.105-0.618,0.243-1.23,0.406-1.836C204.572,206.309,192.504,210.886,184.592,219.074z"/>
		<path fill="#95C11F" d="M258.876,252.584c-0.046-0.35-0.102-0.697-0.161-1.042c-0.46-2.666-1.175-5.287-2.127-7.819
			c-0.043-0.114-0.084-0.23-0.129-0.345c-0.67-1.739-1.521-3.518-3.049-4.585c-0.613-0.429-1.398-0.685-2.27-0.823
			c-1.197-5.999-2.793-11.969-5.893-17.26c-3.9-6.659-10.168-11.184-17.595-13.163c-2.842-0.758-5.813-1.192-8.83-1.327
			c-0.018,0.601-0.016,1.201,0.004,1.802c9.419,0.359,18.515,3.836,23.991,12.066c3.531,5.309,5.272,11.512,6.538,17.746
			c-1.509-0.007-3.104,0.206-4.475,0.443c2.797,8.014,3.992,16.902,2.465,25.099c2.073-0.216,4.146-0.515,6.072-1.291
			c2.304-0.929,4.412-2.65,5.207-5.003C259.111,255.645,259.076,254.1,258.876,252.584z"/>
	</g>
	<path d="M169.467,250.883c-1.328,0.046-2.997,0.651-3.511,1.449c-0.711,1.105-0.823,2.48-0.889,3.793
		c-0.061,1.217-0.096,2.456,0.223,3.632c0.319,1.176,1.046,2.297,2.148,2.813c0.92,0.43,1.983,0.399,2.979,0.59
		c-0.056-0.3-0.107-0.599-0.153-0.897C169.68,258.5,169.415,254.689,169.467,250.883z"/>
	<path d="M258.859,252.584c0.28-0.173,0.561-0.346,0.84-0.52c0.527-0.326,1.073-0.67,1.409-1.19
		c0.525-0.814,0.429-1.872,0.236-2.821c-0.312-1.541-0.908-3.153-2.221-4.018c-0.734-0.482-1.732-0.581-2.553-0.313
		c0.952,2.532,1.667,5.153,2.128,7.819C258.758,251.887,258.813,252.234,258.859,252.584z"/>
	<path fill="#DE487F" d="M223.021,215.388c0.895-1.045,1.712-2.156,2.443-3.321c-1.939,0.695-3.878,1.391-5.817,2.086
		c-0.513-2.004-0.8-4.063-0.868-6.131c-0.02-0.601-0.021-1.201-0.004-1.802c0.072-2.495,0.465-4.981,1.181-7.372
		c-1.755,2.136-3.021,4.657-3.741,7.326c-0.162,0.605-0.301,1.218-0.406,1.836c-0.34,1.992-0.378,4.034-0.087,6.035
		c-2.004-1.124-4.34-1.648-6.632-1.487c1.791,0.743,3.286,2.178,4.102,3.938c-2.825-0.804-5.859-0.861-8.713-0.164
		c2.751,1.354,5.328,3.056,7.667,5.04c2.675-0.196,5.368-0.155,8.037,0.122c2.697-2.205,6.001-3.696,9.219-5.12
		C227.391,215.553,225.186,215.213,223.021,215.388z"/>
	<g>
		<path d="M271.489,238.347c-0.423,1.292-1.467,3.187-3.152,2.429c-0.161-0.072-0.422,0.053-0.341,0.262
			c0.844,2.182,1.232,4.473,1.151,6.803c-0.005,0.001-0.008,0.002-0.012,0.003c-0.934,0.41-2.051,1.299-2.251,2.368
			c-0.2,1.076,1.026,1.268,1.802,1.047c0.914-0.26,1.936-1.081,1.954-2.111c0.011-0.625-0.469-1.164-1.034-1.2
			c0.093-2.253-0.244-4.479-1.003-6.603c1.698,0.379,2.847-1.388,3.334-2.874C272.03,238.186,271.582,238.063,271.489,238.347z"/>
		<path d="M283.442,237.319c-0.021-0.02-0.044-0.033-0.067-0.043c-0.285-1.134-0.524-2.276-0.717-3.429
			c0.014-0.023,0.027-0.047,0.041-0.07c0.076-0.137,0.002-0.266-0.105-0.32c-0.07-0.44-0.133-0.883-0.188-1.326
			c0.026-0.037,0.053-0.074,0.077-0.112c0.163-0.251-0.238-0.484-0.4-0.234c-0.609,0.943-1.499,1.659-2.568,2.016
			c-0.52,0.173-1.03,0.143-1.551,0.255c-0.188,0.041-0.355,0.092-0.443,0.282c-0.104,0.222,0.036,0.474,0.111,0.678
			c0.195,0.533,0.387,1.068,0.549,1.613c0.021,0.073,0.041,0.147,0.062,0.222c-0.145,0.019-0.289,0.025-0.431,0.013
			c-0.298-0.026-0.296,0.438,0,0.464c0.182,0.016,0.366,0.007,0.549-0.021c0.177,0.724,0.291,1.454,0.314,2.196
			c-0.047,0.08-0.052,0.183,0.001,0.253c0,0.021,0.001,0.041,0.001,0.063c-0.013,0.004-0.025,0.008-0.039,0.015
			c-0.783,0.384-1.638,1.171-1.722,2.098c-0.063,0.698,0.545,1.158,1.21,1.072c1.443-0.188,2.731-3.029,1.012-3.568
			c-0.023-0.708-0.124-1.411-0.289-2.107c-0.011-0.043-0.022-0.086-0.032-0.128c0.673-0.212,1.317-0.637,1.836-1.031
			c0.644-0.49,1.188-1.074,1.64-1.732c0.176,0.979,0.384,1.953,0.625,2.919c-1.273-0.232-2.527,2.235-1.049,2.998
			C283.419,241.152,284.516,238.289,283.442,237.319z M280.623,235.598c-0.52,0.432-1.215,0.927-1.927,1.15
			c-0.101-0.355-0.211-0.707-0.33-1.056c-0.083-0.243-0.26-0.543-0.288-0.801c-0.163-0.179-0.146-0.308,0.053-0.387
			c0.113-0.001,0.227-0.007,0.34-0.02c1.389-0.12,2.644-0.804,3.539-1.839c0.051,0.37,0.106,0.739,0.166,1.107
			C281.762,234.449,281.25,235.077,280.623,235.598z"/>
		<path d="M276.969,222.383c0.156,0.253,0.559,0.021,0.4-0.234c-0.791-1.277-2.727-1.166-3.381-2.509
			c-0.113-0.232-0.522-0.067-0.424,0.179c0.724,1.808,1.303,3.665,1.854,5.532c0.049,0.164,0.111,0.354,0.171,0.559
			c-0.76,0.495-1.782,1.477-1.653,2.427c0.138,1.015,1.353,0.407,1.804,0.012c1.062-0.931,0.334-2.426,0.002-3.541
			c-0.404-1.36-0.831-2.714-1.321-4.046C275.272,221.299,276.409,221.479,276.969,222.383z"/>
	</g>
</g>
<g>
	<g>
		<path fill="#E94E1B" d="M147.228,297.947c-2.401-2.417-5.401-4.234-8.656-5.243l0.032-0.069c2.379-1.031,5.073-1.905,7.66-2.065
			c-1.337-2.041-3.519-3.409-5.816-4.231c-2.298-0.821-4.736-1.151-7.147-1.522c-0.364-0.056-0.804-0.181-0.882-0.54
			c-0.085-0.391,0.33-0.691,0.688-0.868c2.45-1.201,5.088-2.021,7.787-2.417c-1.051-0.921-2.488-1.245-3.871-1.451
			c-3.572-0.532-7.229-0.484-10.787,0.14c-1.214,0.213-2.55,0.473-3.609-0.156c1.981-1.382,4.005-2.705,6.063-3.968
			c-1.054-0.905-2.64-0.668-3.988-0.338c-3.438,0.842-6.812,1.954-10.075,3.324c1.042-2.723,3.581-4.534,5.987-6.182
			c-3.771-0.02-7.047,2.437-10.005,4.777c1.151-3.232,5.136-4.388,7.344-7.013c-0.305-0.349-0.84-0.346-1.302-0.302
			c-5.665,0.549-11.097,3.243-14.961,7.423c-2.685-2.896-6.37-5.504-10.275-6.082c2.725,1.585,4.91,4.078,6.127,6.986
			c-5.054-3.282-10.586-6.696-16.598-6.279c3.765,1.15,6.939,4.092,8.374,7.758c-3.013,0.009-5.645-1.917-8.499-2.88
			c-2.852-0.963-6.023-0.947-8.865,0.044c2.45,1.264,5.097,2.739,6.08,5.314c-2.581-0.259-5.213-0.011-7.701,0.725
			c2.098,0.317,4.12,1.116,5.867,2.318c-5.792,0.284-11.943,1.547-16.006,5.685c3.296-0.174,6.612,0.047,9.855,0.657
			c-3.901,2.392-7.991,4.983-10.068,9.061c1.744-0.963,3.644-1.644,5.602-2.01c-3.54,3.725-7.079,8.15-6.98,13.288
			c3.137-2.831,6.378-5.726,10.34-7.195c-1.8,3.639-3.647,7.519-3.274,11.562c1.753-2.372,3.693-4.606,5.797-6.675
			c0.392,3.533-1.618,7.241-0.323,10.552c0.494-2.276,1.553-4.429,3.057-6.208c0.495,3.293,1.002,6.625,2.289,9.696
			c0.502-2.482,1.867-4.782,3.808-6.411c-0.011,1.63,0.175,3.261,0.545,4.848c-1.099,1.081-2.146,2.213-3.136,3.394
			c-0.206,0.247-0.418,0.513-0.467,0.83c-0.055,0.36,0.111,0.714,0.274,1.04c1.643,3.282,3.499,6.458,5.553,9.5
			c-2.221-0.178-4.535-0.343-6.604,0.486c-2.068,0.828-3.792,2.974-3.365,5.16c1.564-1.659,4.015-2.43,6.248-1.966
			c-0.506,2.028-0.944,4.4,0.368,6.027c2.131-3.215,5.279-5.745,8.877-7.135c0.264-0.102,0.555-0.22,0.671-0.477
			c0.171-0.377-0.13-0.788-0.409-1.093c-1.846-2.022-3.605-4.123-5.274-6.294c-0.188-0.245-0.384-0.513-0.396-0.821
			c-0.014-0.324,0.176-0.617,0.357-0.885c1.617-2.385,3.234-4.769,4.852-7.152c1.187,1.449,2.372,2.897,3.558,4.347
			c-0.207-2.244,0.094-4.533,0.873-6.647c1.968,1.786,3.46,4.093,4.281,6.621c1.823-2.059,3.206-4.505,4.029-7.128
			c1.604,1.891,2.473,4.388,2.392,6.865c1.545-1.14,2.57-2.747,3.337-4.522c0.83,1.289,1.66,2.577,2.489,3.866
			c0.192,0.298,0.392,0.621,0.381,0.977c-0.012,0.342-0.217,0.643-0.406,0.927c-1.793,2.682-2.934,5.795-3.296,9
			c-0.035,0.312-0.06,0.643,0.08,0.924c0.169,0.341,0.538,0.526,0.878,0.697c2.796,1.4,5.321,3.338,7.397,5.676
			c0.365-2.188-0.082-4.502-1.237-6.396c2.195-0.245,4.335,0.673,6.354,1.571c-0.25-1.925-1.598-3.569-3.218-4.638
			c-1.62-1.069-3.504-1.651-5.36-2.22c2.287-2.262,4.574-4.523,6.861-6.785c0.382-0.379,0.792-0.82,0.782-1.358
			c-0.007-0.361-0.206-0.688-0.399-0.994c-0.325-0.517-0.649-1.031-0.975-1.547c0.634-2.134,0.968-4.356,0.988-6.582
			c1.746,2.717,2.688,5.944,2.678,9.174c2.327-3.031,3.625-6.838,3.635-10.66c2.735,0.759,3.896,3.921,4.652,6.657
			c1.952-2.772,1.273-6.54,0.513-9.845c2.439,1.472,4.696,3.245,6.703,5.267c0.247-3.845-0.838-7.763-3.026-10.933
			c3.601,0.447,6.582,2.873,9.697,4.732c0.193,0.115,0.413,0.233,0.633,0.184c0.33-0.076,0.461-0.473,0.497-0.81
			c0.211-1.931-0.752-3.79-1.847-5.394c-1.33-1.947-2.903-3.729-4.672-5.288c3.055-0.754,6.185,1.226,9.316,0.929
			c0.224-0.021,0.471-0.067,0.608-0.245C147.82,298.705,147.521,298.242,147.228,297.947z M74.928,301.581
			c-0.271-1.304-0.414-2.634-0.427-3.966c-0.016-1.794,0.23-3.66,1.211-5.161c0.062-0.094,0.13-0.19,0.232-0.234
			c0.334-0.146,0.585,0.323,0.656,0.68c0.778,3.914,2.374,7.661,4.642,10.945C79.086,303.235,76.974,302.485,74.928,301.581z
			 M96.182,296.751c-0.196,0.22-0.525,0.245-0.82,0.258c-0.931,0.041-1.861,0.108-2.788,0.2c-2.708,0.267-5.396,0.746-8.027,1.436
			c-0.826,0.217-1.647,0.454-2.462,0.711c-2.41-2.635-3.015-6.767-1.257-9.874c1.757-3.108,5.881-4.729,9.205-3.425
			c1.879,0.738,3.372,2.269,4.366,4.025c0.993,1.757,1.527,3.736,1.899,5.721C96.358,296.127,96.402,296.504,96.182,296.751z
			 M121.352,296.688c-0.084,0.284-0.239,0.578-0.516,0.684c-0.227,0.086-0.479,0.027-0.713-0.031
			c-0.934-0.231-1.873-0.436-2.817-0.615c-2.454-0.467-4.942-0.759-7.438-0.871c-1.258-0.058-2.518-0.071-3.776-0.037
			c0.101-3.115,0.229-6.928,2.479-9.086c1.296-1.243,3.149-1.859,4.94-1.72c1.791,0.141,3.5,1.015,4.723,2.331
			c1.657,1.784,2.379,4.225,2.956,6.591C121.41,294.837,121.617,295.795,121.352,296.688z M122.973,301.684
			c1.34-2.26,2.333-4.727,2.924-7.287c0.34-1.474,0.548-2.976,0.912-4.443c0.048-0.193,0.136-0.421,0.332-0.453
			c0.115-0.019,0.229,0.042,0.324,0.109c0.84,0.595,1.002,1.757,1.075,2.783c0.132,1.836,0.215,3.685,0.185,5.526
			C126.969,299.428,125.03,300.668,122.973,301.684z"/>
	</g>
	<path fill="#F9B233" d="M86.495,320.604c-0.408-0.079-0.772,0.253-1.046,0.565c-1.229,1.4-2.436,3.248-3.184,4.954
		c-0.619-1.319-1.097-2.705-1.427-4.124c-1.099,1.08-2.146,2.212-3.136,3.393c-0.206,0.247-0.418,0.513-0.467,0.83
		c-0.055,0.36,0.111,0.714,0.274,1.04c1.643,3.282,3.499,6.458,5.553,9.5c-2.221-0.178-4.535-0.343-6.604,0.486
		c-2.068,0.828-3.792,2.974-3.365,5.16c1.564-1.659,4.015-2.43,6.248-1.966c-0.506,2.028-0.944,4.4,0.368,6.027
		c2.131-3.215,5.279-5.745,8.877-7.135c0.264-0.102,0.555-0.22,0.671-0.477c0.171-0.377-0.13-0.788-0.409-1.093
		c-1.846-2.022-3.605-4.123-5.274-6.294c-0.188-0.245-0.384-0.513-0.396-0.821c-0.014-0.324,0.176-0.617,0.357-0.885
		c1.617-2.385,3.234-4.769,4.852-7.152c-0.408-0.499-0.817-0.999-1.226-1.498C86.98,320.894,86.776,320.658,86.495,320.604z"/>
	<path fill="#F9B233" d="M113.981,326.086c-0.294-3.385-1.753-6.657-4.073-9.139c-0.186-0.198-0.405-0.405-0.677-0.413
		c-0.474-0.014-0.726,0.542-0.852,0.998c-0.426,1.541-0.884,3.137-1.522,4.616c0.83,1.289,1.66,2.577,2.489,3.866
		c0.192,0.298,0.392,0.621,0.381,0.977c-0.012,0.342-0.217,0.643-0.406,0.927c-1.793,2.682-2.934,5.795-3.296,9
		c-0.035,0.312-0.06,0.643,0.08,0.924c0.169,0.341,0.538,0.526,0.878,0.697c2.796,1.4,5.321,3.338,7.397,5.676
		c0.365-2.188-0.082-4.502-1.237-6.396c2.195-0.245,4.335,0.673,6.354,1.571c-0.25-1.925-1.598-3.569-3.218-4.638
		c-1.62-1.069-3.504-1.651-5.36-2.22c2.287-2.262,4.574-4.523,6.861-6.785c0.382-0.379,0.792-0.82,0.782-1.358
		c-0.007-0.361-0.206-0.688-0.399-0.994c-0.325-0.517-0.649-1.031-0.975-1.547c-0.142,0.478-0.299,0.952-0.471,1.42
		C116.238,324.576,115.373,326.035,113.981,326.086z"/>
	<path d="M130.755,295.966c-0.645,0.697-1.323,1.346-2.03,1.953c-1.756,1.509-3.694,2.749-5.752,3.765
		c-4.57,2.256-9.729,3.406-14.791,3.934c-8.229,0.859-16.737,0.7-24.813-1.219c-0.713-0.169-1.422-0.354-2.127-0.554
		c-2.156-0.609-4.269-1.359-6.314-2.264c-1.504-0.663-2.973-1.408-4.395-2.242c-0.389-0.229-0.741,0.376-0.353,0.604
		c1.598,0.937,3.249,1.761,4.94,2.482c2.192,0.936,4.453,1.697,6.758,2.308c3.951,1.047,8.03,1.646,12.111,1.901
		c4.288,0.269,8.604,0.18,12.883-0.192c4.469-0.389,8.944-1.143,13.16-2.715c0.756-0.282,1.501-0.591,2.234-0.925
		c2.301-1.047,4.479-2.355,6.432-3.95c0.901-0.735,1.755-1.531,2.55-2.392C131.553,296.13,131.061,295.635,130.755,295.966z"/>
	<g>
		<path fill="#1B1B1B" d="M87.919,291.805c-1.359-0.242-2.872,0.235-3.703,1.339c-0.628,0.836-0.824,1.942-0.692,2.979
			c0.115,0.91,0.476,1.785,1.022,2.521c2.632-0.689,5.319-1.169,8.027-1.436c-0.242-1.12-0.648-2.208-1.306-3.143
			C90.472,292.938,89.279,292.048,87.919,291.805z"/>
	</g>
	<g>
		<path fill="#1B1B1B" d="M115.322,291.197c-0.434-0.306-0.927-0.547-1.455-0.604c-1.121-0.118-2.175,0.621-2.848,1.525
			c-0.793,1.066-1.191,2.408-1.152,3.734c2.496,0.112,4.983,0.404,7.438,0.871C117.823,294.718,117.026,292.399,115.322,291.197z"/>
	</g>
</g>
</svg>
